<svg width="100" height="32" viewBox="0 0 100 32" fill="none" xmlns="http://www.w3.org/2000/svg">
<g id="Group">
<path id="Vector" d="M83.2432 0H16.6487C7.45386 0 0 7.16344 0 16C0 24.8366 7.45386 32 16.6487 32H83.2432C92.438 32 99.8919 24.8366 99.8919 16C99.8919 7.16344 92.438 0 83.2432 0Z" fill="white"/>
<g id="Group_2">
<path id="Vector_2" fill-rule="evenodd" clip-rule="evenodd" d="M83.4162 27.5783C76.8603 27.5783 71.5273 22.423 71.5273 16.0848C71.5273 9.7467 76.8603 4.59131 83.4162 4.59131C89.972 4.59131 95.305 9.7467 95.305 16.0848C95.305 22.423 89.972 27.5783 83.4162 27.5783Z" fill="#7C47E1"/>
<path id="Vector_3" fill-rule="evenodd" clip-rule="evenodd" d="M83.416 23.9244C78.9369 23.9244 75.3076 20.4139 75.3076 16.0848C75.3076 11.7556 78.9388 8.24512 83.416 8.24512C87.8932 8.24512 91.5244 11.7556 91.5244 16.0848C91.5244 20.4139 87.8932 23.9244 83.416 23.9244Z" fill="#44CB86"/>
</g>
<path id="Vector_4" fill-rule="evenodd" clip-rule="evenodd" d="M16.8311 23.8791C12.3853 23.8791 8.76983 20.3818 8.76983 16.0847C8.76983 11.7876 12.3853 8.29035 16.8311 8.29035C21.2769 8.29035 24.8924 11.7876 24.8924 16.0847C24.8924 20.3818 21.275 23.8791 16.8311 23.8791ZM28.7082 16.0847C28.7082 9.75227 23.3811 4.60254 16.8311 4.60254C10.2812 4.60254 4.9541 9.75416 4.9541 16.0847C4.9541 22.4153 10.2812 27.5669 16.8311 27.5669C19.9402 27.5669 22.7746 26.405 24.8924 24.5073V25.7221C24.8924 26.7407 25.7463 27.5651 26.8003 27.5651C27.8543 27.5651 28.7082 26.7388 28.7082 25.7221V16.4526C28.7082 16.4167 28.7082 16.3809 28.7042 16.3488C28.7042 16.2602 28.7082 16.1715 28.7082 16.0847Z" fill="#7C47E1"/>
<path id="Vector_5" fill-rule="evenodd" clip-rule="evenodd" d="M43.1567 27.6481C36.5617 27.6481 31.1973 22.4607 31.1973 16.0848C31.1973 9.70894 36.5636 4.52148 43.1567 4.52148C46.1147 4.52148 48.9529 5.57407 51.1513 7.48305C51.9384 8.16779 52.0032 9.3411 51.2966 10.1032C50.588 10.8653 49.3749 10.9275 48.5859 10.2428C47.0942 8.94686 45.1647 8.23193 43.1567 8.23193C38.6776 8.23193 35.0346 11.7537 35.0346 16.0848C35.0346 20.4159 38.6776 23.9377 43.1567 23.9377C45.1667 23.9377 47.0961 23.2227 48.5879 21.9249C49.375 21.2402 50.588 21.3005 51.2985 22.0626C52.0071 22.8247 51.9443 23.9961 51.1572 24.6828C48.9588 26.5955 46.1186 27.6481 43.1587 27.6481H43.1567Z" fill="#7C47E1"/>
<path id="Vector_6" fill-rule="evenodd" clip-rule="evenodd" d="M71.6905 24.2621L61.3974 15.9131L71.6905 7.73769C72.5011 7.08879 72.613 5.92491 71.9417 5.14208C71.2684 4.35736 70.0672 4.24983 69.2566 4.90062L58.1058 13.84V6.31916C58.1058 5.30053 57.2519 4.47619 56.1979 4.47619C55.1439 4.47619 54.29 5.30242 54.29 6.31916V25.6806C54.29 26.6993 55.1439 27.5255 56.1979 27.5255C57.2519 27.5255 58.1058 26.6993 58.1058 25.6806V18.1598L69.2566 27.0992C69.6138 27.384 70.0436 27.5236 70.4735 27.5236C71.0211 27.5236 71.5648 27.2972 71.9417 26.8558C72.6149 26.0711 72.5011 24.9091 71.6905 24.2602V24.2621Z" fill="#7C47E1"/>
</g>
</svg>
