<svg width="159" height="36" viewBox="0 0 159 36" fill="none" xmlns="http://www.w3.org/2000/svg">
<path d="M68.6249 0.582458L66.0781 12.6338H68.2655L68.8421 9.55142H71.8434L72.4238 12.6338H74.6305L72.0474 0.582458H68.6249ZM69.1791 7.77061L70.2387 2.11284H70.4459L71.511 7.77061H69.1775H69.1791Z" fill="#CB2035"/>
<path d="M68.6249 0.582458L66.0781 12.6338H68.2655L68.8421 9.55142H71.8434L72.4238 12.6338H74.6305L72.0474 0.582458H68.6249ZM69.1791 7.77061L70.2387 2.11284H70.4459L71.511 7.77061H69.1775H69.1791Z" fill="#CB2035"/>
<path d="M79.4403 0.582321H75.8076V12.6337H79.4403C79.9919 12.6791 80.547 12.6104 81.071 12.432C81.5949 12.2535 82.0764 11.9691 82.4857 11.5964C83.1936 10.7711 83.5494 9.70095 83.4765 8.61605V4.59687C83.5144 4.05738 83.4456 3.51572 83.274 3.00286C83.1023 2.49 82.8313 2.016 82.4763 1.60799C82.0663 1.24003 81.5857 0.959343 81.0638 0.783016C80.5419 0.606689 79.9895 0.538403 79.4403 0.582321ZM81.2598 8.606C81.3007 9.17789 81.1335 9.7453 80.789 10.2036C80.6014 10.3949 80.374 10.5426 80.1228 10.6361C79.8717 10.7296 79.603 10.7667 79.3359 10.7447H77.9965V2.43887H79.3359C79.6035 2.41709 79.8725 2.45479 80.1238 2.54927C80.375 2.64375 80.6022 2.79266 80.789 2.98533C81.135 3.45266 81.302 4.02854 81.2598 4.60846V8.606Z" fill="#CB2035"/>
<path d="M87.3242 0.582336H85.0889V12.6337H87.3242V0.582336Z" fill="#CB2035"/>
<path d="M88.6621 2.48372H91.2351V12.6306H93.4527V2.48372H96.0172V0.582336H88.6629L88.6621 2.48372Z" fill="#CB2035"/>
<path d="M104.918 0.582336H102.655L101.418 4.53428L100.834 6.60802H100.711L100.136 4.53428L98.8626 0.582336H96.6211L99.7035 9.05895V12.6337H101.845V9.08368L104.918 0.582336Z" fill="#CB2035"/>
<path d="M106.616 0.582336L104.069 12.6337H106.257L106.833 9.5513H109.833L110.413 12.6337H112.62L110.036 0.582336H106.614H106.616ZM107.17 7.77049L108.231 2.11272H108.438L109.503 7.77049H107.173H107.17Z" fill="#CB2035"/>
<path d="M121.807 6.18367V6.09014C122.093 6.07601 122.372 6.00541 122.631 5.88243C122.889 5.75945 123.12 5.58652 123.311 5.37364C123.639 4.90588 123.8 4.34112 123.768 3.77061V3.46995C123.794 3.07553 123.736 2.68 123.597 2.31001C123.458 1.94001 123.241 1.60416 122.961 1.32509C122.2 0.762031 121.258 0.498741 120.315 0.585408H116.374V12.6368H120.485C120.957 12.6804 121.432 12.6304 121.885 12.4895C122.337 12.3486 122.757 12.1197 123.12 11.8159C123.411 11.485 123.633 11.0994 123.773 10.6816C123.913 10.2638 123.969 9.82225 123.936 9.38278V8.91903C123.973 8.26201 123.804 7.6099 123.455 7.05243C123.252 6.8039 123.002 6.59894 122.718 6.44989C122.434 6.30085 122.123 6.21081 121.804 6.18521L121.807 6.18367ZM120.157 2.38399C120.361 2.36178 120.566 2.38401 120.76 2.44914C120.954 2.51427 121.131 2.62074 121.28 2.76118C121.514 3.07879 121.628 3.4696 121.6 3.86336V4.14625C121.625 4.53877 121.507 4.92716 121.269 5.23993C121.12 5.3827 120.942 5.49125 120.746 5.55799C120.551 5.62474 120.343 5.64808 120.138 5.62639H118.526V2.38013H120.157V2.38399ZM121.741 9.29621C121.768 9.70065 121.647 10.1011 121.401 10.4231C121.246 10.5682 121.061 10.6782 120.859 10.7457C120.657 10.8131 120.443 10.8365 120.232 10.8142H118.524V7.33609H120.164C120.385 7.31151 120.608 7.33282 120.819 7.39867C121.031 7.46451 121.227 7.57348 121.394 7.71869C121.646 8.04157 121.768 8.44665 121.737 8.85488V9.29699L121.741 9.29621Z" fill="#CB2035"/>
<path d="M127.615 0.582336H125.38V12.6337H127.615V0.582336Z" fill="#CB2035"/>
<path d="M136.067 8.28212C135.934 7.88553 135.68 7.54072 135.341 7.29665C135.079 7.12578 134.786 7.0074 134.479 6.94806V6.85222C134.782 6.84078 135.08 6.76611 135.353 6.63302C135.625 6.49992 135.867 6.31132 136.063 6.0793C136.414 5.56428 136.586 4.94806 136.553 4.32555V3.70258C136.579 3.28195 136.519 2.86036 136.377 2.46382C136.234 2.06728 136.011 1.7042 135.723 1.39696C134.977 0.787987 134.022 0.495284 133.063 0.581526H129.17V12.6329H131.348V8.20174H132.677C132.988 8.18495 133.298 8.26079 133.566 8.4197C133.787 8.56798 133.956 8.78066 134.052 9.02877C134.167 9.32888 134.233 9.64531 134.25 9.96632L134.481 12.6352H136.706L136.397 9.82487C136.339 9.30085 136.227 8.78428 136.062 8.28367L136.067 8.28212ZM132.82 6.44721H131.339V2.41257H132.829C133.046 2.38962 133.265 2.41586 133.47 2.48933C133.675 2.56281 133.86 2.68162 134.013 2.8369C134.267 3.20707 134.388 3.65267 134.356 4.10063V4.7692C134.389 5.21339 134.265 5.65498 134.008 6.01824C133.853 6.17235 133.667 6.2906 133.462 6.36461C133.257 6.43861 133.038 6.46732 132.82 6.44721Z" fill="#CB2035"/>
<path d="M140.335 0.582336H138.11V12.6337H144.097V10.7192H140.335V0.582336Z" fill="#CB2035"/>
<path d="M151.307 12.6337H153.514L150.93 0.582336H147.508L144.961 12.6337H147.148L147.726 9.5513H150.727L151.307 12.6337ZM148.061 7.76431L149.121 2.10653H149.328L150.393 7.76431H148.062H148.061Z" fill="#CB2035"/>
<path d="M72.5375 31.8361C72.0834 31.8767 71.626 31.8117 71.201 31.6463C70.7761 31.4808 70.3952 31.2193 70.0881 30.8823C69.5372 30.1116 69.2674 29.1753 69.3238 28.2296V23.2057C69.2652 22.2475 69.5241 21.2967 70.0603 20.5004C70.3472 20.1649 70.7101 19.9026 71.1188 19.7355C71.5275 19.5684 71.9702 19.5013 72.41 19.5397C73.0188 19.5274 73.6249 19.6245 74.1993 19.8264C74.6859 20.0076 75.1536 20.2356 75.596 20.5074L75.3425 17.4157C75.0406 17.2223 74.7212 17.0574 74.3887 16.9234C73.9915 16.7639 73.5804 16.6417 73.1605 16.5585C72.6639 16.4609 72.1587 16.4141 71.6526 16.4186C69.6775 16.4186 68.204 16.9854 67.2322 18.1191C66.2604 19.2527 65.7737 20.8853 65.7722 23.0171V28.3788C65.6552 30.1437 66.1703 31.8926 67.2253 33.3123C68.1935 34.4588 69.6788 35.0316 71.6812 35.0305C72.2016 35.0342 72.7211 34.985 73.2316 34.8837C73.6681 34.7966 74.0958 34.6698 74.5093 34.505C74.8399 34.3747 75.157 34.2124 75.4561 34.0203L75.7088 30.8514C75.2763 31.1428 74.8089 31.3789 74.3176 31.554C73.7443 31.7504 73.1411 31.8451 72.5352 31.8337L72.5375 31.8361Z" fill="#CB2035"/>
<path d="M82.1785 16.7641L78.1934 34.6958H81.6599L82.548 30.1619H87.1971L88.089 34.6958H91.5417L87.5565 16.7641H82.18H82.1785ZM83.0921 27.3871L84.706 19.1493H85.0298L86.6529 27.3871H83.0975H83.0921Z" fill="#CB2035"/>
<path d="M100.492 16.7641H94.6543V34.6958H98.0783V29.3194H100.506C102.433 29.3194 103.841 28.8634 104.73 27.9513C105.204 27.4061 105.565 26.7728 105.794 26.0878C106.022 25.4029 106.114 24.6795 106.063 23.9592V22.1042C106.157 20.6601 105.675 19.2373 104.723 18.1476C103.83 17.2258 102.419 16.7646 100.492 16.7641ZM102.612 23.875C102.663 24.5564 102.475 25.2343 102.08 25.7918C101.851 26.0233 101.574 26.2008 101.268 26.3114C100.962 26.422 100.636 26.4629 100.312 26.431H98.0659V19.6394H100.312C100.637 19.6056 100.965 19.6448 101.272 19.7541C101.58 19.8633 101.859 20.0399 102.09 20.2708C102.482 20.832 102.668 21.5119 102.615 22.1946V23.8796L102.612 23.875Z" fill="#CB2035"/>
<path d="M112.899 16.7641H109.404V34.6997H112.899V16.7641Z" fill="#CB2035"/>
<path d="M116 19.753H119.987V34.6997H123.48V19.753H127.467V16.7641H116V19.753Z" fill="#CB2035"/>
<path d="M131.901 16.7641L127.916 34.6958H131.383L132.271 30.1619H136.92L137.812 34.6958H141.264L137.279 16.7641H131.903H131.901ZM132.812 27.3871L134.426 19.1493H134.75L136.373 27.3871H132.818H132.812Z" fill="#CB2035"/>
<path d="M147.703 31.6969V16.7641H144.21V34.6958H153.569V31.6969H147.703Z" fill="#CB2035"/>
<path d="M61.2221 35.8614H4.63672V0.136292H61.2221V35.8637V35.8614Z" fill="white"/>
<path d="M54.072 0.775452L44.9121 15.7005L53.1105 25.917L60.58 22.4713V0.776997H54.0727L54.072 0.775452Z" fill="#AF2026"/>
<path d="M53.1104 25.9147L60.5783 35.2214V22.4683L53.1104 25.9147Z" fill="#F15C2E"/>
<path d="M32.9316 0.775452L44.9065 15.7005L54.0718 0.775452H32.9316Z" fill="#F15C2E"/>
<path d="M41.6247 21.0592L44.9112 15.7005L32.9355 0.775452V18.6508H33.0167C36.0526 18.6471 39.0316 19.4805 41.6247 21.0592Z" fill="#FBD440"/>
<path d="M33.0128 18.6485H32.9316V35.223L41.6239 21.0585C39.0298 19.4784 36.0502 18.6445 33.0128 18.6485Z" fill="#AF2026"/>
<path d="M48.0503 28.2489L53.1098 25.9163L44.9091 15.6967L41.6211 21.0554C44.4266 22.764 46.6632 25.2652 48.0487 28.2435" fill="#F15C2E"/>
<path d="M41.6239 21.0584L32.9316 35.223L48.0499 28.2435C46.6647 25.2657 44.429 22.7646 41.6247 21.0554" fill="#D91F27"/>
<path d="M53.1113 25.9163L48.0518 28.2489C49.067 30.4335 49.5912 32.814 49.5875 35.223H60.5785L53.1113 25.9163Z" fill="#FBD440"/>
<path d="M32.9316 35.2206H49.5857C49.5874 32.8121 49.0638 30.4321 48.0515 28.2466L32.9316 35.2206Z" fill="#AF2026"/>
<path d="M5.28613 0.774738V22.469L12.7525 25.9147L20.9532 15.6983L11.791 0.773193H5.28613V0.774738Z" fill="#AF2026"/>
<path d="M5.28613 35.2245L12.7525 25.9147L5.28613 22.4691V35.2261V35.2245Z" fill="#F15C2E"/>
<path d="M11.7939 0.775452L20.9538 15.7005L32.934 0.775452H11.7939Z" fill="#F15C2E"/>
<path d="M24.2411 21.0592L20.9531 15.7005L32.928 0.775452V18.6508H32.8507C29.8132 18.6461 26.8334 19.4801 24.2396 21.0607" fill="#D91F27"/>
<path d="M32.8523 18.6485H32.9296V35.223L24.2412 21.0585C26.8354 19.4787 29.8149 18.6448 32.8523 18.6485Z" fill="#F15C2E"/>
<path d="M17.8164 28.2489L12.7568 25.9163L20.9552 15.6967L24.2432 21.0554C21.4377 22.7639 19.2011 25.2652 17.8156 28.2435" fill="#F15C2E"/>
<path d="M24.2412 21.0584L32.9304 35.223L17.8105 28.2435C19.1972 25.2659 21.4335 22.765 24.2381 21.0554" fill="#D91F27"/>
<path d="M12.7541 25.9163L17.8136 28.2489C16.798 30.4333 16.2742 32.814 16.2793 35.223H5.28613L12.7541 25.9163Z" fill="#FBD440"/>
<path d="M32.9315 35.2206H16.2774C16.274 32.8119 16.7977 30.4315 17.8116 28.2466L32.9315 35.2206Z" fill="#AF2026"/>
</svg>
