<svg xmlns="http://www.w3.org/2000/svg" width="1266" height="323"><clipPath id="a"><path d="M-1165.23-3932.32h3456.69V601.1h-3456.69z"/></clipPath><g clip-path="url(#a)"><g fill-rule="evenodd"><path fill="#176fc1" d="M.9 322.1H321V-.1H.9zM329.2.6h936.7v321.5H329.2z"/><path fill="#fff" d="m1204 211.7-8.1 43.8h-13.5l.9-4.9h-.2l-.5.8-.6.7-.6.7-.7.5-.6.6-.7.4-.8.5-.4.2-.3.2-.7.3-.9.4-.8.3-.8.1-.7.3-.7.1-.9.1-.7.1h-.3l-.3.1h-.6l-1-.1-1-.1-1.1-.1-.9-.1-.9-.3-.8-.3-.8-.4-.9-.3-.7-.6-.8-.4-.7-.6-.6-.6-.7-.8-.6-.7-.6-.7-.4-.9-.6-.9-.4-.9-.3-.8-.4-1-.4-1-.2-.9-.2-1-.2-1.1-.2-1v-1.1l-.1-1v-1.1l.1-1.1.1-1.1.2-1.2.2-1.1.1-1.2.4-1.1.3-1.2.3-1.1.4-1.1.5-1.1.4-1 .5-1.1.5-.9.6-1 .7-1 .6-1 .7-.9.8-.9.6-1 1-.8.7-.8.9-.8.8-.8.9-.7.8-.5 1-.7.8-.5 1-.4 1-.4 1-.4.9-.3 1-.2 1-.2 1.1-.2h3.5l.7.1.7.1.7.2.7.1.7.3.6.2.6.4.6.3.7.4.6.4.5.4.5.5.5.5.4.5.4.7.4.6.8-4.4zm-16.9 19.1-.1-.9-.2-.8-.2-.9-.3-.8-.4-.7-.2-.3-.3-.4-.2-.3-.4-.3-.2-.3-.3-.2-.4-.3-.4-.1-.3-.2-.5-.2-.3-.1-.5-.1h-.4l-.5-.1h-2l-.8.1h-.1l-.5.1-.4.2-.6.2-.4.1-.4.3-.4.2-.5.3-.4.2-.7.6-.7.7-.7.8-.6.6-.6.9-.4.9-.4.8-.5.9-.1 1-.3 1-.1 1-.1 1v1l.1.9.1.8.3.9.3.7.4.8.3.3.2.3.2.3.4.3.3.3.3.2.3.2.4.2.4.1.4.2h.4l.4.2.4.1h2.5l.8-.1h.1l.5-.2h.5l.4-.2.5-.1.4-.2.4-.2.5-.2.3-.3.8-.6.7-.6.7-.8.6-.7.5-.9.5-.8.4-1 .3-.9.3-1 .2-1 .2-1 .1-1zm-31.9-31.1-.6.7-.7.7-.6.6-.6.5-.8.5-.8.3-.7.4-.7.1-.7.1h-1.6l-.7-.1-.6-.1-.7-.4-.5-.3-.7-.5-.4-.5-.5-.6-.4-.7-.3-.7-.3-.7-.1-.8-.1-.7v-1.7000000000000002l.1-.9.2-.9.3-.8.3-.8.5-.8.3-.8.6-.8.5-.6.7-.7.7-.6.7-.5.7-.4.7-.4.7-.3.8-.2.8-.1h1.5l.7.1.6.2.7.4.6.3.5.5.4.5.6.6.4.6.3.7.3.8.1.7.1.8v.9l-.1.8v.8l-.3.9-.2.9-.3.8-.4.7-.5.8zm-23.3 55.8 8-43.8h13.7l-8.2 43.8zm4.7-70.9-13.1 70.9H1110l.9-4.9h-.2l-.6.7-.6.8-.6.6-.7.6-.6.5-.7.5-.7.4-.5.3-.2.2-.9.3-.7.4-.8.2-.8.2-.8.2-.8.2-.7.1-.8.1h-.3l-.2.1h-.7l-.9-.1-1.1-.1-1-.1-.9-.2-.9-.3-.9-.2-.8-.4-.8-.4-.8-.5-.7-.4-.7-.7-.7-.6-.6-.7-.6-.7-.5-.8-.6-.8-.6-.9-.4-.9-.4-.9-.3-.9-.3-1.1-.2-.9-.3-1-.2-1-.1-1.1v-1l-.1-1.1v-1l.1-1.1v-1.2l.2-1.2.2-1 .2-1.3.3-1 .4-1.2.2-1.1.5-1.1.4-1.1.5-1 .5-1.1.5-1 .6-.9.6-1 .6-1 .8-.9.6-1 .9-.9.7-.8.9-.9.8-.8.9-.7.8-.7.9-.6.9-.6.9-.5 1-.4.9-.4 1-.4 1-.3 1-.3.9-.1 1.1-.2 1.1-.1h2.1l.4.1.6.1 1.4.2.7.2.7.3.7.2.5.4.7.3.6.4.6.3 1.1.9.5.6.4.5.4.6.3.6 5.8-31.4zm-21.9 46.2-.3-1.8-.2-.8-.3-.8-.5-.7-.1-.3-.3-.4-.3-.3-.2-.3-.4-.3-.2-.2-.4-.3-.3-.1-.4-.2-.4-.2-.4-.1-.5-.1-.4-.1-.5-.1h-1l-1 .1-.8.1h-.2l-.4.1-.5.2-.4.2-.5.1-.4.2-.4.2-.4.3-.4.3-.8.5-.8.8-.6.8-.6.6-.6.9-.4.9-.4.8-.4.9-.3 1-.2 1-.2 1-.1 1v.9l.1.9.2.9.2.8.4.8.4.7.3.3.1.3.3.4.4.2.2.3.4.3.3.1.4.2.3.2.4.2h.4l.4.1.6.1.4.1h2l.8-.1.1-.1.6-.1h.4l.4-.3.4-.1.5-.2.5-.1.3-.3.4-.3.7-.6.8-.6.7-.7.5-.8.6-.8.5-.9.4-.9.3-.9.3-1 .3-1 .1-1 .1-1zm-36.8-10.5v.8l.1.8v1.8l-.1.9-.1 1.9-.1 1-.2 1-5 27H1059l3.9-21.4v-.2l.1-.2v-.3l.1-.2.1-.4v-.4l.1-.4.1-.5.1-.4v-.4l.1-.9.1-.6v-1.9l-.1-.6-.1-.6-.2-.6-.1-.6-.1-.2-.1-.3-.2-.2-.2-.2-.2-.3-.2-.2-.3-.1-.2-.1-.6-.3-.6-.2-.8-.1h-1.3l-.9.1-.6.1-.3.1-.5.1-.4.2-.3.2-.4.1-.3.3-.4.2-.4.3-.2.3-.4.3-.3.3-.2.4-.5.8-.4.8-.4.8-.4.9-.4.9-.3.9-.2 1-.1 1-4.2 22.7h-13.6l8.1-43.8h13.5l-1.1 5.6h.2l.8-1 .8-.8.8-.8.7-.7.8-.7.9-.6.7-.5.8-.4.8-.3.9-.3.8-.3.9-.2.9-.2.9-.1 1-.1h1.9l.9.1.9.1.8.1.7.2.8.2.7.3.7.2.5.4.6.3.5.5 1 .9.4.6.3.5.3.6.3.7.3.6.2.7.2.7.2.8.1.7zm-42.9-29.2-11.8 64.4h-14.6l12-64.4zm-44.3-6 .5.3-2.4 13.2h-.3l-.3-.2-.3-.1-.3-.1-.4-.2-.4-.2-.4-.2h-.4l-.4-.1-.4-.1-.5-.1h-.4l-.6.1-.7.1-.4.1-.6.2-.5.2-.4.4-.4.2-.4.5-.2.5-.4.6-.3.6-.3.6-.2.7-.3.9-.1.8-.2.9-1.3 7h9.4l-2.4 12.8h-9.3l-5.8 31h-13.6l5.8-31h-4.7l2.4-12.8h4.7l1-5.6.3-1.7.4-1.7.4-1.5.4-1.6.2-.7.3-.7.2-.7.4-.8.3-.7.5-.7.4-.7.5-.8.2-.3.3-.4.3-.4.3-.4.3-.3.3-.4.3-.4.4-.3.8-.9.8-.8.9-.7.8-.7.9-.6.9-.6.9-.5.9-.5.9-.4 1.1-.3.8-.3 1-.4 1-.1.9-.1 1-.1h2.5l.6.1.8.2.6.2.7.2zm-38.1 42.3v2.4000000000000004l-.2 1.3-.1 1.2-.6 2.8-.3 1.4-.4 1.2-.4 1.3-.4 1.2-.6 1.2-.5 1.2-.6 1-.7 1.1-.7 1-.7.9-.8 1-.8.9-.9.9-1.9 1.6-1 .7-1.1.7-1 .7-2.1 1.1-.9.5-1.2.4-1 .4-1.1.4-1.1.3-1.1.2-1.1.2-.2.1-.9.1-1.1.1H926l-1.1.1-1.2-.1h-1.1l-1.1-.1-1.1-.2-1-.2-.9-.2-1-.3-.9-.4-.9-.4-1-.4-.8-.5-.9-.5-.8-.6-.8-.7-.8-.7-.7-.7-.7-.8-.6-.8-.6-.8-.5-1-.5-.9-.3-.9-.4-1-.2-1.1-.3-1.1v-1.2l-.2-1.1v-2.5l.2-1.3.2-1.3.2-1.4.3-1.5.3-1.2.3-1.3.5-1.3.4-1.1.6-1.3.4-1.1 1.4-2.2.7-1 .7-1 .8-1 .8-.8 1-.9.9-.8.9-.9 1-.6 1-.8 1.1-.6 1-.6 1.1-.5.9-.5 2.2-.9 1.1-.4 1.1-.2 1.1-.3 1.1-.2.2-.1.9-.1 1.1-.1 1.1-.1h1.2v-.1l1.2.1h1.1l1.1.1 1 .2 1 .2 1 .3 1 .3.9.4 1 .4.9.5 1.7 1 .8.6.7.6.8.8.7.6.7.9.6.8.7.9.4.8.5 1 .4 1 .3 1 .2 1.1.2 1.1.2 1.1zm-14.5 3.5-.1-.9-.2-.9-.3-.8-.3-.8-.3-.7-.3-.3-.2-.4-.3-.3-.2-.3-.4-.3-.7-.5-.3-.1-.4-.2-.4-.2-.4-.1-.4-.1-.4-.1H930l-.9.1h-.1l-.5.1-.4.2-.5.2-.4.1-.4.2-.5.3-.4.3-.4.2-.7.5-.8.8-.6.8-.7.6-.5.9-.5.9-.4.8-.3.9-.3 1-.2 1-.2 1-.1 1v1l.2.8.1.9.2.8.3.8.5.7.5.7.2.3.3.2.3.3.3.3.3.1.4.3.8.3h.4l.5.1.4.1.4.1h2l.8-.1.2-.1.5-.1h.4l.5-.3h.4l.5-.3.4-.1.4-.3.3-.3.9-.5.7-.7 1.2-1.5.6-.8.4-.9.8-1.8.3-1 .2-1 .2-1 .1-1zm-52.3-19.4L863 231.7l15.9 23.6h-19l-11.4-17.8-3.4 17.8h-13.4l13-70.9h13.6l-7.9 43 16.9-15.9zm-57.5 9.5.1.8v.9l-.1.9v.9l-.1.9-.1 1-.2 1-.1.9-5 27h-13.5l3.9-21.3.1-.2v-.5l.1-.2.1-.5v-.3l.1-.5v-.3l.2-.5v-.4l.1-.4v-.5l.1-.6.1-.7v-.6l-.1-.6-.1-.6-.1-.6-.2-.6-.1-.6-.1-.3-.1-.2-.2-.3-.2-.2-.1-.2-.3-.2-.2-.1-.2-.2-.6-.3-.7-.1-.7-.1h-2.4l-.4.1-.4.1-.5.2-.3.1-.4.2-.5.3-.3.1-.3.3-.3.3-.4.2-.5.7-.3.4-.5.8-.4.8-.4.8-.4.9-.4.9-.2.9-.3 1-.2 1-4.1 22.6h-13.5l8-43.8h13.6l-1.2 5.6h.3l.7-.9.8-.8.8-.9.7-.7.8-.6.8-.6.8-.5.8-.4 1.7-.7.9-.3.9-.1.8-.2 1-.2.9-.1h1.9l.9.1.9.1.8.2.8.2.7.2.7.2.7.3.6.4.6.3.5.4.4.5.5.5.4.5.4.6.3.6.3.6.2.7.2.7.2.7.2.7.1.8.1.8zm-60.1-9.5h13.6l-8.1 43.8h-13.5l.9-4.9h-.2l-.6.8-.6.7-.6.6-.6.6-.7.6-.6.5-.8.5-.5.1-.3.2-.8.4-.7.3-.8.3-.8.2-.8.2-.7.1-.8.1-.8.1h-.2l-.4.1h-.5l-1.1-.1-1-.1-1-.1-.9-.2-1-.2-.8-.3-.8-.4-.8-.3-.8-.5-.7-.5-.7-.7-.7-.6-.6-.6-1.2-1.5-.4-.9-.6-.9-.4-.9-.5-.8-.3-1-.3-1-.2-.9-.3-1-.1-1.1-.1-1-.1-1-.1-1.1V238l.1-1.1.1-1.1.1-1.2.3-1.1.1-1.2.3-1.1.3-1.2.4-1.1.4-1.1.4-1 .5-1.1.5-1 .5-1 .6-1 .6-1 .6-1 .8-.9.7-1 .7-.8.8-.9.9-.8.8-.8.9-.8.9-.6.8-.6.9-.7.9-.5 1-.4.9-.4 1-.4 1-.3 1-.2 1-.2 1-.2 1.1-.1h2.1l.4.1.6.1.8.1.6.2.7.2.7.2.6.3.7.3.6.3.7.4.5.3.6.5.5.5.5.5.4.5.4.6.4.6zm-3.4 19.2-.1-1-.2-.9-.2-.8-.3-.7-.5-.8-.2-.3-.2-.4-.2-.3-.4-.3-.2-.2-.4-.3-.3-.3-.3-.1-.4-.2-.4-.2-.4-.1-.5-.1h-.4l-.5-.1h-2l-.8.2h-.6l-.5.2-.4.2-.5.2-.4.2-.4.2-.4.2-.4.3-.8.6-.7.7-.7.7-.6.8-.5.9-.5.8-.4.9-.4.9-.3.9-.2 1-.1 1.1-.2.9v1l.2.9.1.8.3.8.3.8.4.7.2.4.2.3.4.3.3.3.3.2.3.3.3.1.4.2.4.2.4.2.3.1.5.1.4.1 1 .1h.5l1-.1.8-.1h.2l.4-.1.5-.1.4-.2.5-.2.4-.2.5-.1.3-.3.4-.2.8-.6.7-.7.7-.8.6-.7.5-.8.5-.8.4-1 .3-.9.3-1 .3-1 .1-1 .1-1zm-36.2-29.9.1.8v1.9l-.1 1.1-.1 1-.1 1.1-.2 1.1-.2 1.1-.3 1.1-.2.9-.4 1-.4 1-.4.9-.4.9-.5.9-.5.9-.6.7-.6.7-.8.8-.7.6-.8.6-.8.6-1 .5v.1l.7.1.7.1.7.2.6.2.5.3.6.3.5.2.5.4.5.3.5.4.4.4.4.5.3.4.3.5.3.5.2.5.5 1.1.3 1.2.2.6v.7l.1.7.1.7v1.4l-.1 1.5-.1 1.6-.3 1.6-.3 1.2-.2 1.2-.3 1.2-.5 1.1-.4 1.1-.4.9-.5 1-.6.9-.5.8-.6.8-.7.8-.6.7-.8.6-.8.6-.8.6-.8.5-.9.5-.9.4-.9.4-.9.4-.9.3-.9.4-.9.2-.9.3-1 .2-.9.2-.9.2-.9.1-1 .1-.9.1-1 .1H682l11.9-64.4h22.599999999999998l.9.2.8.1.8.2.8.1.8.1.7.3.7.2.6.3.7.4.6.3.5.3.6.4.5.5.5.4.5.5.4.5.4.6.3.6.3.7.2.7.3.8.1.7zm-14.8 32.6v-.4l-.1-.4v-.3l-.1-.4-.2-.3-.1-.3-.2-.3-.2-.2-.2-.3-.3-.1-.2-.2-.6-.3-.6-.3-.7-.2-.6-.2-.7-.2-.7-.1-.7-.1h-6.1l-2.6 13.9h6.2l.6-.2h.7l.7-.3 1.4-.3.6-.3.7-.3.6-.3.6-.4.5-.4.5-.6.5-.6.4-.6.3-.8.2-.9.2-.9.2-1v-.9zm.9-25.1-.1-.7-.1-.8-.2-.2-.1-.3-.1-.4-.1-.1-.2-.2-.2-.3-.2-.1-.2-.2-.6-.2-.5-.3-.6-.2-.5-.2h-.6l-.6-.2-.6-.1h-3.1l-2.3 12.5h1.7v.1h.4l.5-.1h.8l.7-.1.7-.1.6-.2.6-.2.7-.3.7-.3.3-.1.3-.2.2-.2.3-.2.3-.2.2-.3.3-.2.2-.4.3-.6.4-.8.2-.9.2-.9.2-.9zM647 184.5h13.4l-13 70.9H634zm-27.5 27.1H633l-8.1 43.8h-13.4l.8-4.9h-.2l-.5.7-.6.7-.7.7-.5.6-.7.5-.8.5-.7.5-.4.2-.3.1-.8.4-.8.4-.8.2-.7.3-.8.1-.8.2h-.7l-.8.2h-2.2l-1-.1-1-.1-.9-.2-1-.3-.8-.3-.8-.3-.8-.4-.8-.5-.8-.5-.7-.6-.6-.6-.6-.7-.7-.7-.5-.8-.6-.9-.5-.8-.8-1.8-.4-1-.2-1-.3-.9-.3-1-.1-1.1-.1-1-.1-.9v-3.4l.1-1.1.2-1.2.2-1.1.2-1.1.3-1.2.3-1.1.4-1.1.3-1.1.4-1.1.5-1 .6-1.1.4-1 .7-1 .6-1 .6-.9.7-.9.8-1 .7-.9.8-.9.8-.7.9-.9.8-.7.9-.7.9-.6.9-.6.9-.5.9-.5 1-.4.9-.3 1-.4 1.1-.1.9-.2 1.1-.2 1-.1h2.1l.4.1h.8l1.3.4.6.1.7.2.7.3.7.3.6.3.6.4.6.4.5.5.5.5.5.5.4.5.4.6.4.6zm-3.4 19.1-.1-.9-.2-.9-.2-.8-.3-.8-.4-.8-.2-.3-.3-.4-.5-.5-.3-.3-.4-.3-.3-.2-.3-.2-.4-.2-.4-.1-.5-.1-.3-.2h-.5l-.5-.1h-2l-.8.2-.1.1h-.5l-.5.1-.4.2-.5.2-.4.2-.4.2-.4.3-.4.3-.8.5-.7.8-.6.7-.7.8-.5.8-.5.9-.4.8-.4.9-.3 1-.2 1-.2 1v2l.1.8.1.9.3.8.3.8.5.7.2.3.2.3.3.3.2.3.4.3.3.2.3.2.4.2.3.2.5.1.4.1.4.1.4.1 1 .1h.5l1-.1.8-.1h.1l.5-.1.5-.1.4-.2.5-.1.4-.2.4-.2.4-.2.5-.3.7-.6.7-.6.7-.8.6-.7.5-.8.5-.9.4-.9.4-.9.5-2 .1-1.1.1-.9zM583.8 211l2.6-.1-2.7 14.9h-.3l-.2-.2-.5-.2-.6-.3-.5-.2-.5-.1-.5-.1-.6-.1h-.6l-.6-.1h-.6l-1.4.1h-.6l-.6.1-.6.2-.6.1-.5.3-.5.1-.5.4-.6.2-.4.3-.4.4-.4.3-.4.4-.3.5-.3.4-.7 1-.6 1-.5 1.2-.5 1-.4 1.3-.3 1.3-.4 1.3-.2 1.3-3.4 17.6h-13.4l8.1-43.7h13.5l-1.4 7.1h.2l.7-.9.6-.9.8-.8.8-.9.8-.6.8-.7.9-.5 1.7-.9.9-.4 1-.3.9-.3 1-.2.8-.2 1-.1zm-32.7 13.4h-7.6l-5.7 30.9h-13.5l5.6-30.9h-4.3l2.3-12.8h4.4l2.4-13.3h13.6l-2.5 13.3h7.6zm-31.5-3.4.1.8v.8l-.1 1v1.8l-.2.9-.3 1.9-5 27.1h-13.5l4-21.4v-.1l.1-.3v-.3l.1-.1v-.5l.1-.4.1-.5v-.3l.1-.5.1-.3.1-.5v-.4l.1-.7v-1.9l-.1-.6-.1-.6-.2-.6-.1-.5-.1-.3-.2-.3-.1-.3-.4-.3-.2-.2-.2-.2-.3-.1-.6-.3-.6-.2-.8-.1h-1.3l-.5.1h-.5l-.4.1-.4.1-.9.3-.4.2-.4.2-.3.2-.3.2-.3.3-.3.3-.4.3-.2.3-.3.4-.5.8-.5.8-.4.8-.3.9-.3.9-.4 1-.2 1-.2.9-4.2 22.7H474l8.1-43.8h13.5l-1 5.6h.1l.8-.9.8-.9.7-.8.8-.7.8-.7.8-.5.8-.6.8-.4 1.7-.7.8-.2.9-.2.9-.2 1-.1.9-.1h1.9l.9.1.8.1.9.1.8.2.7.2.7.3.6.2.6.4.6.3.5.5.5.5.4.4.5.6.3.5.3.7.6 1.2.2.7.2.7.1.8.2.8.1.7zm-47.4 4.6.1 1.2v2.4l-.1 1.3-.1 1.3-.2 1.3-.2 1.4-.3 1.5H443l-.2 1.3-.1 1-.1 1 .1 1 .1.8.3.8.3.8.2.3.2.3.2.5.2.2.2.2.4.2.3.3.2.2.4.2.3.1.5.2.3.1.4.1.4.1 1 .1h2.6l.4-.1.5-.2.5-.1.1-.1.4-.1.4-.2.5-.3.4-.3.4-.3.4-.3.4-.5.4-.5.4-.4.4-.5h13l-.4.9-.5 1-.4.8-.4.9-.6.9-.5.7-.5.8-.6.7-.6.7-.6.7-.6.6-.8.6-.6.6-1.5 1-.7.4-.8.5-.9.3-.7.4-.8.4-.8.3-.8.3-.8.3-.8.2-.8.2-.6.2h-.2l-.8.1-.8.2-.8.1-.8.1h-4l-1-.2-1.1-.2-1-.1-1-.3-1-.4-.9-.3-.9-.3-1.7-1-.8-.5-1.5-1.2-.8-.7-.5-.7-.7-.8-.6-.8-.5-.9-.4-.8-.4-1-.4-.9-.2-1.1-.2-1-.2-1.1-.1-1.1-.1-1.2v-1.3l.1-1.2.1-1.4.2-1.3.2-1.4.2-1.4.4-1.3.4-1.3.3-1.1.4-1.3.5-1.2.5-1.1.6-1 .6-1.1.6-1.1.6-1 .7-.9.8-.9.8-.8.8-.9 1.8-1.5.8-.8 1-.6.9-.6 1-.6 1-.5 1-.4 1-.4 1-.4 1-.4 1.1-.2 1.1-.2 1.1-.2.8-.1h.3l1.1-.1h2.4l1.2.1 1.1.2 1.1.1 1.1.2.9.3 1 .3.9.5.9.3.8.5.8.6.7.5.7.7.6.8.6.7.6.7.5.9.4.9.4.9.4.9.3 1 .2 1 .3 1.1.1 1.1zm-27.4 1.5h15.7l-.1-.7v-.8l-.2-.7-.2-.5-.2-.7-.3-.6-.4-.5-.4-.5-.6-.4-.4-.4-.5-.3-.6-.3-.6-.2-.6-.1-.6-.1h-1.4l-.7.1h-.1l-.7.1-.7.2-.7.3-.7.2-.6.4-.6.4-.6.4-.6.6-.5.6-.6.5-.4.7-.4.7-.4.8zm-13.2-34.7-3.7 20.1-.4-.8-.5-.8-.5-.7-.5-.7-.7-.6-.7-.6-.6-.5-.8-.5-.8-.4-.7-.4-.9-.3-.8-.3-.8-.1-1-.2-.8-.1h-1.8l-.8.1-.8.1-.8.1-.7.2-.8.2-.7.3-.8.3-.8.4-.7.3-.7.5-.7.4-.7.5-.6.6-.7.5-.6.6-.6.7-.6.7-.6.7-.5.7-.5.8-.5.6-.5.9-.8 1.5-.3.9-.3.8-.4.8-.2.9-.2 1-.3.8-.2 1-.1 1-.2.8v.9l-.1.9v1.7l.1.8v.8l.3.7.1.7.2.8.3.8.2.6.4.8.3.6.8 1.2.4.6.6.5.5.5.5.5.6.3.5.4.7.4.6.2.7.3.7.2.7.1.7.2.8.1h3.5l.8-.2 1-.2.8-.2.9-.4 1-.3.9-.5.9-.4.9-.6.8-.6.9-.6.8-.6.7-.7.8-.7.7-.8-3.6 20-1.1.3-1 .4-1 .3-.9.4-1 .2-.9.2-.9.3-.9.3-.7.1-.7.1-.7.1-.7.1-.8.1h-.6l-.8.1h-.7l-1.5-.1-1.4-.1-1.4-.1-1.4-.3-1.3-.4-1.2-.4-1.4-.5-1.2-.6-1.2-.5-1.2-.7-1.1-.9-1.1-.8-1-.9-1-1-1-1-.9-1.1-.9-1.2-.8-1.3-.7-1.3-.6-1.3-.6-1.4-.5-1.4-.3-1.6-.4-1.5-.2-1.6-.1-1.5-.2-1.7v-1.6l.2-1.7.1-1.7.2-1.7.3-1.8.4-1.7.3-1.6.5-1.6.5-1.6.6-1.6.7-1.5.7-1.6.8-1.5.8-1.6.9-1.5 1-1.4.9-1.4 1.1-1.3 1.1-1.3 2.3-2.4 1.2-1.1 1.3-1.1 1.3-1.1 1.3-.9 1.4-.9 1.4-.9 1.4-.8 1.5-.7 1.5-.6 1.4-.6 1.6-.5 1.4-.4 1.5-.3 1.4-.3 1.5-.2 1.4-.1h.7l.9.1h.8l.8.1 1.7.2.8.2.9.2.7.1 1.6.4 1.5.6 1.5.7 1.5.7zM1110.4 92.6h102.4l-.8 7.2h-6.9l-3.8 40.9H1188l3.9-40.9h-12.4l-3.7 40.9h-13.3l.9-9.3-1 .7-1 .6-.9.6-.9.5-1.1.5-1 .4-.9.4-1 .4-1 .4-.7.1-.2.1-1 .3-2 .3-1 .1-1 .1h-2.7l-1.6-.2-1.5-.2-1.5-.2-.6-.3-.8-.2-.5-.2-.7-.2-.7-.3-.6-.4-.6-.3-.5-.3-.6-.3-.5-.5-.6-.3-.4-.5-.6-.4-.4-.5-.4-.5-.5-.5-.3-.5-.5-.6-.4-.5-.3-.7-.6-1.2-.7-1.4-.4-1.2-.4-1.4-.3-1.4-.2-1.4-.3-1.6-.1-1.6v-3.4l2.1-1.1.1.2h1.2l.9.1 1-.1h1.9l.9-.2.9-.1.7-.2.9-.3.8-.2 1-.5.8-.4.7-.5.4-.3.2-.3.3-.3.2-.3.3-.3.2-.4.1-.3.1-.4.2-.4v-.4l.1-.6v-1.1l-.1-.5-.1-.6-.1-.5-.1-.5-.2-.5-.3-.4-.2-.4-.3-.4-.3-.4-.4-.3-.4-.4-.4-.3-.4-.3H1117l-1 11.1h-23l-.7.1-.5.1-.4.1-.2.1-.2.1-.3.1-.4.4-.1.2v.3l-.2.3-.1.2v.2l-.1.4v1.1l.1.4.1.3.2.2.1.3.3.2.3.2.3.2.3.2.8.1.5.1.4.1h14.4l1.3.2.6.1.6.2.5.1.6.2.6.3.5.2 1 .7.5.4.6.3.4.4.6.5.4.4.4.5.4.5.4.4.3.7.2.5.2.5.3.6.2.6.1.6.2.6.1.6v.6l.1.7v.7l-.1.7-.1.8-.1 1-.2.8-.2.9-.3.8-.2.8-.3.8-.4.8-.4.7-.4.7-1 1.4-.6.7-.6.6-.5.6-.7.6-1.5 1.2-.7.5-.8.4-.8.5-.9.4-.9.3-1 .4-.8.3-1.1.2-1 .2-2.1.3-1 .2h-4.1l-1.8-.2-1.8-.2-2-.3-2.5-.5-2.5-.6-2.2-.6-2.1-.6-1.9-.7-1.7-.7-.9-.4-.7-.3-.8-.5-.6-.3-.6-.3-.5-.4-.5-.4-.6-.4-.5-.5-.5-.5-.6-.6-.5-.6 4.5-10.9v.30000000000000004l.1.2.2.2.5.4.6.6.8.5 1 .7 1.2.6 1.4.9 1.6.8 1.6.8 1.6.7 1.6.6 1.6.5 1.6.4 1.6.3 1.4.3 1.1.2h.9l1 .1h1.8l.9-.1h.8l.8-.2.6-.2.8-.1.5-.3.6-.2.5-.3.4-.3.4-.3.4-.5.3-.4.2-.5.2-.5.1-.5.2-.4v-.5l-.2-.3-.1-.4-.2-.4-.2-.3-.3-.3-1.2-1-.4-.1-.3-.3h-.6l-.5-.2h-12.600000000000001l-.6-.1-.7-.1-1.2-.2-.7-.1-.5-.2-.6-.2-.5-.3-1.2-.5-.6-.3-.5-.4-.5-.3-.6-.4-.5-.4-.5-.5-.6-.4-.5-.5-.4-.6-.3-.5-.4-.5-.3-.5-.2-.5-.3-.5-.2-.6-.1-.6-.2-.5v-.6l-.1-.6v-1.2l.1-.6.2-.6v-.6l.3-.6.1-.6.3-.5.2-.5.4-.5.3-.6.4-.5.4-.5.5-.4.5-.5.5-.5.5-.4.6-.4 1.1-.7 1.1-.5 1.3-.6 1.2-.4 1.2-.3 1.2-.2 1.3-.2 1.4-.1h12.8l.3-3.4h-37.5l-3.9 40.9h-13.2l3.9-40.9h-7l.8-7.2h5.2l-.2-.5-.2-.4v-.4l-.2-.6v-.5l-.1-.6.1-.5v-.6l.2-1.2.2-1.1.2-1.2.3-1.1.4-1.1.4-1 .6-.9.4-1 .7-.8.6-.9.7-.8.8-.8.8-.7.9-.7.9-.7 1-.6 1.1-.6 1.1-.5 1.1-.6 1.3-.4 1.2-.4 1.4-.4 1.4-.4 1.4-.3 1.5-.3 1.6-.2 1.6-.1 1.7-.2 1.8-.1 1.7-.1h3.9l2 .1 2 .1 1.9.1 1.9.2 1.7.2 3.3.5 1.5.4 1.4.3 1.4.5 1.3.4 1.2.6 1 .5 1.1.6.9.6.8.7.6.5.6.6.6.6.4.7.4.7.5.6.3.8.3.8.4 1.6.2.9v.9l.1 1v.9l-.1 1.1v1.5l-.2.5v.5l-.2.5-.2.5-.1.3-.2.4-.2.3-.7.8zm-10.4-4.9v-1.6l-.1-.7-.1-.7-.3-.6-.2-.6-.3-.6-.5-.4-.3-.4-.5-.4-.6-.4-.6-.3-.6-.2-.8-.3-.7-.2-.8-.2-.9-.2-.9-.1-1-.1-1.1-.1h-1.2l-1.1-.1h-1.2l-1.3.1-2.4.1-2.2.2-2.1.2-1.9.3-1.8.4-1.6.4-.8.2-.8.3-.7.2-.6.3-.7.3-.5.3-.6.3-.5.4-.5.3-.4.4-.4.4-.4.4-.3.4-.3.4-.1.5-.3.4-.2.5-.1.5-.1.5-.2.5v2.6l.3.6v.3l.2.2.1.2.1.2.2.1.1.1h.6000000000000001l.3-.1v-.30000000000000004h30.9l-.5-.4.7-.4.6-.5.5-.5.5-.6.4-.5.3-.6.1-.7zm64.7 30.5 1.7-18.3h-10.7l.5.6.5.7.4.8.2.8.2.8.2.9v1l-.1 1-.1.6-.1.7-.2.7-.2.7-.3.6-.2.5-.4.7-.8.9-.5.6-.6.5-.2.1-.4.3-.6.5-.7.4-.7.4-.7.3-1.1.5-1.1.4-1.1.3-1.1.3-1.2.2-1.2.2-1.2.1h-1.3v1.2l.2 1 .1 1 .3 1 .3.9.4.7.4.7.5.7.3.2.3.3.4.2.3.3.7.4.9.3.9.3 1 .1 1 .1h2l1-.1 1-.1.4-.2.6-.1.9-.3 1-.4.8-.4.9-.5.9-.5.9-.7.8-.7.8-.7.8-.7.8-.9.7-.9zm-117.4-30.4-.8.6-.7.4-.8.4-.9.2-.8.2-.9.2-.9.1-.8-.1-.9-.1-.9-.2-.8-.3-.9-.3-.6-.4-.8-.5-.7-.6-.6-.6-.5-.7-.3-.4-.2-.3-.2-.4v-.4l-.3-.4-.1-.4v-.5l-.1-.4-.1-.9.1-.9.1-1 .2-.9.3-.9.4-.8.6-.8.6-.8.5-.7.8-.6.9-.6.7-.5.8-.5.9-.3.9-.3.9-.2h2.7l.9.1.8.2.8.3.7.4.7.5.7.5.6.6.6.6.4.7.4.8.3.7.2.8.1.9.1.8-.1 1-.1.9-.3.9-.2.8-.4.8-.4.8-.6.6-.6.7-.7.7zm-58.5 4.8h55.9l-.7 7.2h-7.7l-1.1 11.5h-26.4l-.7.1h-.5l-.5.2-.4.3-.3.3-.4.5-.2.5-.1.6v.3l.1.3.1.3.1.2.2.3.2.1.3.2.3.1.4.1h1.4l1.1.1h13.9l1.3.1 1.2.2 1.1.4 1.1.4 1 .4.4.2.5.4.5.2.4.4.5.4.4.4.4.5.4.5.3.4.3.6.2.5.3.6.3 1.1.1.7.1.7v2l-.2.7v.7l-.2.6-.2.6-.2.7-.1.6-.3.5-.1.5-.4.5-.3.5-.3.5-.7.8-.5.3-.4.4-.4.4-.5.4-.8.4-.9.4-.9.4-1.2.3-1.1.3-1.3.2-1.3.2-1.5.1-1.3.1h-2.7l-1.4.1h-5.199999999999999l-.1.2-.1.2-.1.2v.7l.1.1.2.3.4.3.4.3.6.2.7.1.7.3.9.1 1 .1 1.1.2 1.1.1 2.8.1h3.1l-1 8.2-.3.1-.7.1-.9.1h-3.0999999999999996l-1.6-.1-1.6-.1h-1.4l-1.5-.1-1.3-.2-1.2-.2-1.3-.2-1-.2-1.1-.3-.9-.3-.9-.3-.7-.4-.8-.3-.7-.5-.5-.4-.4-.3-.3-.4-.4-.4-.8-1.1-.4-.5-.4-.7-.3-.7-.7-1.5-.8-1.7-.7-1.9-.8-2.2-1.2-.4-1.2-.5-1.1-.6-1.1-.7 1.6-8.5 1.4.7 1.5.7 1.4.6 1.4.8 1.3.4 1.5.5 1.5.3 1.6.3 1.8.2 1.9.2 2 .1h7.100000000000001l.8-.2.6-.1.5-.3.5-.3.3-.3.3-.4.2-.4.2-.6.1-.6v-1.1l-.1-.2-.1-.2-.1-.1-.2-.2-.1-.2-.2-.1-.2-.1-.1-.1h-.6l-.6-.1h-11.5l-1.3-.1-1.3-.1-1.3-.2-1.1-.2-1.1-.4-1.1-.4-1-.5-1.1-.6-.5-.4-.5-.3-.5-.4-.4-.4-.4-.4-.4-.5-.3-.3-.3-.5-.2-.5-.3-.5-.1-.5v-.5l-.2-.6-.1-.5v-1.2l.1-.6.2-.6.1-1.1.3-.5.3-.6.2-.5.3-.5.4-.4.4-.5.4-.5.5-.4.5-.4.5-.4.5-.3.6-.3 1.1-.5 1.1-.5 1.1-.4 1.2-.4 1.2-.2 1.2-.2 1.4-.1h17.5l.4-3.9h-35.5zm-76.5 44.7.1.5.1.6v1.4l-.1.7-.1.6-.2.6-.3.6-.4.5-.3.6-.4.4-.6.5-.5.4-.6.3-.6.4-.5.2-.6.3-.7.1-.6.1-.7.1h-.6l-.7-.1-1.2-.4-.5-.2-.6-.3-.5-.4-.6-.4-.4-.5-.4-.4-.3-.5-.2-.6-.2-.6-.1-.6v-1.4l.1-.7.2-.7.5-1.3.4-.5.4-.6.5-.5.5-.5.6-.4.5-.3.6-.4.6-.3.6-.2.7-.1.6-.1h1.4l.6.1.6.2.6.2.5.3.5.3.6.4.5.4.3.5.4.5.3.5zm-20.7-44.6h73.6l-.7 7.2h-30.8l-.7 7.5 1.2-.7 1.2-.5 1.3-.5 1.4-.4 3-.4 1.5-.2h2.5l1 .1.8.1 1 .2.8.1.8.3.8.2.8.2.7.4.8.2.6.4.7.4.6.5.7.4.5.5.6.6.5.5.6.7.5.7.4.5.4.8.3.7.3.7.3.8.2.8.3 1.7v.9l.1.8v.9l-.1.9v1l-.1.9-.2.9-.2.8-.5 1.7-.4.7-.2.8-.5.7-.4.7-.4.7-.5.6-.5.7-.5.5-.7.6-.6.6-.6.5-.6.4-.6.5-.7.3-.6.4-.8.3-.6.3-.8.3-.7.2-.8.3-.7.2-.8.2-.9.1-.8.2-.8.1-.9.1h-.9l-1.3.1-1.2-.1-1.2-.1-.9-.1-.5-.2-.4-.1-.4-.1-.4-.2-.3-.2-.3-.2-.2-.2-.3-.3 1-9.5.3.2.4.1.5.2h.4l1.1.1 1 .1.9-.1 1.6-.1.7-.2.7-.1.6-.2.5-.4.6-.2.4-.4.4-.4.4-.4.3-.5.2-.5.2-.5.2-.7.1-.6v-1.5l-.1-.6-.2-.6-.2-.5-.3-.5-.3-.5-.4-.4-.5-.4-.5-.3-.6-.2-.7-.3-.6-.1-.9-.1-.8-.1h-2.1l-.6.2h-.5l-.6.1-.9.4-.6.2-.4.2-.5.4-.5.2-.5.4-.4.3-.5.4-.4.4-.4.5-2.1 22h-13.2l.9-10.8-.9.6-1.2.4-1.1.4-1.1.2h-.1l-1.3.2-1.2.2h-3.8l-.8-.1-.7-.1-1.5-.3-.7-.3-.7-.2-.7-.3-.7-.4-.6-.4-.6-.4-.6-.4-1.2-1-.6-.6-.5-.6-.5-.6-.4-.6-.5-.7-.4-.7-.4-.6-.4-.8-.2-.6-.3-.7-.2-.8-.2-.8-.1-.7-.1-.8v-.7l-.1-.8v-.9l.1-.8.3-3.2.2-2.8.2-2.5.2-2.1.2-1.7.1-1.4.1-1 .1-.7h-3.7zm14.4 24.1.1.7.2.6.1.5.3.5.3.5.3.3.4.3.5.3.4.2.6.1.5.2h.6l.7.1.6-.1h.5l.6-.1.5-.1.6-.1.5-.2.6-.2.5-.3.5-.2.5-.3.5-.3.5-.4.4-.4.5-.4.5-.5 1.6-17.5h-13l-.1.9-.1 1.1-.1 1.3-.1 1.7-.3 1.7-.2 2.1-.1 2.3-.3 2.5v.9l-.1.8zm-14.5-26.3-.9.2-1 .3-2 .5-1 .2-1.1.2-1 .1-1.1.1-1.2.1h-3.5000000000000004l-1.1-.1h-1.1l-1.1-.2-1-.1-1-.3h-1l-.9-.4-.9-.2-.9-.2-.9-.5-.8-.2-.7-.4-.8-.5-.6-.4-.7-.4-1-.8-.8-.8-.8-.9-.7-.9-.6-1-.7-1-.4-1.1-.5-1.1-.4-1.4-.3-1.4-.3-1.3-.3-1.4h14v1l.2.4.1.5.2.4.4.5.3.5.4.4.4.3.3.3.2.2.4.4.3.1.5.2.4.2.4.2.8.2 1 .1 1 .1h1.2l1-.1 1.1-.1.9-.2.9-.1.9-.3.7-.3.7-.3.6-.3.6-.4.4-.5.4-.5.7-1 .3-.6.2-.7.1-.6h14.2l-.6 1.4-.5 1.3-.6 1.4-.6 1.4-.7 1.2-.6 1.1-.8 1-.8 1-.8 1-1 .8-1 .8-1.1.7-.7.5-.8.5-.8.4-.9.3zm-56.8 9.4.7-7h53.5l-.7 7.2h-6.9l-3.8 40.9h-13.3l3.9-40.9h-6.9v-.2H856l-3.9 41.1h-13.3l2-20.6h-10.2l.5-5.4.4-3.8h10.2l1.1-11.3zm-3.3 25.7.1.9-.1 1-.1 1-.1.9-.1.6v.2l-.2.9-.3.8-.2.9-.3.7-.3.7-.4.7-.4.8-.4.5-.5.7-.5.6-.5.5-.6.5-.5.5-.7.4-.7.5-.6.4-.8.4-.8.3-.8.3-.9.3-.8.3-.9.2-.9.2-1 .2-1 .1-1.1.1-1.1.1h-1.1l-1.2.1h-.7l-.8-.1h-1.6l-1-.2h-1.2l-1.1-.2-1.1-.2-1-.3-1-.3-1-.3-1-.4-1-.3-1-.5-.9-.4-1-.6-.9-.5-.9-.7-.9-.6-.9-.7-1-.7-1.7-1.6-.8-.8-.7-.8-.6-.8-.6-.8-.5-.8 7-9.1.5.8.6.8.6.7.6.8.7.6.6.7.8.6.8.6.6.5.5.5.6.5.7.4.6.4.6.3.7.3.6.3.6.2.6.2.6.2 1.3.2h.6l.7.1h.6l.9-.1h1l.9-.2.7-.1.7-.2.6-.2.6-.2.5-.3.6-.3.4-.5.4-.5.4-.6.3-.8.3-.8.2-.8.1-.9v-1l-.1-.5-.1-.4-.1-.5-.2-.3-.2-.4-.7-.6-.4-.3-.3-.2-.5-.2-.6-.2-.6-.1-.6-.1-.6-.1h-9.3l.8-8.3h10.9l.4-.1.4-.1.4-.1.3-.2.3-.2.3-.3.2-.3.2-.2.2-.4.1-.3.2-.4.1-.5v-.4l.1-.5-.1-.5v-.4l-.2-.4-.2-.4-.2-.3-.4-.3-.2-.3-.5-.2-.5-.2-.4-.2-.6-.1-.7-.1-.6-.1h-1.5l-2.8.2-1.4.2-1.4.4-1.3.3-1.4.5-1.3.6-1.4.7-3.7-9.3 1.4-.6 1.3-.5 1.4-.7 1.3-.5 1.2-.5 1.3-.4 1.2-.3 1.3-.3 1.2-.3 1.2-.2 1.3-.1h1.2l1.9-.1 1.8.1 1.8.2 1.7.2.8.2.8.2.8.2.8.2.7.3.7.3.7.3.7.4.8.5.8.5.6.5.7.5.5.6.5.6.5.7.4.6.3.6.3.8.2.7.2.8.1.7v2.6l-.3.7-.1.8-.1.3-.1.4-.5 1.4-.4.6-.3.6-.5.6-.5.6-.5.5-.6.5-.6.5-1.3.8-.7.5-.8.3.9.6.8.6.9.7.7.6.7.7.6.7.5.7.5.8.4.8.4.7.2.9.2.5.1.3.1.9zM694.2 92.9h78.6l-.7 7.2H737l-.7 7.4 1.5-.8 1.5-.7 1.5-.6 1.4-.5 1.4-.4 1.3-.2.6-.2h.7l.7-.1h1.5l.9.1.9.1.9.1.8.2.8.2.8.2.8.4.8.4.7.3.7.5.6.4.7.5.6.6.6.6.7.5.6.7.4.7.5.7.5.7.6 1.5.4.7.3.9.1.8.2.8.1.8.2.9v1.9l-.2.9v1l-.3 1.8-.3.9-.1.8-.7 1.7-.2.8-.9 1.4-.4.8-.5.6-.5.7-.6.7-.6.7-.7.5-.6.7-.7.4-.6.6-.7.4-.7.5-.7.4-.7.4-.7.2-.8.3-.7.3-.8.3-.7.2-.8.2-.9.1-.8.1-.8.1H741l-.6-.2-.5-.1-.5-.1-.3-.2-.3-.2-.4-.3-.5-.5 1.2-12 .5.2.6.3.6.1.5.2.6.2.5.1h.5l.6.1.7-.1h.7l.6-.2.7-.2.5-.2.5-.3.5-.3.3-.3.4-.6.3-.4.3-.6.2-.5.2-.6.1-.8.1-.7v-2.2l-.3-1.1-.1-.5-.2-.4-.3-.4-.3-.3-.4-.3-.4-.3-.5-.2-.7-.1-.7-.1-.8-.1-.8-.1-1-.1-1 .2h-.4l-.6.2-.5.1-.4.2-.6.2-.5.3-.4.4-.5.3-.6.4-.4.3-.5.5-.5.5-.5.5-.4.6-2.1 22h-13.3l.8-7.9-1.6.7-1.6.7-1.6.5-1.6.5-1.6.4-1.6.3-1.6.1-1.6.1h-1.5l-.8-.2h-.8l-.7-.1-.6-.2-.7-.3-.7-.2-.6-.3-.6-.3-.6-.4-.6-.4-.5-.4-.6-.4-.5-.5-.5-.6-.5-.5-.3-.7-.4-.5-.4-.7-.3-.6-.5-1.3-.3-.7-.1-.8-.2-.7-.1-.8-.1-.8v-2.5l.1-.9.1-1 .1-.9.2-.8.2-.9.2-.8.3-.8.3-.8.3-.8.4-.8.4-.7.4-.7.4-.7.5-.6.5-.6.5-.7.6-.7.6-.5.6-.5.7-.6.6-.4.7-.4.7-.4.6-.4.8-.3.7-.3.8-.2.7-.2.8-.2.9-.1h.7l.9-.1.8-.1 1.7.1 1.5.1.7.1.7.1.6.2.7.1.5.2.6.3.5.1.6.3.5.3.5.3.4.3.4.4-.9 10.1-.7-.6-.7-.6-.6-.4-.7-.4-.7-.3-.8-.2-.7-.1h-1.7000000000000002l-.7.1-.7.2-.7.2-.5.2-.7.3-.4.2-.5.4-.4.4-.4.4-.3.5-.4.5-.2.6-.1.6-.2.7-.2.6v2l.2.6.2.5.2.4.3.5.3.4.4.3.5.3.5.2.4.2.5.1.5.1.6.1h.6l.7-.1h.7l.7-.2h.6l.7-.2.6-.1.7-.2.5-.3.6-.2 1-.7.5-.3.5-.4.4-.4.4-.5.5-.3 2-21.6h-30.3zm.9-2.8-.9-.1-.9-.2-.8-.3-.7-.3-.8-.4-.7-.5-.7-.6-.6-.6-.6-.7-.2-.4-.2-.3-.2-.4-.2-.4-.1-.4-.1-.4v-.5l-.1-.4-.1-.9.1-.9.1-1 .2-.9.4-.9.3-.8.5-.8.6-.8.6-.7.8-.6.8-.6.8-.5.8-.5.9-.3.8-.3.9-.2 1-.1h.9l.9.1.9.1.7.2.8.3.8.4.7.4.7.6.6.5.6.7.4.7.4.8.3.7.2.8.1.9v1.8l-.2.9-.2.9-.3.8-.4.8-.5.8-.5.6-.5.7-.7.7-.7.5-.8.6-.8.4-.8.4-.8.2-.8.2-.9.2h-.9zm-5.4 4.8-.7 5.3h-8.5l-4 40.9h-13.1l.9-9.5-.8.4-.8.4-.9.4-.9.4-1 .3-.9.3-1 .2-.9.3-1 .2-1 .2-1.1.2-1 .1-1.2.1h-.1l-.9.2-2.3.1h-1.6l-.8-.1-.8-.1-.7-.1-.8-.2-.8-.2-.7-.2-.7-.2-.7-.3-.7-.3-.6-.3-.7-.4-.6-.4-.6-.5-.6-.4-.7-.6-.6-.6-.6-.6-.5-.6-.5-.7-.5-.7-.3-.6-.3-.8-.3-.8-.2-.8-.3-.8-.1-.8v-.9l-.1-.8v-.9l.1-1v-.9l.2-1 .2-.9.2-.9.3-.9.4-.9.4-.7.4-.9.5-.7.5-.7.6-.7.6-.7.6-.6.8-.6.7-.5.8-.7.7-.4.7-.4.8-.4.8-.3.7-.3.9-.3.7-.3.9-.2.9-.2.8-.2 1.8-.3.9-.1h1.7l.2-.1h1l2.3.1h2.1l1.9.1 1.6.3 1.3.2 1 .2.5.2.3.1.4.2.3.3-1.1 8.1-.4-.1-.7-.1-.9-.3-1.1-.2-1.2-.4-1.1-.2-.9-.1-.9-.1-.7.1h-.7l-.9.1-.9.2 9.4 8.9.3-.2.3-.2.5-.1.5-.3.5-.3.8-.4 1.9-19.8h-35.7l.7-7.2h25.9l-.2-.2-.7-1.1-.8-1-.4-.4-.5-.4-.4-.3-.5-.3-.5-.2-.5-.2-.5-.1-.6-.2h-.6l6.1-8.6 1.6 1.1 1.3 1.2 1.4 1.1 1.2 1.3L665 86l1.3 1.4 1.1 1.3 1 1.3.9 1.3.8 1.3.2.4h4.4l-.6-1.2-.8-1.5-.9-1.5-1-1.4-.9-1.3-1-1.3-1-1.3-1.1-1.1-1.1-1.1-1.2-1.1-1.2-1-1.1-.9-1.3-1-1.3-.8-1.2-.8 9.3-7.7.9.8.9.8 1 .8.9.8.9.8.8.9.9 1 .9.9.9 1.1 1 1.1.9 1.2.8 1.2.9 1.2.8 1.2.8 1.3.8 1.2.7 1.3.7 1.3.6 1.3.7 1.3.5 1.3.6 1.4.3.8h3.4zm-31.8 28.6-6.1-5.7-3.4-3.1-.4.3-.4.4-.4.3-.4.4-.2.2-.2.3-.2.4-.1.4-.2.5-.1.5-.1.6-.1.6-.1.8v.7l.1.6.2.7.3.5.3.5.4.4.5.3.4.1.5.2.6.1.6.1.8.1.8.1h.9l.9-.1.5-.1h.6l.5-.1.7-.1 1.4-.5zM448.9 93h169.8l-.7 7.3h-12.4l-.9 8.5.7.6.5.7.9 1.3.4.8.4.8.2.9.3.9.2 1 .2.9.1 1.1.1 1 .1 1.2-.1 1-.1 1.2-.1 1.3-.1 1.1-.1 1.1-.3 1-.2 1-.3 1-.3 1-.4.9-.4 1-.4.8-.5.9-.5.9-.6.8-.6.8-.6.8-.7.8-.7.7-.7.7-.7.7-.8.6-.8.5-.7.6-.8.5-.8.4-.8.4-.8.3-.9.3-.8.3-1.7.4-.9.1-1.7.1h-2.2l-2-.1-1.6-.2-1.5-.1-.6-.2-.6-.1-.5-.2-.5-.1-.4-.2-.3-.1-.3-.2-.2-.3.9-10 .3.2.5.3.9.3 1.2.3 1.2.3 1.2.1 1.1.1h1l.8-.1.7-.1.7-.3.6-.2 1.3-.9.5-.5.6-.6.4-.7.4-.7.4-.8.4-1 .3-.9.3-1 .2-1.2.1-1.2.2-1.1.1-.9v-1l-.1-.9-.1-.8-.2-.8-.1-.6-.2-.6-.2-.4-.3-.3-.2-.2-.2-.4-.3-.2-.2-.2-.3-.2-.3-.2-.3-.1-.4-.2-.2-.1-.4-.1H588l-.6.1-.7.2-.6.3-.6.4-.6.5-.5.5-.6.6-.5.9-.4.8-.3.8-.3.6-.5 4.4h-12.4l.5-5.2-.1-.6-.1-.6-.1-.5-.3-.4-.4-.5-.4-.4-.5-.2-.5-.4-.7-.2-.6-.1-.8-.1h-1.7000000000000002l-.8.1-.4.1-.3.1-.4.1-.3.2-.4.2-.4.2-.3.2-.2.3-.3.3-.3.3-.2.3-.3.4-.3.6-.2.7-.3.7-.3.9-.2.9-.2 1-.2 1.1-.2 1.2v1.2l-.1 1 .1 1 .1 1 .2.9.3.9.2.3.2.5.2.3.3.4.5.5.5.5.6.4.5.3.7.2.5.2h1.9999999999999998l.7-.2.8-.3.8-.3.9-.3.9-.4 1-.5 1.2-.5-1.1 10.9-.3.3-.3.2-.4.1-.3.2-1.1.3-1.1.2-1.4.2-1.5.2H561l-1.9.1-1.8-.1-.8-.1-.8-.2-.8-.2-.8-.2-.8-.3-1.5-.8-.7-.4-.7-.5-.7-.5-.6-.6-.5-.7-.7-.7-1.2-1.4-.5-.8-.5-.8-.5-.8-.4-.9-.3-.9-.3-.9-.3-.9-.2-1-.2-.9-.2-1v-1l-.1-1v-2.1l.1-1.1.1-1.1.1-1.1.3-1 .2-1.1.4-1 .3-1 .4-.9.4-.9.9-1.7.6-.9.6-.8.6-.8.7-.7.7-.7.7-.7.8-.6.7-.6.7-.5.7-.5.8-.5.8-.4.8-.4.8-.2.8-.3.8-.2.9-.2.9-.3.8-.1.9-.1.9-.1h2l1.2.1 1 .1 1 .1.9.3 1 .3.9.3.9.5.8.5.8.5.8.6.7.7.6.5.7.9.6.8.6.8.7-.9 1-1.1 1.1-1.3 1.4-1.4 1-.6.8-.4.9-.4.9-.3.8-.3.8-.2.8-.1h1.6l.9.1 1 .1 1 .1.5-4.7h-57.5l-1.3 13.3h-16.6l-1.2.3-1 .4-.9.4-.9.4-.8.5-.7.5-.7.5-.7.6-.4.6-.6.7-.4.8-.4.7-.2.8-.3.9-.1.8-.1.9v1.7999999999999998l.2.4v.4l.2.3.2.4.2.3.2.4.3.3.2.3.3.3.3.3.3.3.5.3.6.4.8.4.9.4.8.2.9.2 1 .1 1 .1 1.1.1.8-.1h.8l.9-.1.9-.1.8-.2.9-.1.7-.2.8-.2.9-.3.8-.2.7-.4.9-.3.7-.4.8-.4.8-.4.8-.5 1.1-.7.9-.6.8-.6.8-.5.5-.6.5-.5.1-.4.3-.3 3.2 12.1-1.6 1.2-1.7 1-1.8 1.1-1.9 1-1.9.7-1.8.8-1.9.6-2 .6-1.9.4-.5.1 13.8 16.7-9.5 7.7-11.3-15-13.2 12.6-8.3-8 16.2-13.7-.6-.1-2-.6-1-.3-.9-.3-.9-.4-.9-.6-.9-.4-.8-.6-.8-.6-.9-.6-.8-.9-.8-.7-.7-.8-.7-.8-.5-.9-.5-.9-.5-1-.3-1-.4-1-.2-1.1-.2-1-.1-1.1v-2.3l.1-1.3.1-1.3.2-1.2.3-1.1.3-1.2.4-1.2.5-1.1.5-1 .6-1.1.7-.9.6-.9.8-.9.9-.8.8-.9 1-.8 1-.7 1.1-.6 1.4-.9 1.5-.8 1.5-.6 1.4-.5 1.3-.4 1.4-.3h.7l.7-.1h.6l.7-.1h6.4l.3-3.9h-77.3l-3.9 40.9h-13.2l1.6-16.3h-12.7l.8-9.5h12.7l1.5-15.1H416l.4.3.3.6.3.5.2.4.3.5.2.6.2.5.1.6.1.5.1.6.2.6v2.5l-.1.7-.2.9-.1 1.1-.2.9-.1.8-.4.9-.2.9-.4.7-.4.8-.4.8-.4.8-.4.6-.5.6-.5.6-.6.7-.6.5-.6.5-.6.5-.7.4-.6.4-.7.4-.7.3-.6.3-.8.3-.8.2-.7.2-.9.2-.7.2h-.9l-.9.1H400l-.1.8v.8l.1.8.2.8.3.8.3.8.5.7.5.8.5.3.5.4.7.3.8.2.8.2 1 .2h1l1 .1 1.6-.1 1.7-.1 1.9-.3 1.9-.3 1.5-.3 1.1-.1.6-.2h.3l-1 10.1.1.1-.1.1-.4.1-1.1.2-1.7.3-1.2.3-1.1.1-1.1.1-1.1.1-1 .1-1.1.1h-4l-1.7-.1-1.6-.2-1.5-.2-1.5-.3-1.3-.4-1.2-.4-1.1-.5-.6-.4-.5-.2-.5-.3-.5-.3-.4-.4-.4-.4-.4-.4-.4-.3-.7-.8-.3-.5-.2-.5-.3-.4-.5-1.1-.1-.5-.5-1.5-.5-1.5-.2-1.5-.1-1.6-.2-1.6.1-1.5.1-1.6.2-1.6h-4.5l.8-8.6h10.5l.8.1.6.1.7.1h.7l1.7-.2.7-.1.7-.3.7-.2.6-.3.6-.4.5-.4.5-.5.4-.5.4-.6.2-.7.3-.6.2-.8.2-.8.1-.9.1-.9-.1-.8v-.7l-.3-.8-.1-.3-.2-.3-.2-.3-.1-.3-.6-.4-.2-.3-.3-.2-.7-.4-.7-.4h-.7l-.3-.1h-17.6l.7-7.3h52.1l-.3-.6-.6-1.3-.6-1.1-.7-1.2-.7-1-.8-1-.8-1-.9-1.1-.9-.8-2-1.7-1.1-.8-1.1-.8-1.2-.6-1.2-.7-1.2-.6 8.5-7.7.8.3.8.5.9.4.9.5.8.6.8.6.8.6.8.6 1 .9.9.9.9.9 1 1 .8 1 .9 1.1.8 1 .8 1.2 1.6 2.4.7 1.3.8 1.3.7 1.3.7 1.4.7 1.5zm38.6 24.1.1 1.1v2.3l-.1.8-.1.7-.2.7-.2.7-.3.7-.2.7-.3.6-.3.7-.4.6-.5.6-.4.7-.5.6-.5.6-.5.5-.6.7-.7.5-.7.5-.6.5-.7.4-.7.5-.7.3-.7.4-.8.3-.7.3-.8.2-.9.2-.8.2-.8.1-.8.2h-.9l-.8.1h-.9l-1-.1h-1l-1-.1-.8-.2-.9-.1-.8-.2-.9-.3-.7-.3-.9-.2-.7-.4-.7-.4-.7-.4-.6-.4-.6-.6-.6-.5-.5-.6-.6-.6-.5-.6-.4-.5-.3-.6-.4-.7-.3-.6-.3-.7-.2-.6-.2-.6-.1-.7-.1-.8-.1-.7v-1.5l.1-.8v-.7l.5-2.4.2-1.1.4-1 .4-1.1.5-.9.4-.9.6-.9.7-.8.6-.8.7-.7.8-.7.8-.6.9-.5.9-.6.9-.4.9-.4.9-.3.9-.3 1-.2 2-.3h1l1.1-.1h28l-.7 7.5h-25l-.8.1-.7.1-.7.1-.6.4-.6.3-.5.3-.4.4-.4.5-.4.6-.3.5-.2.7-.2.7-.1.8-.1.8v1.3l.1.4v.4l.2.3.1.5.2.4.3.4.3.3.2.4.4.3.3.3.4.1.3.3.3.1h.5l.3.1.6-.1 1.1-.1.4-.1.4-.2.5-.1.7-.4.3-.4.3-.2.2-.3.2-.4.2-.4.1-.5.2-.4v-.4l.2-1.4.1-1.3-.1-.5v-.6l-.1-.4-.1-.6-.2-.4-.2-.4-.1-.4-.2-.4-.3-.3-.3-.3-.2-.2-.4-.3h11.3l.2.3.3.2.3.3.2.4.2.6.2.4.2.6.1.7zM30.7 292.1h260.5V29.9H30.7z"/><path fill="#ce0f3e" d="M263.1 159.3v39.2h-33.9l-45.9 46.3-22.3 22.4h-34.4v-34.6l-67.7-70.4v-35.8h35L140.5 77l19.9-21 36.7-.1v36.4zm-28.7-.2L196 119.7l-12.6.1-20.6.2v6.1l20.6-.1h12.3l34.7 33.6zm-14.2 38.3-.3-33.4H214v33.1l-30.6 31.6-19.7 20.2.6 4 19.1-18.9zM163.4 232l.6 4 19.3-19 19.8-19.6-.3-33.4h-5.9v33.1l-13.6 14.3zm-1.8-37.3 21.6-21.2 11.8-11.6-11.8-12.5-20.3-21.5-22.5 22-10.9 10.8 10.9 11.5zm-.7 26.5v-6l-20.5.1H128l-51.5-50.5-4 .6 55.3 56.1 12.6-.1zm-71.6-56.1 38.4 39.4 12.7-.2 20.5-.2v-6H128l-34.7-33.6zm70.3-76.8-19.3 19-19.8 19.6.3 33.3h5.9v-33.1l13.6-14.2 19.8-20.6zm-56.1 38.6.2 33.4h6v-33.2l30.7-31.5 19.5-20.2-.5-4-19 18.8zM251 159l-55.2-56.2-12.6.2-20.6.1v6h20.6l12.3-.1 51.6 50.5z"/><path fill="#fff" d="M-3365.9-37.5h722.7v261.3h-722.7z"/><path fill="#176fc1" d="M-3356.3-24.7h178v179.2h-178z"/><path fill="#ce0f3e" d="M-3356.3 158.9h703.6V211h-703.6z"/><path fill="#176fc1" d="M-3173.7-24.4h521v178.9h-521z"/><path fill="#fff" d="m-2687.1 93.1-4.6 24.4h-7.5l.5-2.8h-.1l-.2.4-.4.5-.3.3-.4.3-.4.3-.4.3-.4.2-.2.2-.2.1-.4.2-.5.2-.4.1-.4.1-.4.1-.5.1-.4.1h-.6000000000000001l-.2.1h-.3l-.6-.1h-.5l-.6-.1-.5-.1-.5-.1-.5-.2-.4-.2-.5-.2-.4-.3-.4-.2-.4-.4-.4-.3-.3-.4-.4-.4-.3-.4-.3-.5-.3-.5-.2-.5-.2-.5-.2-.5-.2-.6-.1-.5-.1-.6-.1-.6-.1-.5v-.6l-.1-.6v-.6l.1-.6v-.6l.1-.7.1-.6.1-.7.2-.6.2-.6.1-.6.3-.7.2-.5.3-.6.3-.6.2-.6.4-.5.3-.5.4-.6.4-.5.4-.5.4-.5.5-.5.4-.5.5-.4.4-.4.5-.4.5-.3.5-.4.5-.3.5-.2.6-.2.5-.2.5-.2.6-.1.6-.1.6-.1.5-.1h1.2l.2.1h.4l.4.1.4.1.3.1.4.1.4.1.3.2.4.2.4.2.3.2.3.3.2.2.3.3.2.3.3.4.2.3.4-2.4zm-9.4 10.6v-.5l-.2-.5v-.4l-.2-.5-.3-.4-.1-.1-.1-.3-.2-.1-.1-.2-.2-.2-.2-.1-.2-.1-.4-.2-.2-.1-.2-.1h-.3l-.2-.1h-1.4l-.4.1h-.4l-.2.1-.3.1-.2.1-.3.1-.2.2-.2.1-.3.2-.4.3-.4.4-.4.4-.3.4-.3.5-.2.5-.3.4-.2.5-.1.6-.2.5-.1.6v1.6l.1.4.2.5.2.4.2.4.2.2.1.2.1.2.2.1.1.2.2.1.2.1.2.1.2.1.3.1h.2l.2.1h.2l.6.1h.8l.5-.1.3-.1h.3l.2-.1.3-.1.2-.1.2-.1.3-.1.2-.2.4-.3.4-.4.4-.4.3-.4.3-.5.3-.4.2-.6.2-.5.2-.5v-.6l.2-.5v-.6zm-17.7-17.3-.3.4-.4.4-.4.3-.3.3-.5.3-.4.2-.4.1-.4.1-.4.1h-.9l-.3-.1-.4-.1-.4-.1-.3-.2-.3-.3-.3-.3-.2-.3-.3-.4-.1-.4-.2-.4-.1-.4v-1.4l.1-.4v-.5l.2-.5.2-.5.3-.4.1-.4.4-.5.2-.3.4-.4.4-.3.4-.3.4-.3.4-.2.4-.1.4-.1.5-.1h.8l.4.1.4.1.3.2.3.2.3.2.3.3.3.4.2.3.2.4.1.4.1.4v1.9l-.1.4-.2.5-.2.5-.2.4-.2.4zm-13 31.1 4.5-24.4h7.5l-4.5 24.4zm2.6-39.5-7.2 39.5h-7.6l.5-2.8h-.1l-.3.4-.3.5-.4.3-.3.3-.4.3-.4.3-.4.2-.2.2-.2.1-.5.2-.4.2-.4.1-.4.1-.5.1-.4.1-.4.1h-.6l-.2.1h-.3l-.6-.1h-.6l-.5-.1-.5-.1-.5-.1-.5-.2-.5-.2-.4-.2-.5-.3-.4-.2-.3-.4-.4-.3-.4-.4-.3-.4-.3-.4-.3-.5-.3-.5-.2-.5-.3-.5-.1-.5-.2-.6-.1-.5-.2-.6-.1-.6v-.5l-.1-.6v-1.7999999999999998l.1-.6.1-.7.1-.6.1-.7.1-.6.2-.6.2-.6.3-.7.2-.5.2-.6.3-.6.3-.6.3-.5.4-.5.3-.6.4-.5.4-.5.5-.5.4-.5.5-.5.4-.4.5-.4.5-.4.5-.3.5-.4.5-.3.5-.2.6-.2.5-.2.5-.2.6-.1.5-.1.6-.1.6-.1h1.2l.2.1h.4l.7.2.4.1.4.1.4.1.3.2.4.2.3.2.3.2.6.5.3.3.2.3.3.4.1.3 3.3-17.5zm-12.2 25.7-.1-.5-.1-.5-.1-.4-.2-.5-.2-.4-.1-.1-.1-.3-.2-.1-.1-.2-.2-.2-.2-.1-.2-.1-.2-.1-.2-.1-.2-.1-.2-.1h-.3l-.2-.1h-1.4l-.5.1h-.30000000000000004l-.3.1-.2.1-.3.1-.2.1-.2.2-.2.1-.2.2-.5.3-.4.4-.4.4-.3.4-.3.5-.3.5-.2.4-.2.5-.2.6-.1.5-.1.6-.1.6v.5l.1.5.1.4.1.5.2.4.3.4.1.2.1.2.2.2.2.1.1.2.2.1.2.1.2.1.2.1.2.1h.2l.3.1h.3l.2.1h1.1l.4-.1h.1l.3-.1h.2l.3-.1.2-.1.3-.1.2-.1.2-.1.3-.2.4-.3.4-.4.4-.4.3-.4.3-.5.3-.4.2-.6.2-.5.1-.5.2-.6v-.5l.1-.6zm-20.5-5.8v.4l.1.5v1l-.1.5v1l-.1.6-.1.5-2.8 15h-7.5l2.2-11.8v-.4l.1-.2v-.2l.1-.2v-.2l.1-.3v-.4l.1-.5v-1.7l-.1-.4-.1-.3-.1-.3v-.2l-.1-.2-.1-.1-.1-.1-.1-.1-.1-.1-.1-.1-.2-.1-.3-.1-.4-.1-.4-.1h-.7l-.5.1h-.3l-.2.1-.3.1h-.2l-.2.1-.2.1-.2.2-.2.1-.2.1-.2.2-.1.2-.2.2-.1.2-.3.4-.2.5-.3.4-.2.5-.2.5-.2.5-.1.6-.1.5-2.3 12.6h-7.5l4.4-24.3h7.6l-.6 3.1h.1l.4-.5.5-.5.4-.5.4-.3.5-.4.4-.3.4-.3.5-.2.4-.2.5-.2.5-.2.5-.1.5-.1h.5l.5-.1h1.1l.5.1h.5l.4.1.4.1.5.1.3.2.4.1.3.2.4.2.2.3.6.5.2.3.2.3.2.3.1.4.2.3.1.4.1.4.1.4.1.5zm-23.9-16.3-6.6 35.8h-8.1l6.7-35.8zm-24.7-3.4.3.2-1.3 7.4h-.2l-.2-.1-.1-.1-.2-.1-.2-.1-.3-.1-.2-.1h-.2l-.2-.1h-.2l-.3-.1h-.2l-.4.1h-.3l-.3.1-.3.1-.3.1-.2.2-.2.2-.2.2-.2.3-.2.3-.2.4-.1.3-.2.4-.1.5-.1.4-.1.5-.7 3.9h5.2l-1.3 7.2h-5.2l-3.2 17.2h-7.5l3.2-17.2h-2.7l1.3-7.2h2.7l.6-3.1.1-.9.2-.9.2-.9.3-.9.1-.4.2-.4.1-.4.2-.4.2-.4.2-.4.3-.4.2-.4.2-.2.1-.2.2-.2.1-.2.2-.2.2-.2.2-.3.2-.1.4-.5.5-.5.4-.4.5-.4.5-.3.5-.3.5-.3.5-.3.6-.2.5-.2.5-.1.5-.2.6-.1.5-.1h1.9l.4.1h.4l.4.1.3.2zm-21.2 23.5.1.6-.1.7v.7l-.1.8-.3 1.5-.2.8-.2.7-.2.7-.2.6-.4.7-.3.6-.3.6-.4.6-.3.6-.5.5-.4.6-.5.4-.5.5-1 .9-.6.4-.6.4-.5.4-1.2.6-.5.3-.6.2-.6.2-.6.2-.6.2-1.3.3h-.6l-.6.1h-.6l-.7.1-.6-.1h-.6l-.6-.1h-.6l-.6-.2-.5-.1-.6-.2-.5-.1-.5-.3-.5-.2-.5-.3-.4-.3-.5-.3-.4-.4-.5-.4-.4-.4-.4-.4-.3-.5-.3-.4-.3-.5-.2-.6-.2-.5-.2-.5-.2-.6-.1-.6-.1-.7v-2.6999999999999997l.1-.8.1-.7.2-.8.2-.8.2-.7.2-.7.3-.6.3-.7.3-.6.7-1.2.4-.6.4-.6.4-.5.5-.5.5-.5.5-.4.5-.5.6-.4.5-.4.7-.3.5-.4.6-.3.6-.2 1.2-.5.6-.2.6-.2.6-.1.6-.1.1-.1h.5l.6-.1h1.2999999999999998v-.1h.7l.6.1h.6l.5.1.6.1.6.2.5.2.6.2.5.2.5.3.9.5.5.4.4.3.4.4.4.4.4.5.3.4.4.5.2.5.3.5.2.6.2.6.1.5.1.7.1.6zm-8 1.9-.1-.5-.1-.5-.1-.4-.2-.5-.2-.4-.1-.1-.2-.3-.1-.1-.1-.2-.2-.1-.2-.2-.2-.1-.2-.1-.2-.1-.2-.1-.3-.1h-.2l-.3-.1h-1.3l-.5.1h-.1l-.2.1h-.3l-.2.1-.3.1-.2.2-.3.1-.2.1-.2.2-.4.3-.5.4-.3.4-.3.4-.4.5-.2.5-.2.4-.2.5-.2.6-.1.5-.1.6v1.6l.1.4.1.5.2.4.2.4.3.4.2.2.1.1.2.2.2.1.1.1.2.1.3.1.2.1h.2l.3.1.2.1h1.4l.4-.1h.1l.3-.1h.2l.3-.1.2-.1.3-.1.2-.1.2-.1.2-.2.5-.3.4-.4.7-.8.3-.5.2-.4.2-.5.3-.6.1-.5.1-.6.1-.5.1-.6zm-29.1-10.7-12.7 11.2 8.8 13.1h-10.5l-6.4-9.9-1.8 9.9h-7.5l7.2-39.4h7.6l-4.4 23.9 9.4-8.8zm-32 5.2.1.5v.4l-.1.6v1l-.1.5-.1.6-.1.5-2.7 15h-7.6l2.2-11.9.1-.1v-.4l.1-.2v-.2l.1-.3v-.4l.1-.2v-.5l.1-.4v-1l-.1-.4v-.3l-.1-.4-.1-.3-.1-.1v-.2l-.1-.1-.1-.1-.1-.1-.2-.1-.1-.1-.1-.1-.3-.2-.4-.1h-1.7000000000000002l-.3.1h-.2l-.2.1-.2.1-.3.1-.2.1-.2.1-.2.2-.1.1-.2.2-.3.3-.2.3-.3.4-.2.5-.2.4-.2.5-.2.5-.2.5-.1.6-.1.5-2.3 12.6h-7.6l4.5-24.3h7.6l-.7 3.1h.2l.4-.5.8-1 .5-.4.4-.3.4-.3.5-.3.4-.3 1-.3.4-.2.6-.1.4-.1.6-.1h2.1l.4.1.5.1.4.1.4.1.4.1.4.2.3.2.4.2.2.2.3.3.2.2.3.3.2.3.1.4.2.3.1.4.1.4.2.4.1.4v.4l.1.5zm-33.4-5.3h7.5l-4.5 24.4h-7.5l.5-2.8h-.1l-.3.5-.4.4-.3.3-.3.3-.4.3-.4.3-.4.3-.3.1-.2.1-.4.2-.4.2-.4.1-.5.2-.4.1h-.4l-.4.1h-.5l-.1.1h-1.1l-.6-.1-.5-.1-.5-.1-.6-.1-.4-.2-.5-.2-.4-.2-.5-.3-.4-.2-.4-.4-.3-.3-.4-.4-.6-.8-.3-.5-.3-.5-.2-.5-.3-.5-.2-.5-.1-.6-.2-.5-.1-.5-.1-.6-.1-.6v-2.4l.1-.6.1-.7.1-.6.1-.6.1-.7.2-.6.2-.6.2-.6.3-.6.2-.6.3-.6.3-.5.3-.6.4-.5.3-.6.4-.5.4-.5.4-.5.5-.5.5-.4.4-.5.5-.4.5-.4.5-.3.5-.4.5-.3.5-.2.5-.2.6-.2.5-.2.6-.1.5-.1.6-.1.6-.1h1.2l.2.1h.3l.4.1.4.1.4.1.4.1.3.2.4.1.3.2.4.2.3.2.3.3.3.3.3.3.2.2.2.4.3.3zm-2 10.6v-.5l-.1-.5-.1-.4-.2-.4-.2-.5-.1-.2-.2-.2-.1-.1-.2-.2-.1-.1-.2-.2-.2-.1-.2-.1-.2-.1-.2-.1-.3-.1h-.5l-.2-.1h-1.1l-.5.1h-.30000000000000004l-.3.1-.2.1-.3.1-.2.2-.3.1-.2.1-.2.2-.4.3-.4.4-.4.4-.4.4-.2.5-.3.5-.2.5-.2.4-.2.6-.1.5-.1.6-.1.5v.6l.1.5.1.5.1.4.2.4.2.4.1.2.2.2.2.2.1.1.2.2.2.1.1.1.3.1.2.1.2.1h.2l.3.1h.2l.5.1h.8999999999999999l.4-.1h.1l.3-.1h.2l.3-.1.2-.1.3-.1.2-.1.2-.1.2-.2.4-.3.5-.4.3-.4.4-.4.3-.4.2-.5.3-.5.1-.6.2-.5.2-.6v-1.1zm-20.1-16.6.1.5v1l-.1 1.1-.1.7-.1.6-.1.6-.1.6-.2.5-.2.6-.2.5-.2.5-.3.5-.2.5-.3.5-.4.4-.3.4-.4.4-.4.4-.5.3-.4.3-.6.3v.1h.4l.4.1.4.1.3.1.3.2.3.1.3.2.3.2.3.2.2.2.3.2.2.2.2.3.1.3.2.2.4.9.1.7.1.4.1.3v.4l.1.4v.8l-.1.8-.1.9-.1.9-.1.7-.2.7-.2.6-.2.6-.2.6-.3.5-.2.6-.4.5-.3.4-.3.5-.4.4-.3.4-.5.3-.4.4-.5.3-.4.3-.5.2-.5.3-.5.2-.5.2-.5.2-.5.2-.5.2-.5.1-.5.1-.6.1-.4.2h-.6l-.5.1h-14.1l6.6-35.8h12.1l.5.1h.5l.4.1.5.1h.4l.5.2.4.1.3.1.4.2.4.2.3.1.3.2.3.3.3.2.3.3.3.2.2.3.2.4.2.3.2.4.1.3.1.5.1.4zm-8.2 18.1-.1-.2v-.4l-.1-.2-.1-.2-.1-.2v-.1l-.2-.1-.1-.2-.1-.1-.2-.1-.3-.1-.3-.2-.4-.1-.3-.1-.4-.1-.4-.1h-.4l-.4-.1h-3l-1.4 7.8h3.3999999999999995l.4-.1h.3l.4-.2.8-.2.3-.1.4-.2.3-.2.4-.2.3-.2.3-.3.2-.4.2-.3.2-.4.1-.5.1-.5.1-.6.1-.5zm.4-14v-.4l-.1-.4-.1-.1v-.2l-.1-.2v-.1l-.2-.1-.1-.1-.1-.1-.1-.1-.3-.1-.3-.2-.3-.1-.3-.1h-.4l-.3-.1h-.3l-.4-.1h-1.3l-1.3 7h1.9000000000000004l.4-.1.3-.1.4-.1.3-.1.4-.1.4-.2h.1l.2-.1.2-.1.1-.1.2-.2.1-.1.1-.2.1-.2.2-.3.2-.4.2-.5.1-.6zm-37.6-13.2h7.4l-7.2 39.4h-7.5zm-15.3 15.1h7.5l-4.5 24.4h-7.4l.4-2.8h-.1l-.3.5-.3.4-.4.3-.3.3-.4.3-.4.3-.4.3-.2.1-.2.1-.4.2-.5.2-.4.1-.4.2h-.5l-.4.1-.4.1h-.6000000000000001l-.1.1h-.4l-.6-.1h-.5l-.6-.1-.5-.1-.5-.1-.5-.2-.4-.2-.5-.2-.4-.3-.4-.2-.4-.4-.4-.3-.3-.4-.4-.4-.3-.4-.3-.5-.3-.5-.4-1-.2-.5-.2-.6-.1-.5-.2-.5-.1-.6v-.6l-.1-.5v-1.3l.1-.6v-.6l.1-.7.1-.6.1-.6.2-.7.2-.6.2-.6.1-.6.3-.6.3-.6.3-.6.2-.5.4-.6.3-.5.4-.6.3-.5.5-.5.4-.5.4-.5.5-.4.5-.5.4-.4.5-.4.5-.3.5-.4.5-.3.5-.2.6-.2.5-.2.6-.2.5-.1.6-.1.5-.1.6-.1h1.2l.2.1h.4l.8.2.3.1.4.1.4.2.4.1.3.2.3.2.4.2.3.3.3.3.2.3.3.2.2.4.2.3zm-1.9 10.6-.1-.5-.1-.5-.1-.4-.2-.4-.2-.5-.1-.2-.1-.2-.3-.3-.2-.1-.2-.2-.2-.1-.2-.1-.2-.1-.2-.1-.2-.1h-.5l-.3-.1h-1.1l-.4.1h-.4l-.3.1-.2.1-.2.1-.3.1-.2.2-.2.1-.3.2-.4.3-.4.4-.3.4-.4.4-.3.5-.3.5-.2.5-.2.4-.2.6-.1.5-.1.6v1.6l.1.5.2.4.2.4.2.4.1.2.2.2.1.2.1.1.2.2.2.1.2.1.2.1.2.1.2.1h.2l.3.1h.2l.6.1h.8l.5-.1.3-.1h.3l.2-.1.2-.1.3-.1.2-.1.2-.1.3-.2.4-.3.4-.4.4-.4.3-.4.3-.4.2-.5.3-.5.2-.6.3-1.1.1-.6v-.5zm-18-10.9h1.5l-1.5 8.2h-.2l-.1-.1-.3-.1-.3-.2-.3-.1h-.3l-.3-.1-.3-.1h-1.8l-.3.1h-.3l-.3.1-.4.1-.3.1-.3.1-.3.2-.2.1-.3.2-.2.2-.2.2-.3.2-.1.3-.2.2-.4.6-.3.5-.3.7-.2.6-.3.7-.2.7-.2.7-.1.8-1.9 9.7h-7.4l4.5-24.3h7.5l-.8 4h.1l.4-.5.4-.5.4-.5.4-.5.4-.3.5-.4.5-.3 1-.5.5-.2.5-.2.5-.1.5-.2h.5l.6-.1zm-18.2 7.4h-4.3l-3.1 17.2h-7.5l3.1-17.2h-2.4l1.3-7.1h2.4l1.4-7.4h7.5l-1.3 7.4h4.2zM-3068 98v1.5l-.1.4v1.1l-.2 1.1-2.8 15h-7.5l2.2-11.9v-.2l.1-.2v-.5l.1-.3v-.2l.1-.2v-.3l.1-.2v-2l-.1-.3-.1-.4-.1-.3v-.1l-.1-.2-.1-.1-.1-.1-.1-.1-.1-.2h-.1l-.2-.1-.3-.2-.3-.1h-1.7l-.3.1h-.2l-.5.2-.2.1-.2.1-.2.1-.2.1-.2.2-.2.2-.1.2-.2.1-.1.2-.3.5-.3.4-.2.5-.2.5-.2.5-.1.5-.2.6-.1.5-2.3 12.6h-7.5l4.5-24.4h7.5l-.6 3.1h.1l.4-.5.9-.9.4-.4.5-.3.4-.4.4-.3.5-.2.9-.4.5-.1.5-.1.5-.1.5-.1h2.6l.4.1.5.2.4.1.4.1.3.1.4.3.3.1.3.3.2.3.3.2.2.3.2.3.2.4.3.7.1.4.1.4.1.4.1.4v.5zm-26.3 2.5v2.6999999999999997l-.1.7-.1.8-.1.7-.2.9h-15.8l-.1.7v.6l-.1.5.1.6v.4l.2.5.1.4.1.2.2.1.1.3.1.1.1.1.2.2.3.2.2.1.2.1.3.1.2.1h.2l.2.1h2.2l.3-.1.2-.1.1-.1h.2l.3-.1.2-.2.2-.2.3-.1.2-.2.2-.3.3-.2.2-.3.2-.3h7.2l-.2.6-.3.5-.2.5-.2.5-.3.4-.3.5-.3.4-.3.4-.4.4-.3.3-.4.4-.4.3-.3.3-.8.6-.5.3-.4.2-.5.2-.4.2-.4.2-.4.2-.5.2-.4.1-.5.2-.4.1-.4.1h-.5l-.5.2h-1.3l-.5.1-.6-.1h-1.2999999999999998l-.6-.2-.5-.1-.6-.1-.5-.2-.5-.2-.5-.1-1-.6-.4-.3-.8-.7-.5-.3-.3-.4-.4-.5-.3-.4-.3-.5-.2-.5-.2-.5-.2-.5-.2-.6-.1-.6-.1-.6-.1-.6v-2.0999999999999996l.1-.7.1-.8.1-.8.2-.7.2-.7.2-.8.2-.6.2-.7.3-.7.3-.6.3-.6.3-.6.4-.6.3-.5.4-.5.4-.5.5-.5.4-.5.5-.4.5-.4.5-.4.5-.4.5-.3.5-.4.6-.2.5-.3.6-.2.6-.2.6-.2.6-.1.6-.2.6-.1h.6000000000000001l.6-.1h1.4l.6.1.6.1h.6l.6.2.5.1.6.2.5.3.5.2.4.2.5.3.4.4.3.3.4.4.3.4.3.5.3.4.3.5.2.5.2.6.2.5.1.6.1.6.1.6zm-15.2.8h8.7v-.4l-.1-.4v-.4l-.2-.3-.1-.4-.2-.3-.2-.3-.2-.3-.3-.2-.2-.2-.3-.2-.4-.1-.3-.1-.3-.1-.4-.1h-.8l-.3.1h-.1l-.4.1h-.4l-.3.2-.4.1-.3.3-.4.2-.4.2-.3.3-.3.3-.3.4-.2.3-.2.4-.2.4zm-7.4-19.2-2.1 11.1-.2-.4-.2-.5-.3-.3-.3-.4-.4-.4-.4-.3-.3-.3-.5-.3-.4-.2-.4-.2-.5-.1-.5-.2-.4-.1-.5-.1-.5-.1h-1l-.5.1-.4.1h-.4l-.4.1-.5.2-.4.1-.4.2-.4.2-.4.2-.4.2-.4.3-.4.2-.3.4-.4.2-.4.4-.3.4-.3.4-.4.3-.3.4-.2.5-.3.3-.3.5-.4.9-.4.9-.2.5-.1.5-.1.5-.1.5-.1.5-.1.5-.1.5-.1.5v1.4l.1.5v.4l.1.5.1.3.1.5.1.4.2.4.2.4.2.3.4.7.2.3.4.3.2.3.3.2.3.2.3.2.4.2.4.2.3.1.4.1.4.1.4.1.5.1h1.9l.5-.1.5-.2.5-.1.5-.2.5-.1.5-.3.5-.3.5-.3.5-.3.5-.3.4-.4.4-.4.4-.4.4-.4-2 11.1-.6.2-.5.2-1.1.4-.5.1-.6.2-.5.1-.5.1-.4.1-.4.1h-.4l-.3.1h-.8l-.4.1h-.4l-.9-.1h-.7l-.8-.1-.8-.2-.7-.1-.7-.3-.7-.3-.7-.3-.7-.3-.7-.4-.6-.4-.6-.5-.6-.5-.5-.6-.6-.5-.5-.6-.5-.7-.4-.7-.4-.7-.4-.8-.3-.8-.2-.8-.2-.8-.2-.8-.1-.9-.1-.9-.1-.9v-.9l.1-1 .1-.9.1-1 .1-1 .2-.9.2-.9.3-.9.3-.8.3-1 .4-.8.4-.9.4-.8.5-.9.5-.8.5-.8.5-.8.7-.7.6-.7 1.2-1.4.7-.6.7-.6.8-.6.7-.5.7-.5.8-.5.8-.4.8-.4.9-.4.8-.3.8-.3.8-.2.8-.2.9-.1.8-.1.8-.1h1.3l.5.1.9.1.4.1.5.1.4.1.9.2.8.4.9.3zM-2739.2 26.8h56.9l-.4 4h-3.8l-2.2 22.8h-7.4l2.2-22.8h-6.8l-2.2 22.8h-7.3l.5-5.2-.6.4-.5.3-.5.4-.6.2-.5.3-.6.3-.5.2-.6.2-.5.2-.4.1h-.2l-.5.2-1.1.2h-.6l-.5.1h-1.5l-.9-.1-.8-.1-.9-.2-.3-.1-.4-.1-.4-.1-.4-.2-.3-.1-.3-.2-.4-.2-.3-.2-.3-.2-.3-.2-.3-.2-.2-.3-.3-.2-.3-.3-.2-.2-.3-.3-.2-.3-.2-.3-.2-.3-.2-.4-.4-.7-.3-.8-.3-.6-.2-.8-.2-.8-.1-.8-.1-.8-.1-1v-1.9l1.2-.5v.1h2.8l.5-.1.5-.1.4-.1.5-.2.4-.1.6-.2.5-.3.4-.3.2-.1.1-.2.1-.1.2-.2.1-.2.1-.2.1-.2.1-.2v-.2l.1-.2v-1.3l-.1-.3-.1-.3v-.3l-.1-.2-.2-.3-.1-.2-.2-.2-.1-.2-.2-.2-.3-.2-.2-.2-.2-.2h-13.1l-.6 6.2h-13.200000000000001l-.3.1-.2.1h-.1l-.1.1-.1.1-.3.2v.1l-.1.2v.1l-.1.1v.2l-.1.1v.7l.1.2.1.2v.1l.1.1.2.1.1.2.2.1.2.1.4.1h8.5l.8.1.3.1.3.1.3.1.3.1.4.2.2.1.6.4.3.2.3.2.2.2.3.2.3.3.2.3.2.3.3.2.1.3.1.3.2.3.1.4.1.2.1.4.1.3v.4l.1.3v1.2000000000000002l-.1.4-.1.6-.1.4-.1.5-.1.5-.2.4-.1.5-.3.4-.2.4-.2.4-.6.7-.3.4-.3.4-.3.3-.4.4-.8.6-.4.3-.5.2-.4.3-.5.2-.5.2-.5.2-.5.1-.6.2-.6.1-1.1.2-.6.1h-2.3l-1-.1-1-.2-1.1-.1-1.4-.3-1.4-.4-1.2-.3-1.2-.3-1-.4-1-.4-.4-.2-.5-.2-.4-.2-.3-.2-.4-.2-.2-.2-.3-.2-.4-.3-.2-.2-.3-.3-.3-.4-.3-.3 2.4-6 .1.1v.1l.1.2.3.2.3.3.5.3.5.4.7.3.8.5.9.4.9.5.9.4.8.3.9.3.9.2.9.2.8.2.6.1h3l.5-.1.3-.1.4-.1.3-.2.3-.1.3-.1.3-.2.2-.2.2-.2.1-.3.2-.2.1-.4.1-.2v-.7l-.1-.2-.1-.2-.2-.2-.1-.2-.2-.2-.3-.1-.2-.2-.2-.1-.2-.1-.3-.1h-.3l-.4-.1h-6.8999999999999995l-.4-.1-.7-.1h-.3l-.3-.1-.4-.2-.3-.1-.6-.3-.3-.1-.4-.3-.2-.2-.3-.2-.3-.2-.3-.3-.3-.2-.3-.3-.2-.3-.2-.3-.2-.2-.2-.3-.1-.3-.1-.3-.1-.3-.1-.4-.1-.3V40l-.1-.3V39l.1-.3v-.4l.1-.3.1-.3.1-.3.2-.4.1-.2.2-.3.2-.3.2-.3.2-.3.3-.2.2-.3.4-.2.2-.3.4-.2.6-.4.6-.3.7-.3.7-.2.7-.2.6-.1.7-.1h7.8999999999999995l.2-2h-20.8l-2.2 22.8h-7.4l2.2-22.8h-3.9l.4-4h2.9l-.1-.2-.1-.3v-.2l-.1-.3v-1.2999999999999998l.1-.6.1-.6.1-.7.2-.6.2-.6.3-.6.2-.5.3-.5.4-.5.3-.5.4-.4.5-.5.4-.4.5-.4.5-.3.6-.4.5-.3.7-.3.6-.3.7-.2.7-.3.8-.2.7-.2.8-.2.9-.1.8-.1.9-.1 1-.1 1-.1h4.2l1.1.1h1.1l1 .1 1 .2.9.1.9.2.8.2.8.2.8.2.7.3.7.2.6.3.6.4.5.3.4.4.4.3.3.3.3.4.3.3.2.4.2.4.2.4.2.5.2.9.1.5v.4l.1.6v.5l-.1 1.1v.4l-.1.2v.3l-.1.3-.1.2-.1.2-.1.3-.1.1-.4.5zm-5.8-2.8v-1.3l-.1-.4-.1-.3-.2-.3-.2-.3-.2-.3-.2-.2-.3-.2-.3-.2-.3-.2-.4-.1-.4-.2-.4-.1-.5-.1-.5-.1-.5-.1h-.5l-.6-.1h-2.6999999999999997l-1.3.1-1.2.1-1.2.1-1.1.2-1 .2-.9.2-.4.1-.4.2-.4.1-.4.2-.3.1-.4.2-.3.2-.3.2-.2.2-.2.2-.3.2-.2.2-.2.2-.1.3-.1.2-.2.3-.1.2-.1.3v.3l-.1.3v1.5l.1.3.1.1.1.1v.2h.1l.1.1.1.1h.30000000000000004l.1-.1.1-.1h17.1l-.2-.3.4-.2.3-.2.3-.4.3-.3.1-.3.2-.3.1-.4zm36 17 1-10.2h-6l.3.3.3.4.2.5.1.4.1.5.1.5v1.1l-.1.3v.4l-.1.4-.2.4-.1.3-.1.3-.3.4-.4.5-.3.3-.3.3-.1.1-.3.1-.3.3-.3.2-.4.2-.5.2-.6.3-.6.2-.6.1-.6.2-.7.1-.6.2h-1.4v.7l.1.6v.5l.2.5.2.5.2.4.2.4.3.4.2.1.1.2.2.1.2.2.4.2.5.2.5.1.5.1h.6l.6.1.6-.1h.5l.5-.1.3-.1h.3l.5-.2.6-.2.4-.2.5-.3.5-.3.5-.4.5-.4.4-.3.4-.5.5-.5.4-.5zm-65.3-16.8-.4.3-.4.2-.5.2-.4.1-.5.2-.5.1h-1l-.5-.1-.5-.1-.4-.2-.5-.1-.4-.3-.4-.2-.4-.4-.3-.3-.3-.4-.1-.2-.2-.2-.1-.2v-.2l-.1-.3-.1-.2v-.2l-.1-.3v-1l.1-.5.1-.5.2-.5.2-.5.3-.4.3-.5.4-.4.4-.3.5-.3.4-.3.4-.3.5-.1.5-.2.5-.1.5-.1h.6l.5.1h.4l.5.1.4.2.4.2.4.3.4.3.3.3.3.3.3.4.2.5.2.4.1.4v.5l.1.5-.1.5v.5l-.2.5-.1.5-.3.4-.2.4-.3.4-.3.4-.4.4zm-32.5 2.6h31.1l-.4 4.1h-4.3l-.6 6.3h-14.7l-.4.1h-.2l-.3.1-.2.2-.2.2-.2.2-.2.3v.7l.1.1v.2l.2.1.1.1h.1l.2.1.2.1h9.2l.7.1.6.1.7.2.6.2.5.3.3.1.3.2.2.1.3.2.2.3.2.2.3.3.2.2.1.3.2.3.2.3.1.3.1.6.1.4.1.4v1.1l-.1.4-.1.4-.1.3-.1.4v.3l-.2.4-.1.3-.1.2-.2.3-.2.3-.1.3-.4.4-.3.2-.2.2-.2.2-.3.2-.9.5-.6.2-.6.2-.7.1-.7.2-.7.1h-.8l-.8.1h-2.2l-.8.1h-2.1l-.1.1v.1l-.1.1v.2l.1.2.1.2.2.1.3.2.3.1.4.1.4.1.4.1.6.1.6.1h.7l1.5.1h1.7l-.5 4.6h-.2l-.4.1h-3.1l-.9-.1h-.8l-.8-.1-.7-.1-.7-.1-.7-.1-.6-.1-.6-.1-.5-.2-.5-.2-.4-.2-.4-.2-.4-.2-.3-.3-.2-.2-.2-.2-.2-.2-.4-.6-.3-.3-.2-.4-.2-.3-.4-.9-.4-1-.4-1-.4-1.2-.7-.2-.7-.3-.6-.4-.6-.4.9-4.7.8.4.8.4.8.4.8.4.7.2.8.3.9.2.9.1.9.1 1.1.1 1.1.1h4l.4-.1.3-.1.3-.1.3-.2.2-.2.1-.2.2-.2.1-.3v-1.1l-.1-.1-.1-.1-.1-.1v-.1l-.1-.1h-.1l-.1-.1h-7.1l-.7-.1h-.7l-.7-.2-.6-.1-.7-.2-.6-.2-.6-.3-.5-.3-.3-.2-.3-.2-.3-.2-.2-.2-.2-.3-.3-.2-.1-.2-.2-.3-.1-.3-.1-.2-.1-.3v-.3l-.1-.3-.1-.3v-.7l.1-.3.1-.3.1-.7.1-.3.2-.3.1-.3.2-.2.2-.3.2-.2.2-.3.3-.2.3-.2.3-.3.3-.2.3-.1.6-.3.6-.3.6-.2.7-.2.7-.1.6-.1.8-.1h9.7l.2-2.1h-19.7zm-42.6 24.8.1.3.1.3v.8l-.1.4-.1.3-.1.3-.1.4-.2.3-.2.3-.3.2-.2.3-.3.2-.4.2-.3.2-.3.1-.4.2-.3.1h-1.5l-.6-.2-.3-.1-.3-.2-.3-.2-.3-.3-.3-.2-.2-.3-.2-.2-.1-.4-.1-.3v-1.5l.1-.4.3-.7.2-.3.2-.3.3-.3.3-.3.3-.2.3-.2.4-.2.3-.1.3-.1.4-.1.4-.1h.7l.4.1.3.1.3.1.3.2.3.2.3.2.3.2.1.3.3.3.1.2zm-11.5-24.8h41l-.4 4h-17.2l-.4 4.2.7-.4.7-.3.7-.2.8-.3.8-.1.8-.1.9-.1h1.9l.5.1.5.1.5.1.4.1.5.1.4.2.4.2.4.1.4.2.4.2.3.3.4.2.3.3.3.3.3.3.3.4.3.4.2.3.3.4.1.4.2.4.1.5.1.4.2.9.1.5v1.5l-.1.5-.1.5-.1.5-.1.5-.3.9-.1.4-.2.5-.2.3-.2.4-.3.4-.3.4-.3.3-.2.3-.4.4-.3.3-.4.2-.3.3-.4.2-.3.3-.4.2-.4.1-.3.2-.5.2-.4.1-.4.1-.4.1-.5.2h-.4l-.5.1-.5.1h-.5l-.5.1h-1.4l-.6-.1-.5-.1-.3-.1h-.2l-.2-.1-.3-.1-.1-.1-.2-.1-.1-.1-.2-.2.5-5.3.2.1.3.1.2.1h.3l.6.1h1l.5-.1h.4l.5-.1.3-.1.3-.1.4-.2.2-.1.3-.2.2-.2.2-.3.2-.3.1-.3.1-.3.1-.3.1-.3v-.9l-.1-.3-.1-.3-.1-.3-.1-.3-.2-.3-.3-.2-.2-.2-.3-.2-.3-.1-.4-.2h-.4l-.5-.1h-1.6l-.3.1h-.6l-.3.2-.3.1-.3.1-.2.1-.3.2-.3.1-.2.2-.2.2-.3.2-.2.2-.3.3-1.1 12.3h-7.4l.6-6-.6.3-.6.2-.6.2-.7.2-.7.1-.7.1h-2.1l-.5-.1-.4-.1-.8-.1-.4-.2-.4-.1-.4-.2-.3-.2-.4-.2-.3-.2-.4-.3-.3-.2-.3-.3-.3-.3-.3-.4-.3-.3-.3-.4-.2-.3-.2-.4-.2-.4-.2-.4-.2-.4-.2-.4-.1-.4-.1-.4v-.4l-.1-.4v-1.7999999999999998l.2-1.8.1-1.6.1-1.3.1-1.2.1-1 .1-.8v-.5l.1-.4h-2.1zm8 13.4.1.4.1.3.1.3.1.3.2.2.2.3.2.1.3.2.2.1.3.1.3.1h1l.3-.1h.3l.3-.1h.4l.3-.1.3-.1.3-.2.2-.1.3-.2.3-.2.2-.2.3-.2.3-.2.2-.3 1-9.8h-7.3v.6l-.1.6v.7l-.1.9-.1 1-.1 1.2-.1 1.2-.2 1.4v.5l-.1.5zm-8.1-14.7-.4.2-.6.1-1.1.3-.5.1-.6.1-.6.1h-.6l-.7.1h-1.9l-.6-.1h-.6l-.7-.1h-.5l-.6-.2h-.6l-.5-.2-.4-.1-.6-.2-.4-.2-.5-.1-.4-.3-.4-.2-.4-.3-.4-.2-.5-.4-.5-.5-.4-.4-.4-.6-.3-.5-.4-.6-.3-.6-.2-.6-.2-.8-.2-.8-.2-.7-.2-.7h7.9l-.1.2.1.3v.2l.1.3.1.2.3.3.1.3.2.2.2.2.2.1.2.2.2.1.2.1.2.1.2.2h.2l.5.1.6.1.5.1h.7l.5-.1.6-.1h.5l.5-.1.5-.2.4-.1.4-.2.4-.2.3-.2.3-.3.2-.2.1-.3.2-.3.2-.3.1-.4v-.3h8l-.4.7-.3.7-.3.8-.3.8-.4.6-.4.7-.4.5-.4.6-.5.5-.5.5-.6.4-.6.4-.4.3-.4.3-.5.2-.5.2zm-31.6 5.2.4-3.9h29.8l-.4 4h-3.8l-2.2 22.7h-7.4l2.2-22.7h-3.8v-.1h-2.9l-2.2 22.8h-7.4l1.1-11.4h-5.6l.3-3 .2-2.1h5.6l.6-6.3zm-1.8 14.3.1.5-.1.6v.5l-.1.5-.1.4v.1l-.1.5-.1.4-.2.5-.1.4-.2.4-.2.4-.2.4-.2.3-.3.4-.3.3-.3.3-.3.3-.3.2-.8.5-.3.3-.5.2-.4.2-.4.1-.5.2-.5.2-.5.1-.5.1-.5.1h-.6l-.6.1-.6.1h-2.5999999999999996l-.4-.1-.6-.1h-.7l-.5-.1-.7-.1-.5-.1-.6-.2-.6-.2-.5-.2-.6-.2-.5-.2-.5-.3-.5-.3-.5-.3-.6-.4-.5-.3-.5-.4-.5-.4-1-.9-.4-.4-.4-.5-.3-.4-.4-.4-.2-.5 3.8-5 .3.4.4.4.3.4.3.4.4.4.4.4.4.3.4.4.3.3.4.2.3.3.4.2.3.2.3.2.4.2.3.1.4.2.3.1.4.1.7.1h2.1l.5-.1.4-.1.4-.1.3-.1.3-.1.3-.2.3-.2.3-.3.2-.2.2-.4.2-.4.2-.4v-.5l.1-.5v-.8l-.1-.2V43l-.2-.2-.1-.2-.4-.3-.2-.2-.2-.1-.2-.1-.3-.1-.4-.1-.3-.1h-5.5l.4-4.6h6.1l.2-.1h.2l.2-.1.2-.1.2-.1.1-.2.2-.1.1-.2.1-.2.1-.2v-.2l.1-.2V35l.1-.2-.1-.3v-.3l-.1-.2-.1-.2-.2-.2-.1-.1-.2-.2-.3-.1-.2-.1-.3-.1-.3-.1-.3-.1h-1.2000000000000002l-1.6.1-.8.1-.8.2-.7.2-.8.3-.7.3-.7.4-2.1-5.2.7-.3.8-.3.8-.3.7-.4.7-.2.7-.2.6-.2.8-.2.7-.1.6-.1.7-.1h2.7l1.1.1.9.1.5.1.4.2.4.1.5.1.4.2.4.1.4.2.3.2.5.3.4.2.4.3.3.3.3.3.3.4.3.3.2.4.2.4.1.3.2.4.1.5v1.8l-.1.5-.1.4-.1.2v.2l-.3.7-.2.4-.2.3-.2.4-.3.3-.3.3-.3.2-.4.3-.7.5-.4.2-.5.2.6.4.4.3.5.4.4.3.4.4.3.4.3.4.3.4.2.4.2.5.2.4v.3l.1.2.1.5zm-76.4-18.2h43.8l-.4 4h-19.5l-.4 4.1.8-.4.8-.4.8-.4.8-.2.8-.2.7-.2h.4l.4-.1h1.7l.5.1.5.1.4.1.5.1.4.1.5.2.4.2.4.2.4.3.4.2.3.2.4.4.3.3.4.3.3.4.2.4.3.4.3.4.3.8.2.4.2.5.1.4.1.5v.4l.1.5v1.6l-.1.5-.1 1-.2.5-.1.5-.3.9-.2.5-.2.4-.3.4-.2.4-.3.4-.3.3-.3.4-.3.4-.4.3-.3.4-.4.2-.4.3-.3.3-.4.2-.4.2-.4.3-.4.1-.4.2-.4.1-.5.2-.4.1-.4.1-.5.1-.9.1h-2.8l-.3-.1-.3-.1h-.2l-.2-.1-.2-.2-.2-.2-.2-.2.6-6.7.3.1.3.2.3.1.4.1.3.1h.6l.3.1.4-.1h.4l.3-.1.4-.1.2-.1.3-.2.3-.2.2-.1.2-.3.2-.3.1-.3.2-.3V43l.1-.4v-.4l.1-.5v-.4l-.1-.4-.1-.6v-.2l-.2-.3-.1-.2-.2-.1-.2-.2-.3-.2-.3-.1-.3-.1h-.4l-.4-.1h-.5l-.6-.1-.5.1h-.3l-.3.1-.2.1-.3.1-.3.1-.3.2-.2.2-.3.2-.3.2-.3.2-.2.2-.3.3-.3.3-.2.3-1.2 12.3h-7.4l.5-4.4-.9.4-.9.4-.9.3-.9.2-.9.2-.9.2h-.8l-.9.1h-.9l-.4-.1h-.5l-.3-.1-.4-.1-.4-.1-.3-.2-.4-.1-.3-.2-.4-.2-.3-.2-.3-.2-.3-.3-.3-.3-.2-.3-.3-.3-.2-.3-.2-.3-.2-.4-.2-.4-.3-.7-.1-.4-.1-.4-.1-.4-.1-.5v-2.3l.1-.5v-.5l.1-.5.1-.5.2-.4.1-.5.2-.4.4-.9.2-.4.2-.4.3-.4.2-.3.3-.4.3-.3.3-.4.4-.3.3-.3.4-.3.3-.2.4-.3.4-.2.3-.2.4-.2.4-.1.5-.2.4-.1.4-.1h.5l.4-.1h.5l.5-.1.9.1.8.1h.4l.4.1.4.1.3.1.3.1.4.1.3.1.2.2.3.1.3.2.2.2.3.2-.6 5.6-.3-.3-.4-.4-.3-.2-.4-.2-.4-.2-.5-.1-.4-.1h-.5l-.4.1h-.4l-.4.1-.4.1-.3.1-.3.2-.3.1-.3.3-.2.2-.2.2-.2.3-.2.2-.1.4-.1.3-.1.4v1.4000000000000001l.1.4v.3l.2.2.1.2.2.3.2.1.3.2.3.1.2.1.3.1h.3l.3.1h.3l.4-.1h.4l.4-.1h.4l.3-.1.4-.1.3-.1.3-.1.4-.1.5-.4.3-.2.2-.2.3-.2.2-.3.3-.2 1.1-12h-16.8zm.4-1.6h-.5l-.4-.1-.5-.2-.4-.1-.4-.3-.4-.2-.4-.4-.4-.3-.3-.4-.1-.2-.1-.2-.1-.3-.1-.2-.1-.2v-.2l-.1-.2v-1.3l.1-.5.1-.5.2-.6.2-.4.2-.4.4-.5.3-.4.4-.3.5-.4.4-.2.5-.3.5-.1.5-.2.5-.1.5-.1h1l.5.1.4.1.4.2.5.2.4.3.3.3.4.3.3.3.3.4.2.5.1.4.2.4v1.5l-.1.5-.1.5-.2.5-.2.4-.3.4-.3.4-.3.4-.3.3-.4.4-.5.3-.4.2-.4.2-.5.1-.4.2h-.5l-.5.1zm-3.1 2.6-.3 3h-4.8l-2.2 22.7h-7.3l.5-5.3-.4.2-.5.3-.5.2-.5.2-.5.2-.5.2-.6.1-.5.1-.6.1-.5.2h-.6l-.6.1-.6.1h-.1l-.5.1h-2.6l-.5-.1h-.4l-.4-.1-.4-.1-.4-.2-.4-.1-.4-.1-.4-.2-.3-.2-.4-.2-.4-.2-.3-.3-.3-.2-.4-.3-.4-.4-.3-.3-.3-.4-.3-.3-.2-.4-.2-.4-.2-.4-.1-.4-.1-.5-.2-.4v-.5l-.1-.5v-1.5l.1-.5v-.5l.2-.6.1-.5.2-.4.2-.5.2-.4.2-.5.3-.4.3-.4.3-.4.4-.4.3-.3.4-.3.4-.4.5-.3.4-.2.4-.3.4-.2.4-.2.4-.1.5-.2.4-.1.5-.2.5-.1.5-.1 1-.1.5-.1h.9l.1-.1h.6l1.3.1h1.1l1.1.1.8.1.8.1.6.1.2.1.2.1.2.1.1.2-.5 4.5h-.3l-.4-.1-.5-.2-.6-.1-.6-.2-.6-.1-.6-.1-.4-.1-.4.1h-.4l-.5.1h-.5l5.2 5 .2-.1.2-.1.2-.1.3-.1.3-.2.4-.2 1.1-11h-19.9l.4-4h14.4l-.1-.1-.4-.6-.4-.6-.3-.3-.2-.1-.3-.2-.3-.2-.2-.1-.3-.1-.3-.1-.3-.1h-.3l3.4-4.7.8.6.8.6.7.6.7.7.8.8.7.7.6.8.6.7.5.7.4.7.2.3h2.4l-.4-.7-.4-.9-.5-.8-.5-.7-.6-.8-.5-.7-.6-.7-.6-.7-.6-.5-.6-.6-.7-.6-.6-.5-.7-.6-.7-.4-.8-.5 5.2-4.2.5.4.5.4.6.5.5.4.5.5.4.5.5.5.5.5.5.6.6.7.5.6.5.7.4.7.5.6.4.7.5.7.4.7.4.8.3.7.4.7.3.7.3.8.2.5h1.8zm-17.6 15.9-3.5-3.2-1.8-1.7-.2.2-.3.1-.2.2-.2.2-.1.2-.2.1v.3l-.1.2-.1.3-.1.2v.3l-.1.4v1.2000000000000002l.1.4.2.2.2.3.2.2.3.2h.2l.3.1.3.2h.8l.4.1h.5l.5-.1h.6l.3-.1.4-.1.8-.2zm-116.3-17h94.5l-.4 4.1h-6.9l-.5 4.7.4.4.2.3.6.8.2.4.2.4.1.6.2.4.1.6.1.5.1.6V43l-.1.7v.6l-.1.6-.2.6-.1.5-.2.6-.1.5-.2.5-.3.6-.2.4-.3.5-.2.5-.4.5-.3.4-.3.5-.4.4-.4.4-.4.4-.4.4-.5.3-.4.3-.4.3-.4.3-.5.2-.4.2-.5.2-.4.2-.5.2-.5.1-.4.1h-.5l-1 .1h-1.2l-1.1-.1-.9-.1-.8-.1h-.4l-.3-.1-.3-.1h-.3l-.2-.2-.2-.1-.1-.1-.2-.1.6-5.6.1.1.3.2.5.2.6.1.7.2.7.1h1.6l.4-.1.4-.2.3-.1.8-.5.2-.2.3-.4.3-.4.2-.4.2-.4.2-.5.2-.6.2-.5.1-.7.1-.7v-.6l.1-.5v-1l-.1-.5-.1-.4-.1-.4-.1-.3-.1-.2-.1-.2-.2-.1-.1-.2-.1-.1-.2-.1-.1-.1-.2-.1-.1-.1-.3-.1-.1-.1h-1.9000000000000001l-.4.1-.4.2-.3.2-.3.3-.3.3-.3.3-.3.5-.3.4-.1.5-.2.4-.2 2.4h-6.9l.3-2.9-.1-.4-.1-.3-.1-.3-.1-.2-.2-.3-.2-.1-.3-.2-.3-.2-.4-.1-.4-.1h-1.8l-.2.1-.2.1h-.2l-.2.1-.2.1-.2.1-.1.2-.2.1-.1.2-.2.2-.1.1-.2.2-.1.3-.2.4-.1.5-.2.4-.1.5-.1.6-.1.6-.1.7-.1.6v1.2l.1.5.1.5.2.5.1.2.1.2.3.4.3.3.3.3.3.2.3.2.3.1.3.1.4.1h.4l.3-.1.4-.1.5-.1.4-.2.5-.2.5-.2.6-.3.6-.3-.6 6.1-.1.1-.2.1-.2.1-.2.1-.6.2-.6.1-.8.2h-.8l-1 .1h-1.1l-1-.1h-.4l-.5-.1-.4-.1-.5-.2-.4-.1-.8-.4-.4-.3-.4-.3-.4-.3-.3-.3-.3-.3-.4-.4-.7-.8-.3-.5-.2-.4-.3-.5-.2-.5-.2-.5-.2-.5-.1-.5-.2-.5-.1-.5v-.6l-.1-.5v-1.7999999999999998l.1-.6v-.6l.1-.6.1-.6.1-.5.2-.6.2-.5.2-.6.3-.5.5-.9.3-.5.3-.5.4-.4.3-.4.4-.4.4-.4.5-.3.3-.3.5-.3.4-.3.4-.3.4-.2.5-.2.4-.1.5-.2.4-.1.5-.2.5-.1.4-.1h1.1l.5-.1.6.1h1.2l.5.1.6.2.5.2.5.1.5.3.4.2.5.3.4.4.4.3.4.4.4.4.3.5.3.4.4-.5.5-.6.7-.7.8-.8.5-.3.5-.2.5-.2.4-.3.5-.1.5-.1h.4l.4-.1.5.1h1l.6.1.3-2.6h-32l-.7 7.4h-9.3l-.6.2-.6.2-.5.2-.5.2-.4.3-.4.3-.4.2-.4.4-.2.4-.4.3-.2.4-.2.5-.1.4-.2.5-.1.4v1.5l.1.3v.2l.1.1.1.3.1.2.2.2.1.1.1.2.2.2.2.1.2.2.2.2.4.2.4.2.5.2.5.1.5.2h.5l.6.1h1.5l.5-.1h.4l.5-.1.5-.1.4-.1.5-.1.4-.2.5-.1.4-.2.5-.2.4-.2.4-.3.5-.2.4-.2.6-.4.5-.4.5-.3.4-.3.3-.3.2-.3.1-.2.2-.2 1.8 6.7-.9.7-1 .6-1 .6-1 .5-1.1.4-1 .5-1 .3-1.1.3-1.1.2-.3.1 7.7 9.3-5.3 4.3-6.3-8.4-7.3 7-4.6-4.4 9-7.6-.4-.1-1.1-.3-.5-.2-.5-.2-.5-.2-.5-.3-.5-.2-.5-.3-.4-.4-.5-.3-.5-.5-.4-.4-.4-.4-.4-.5-.3-.5-.3-.5-.2-.6-.2-.5-.2-.6-.1-.6-.1-.5-.1-.6v-2.0999999999999996l.1-.7.1-.6.2-.7.2-.6.2-.7.2-.6.3-.5.4-.6.3-.6.4-.5.4-.5.5-.4.5-.5.5-.4.6-.5.6-.3.8-.5.8-.4.8-.3.8-.3.8-.2.8-.2h.3l.4-.1h4.3l.2-2.2h-43l-2.2 22.7h-7.3l.8-9h-7l.4-5.3h7.1l.8-8.4h-8.4l.2.2.2.3.2.3.1.2.2.3.1.3.1.3v.3l.1.3.1.3v.7l.1.4v.3l-.1.4v.4l-.1.5-.1.5-.1.5-.1.5-.1.5-.2.5-.2.4-.2.5-.2.4-.2.4-.3.4-.3.3-.2.3-.4.4-.3.3-.4.3-.3.2-.3.3-.4.2-.3.2-.4.2-.4.1-.5.2-.4.1-.4.2h-.5l-.4.1h-.5l-.5.1h-1.5v1.4l.1.4.2.5.2.4.2.4.3.4.3.2.3.2.4.2.4.1.5.1.5.1h.5l.7.1.9-.1.9-.1 1-.1 1.1-.2.8-.1.6-.1.4-.1h.1l-.6 5.6h.1v.1h-.1l-.1.1-.7.1-.9.2-.6.1h-.7l-.6.1-.6.1-.6.1h-2.8l-1-.1-.9-.1-.8-.1-.8-.2-.7-.2-.7-.2-.6-.3-.3-.2-.3-.1-.3-.2-.3-.1-.2-.3-.2-.2-.2-.2-.2-.2-.5-.4-.1-.3-.2-.3-.1-.2-.2-.3-.1-.3-.1-.3-.2-.8-.3-.9-.1-.8-.1-.9-.1-.9.1-.8v-.9l.2-.9h-2.6l.5-4.8h5.8l.5.1h.3l.4.1h.4l.9-.1.4-.1.4-.1.4-.2.3-.1.4-.2.2-.3.3-.2.2-.3.2-.3.2-.4.2-.4.1-.4.1-.5.1-.5v-.9l-.1-.4-.1-.4-.1-.2-.1-.2-.1-.1-.1-.2-.3-.2-.1-.2-.2-.1-.4-.2-.4-.2h-.2l-.1-.1h-10l.4-4.1h28.9l-.1-.3-.3-.7-.4-.7-.4-.6-.4-.6-.4-.5-.4-.6-.5-.6-.6-.4-1-1-.6-.4-.7-.4-.6-.4-.7-.4-.7-.3 4.7-4.3.5.2.4.2.6.3.4.2.5.4.4.3.5.3.4.4.6.4.5.6.5.4.5.6.5.6.5.6.4.6.5.6.8 1.3.4.8.5.7.4.7.4.8.3.8zm21.5 13.5.1.5V42l-.1.5v.4l-.1.3-.2.4-.1.4-.1.4-.2.4-.2.4-.2.3-.2.3-.3.4-.2.3-.4.4-.2.3-.4.3-.3.3-.4.3-.4.2-.4.3-.3.3-.4.2-.4.1-.5.2-.4.2-.4.1-.5.1-.4.2h-.5l-.4.1h-2.6l-.5-.1h-.5l-.5-.1-.5-.1-.4-.2-.5-.2-.4-.1-.4-.2-.4-.2-.4-.3-.3-.2-.4-.3-.3-.3-.3-.3-.3-.4-.3-.3-.2-.3-.2-.3-.2-.4-.2-.3-.1-.4-.1-.4-.1-.3-.1-.4-.1-.4v-2.1l.2-.7.1-.6.1-.6.2-.6.3-.6.2-.5.3-.5.3-.5.4-.4.3-.5.4-.4.5-.3.4-.4.5-.3.5-.3.5-.2.5-.2.5-.2.5-.2.6-.1.5-.1h.6l.5-.1h16.2l-.4 4.1h-13.9l-.4.1-.4.1-.4.1-.3.1-.4.2-.2.2-.3.2-.2.3-.2.3-.2.3-.1.4-.1.4-.1.4v1.4l.1.2.1.2v.3l.1.2.2.2.1.2.2.2.2.2.2.1.2.1.1.2h.5l.2.1.3-.1h.6l.2-.1.3-.1.2-.1.4-.2.2-.2.1-.1.2-.2.1-.2.1-.2.1-.3V42l.1-.2.1-.8v-1.1l-.1-.2v-.3l-.1-.3v-.2l-.2-.3v-.2l-.2-.2-.1-.2-.2-.2-.1-.1-.2-.1h6.3l.1.1.1.1.2.2.1.3.1.3.1.2.2.4v.3zM-3339.8-8h144.9v145.8h-144.9z"/><path fill="#ce0f3e" d="M-3210.5 63.9v21.9h-18.8l-25.6 25.7-12.4 12.5h-19.2v-19.3l-37.6-39.2V45.6h19.5l25.9-27.4 11.1-11.7 20.4-.1v20.3zm-16-.2-21.3-21.9-7.1.1-11.4.1v3.4l11.4-.1h6.9l19.3 18.8zm-7.9 21.3-.1-18.7h-3.3v18.5l-17.1 17.6-10.9 11.2.3 2.2 10.6-10.5zm-31.6 19.2.3 2.3 10.8-10.6 11-10.9-.1-18.6h-3.3v18.5l-7.6 7.9zm-1-20.8 12-11.8 6.6-6.4-6.6-7-11.3-11.9-12.5 12.2-6.1 6 6.1 6.4zm-.4 14.8v-3.4l-11.4.1h-6.9l-28.6-28.1-2.2.3 30.7 31.2h7zm-39.8-31.3 21.3 21.9h7.1l11.4-.2v-3.3h-18.3l-19.3-18.7zm39.1-42.7-10.7 10.6-11 10.8.1 18.6h3.3V45.8l7.6-7.9 11-11.5zm-31.2 21.5.1 18.5h3.3V45.8l17.1-17.5 10.9-11.3-.3-2.2-10.6 10.5zm82.1 17.8-30.8-31.2-7 .1h-11.4v3.4h11.4l6.9-.1 28.6 28.1z"/></g><g fill="#fff"><path d="M-3339.9 178.9h2.9v15.5h-3.1v-10.6h-4.2v-2c2.4-.3 4.4-1.5 4.4-2.9"/><path fill-rule="evenodd" d="M-3323.6 178.7c4.3 0 6.8 3.9 6.8 7.9 0 3.9-2.3 7.8-6.3 7.8-2.8.1-5.5-1.4-6-3.9l3.2-.3c.5.8 1.3 1.3 2.3 1.3 2 .1 3.3-1.6 3.6-3.5-.8 1.1-2.3 1.3-3.8 1.3-3.1 0-5.7-2.3-5.7-5.2.1-2.9 2.7-5.4 5.9-5.4m.2 7.7c1.6 0 3-.9 3-2.3s-1.4-2.4-3-2.4-2.9 1-2.9 2.4 1.4 2.3 2.9 2.3"/><path d="M-3304.9 178.9h3v15.5h-3.2v-10.6h-4.2v-2c2.5-.3 4.4-1.5 4.4-2.9M-3287.4 178.9h3v15.5h-3.2v-10.6h-4.2v-2c2.5-.3 4.4-1.5 4.4-2.9M-3271.9 184.4l2.3-1.3c.9 1.5 1.6 2.5 2.2 2.5.7 0 1.3-.5 1.3-1.2v-3.5h-6.6v-2.3h19.9v2.3h-2.8v13.7h-2.9v-7h-3.2l-1.1-2.3h4.3v-4.4h-4.8v4.1c.1 1.6-1 2.9-2.3 2.9-.5.1-.8-.1-1-.3l4.4 6-2.3 1zM-3265.6 172.1l1.8-1.5 8.1 8h-2.6zM-3230.4 187.7c-.7.4-1.2.5-1.5.5q-.5 0-1.9-.7c.4.4.6 1.1.6 1.8 0 2.3-2 4.2-4.6 4.2-3 0-6.1-2.6-7.6-6.4l2.1-1c1.3 3.1 3.4 5.1 5.4 5.1 1.1.1 2.1-1 2.1-2.4 0-1.6-2.1-2.7-4.2-2.1l-.7-2c2.1-.3 3.6-1.3 3.6-2.4 0-.9-.8-1.7-1.6-1.7-1.3.1-2.8.8-4.2 2.1l-1.4-1.7c1.5-1.6 3.5-2.5 5.6-2.5 2.4 0 4.4 1.7 4.4 3.8q0 1.35-1.2 2.7c1.2.7 2.3 1.1 3.3 1.1.4 0 1.1-.1 1.8-.5v-4.7h-2.6v-2.3h8.2v2.3h-2.8v13.7h-2.8z"/><path d="M-3222.7 180.9h-2.8v-2.3h8.5v2.3h-2.8v13.7h-2.9z"/><path fill-rule="evenodd" d="M-3207.5 189.1c-.9.8-2 1.3-3.1 1.3-3 0-5.4-2-5.4-4.5v-5h-1.7v-2.3h15.9v2.3h-2.8v13.7h-2.9zm0-2.6v-5.6h-5.7v5.3c0 1 1.1 1.9 2.6 1.9 1 0 2.2-.6 3.1-1.6"/><path d="M-3193.3 190.4c-.9.7-1.9 1.1-2.9 1.1-2.7 0-4.9-2.1-4.9-4.6-.1-2.7 2.3-4.8 5-4.8.4 0 .9 0 1.2.2l.5 2.2q-.4-.1-1.3-.1c-1.4 0-2.5 1.1-2.5 2.5-.1 1.2.9 2.2 2 2.2 1 0 2.1-.5 2.9-1.5v-6.7h-9.2v-2.3h21.1v2.3h-9v2.8c.6-.7 1.8-1.1 3.2-1.1 2.4 0 4.3 1.7 4.3 3.8 0 2.4-1.3 4.7-3.5 6.5l-2.1-1.8c1.6-1.2 2.5-2.9 2.5-4.5.1-1-.7-1.8-1.7-1.8s-2 .8-2.7 1.9v7.9h-2.9z"/><path d="m-3200.4 172.1 1.8-1.5 8.1 8h-2.6zM-3172.1 180.9h-2.9v-2.3h2.5q-.3-.9-.3-1.8c0-2.7 2.9-4.9 6.6-4.9 3.8 0 7.5 2.6 9.5 6.5h-2.9c-1.6-2.6-4.2-4.2-6.6-4.2-2.1 0-3.7 1.2-3.7 2.6 0 .7 0 1.3.3 1.8h3.1v2.3h-2.8v13.7h-2.8z"/><path d="M-3152.7 185.9c-1.6.1-3.2 1.7-3.8 3.9l-2.2-1.2c.1-.6.4-1.2.9-1.9-.9-.8-1.7-1.2-2.3-1.2-1.8 0-3.3 1.2-3.3 2.7 0 1.7 2.1 3.6 5.3 4.7l-1.3 1.9c-3.8-1.3-6.4-3.9-6.4-6.6 0-2.8 2.6-5.1 5.7-5.1 1.5 0 3 .7 4 1.9 1-1 2.2-1.6 3.4-1.6v-2.5h-14.5v-2.3h20.1v2.3h-2.7v13.7h-2.9z"/><path d="M-3139.6 196.7c1-.2 1.6-.5 1.6-1 .1-.4-.2-.9-.8-1.4l-5.2-4.3c-1.3-1.2-1.9-2.4-1.9-3.4v-5.7h-1.8v-2.3h14.3v2.3h-1.7v4.4c0 1.6-1.2 2.9-2.9 3.2-1.2-1.1-1.5-1.4-1.8-1.7 1.1-.2 1.8-1.2 1.8-2.4v-3.5h-5.1v6.2c0 .4.3.9.8 1.3l6.1 5.2c.8.9 1.3 1.5 1.3 1.9 0 1.4-1.3 2.6-3.1 2.9zM-3121.5 174.5h2.1l-1.4 5.5h-3.5zM-3111.6 174.5h2.1l-1.4 5.5h-3.5zM-3098.2 190.4c-.9.7-1.9 1.1-2.9 1.1-2.7 0-4.9-2.1-4.9-4.6-.1-2.7 2.2-4.8 5-4.8q.6 0 1.2.2l.5 2.2q-.4-.1-1.3-.1c-1.4 0-2.5 1.1-2.5 2.5-.1 1.2.8 2.2 2 2.2 1 0 2-.5 2.9-1.5v-6.7h-9.2v-2.3h21v2.3h-8.9v2.8c.5-.7 1.7-1.1 3.2-1.1 2.3 0 4.3 1.7 4.3 3.8-.1 2.4-1.3 4.7-3.5 6.5l-2.1-1.8c1.6-1.2 2.5-2.9 2.5-4.5.1-1-.7-1.8-1.7-1.8s-2 .8-2.7 1.9v7.9h-2.9z"/><path d="M-3096.8 172h3.5v3.2h-3.5zm-9.3.2 1.7-1.6 8.9 8h-2.5zM-3084.1 180.9h-2.8v-2.3h2.5q-.4-.9-.4-1.8c.1-2.7 3-4.9 6.6-4.9 3.8 0 7.5 2.6 9.6 6.5h-2.9c-1.7-2.6-4.2-4.2-6.7-4.2-2 0-3.7 1.2-3.7 2.6q0 1 .4 1.8h3.1v2.3h-2.9v13.7h-2.8z"/><path d="m-3069.4 192.4-6.9 4-1.1-1.6 4.5-2.5c-2.9-1-4.8-3.2-4.8-5.6-.1-2.1 1.8-3.8 4.1-3.8h4.5v-2h-10.1v-2.3h15.9v2.3h-2.9v4.1h-6.4c-1.4 0-2.6.6-2.6 1.4 0 2.2 2 3.9 4.5 3.9h.9c0-1.6 1-2.8 2.3-2.8 1.2-.1 2.2.8 2.2 1.8 0 .9-.4 1.8-1.3 2.4 1.3 1.9 1.7 2.5 1.9 3.1l-2.8.4c-.4-.4-1-1.3-1.9-2.8"/><path d="M-3051.9 185.6h-6.4c-1 0-1.9.6-1.9 1.5 0 1.9 1.8 4.2 4.7 6.1l-1.5 1.6c-3.5-2.3-5.7-5.2-5.7-7.9 0-2 2-3.7 4.4-3.7h6.4v-2.3h-12.1v-2.3h17.8v2.3h-2.8v13.7h-2.9z"/></g></g></svg>