<svg id="Layer_1" data-name="Layer 1" xmlns="http://www.w3.org/2000/svg" viewBox="0 0 720 213.79"><defs><style>.cls-1{fill:#03428e;}.cls-2{fill:#f37024;}</style></defs><title>CSB Bank New Logo</title><rect class="cls-1" width="720" height="213.79"/><path class="cls-2" d="M109.72,99.41a25.14,25.14,0,0,0-20.83,11.06,18.85,18.85,0,1,1,0,28.2,25.16,25.16,0,1,0,20.83-39.26"/><path class="cls-2" d="M112.51,74.77A25.16,25.16,0,0,0,110,98.21,18.88,18.88,0,1,1,133.34,114a25.16,25.16,0,1,0-20.83-39.26"/><path class="cls-2" d="M95.78,133a25.1,25.1,0,0,0,17.5-15.8,18.86,18.86,0,1,1-6.85-27.36A25.16,25.16,0,1,0,95.78,133"/><path class="cls-2" d="M241.94,71.67a37,37,0,0,0-21.66-6.87h-.71c-10.59.17-21,4.82-29.46,13a55,55,0,0,0-15.72,30.3c-2,12.26.56,23.35,7.24,31.2a29.42,29.42,0,0,0,22.9,10.25h.61c11.8-.22,22-5.5,25.75-7.49l1.17-.6,3.75-22.81-5.17,3.69c-4.34,3.1-12.44,8.87-22,9-4.56.07-8.16-1.43-10.72-4.42-3.48-4.09-4.77-10.83-3.51-18.47,2.84-17.35,14.73-25.43,24.55-25.6,8.21-.13,13,4.18,17.27,8l3.57,3.23,3.54-21.57Z"/><path class="cls-2" d="M356.76,64.5H318.53L305,149.72l32.74-.56c8.92-.14,17.39-2.67,23.8-7.08a28.34,28.34,0,0,0,12.43-19c1.17-7.17-.78-13.4-5.39-17.06a16.58,16.58,0,0,0-4.27-2.54,18.83,18.83,0,0,0,1.65-1.28,25.49,25.49,0,0,0,9.16-15.62c1-6.13-.39-11.78-3.89-15.91s-8.43-6.15-14.51-6.15m-11.07,50c3.42,0,6.14.92,7.52,2.52a5.38,5.38,0,0,1,1,4.55c-1.3,8-10.67,9.28-16.13,9.36l-10.54.18,2.67-16.34,15.18-.27ZM342.12,97.1l-9.13.17,2.07-12.84,13.68-.23H349c2.47,0,4.5.62,5.38,1.69a4,4,0,0,1,.6,3.38c-1.08,6.64-8.52,7.75-12.85,7.83"/><path class="cls-2" d="M461.79,86.56c1-6.13-.4-11.78-3.91-15.91s-8.43-6.15-14.53-6.15H405.17l-13.52,85.22,32.73-.56c8.94-.14,17.4-2.67,23.81-7.08a28.36,28.36,0,0,0,12.44-19c1.16-7.17-.81-13.4-5.41-17.06a16.64,16.64,0,0,0-4.25-2.54,18.83,18.83,0,0,0,1.65-1.28,25.55,25.55,0,0,0,9.17-15.62m-29.48,27.92c3.4,0,6.13.92,7.5,2.52a5.32,5.32,0,0,1,1,4.55c-1.27,8-10.63,9.28-16.1,9.36l-10.55.18,2.66-16.34,15.18-.27ZM428.74,97.1l-9.13.17,2.09-12.84,13.67-.23h.24c2.46,0,4.48.62,5.39,1.69a4.06,4.06,0,0,1,.59,3.38c-1.09,6.64-8.51,7.75-12.85,7.83"/><path class="cls-2" d="M519.31,133l4.15-28.14c1.13-7.75-.91-13.11-6.08-16a36.42,36.42,0,0,0-17.74-4.12c-10.51,0-18.45,2.82-23.63,8.36a28.9,28.9,0,0,0-6.63,13.59l-.22,1.07h17.18l.16-.52a13.33,13.33,0,0,1,2.88-5.33c1.7-1.71,4.36-2.58,7.9-2.58,3.2,0,5.56.43,7,1.3.46.29,1.87,1.12,1.41,4.3-.27,1.79-1.45,3.09-3.6,4a28.15,28.15,0,0,1-6.4,1.36l-5.53.67c-6.4.79-11.41,2.14-14.93,4-6.51,3.48-10.38,9.19-11.53,16.94-.89,6.07.38,10.86,3.72,14.22s7.93,5,13.69,5a26.47,26.47,0,0,0,12.56-3.09,42.07,42.07,0,0,0,7.15-4.86l-1.16,6H517L519.31,133m-15.88-12.84-.6,4.2C502,129.5,500,133,497,135a17.82,17.82,0,0,1-9.55,2.91,6.68,6.68,0,0,1-4.67-1.59c-1.07-1-1.44-2.73-1.07-5.16a7.9,7.9,0,0,1,4.25-6.22,25.56,25.56,0,0,1,7.4-2.12l3.67-.68a29,29,0,0,0,4.54-1.13,14.06,14.06,0,0,0,1.86-.77"/><path class="cls-2" d="M583.19,90c-3.72-3.47-8.91-5.24-15.44-5.24a23.9,23.9,0,0,0-13.56,3.86,29.16,29.16,0,0,0-5.05,4.62l1-6.9H533l-9.19,62.92h17.72l4.92-33.87a25.45,25.45,0,0,1,2.84-9.06c2.56-4.4,6.32-6.52,11.52-6.52,4,0,6.45,1.33,7.44,4.1.59,1.59.63,3.94.16,7l-5.55,38.32H581l6.16-42c1.13-8-.2-13.78-3.93-17.28"/><path class="cls-1" d="M468.45,5.24C464.73,1.76,459.54,0,453,0a23.9,23.9,0,0,0-13.56,3.86,29.16,29.16,0,0,0-5.05,4.62l1-6.9H418.21L409,64.5h17.72l4.92-33.87a25.46,25.46,0,0,1,2.83-9.06A12.37,12.37,0,0,1,446,15.05c4,0,6.45,1.33,7.44,4.1.59,1.59.63,3.94.16,7L448.07,64.5h18.15l6.16-42c1.13-7.94-.2-13.77-3.93-17.27"/><path class="cls-1" d="M451.08,154.53c-3.73-3.48-8.91-5.24-15.44-5.24a23.88,23.88,0,0,0-13.56,3.86,29.16,29.16,0,0,0-5.05,4.62l1-6.9H400.84l-9.19,62.92h17.71l4.93-33.87a25.26,25.26,0,0,1,2.83-9.06,12.36,12.36,0,0,1,11.52-6.52c4,0,6.46,1.33,7.45,4.1.59,1.59.63,3.94.15,7l-5.55,38.33h18.16l6.16-42c1.13-7.94-.2-13.77-3.93-17.27"/><path class="cls-1" d="M660.74,76.44c-3.48,3.72-5.24,8.91-5.24,15.44a23.88,23.88,0,0,0,3.86,13.56,29.16,29.16,0,0,0,4.62,5l-6.9-1v17.21L720,135.87V118.16l-33.87-4.93a25.46,25.46,0,0,1-9.06-2.83c-4.4-2.56-6.52-6.33-6.52-11.53,0-4,1.33-6.45,4.1-7.44,1.59-.59,3.94-.63,7-.15L720,96.83V78.67l-42-6.16c-7.94-1.13-13.77.2-17.27,3.93"/><path class="cls-1" d="M5.24,76.44C1.76,80.16,0,85.35,0,91.88a23.88,23.88,0,0,0,3.86,13.56,29.16,29.16,0,0,0,4.62,5l-6.9-1v17.21l62.92,9.19V118.16l-33.87-4.93a25.46,25.46,0,0,1-9.06-2.83c-4.4-2.56-6.52-6.33-6.52-11.53,0-4,1.33-6.45,4.1-7.44,1.59-.59,3.94-.63,7-.15L64.5,96.83V78.67l-42-6.16c-7.94-1.13-13.77.2-17.27,3.93"/><polygon class="cls-2" points="655.17 86.55 632.74 86.55 611.01 108.01 617.33 64.93 599.85 64.93 587.5 149.29 604.99 149.29 607.81 129.61 614.42 123.66 625.03 149.29 643.42 149.29 627.49 112.75 655.17 86.55"/><path class="cls-2" d="M280.46,82.34c9-.15,15,4,19.56,8l5,4.39,3.76-21.88-3.29-2.17a40,40,0,0,0-22.61-6.86l-.75,0c-17.68.29-31.67,10.73-34,25.33-.95,5.92.22,11.07,3.48,15.37l.13.16c4.42,5,10.42,7.16,18.66,9.13h.06c12.26,2.61,12.85,5.42,12.4,8.29-.92,5.63-8.19,9.68-14.13,9.77-10.2.15-18.29-6.53-22-10.1l-3.21-3.25-3.72,22.3,1.32,1a40.21,40.21,0,0,0,24.68,8.6h.78c35.54-.31,37.52-24.55,37.08-33.31a16.89,16.89,0,0,0-7.11-13.71c-4.75-3.57-11.23-5.33-16.92-6.56-12.22-2.81-11.86-5.1-11.56-6.94.57-3.52,5.46-7.42,12.35-7.54"/></svg>