<svg version="1.1" id="Layer_1" xmlns="http://www.w3.org/2000/svg" xmlns:xlink="http://www.w3.org/1999/xlink" x="0px" y="0px" viewBox="-192.3 -117.7 376.8 185.7" style="enable-background:new -192.3 -117.7 376.8 185.7;" xml:space="preserve">
 <style type="text/css">
  .st0{fill:#FFBB00;}
 </style>
 <g>
  <path d="M-99.6-107.1V28.3h-23.8v-6.2c-7,5.5-15.7,8.4-24.5,8.2c-24.6-0.1-44.4-20.1-44.3-44.7c0-0.7,0-1.3,0.1-2
		c-1.4-24.5,17.3-45.5,41.8-46.9c0.8,0,1.7-0.1,2.5-0.1c8.7-0.2,17.2,2.6,24.1,7.8v-51.7H-99.6z M-123.1-16.3
		c0.6-12.3-8.8-22.8-21.1-23.4c-0.6,0-1.1,0-1.7,0c-12.3,0-22.2,9.9-22.3,22.2c0,0.4,0,0.9,0,1.3c-0.5,12.2,8.9,22.5,21.1,23.1
		c0.4,0,0.7,0,1.1,0c12.3,0.3,22.5-9.4,22.8-21.6C-123.1-15.3-123.1-15.8-123.1-16.3 M-75.4-61.3h24.2v89.6h-24.2L-75.4-61.3z
		 M56.4-61.3v87c0.3,23-18,42-41.1,42.3c-1.1,0-2.1,0-3.2-0.1c-18.7,0.9-35.8-10.8-41.6-28.7l22.2-8.3c2.4,8.6,10.5,14.3,19.4,13.7
		c10.3,0.8,19.3-7,20.1-17.3c0.1-0.8,0.1-1.5,0-2.3v-7.3c-6.5,5.2-14.6,7.9-22.9,7.7c-23.4,0-42.4-19-42.4-42.4c0-0.6,0-1.1,0-1.7
		C-34.2-42.2-16-62.1,7.4-63.2c0.5,0,1,0,1.5,0c8.5-0.2,16.9,2.7,23.4,8.2v-6.2L56.4-61.3L56.4-61.3L56.4-61.3z M32.9-18.7
		c0.3-11.5-8.8-21.1-20.3-21.4C1-40.4-8.6-31.3-8.9-19.8c0,0.4,0,0.7,0,1.1C-8.6-7.1,1,2,12.5,1.6C23.6,1.4,32.6-7.6,32.9-18.7
		 M80.6-61.3h24.2v89.6H80.6V-61.3z M156.2-61.3h28.3v22.9h-28.3v33.2c-0.4,5.4,3.7,10.2,9.1,10.6c0.5,0,1,0,1.5,0h17.7v22.9h-22.8
		c-15.3,1-28.5-10.6-29.5-25.9c-0.1-1-0.1-2.1,0-3.1v-37.7h-12.8v-12.4l23.4-29h13.4L156.2-61.3z M-63.3-107H56.4v18.9H-63.3
		L-63.3-107z">
  </path>
  <path class="st0" d="M104.8-97.5l-18.3-20.2h-5.9v40.5h5.9L104.8-97.5z">
  </path>
 </g>
</svg>