<?xml version="1.0" encoding="UTF-8" standalone="no"?>
<!-- Created with Inkscape (http://www.inkscape.org/) -->

<svg
   xmlns:dc="http://purl.org/dc/elements/1.1/"
   xmlns:cc="http://creativecommons.org/ns#"
   xmlns:rdf="http://www.w3.org/1999/02/22-rdf-syntax-ns#"
   xmlns:svg="http://www.w3.org/2000/svg"
   xmlns="http://www.w3.org/2000/svg"
   xmlns:sodipodi="http://sodipodi.sourceforge.net/DTD/sodipodi-0.dtd"
   xmlns:inkscape="http://www.inkscape.org/namespaces/inkscape"
   width="47.562206mm"
   height="11.83957mm"
   viewBox="0 0 47.562206 11.83957"
   version="1.1"
   id="svg17967"
   inkscape:version="0.92.0 r15299"
   sodipodi:docname="edelweiss consulting.svg">
  <defs
     id="defs17961">
    <clipPath
       id="clipPath8926"
       clipPathUnits="userSpaceOnUse">
      <path
         inkscape:connector-curvature="0"
         id="path8924"
         d="M 0,2.751 H 557.008 V 737.008 H 0 Z" />
    </clipPath>
  </defs>
  <sodipodi:namedview
     id="base"
     pagecolor="#ffffff"
     bordercolor="#666666"
     borderopacity="1.0"
     inkscape:pageopacity="0.0"
     inkscape:pageshadow="2"
     inkscape:zoom="4.9899126"
     inkscape:cx="89.881334"
     inkscape:cy="22.373991"
     inkscape:document-units="mm"
     inkscape:current-layer="layer1"
     showgrid="false"
     fit-margin-top="0"
     fit-margin-left="0"
     fit-margin-right="0"
     fit-margin-bottom="0"
     inkscape:window-width="1280"
     inkscape:window-height="744"
     inkscape:window-x="-4"
     inkscape:window-y="-4"
     inkscape:window-maximized="1" />
  <metadata
     id="metadata17964">
    <rdf:RDF>
      <cc:Work
         rdf:about="">
        <dc:format>image/svg+xml</dc:format>
        <dc:type
           rdf:resource="http://purl.org/dc/dcmitype/StillImage" />
        <dc:title></dc:title>
      </cc:Work>
    </rdf:RDF>
  </metadata>
  <g
     inkscape:label="Layer 1"
     inkscape:groupmode="layer"
     id="layer1"
     transform="translate(11.307889,-142.91355)">
    <g
       id="g18083">
      <path
         inkscape:connector-curvature="0"
         id="path8886"
         style="fill:#254aa5;fill-opacity:1;fill-rule:evenodd;stroke:none;stroke-width:0.35277778"
         d="m -11.307889,142.91355 h 47.562206 v 11.83957 h -47.562206 z" />
      <path
         d="M 0.54579729,144.952 H 3.9680944 v 0.48613 H 1.0986001 v 1.64888 h 2.6878138 v 0.49107 H 1.0986001 v 1.80058 H 4.00055 v 0.48648 H 0.54579729 Z"
         style="fill:#ffffff;fill-opacity:1;fill-rule:evenodd;stroke:none;stroke-width:0.35277778"
         id="path8890"
         inkscape:connector-curvature="0" />
      <path
         d="m 6.6018633,149.5143 0.080786,-0.001 0.077258,-0.007 c 1.3666611,-0.0879 1.3645445,-2.76684 0,-2.8575 l -0.077258,-0.006 -0.080786,-0.002 c -1.3698361,-0.0476 -1.4488583,2.63631 -0.2060222,2.85503 l 0.064911,0.0106 0.069144,0.007 z m 0.8551333,0.17921 v 0 l -0.041981,0.0279 -0.042686,0.0268 c -1.4802555,0.76553 -2.5904471,-0.56832 -2.3533805,-2.03835 l 0.014817,-0.0889 0.016228,-0.0875 c 0.2243667,-1.40723 1.9445111,-1.81081 2.6941638,-0.77858 l 0.023636,0.0423 0.010583,0.0187 v -1.86372 h 0.5266972 v 4.91278 H 7.8115383 v -0.54081 l -0.011994,0.0212 c -0.070908,0.10936 -0.1615722,0.20602 -0.2628194,0.28822 l -0.039511,0.0307 z"
         style="fill:#ffffff;fill-opacity:1;fill-rule:evenodd;stroke:none;stroke-width:0.35277778"
         id="path8894"
         inkscape:connector-curvature="0" />
      <path
         d="m 12.197765,147.78688 -0.0014,-0.008 c -0.129822,-1.50601 -1.951567,-1.53952 -2.157236,0.004 l -0.0014,0.004 z m -2.164292,0.4572 v 0 0.009 c 0.02999,1.5046 1.801636,1.69016 2.137834,0.4572 l 0.02364,-0.0825 h 0.521405 l -0.03351,0.133 -0.01975,0.072 c -0.433211,1.72014 -3.1905223,1.51623 -3.1492473,-0.66182 l -0.00282,-0.0931 0.00282,-0.0875 c 0.041275,-2.41864 3.1968723,-2.43628 3.2011053,0.0212 l 0.0014,0.0931 -0.0032,0.13935 z"
         style="fill:#ffffff;fill-opacity:1;fill-rule:evenodd;stroke:none;stroke-width:0.35277778"
         id="path8898"
         inkscape:connector-curvature="0" />
      <path
         inkscape:connector-curvature="0"
         id="path8900"
         style="fill:#ffffff;fill-opacity:1;fill-rule:evenodd;stroke:none;stroke-width:0.35277778"
         d="m 13.871625,144.9519 h 0.524933 v 4.91313 h -0.524933 z" />
      <path
         d="m 19.897104,146.28415 h 0.553861 l -1.160639,3.58105 h -0.528108 l -0.830086,-2.8314 -0.825147,2.8314 h -0.534106 l -1.14935,-3.58105 h 0.553156 l 0.860425,2.88361 0.818797,-2.88361 h 0.558094 l 0.822325,2.88361 z"
         style="fill:#ffffff;fill-opacity:1;fill-rule:evenodd;stroke:none;stroke-width:0.35277778"
         id="path8904"
         inkscape:connector-curvature="0" />
      <path
         d="m 23.970488,147.78688 v -0.008 c -0.128411,-1.50001 -1.936397,-1.54623 -2.147006,0.004 l -0.0014,0.004 z m -2.151944,0.4572 v 0 0.009 c 0.03069,1.50566 1.788936,1.69051 2.12725,0.4572 l 0.02223,-0.0825 h 0.527402 l -0.03245,0.133 -0.02046,0.072 c -0.441325,1.71873 -3.184172,1.51659 -3.150306,-0.66182 l -0.0011,-0.0931 0.0011,-0.0875 c 0.04833,-2.42041 3.191228,-2.43311 3.201811,0.0212 l 0.0014,0.0931 -0.0021,0.13935 z"
         style="fill:#ffffff;fill-opacity:1;fill-rule:evenodd;stroke:none;stroke-width:0.35277778"
         id="path8908"
         inkscape:connector-curvature="0" />
      <path
         inkscape:connector-curvature="0"
         id="path8910"
         style="fill:#ffffff;fill-opacity:1;fill-rule:evenodd;stroke:none;stroke-width:0.35277778"
         d="m 25.656871,146.28399 h 0.513998 v 3.58104 h -0.513998 z m 0,-1.33209 v 0 h 0.51435 v 0.7747 h -0.51435 z" />
      <path
         d="m 29.65776,147.40839 -0.0056,-0.0931 -0.0053,-0.0452 -0.0067,-0.0423 c -0.09913,-0.59373 -0.85725,-0.69427 -1.31833,-0.49424 l -0.05821,0.0321 -0.05256,0.0342 -0.04833,0.0402 c -0.265642,0.28539 -0.159809,0.64134 0.194028,0.78069 l 0.05856,0.0268 0.05891,0.0212 c 0.426508,0.16087 0.954263,0.1524 1.334558,0.37747 l 0.04092,0.0236 0.04022,0.0268 0.0388,0.0293 0.0381,0.0293 c 1.494367,1.81504 -2.396772,2.63066 -2.574572,0.7045 l -0.01058,-0.0776 -0.01341,-0.13124 h 0.521053 l 0.0074,0.0942 0.0074,0.049 0.0088,0.0462 c 0.130528,0.6343 0.84455,0.77929 1.383242,0.6089 l 0.03669,-0.012 0.03775,-0.0148 0.03563,-0.0159 c 0.212725,-0.0956 0.373239,-0.25823 0.372181,-0.50447 l -0.0035,-0.067 -0.0127,-0.0582 c -0.09913,-0.46496 -1.138766,-0.51152 -1.459794,-0.64311 l -0.04939,-0.0159 -0.04763,-0.0159 -0.04657,-0.0187 -0.04551,-0.0173 -0.04516,-0.0198 c -0.779639,-0.29245 -0.746125,-1.35572 -0.02293,-1.68769 l 0.05398,-0.0261 0.05433,-0.0229 c 0.770466,-0.29351 1.840088,-0.10689 2.003425,0.8389 l 0.01094,0.0688 0.0078,0.0691 0.0078,0.12206 z"
         style="fill:#ffffff;fill-opacity:1;fill-rule:evenodd;stroke:none;stroke-width:0.35277778"
         id="path8914"
         inkscape:connector-curvature="0" />
      <path
         d="m 33.5822,147.40839 -0.0067,-0.0931 -0.0049,-0.0437 -0.0071,-0.0437 c -0.104422,-0.59373 -0.853722,-0.69427 -1.318331,-0.49424 l -0.0568,0.0321 -0.05292,0.0342 -0.04798,0.0402 c -0.264584,0.28328 -0.160162,0.63993 0.189441,0.7821 l 0.0575,0.0254 0.05856,0.0212 c 0.42792,0.16228 0.962025,0.15134 1.341967,0.37747 l 0.04269,0.0236 0.03986,0.0268 0.0381,0.0293 0.03775,0.0293 c 1.489781,1.81504 -2.399947,2.63102 -2.576689,0.7045 l -0.01023,-0.0776 -0.01341,-0.13124 h 0.521053 l 0.0081,0.0952 0.0049,0.048 0.0092,0.0462 c 0.127705,0.63536 0.84208,0.77894 1.380419,0.6089 l 0.0381,-0.0134 0.03775,-0.0134 0.03598,-0.0159 c 0.210608,-0.091 0.37853,-0.26176 0.374297,-0.50447 l -0.0035,-0.067 -0.0127,-0.0582 c -0.09278,-0.45861 -1.135944,-0.51258 -1.460853,-0.64311 l -0.04904,-0.0159 -0.04833,-0.0159 -0.04657,-0.0187 -0.0448,-0.0173 -0.04551,-0.0198 c -0.784225,-0.2921 -0.752122,-1.35431 -0.02505,-1.68769 l 0.05327,-0.0261 0.05468,-0.0229 c 0.767644,-0.29246 1.847144,-0.10972 2.003425,0.8389 l 0.01058,0.0688 0.0063,0.0691 0.0067,0.12206 z"
         style="fill:#ffffff;fill-opacity:1;fill-rule:evenodd;stroke:none;stroke-width:0.35277778"
         id="path8918"
         inkscape:connector-curvature="0" />
      <path
         d="m -8.9195489,149.03596 h 2.5459972 c -0.1545167,0.0346 -0.2966861,0.0783 -0.4099278,0.15275 -0.2303639,0.13547 -0.3263194,0.40922 -0.2091972,0.61101 0.1167694,0.20215 0.4007555,0.25788 0.6335889,0.12348 0.3178527,-0.15382 0.5404555,-0.59761 0.9034638,-0.8435 -0.030692,0.4371 -0.3040944,0.85161 -0.2790472,1.20403 0,0.26812 0.1897944,0.48754 0.4240389,0.48754 0.2338916,0 0.4226278,-0.21942 0.4226278,-0.48754 0.026105,-0.35242 -0.24765,-0.76693 -0.2779889,-1.20403 0.3626555,0.24589 0.5863166,0.68968 0.9034638,0.8435 0.2324806,0.1344 0.5168195,0.0801 0.6339417,-0.12348 0.1167694,-0.20179 0.021167,-0.47554 -0.2106083,-0.60995 -0.2917473,-0.19755 -0.7884584,-0.17004 -1.1821583,-0.36124 0.3936999,-0.1898 0.890411,-0.16052 1.1821583,-0.35984 0.231775,-0.13546 0.3273777,-0.40781 0.2106083,-0.61136 -0.1171222,-0.20214 -0.4014611,-0.25788 -0.6339417,-0.12206 -0.3171472,0.15381 -0.5408083,0.59796 -0.9034638,0.84349 0.030339,-0.43709 0.3040944,-0.85161 0.2779889,-1.20474 0,-0.26846 -0.1887362,-0.48648 -0.4226278,-0.48648 -0.2342445,0 -0.4240389,0.21802 -0.4240389,0.48648 -0.025047,0.35313 0.2483556,0.76765 0.2790472,1.20474 -0.3630083,-0.24553 -0.5856111,-0.68968 -0.9034638,-0.84349 -0.2328334,-0.13582 -0.5168195,-0.0801 -0.6335889,0.12206 -0.1171222,0.20355 -0.021167,0.47731 0.2091972,0.61136 0.1132417,0.0769 0.2554111,0.1196 0.4099278,0.15417 h -2.5459972 c 0.1058333,-1.89865 1.6809861,-3.40396 3.6064471,-3.40396 1.2950472,0 2.4327555,0.68263 3.0688139,1.70851 h 0.4755444 c -0.6780389,-1.26224 -2.0115388,-2.12196 -3.5443583,-2.12196 -2.2217944,0 -4.0237832,1.80164 -4.0237832,4.02308 0,2.22179 1.8019888,4.02449 4.0237832,4.02449 1.5328195,0 2.8656139,-0.85937 3.5443583,-2.12302 h -0.4755444 c -0.6360584,1.02693 -1.7737667,1.70991 -3.0688139,1.70991 -1.925461,0 -3.4988499,-1.50671 -3.6064471,-3.40395"
         style="fill:#ffffff;fill-opacity:1;fill-rule:evenodd;stroke:none;stroke-width:0.35277778"
         id="path8930"
         inkscape:connector-curvature="0" />
      <path
         d="m 0.54579617,152.70813 v -1.92652 h 0.12911666 0.13088056 v 1.92652 H 0.67632394 Z m 1.25094993,0.0377 c -0.1866194,0 -0.33655,-0.0695 -0.4476749,-0.21026 -0.1097139,-0.1397 -0.1654528,-0.32949 -0.1654528,-0.56832 0,-0.21026 0.053269,-0.38065 0.1608666,-0.50906 0.1072445,-0.12877 0.2465917,-0.19438 0.4212167,-0.19438 0.1725083,0 0.307975,0.0734 0.4074583,0.21943 l 0.018697,0.0254 v -0.72708 H 2.3103904 2.426807 v 1.92652 H 2.3185045 2.2091434 v -0.19121 l -0.030339,0.0441 c -0.097367,0.12347 -0.2247195,0.18486 -0.3820584,0.18486 m 0.013053,-1.2693 c -0.1308805,0 -0.2275416,0.0413 -0.288925,0.1263 -0.060678,0.0836 -0.091369,0.21801 -0.091369,0.40111 0,0.17392 0.032808,0.3055 0.099131,0.40005 0.065617,0.0931 0.1598084,0.1404 0.2811639,0.1404 0.1150056,0 0.2081389,-0.0434 0.2776361,-0.12982 0.068792,-0.085 0.1044222,-0.19932 0.1044222,-0.34008 0,-0.19262 -0.033161,-0.33867 -0.098425,-0.44238 -0.066322,-0.10407 -0.1605138,-0.15558 -0.2836333,-0.15558 m 1.5582194,1.2693 c -0.19685,0 -0.3538361,-0.0628 -0.4681361,-0.18909 -0.1128889,-0.12524 -0.1696861,-0.29916 -0.1696861,-0.52105 0,-0.23601 0.061031,-0.42334 0.1802695,-0.56339 0.1199444,-0.1397 0.2818694,-0.20849 0.4836583,-0.20849 0.1834444,0 0.3323166,0.0681 0.4441472,0.20355 0.1139472,0.13688 0.1700389,0.31609 0.1700389,0.53799 l -0.00282,0.0836 H 2.9813739 c 0.00917,0.14075 0.040922,0.24729 0.095603,0.32032 0.064911,0.0892 0.1710972,0.13299 0.3146777,0.13299 0.089253,0 0.1675695,-0.0254 0.2345973,-0.0758 0.068439,-0.0501 0.1083027,-0.11571 0.1245305,-0.19403 H 3.98291 c -0.036336,0.15416 -0.104775,0.27129 -0.2099028,0.35207 -0.1054805,0.0811 -0.2405944,0.12136 -0.4049889,0.12136 M 3.76066,151.89921 v 0 c -0.00635,-0.13053 -0.039158,-0.23142 -0.094545,-0.30409 -0.064558,-0.0801 -0.1573388,-0.11995 -0.2822222,-0.11995 -0.1234722,0 -0.2233083,0.0455 -0.2980972,0.13794 -0.058208,0.0734 -0.09278,0.16757 -0.1044222,0.2861 z m 0.9405055,0.84667 c -0.1375833,0 -0.2465916,-0.036 -0.3263194,-0.10901 -0.079375,-0.0744 -0.1195917,-0.17321 -0.1195917,-0.29775 0,-0.12664 0.037042,-0.22613 0.1128889,-0.30056 0.075495,-0.0744 0.1848556,-0.121 0.3312583,-0.13935 l 0.3213806,-0.0399 c 0.026458,-0.003 0.050447,-0.006 0.074083,-0.0131 0.029633,-0.008 0.053269,-0.0247 0.070556,-0.0466 0.017286,-0.024 0.024694,-0.0547 0.024694,-0.0893 v -0.013 c 0,-0.0744 -0.028928,-0.133 -0.085019,-0.17568 -0.056444,-0.0427 -0.1351139,-0.0635 -0.2374195,-0.0635 -0.097014,0 -0.17145,0.0222 -0.2268361,0.0674 -0.056092,0.0444 -0.087842,0.11218 -0.098425,0.20073 H 4.3240461 c 0.010936,-0.15381 0.065617,-0.26917 0.1626305,-0.34678 0.096661,-0.0769 0.2363611,-0.11571 0.4169834,-0.11571 0.1700388,0 0.2995083,0.0374 0.3877027,0.11077 0.090664,0.0741 0.1351139,0.18168 0.1351139,0.32279 v 0.77047 c 0,0.0236 0.006,0.0427 0.022225,0.0568 0.013053,0.0148 0.033514,0.0229 0.058561,0.0229 0.006,0 0.015169,-0.001 0.028928,-0.003 0.014464,-0.002 0.029281,-0.005 0.044803,-0.007 v 0.16968 c -0.023636,0.008 -0.047625,0.0159 -0.071614,0.0198 -0.026811,0.007 -0.047625,0.009 -0.065264,0.009 -0.0889,0 -0.1527528,-0.0247 -0.1940278,-0.0744 -0.025047,-0.0318 -0.043392,-0.0769 -0.055386,-0.13687 -0.017286,0.0215 -0.037394,0.0427 -0.059972,0.0624 -0.1195917,0.10654 -0.2628194,0.15875 -0.4335639,0.15875 m 0.48895,-0.59302 v -0.15275 c -0.043039,0.0215 -0.09278,0.0356 -0.1453444,0.0441 l -0.2155472,0.0303 c -0.1150056,0.0159 -0.19685,0.0423 -0.2497667,0.0801 -0.051506,0.0367 -0.078317,0.0875 -0.078317,0.15099 0,0.0783 0.022578,0.1397 0.064911,0.18062 0.042686,0.0444 0.1023056,0.0642 0.1806223,0.0642 0.1252361,0 0.2289527,-0.0335 0.3164416,-0.10125 0.057856,-0.0462 0.095956,-0.0995 0.1153583,-0.15981 0.00423,-0.0102 0.0067,-0.0286 0.00847,-0.0533 0.00176,-0.0247 0.00317,-0.0529 0.00317,-0.0832 m 1.4791972,-0.44097 v 0 c -0.0067,-0.0773 -0.038453,-0.13829 -0.094544,-0.18027 -0.055386,-0.043 -0.1326445,-0.0642 -0.2271889,-0.0642 -0.098072,0 -0.1735667,0.0159 -0.2240139,0.0505 -0.0508,0.0332 -0.077258,0.0836 -0.077258,0.14993 0,0.0494 0.018697,0.0868 0.056092,0.11183 0.034572,0.0268 0.1058334,0.0519 0.2123722,0.0769 l 0.2441223,0.0575 c 0.1358194,0.0332 0.2328333,0.0797 0.2913944,0.13793 0.056797,0.0568 0.086078,0.13829 0.086078,0.24166 0,0.1397 -0.050447,0.2487 -0.1488722,0.32984 -0.1008945,0.0822 -0.2360084,0.12242 -0.4064,0.12242 -0.19685,0 -0.3439584,-0.0388 -0.4409722,-0.11712 -0.096661,-0.0783 -0.1516945,-0.20074 -0.1626306,-0.36972 h 0.2275417 c 0.011994,0.10125 0.046567,0.17251 0.1054805,0.21837 0.059267,0.0434 0.1485195,0.0649 0.2705806,0.0649 0.1065389,0 0.1859138,-0.0197 0.2405944,-0.06 0.053975,-0.0399 0.082197,-0.0984 0.082197,-0.17498 0,-0.0497 -0.017286,-0.0864 -0.05468,-0.11183 -0.034572,-0.0254 -0.1072445,-0.0508 -0.2151945,-0.0758 l -0.2441222,-0.0572 c -0.1315861,-0.0317 -0.2257778,-0.0755 -0.2818694,-0.133 -0.055739,-0.0557 -0.083961,-0.13406 -0.083961,-0.23636 0,-0.13159 0.046919,-0.23601 0.1411111,-0.31362 0.094192,-0.0769 0.2218972,-0.11571 0.3824111,-0.11571 0.1636889,0 0.2928055,0.0406 0.3894666,0.11994 0.095956,0.0783 0.1478139,0.18874 0.1541639,0.32809 z"
         style="fill:#ffffff;fill-opacity:1;fill-rule:nonzero;stroke:none;stroke-width:0.35277778"
         id="path8934"
         inkscape:connector-curvature="0" />
      <path
         d="m 9.1036557,152.20359 v 0 c -0.0254,0.17639 -0.086431,0.3108 -0.1876778,0.40393 -0.1008944,0.0917 -0.2335389,0.13794 -0.4011083,0.13794 -0.1862667,0 -0.3347861,-0.0663 -0.4462639,-0.20073 -0.1104194,-0.13265 -0.1661583,-0.31327 -0.1661583,-0.53905 0,-0.22648 0.057503,-0.4071 0.1725083,-0.54116 0.1150056,-0.13405 0.269875,-0.20073 0.4631972,-0.20073 0.1675695,0 0.3033889,0.0452 0.4049889,0.13864 0.099131,0.0914 0.1534583,0.21908 0.1605139,0.37994 H 8.8764668 c -0.00953,-0.0998 -0.044803,-0.1785 -0.1037166,-0.23248 -0.061383,-0.0547 -0.1421695,-0.0822 -0.2420056,-0.0822 -0.1195917,0 -0.212725,0.0476 -0.2804583,0.14287 -0.067733,0.096 -0.1026584,0.22754 -0.1026584,0.39511 0,0.17745 0.032456,0.31186 0.096308,0.40252 0.0635,0.0903 0.1566333,0.1337 0.2790472,0.1337 0.09278,0 0.1696861,-0.0293 0.2307167,-0.0871 0.061383,-0.0589 0.1026583,-0.14217 0.1227666,-0.25118 z m 0.3097389,0.50447 v -1.40299 h 0.111125 0.1132416 v 0.24059 c 0.019403,-0.037 0.041275,-0.0716 0.0635,-0.10266 0.089253,-0.11924 0.1996723,-0.17921 0.3298468,-0.17921 0.02117,0 0.04304,0.004 0.06632,0.012 v 0.2406 l -0.04939,-0.001 c -0.127353,0 -0.2254252,0.0384 -0.2952752,0.1143 -0.069144,0.0769 -0.1033639,0.18556 -0.1033639,0.32808 v 0.75036 H 9.5312224 Z m 1.4746114,0.0374 c -0.19932,0 -0.353484,-0.0625 -0.467784,-0.18874 -0.1143,-0.12488 -0.170039,-0.2988 -0.170039,-0.5207 0,-0.23671 0.05821,-0.42369 0.179212,-0.56339 0.120297,-0.1397 0.281516,-0.20884 0.485069,-0.20884 0.183092,0 0.330906,0.0681 0.443794,0.20391 0.111831,0.13617 0.168275,0.31608 0.168275,0.53798 l -0.0021,0.0836 H 10.49995 c 0.0092,0.14041 0.04128,0.24694 0.0956,0.31997 0.06632,0.0893 0.170039,0.13264 0.313619,0.13264 0.09031,0 0.168275,-0.025 0.236361,-0.0751 0.06668,-0.0508 0.109009,-0.11606 0.122414,-0.19403 h 0.233539 c -0.03422,0.15417 -0.104775,0.27094 -0.20955,0.35172 -0.103716,0.0811 -0.240241,0.12101 -0.40393,0.12101 M 11.281,151.89914 v 0 c -0.0081,-0.13017 -0.03986,-0.23107 -0.09807,-0.30409 -0.06385,-0.0797 -0.156986,-0.11959 -0.2794,-0.11959 -0.124531,0 -0.222603,0.0452 -0.298097,0.13793 -0.0575,0.0734 -0.09384,0.16722 -0.105481,0.28575 z m 0.9398,0.84632 c -0.136878,0 -0.246592,-0.0356 -0.325614,-0.10901 -0.08114,-0.0744 -0.122414,-0.17286 -0.122414,-0.29739 0,-0.1263 0.03845,-0.22613 0.1143,-0.30057 0.0755,-0.0744 0.186267,-0.121 0.330553,-0.13935 l 0.321381,-0.0399 c 0.0254,-0.002 0.05115,-0.007 0.07479,-0.0134 0.02999,-0.008 0.05468,-0.024 0.07056,-0.0466 0.01623,-0.0236 0.02505,-0.0547 0.02505,-0.0885 v -0.0134 c 0,-0.0741 -0.02752,-0.13335 -0.08467,-0.17568 -0.0575,-0.0423 -0.13582,-0.0639 -0.238125,-0.0639 -0.09701,0 -0.172861,0.0229 -0.227542,0.0681 -0.05433,0.0441 -0.08749,0.11148 -0.09948,0.20038 h -0.216253 c 0.01058,-0.15416 0.06491,-0.26952 0.161925,-0.34678 0.09666,-0.0769 0.236361,-0.11571 0.416983,-0.11571 0.170039,0 0.300214,0.0374 0.389114,0.11077 0.08925,0.0744 0.13335,0.18168 0.13335,0.32279 v 0.77047 c 0,0.0236 0.0074,0.0423 0.02223,0.0568 0.01482,0.0148 0.03351,0.0233 0.05715,0.0233 0.0085,0 0.0187,-0.002 0.0321,-0.003 0.01305,-0.003 0.02787,-0.005 0.0441,-0.008 v 0.17004 c -0.02328,0.008 -0.04657,0.0159 -0.07338,0.0201 -0.02575,0.006 -0.04657,0.009 -0.06385,0.009 -0.0889,0 -0.1524,-0.025 -0.193675,-0.0741 -0.02575,-0.0325 -0.04516,-0.0773 -0.05609,-0.13723 -0.01693,0.0215 -0.0374,0.0427 -0.05962,0.0628 -0.119944,0.10619 -0.262819,0.15805 -0.432858,0.15805 m 0.488597,-0.59232 v -0.1531 c -0.04374,0.0212 -0.09172,0.036 -0.144991,0.0441 l -0.218017,0.0303 c -0.112536,0.0162 -0.196497,0.0427 -0.247297,0.0797 -0.05292,0.037 -0.07902,0.0875 -0.07902,0.1517 0,0.0783 0.02152,0.1397 0.06385,0.18062 0.04233,0.0437 0.103364,0.0635 0.182034,0.0635 0.124883,0 0.229305,-0.0332 0.314325,-0.10125 0.05891,-0.0462 0.09878,-0.0991 0.117122,-0.1591 0.0032,-0.0106 0.0064,-0.0293 0.0081,-0.0533 0.0025,-0.025 0.0039,-0.0533 0.0039,-0.0833 m 1.190272,0.55386 c -0.07937,0.0117 -0.138641,0.0173 -0.17533,0.0173 -0.103364,0 -0.174978,-0.0226 -0.217664,-0.0681 -0.04269,-0.0452 -0.06385,-0.12312 -0.06385,-0.23354 v -0.92463 h -0.193675 v -0.19296 h 0.193675 v -0.393 h 0.236009 v 0.393 h 0.220838 v 0.19296 h -0.220838 v 0.92463 c 0,0.0321 0.01235,0.0557 0.0381,0.0741 0.02364,0.0191 0.05785,0.0279 0.09948,0.0279 h 0.08325 z m 0.844198,0.0385 c -0.198261,0 -0.353836,-0.0625 -0.468136,-0.18874 -0.112889,-0.12488 -0.169687,-0.2988 -0.169687,-0.5207 0,-0.23671 0.05962,-0.42369 0.180623,-0.56339 0.119591,-0.1397 0.281869,-0.20884 0.483305,-0.20884 0.183445,0 0.332317,0.0681 0.443442,0.20391 0.113594,0.13617 0.168275,0.31608 0.168275,0.53798 l -7.06e-4,0.0836 H 14.35689 c 0.0092,0.14041 0.04128,0.24694 0.09596,0.31997 0.06456,0.0893 0.170039,0.13264 0.313267,0.13264 0.09066,0 0.168627,-0.025 0.236714,-0.0751 0.06632,-0.0508 0.107597,-0.11606 0.122061,-0.19403 h 0.233539 c -0.03563,0.15417 -0.104775,0.27094 -0.209903,0.35172 -0.104422,0.0811 -0.240595,0.12101 -0.404636,0.12101 m 0.392994,-0.84632 v 0 c -0.0071,-0.13017 -0.03951,-0.23107 -0.09701,-0.30409 -0.0642,-0.0797 -0.156633,-0.11959 -0.280458,-0.11959 -0.12312,0 -0.222956,0.0452 -0.297745,0.13793 -0.05856,0.0734 -0.09278,0.16722 -0.104775,0.28575 z m 0.629708,0.66569 v -0.14217 h 0.1397 0.138995 v 0.23919 c 0,0.13511 -0.02117,0.23636 -0.06456,0.30409 -0.04269,0.0677 -0.114653,0.11289 -0.214137,0.13864 v -0.12523 c 0.05503,-0.009 0.09313,-0.0399 0.114653,-0.0914 0.01588,-0.0385 0.02505,-0.0998 0.02893,-0.17992 h -0.0039 -0.1397 z"
         style="fill:#ffffff;fill-opacity:1;fill-rule:nonzero;stroke:none;stroke-width:0.35277778"
         id="path8938"
         inkscape:connector-curvature="0" />
      <path
         d="m 17.08871,151.30499 v 0 h 0.137936 0.136878 l 0.375355,1.1497 0.390173,-1.1497 h 0.128411 0.130528 l -0.522112,1.40335 h -0.127 -0.126647 z m 1.906411,1.44039 c -0.137936,0 -0.245886,-0.0356 -0.325261,-0.10865 -0.08114,-0.0748 -0.121356,-0.17322 -0.121356,-0.29775 0,-0.12629 0.0374,-0.22613 0.112889,-0.30057 0.0762,-0.0744 0.186267,-0.12065 0.331259,-0.13934 l 0.32138,-0.0399 c 0.02505,-0.002 0.05045,-0.007 0.07444,-0.0134 0.02999,-0.008 0.05362,-0.024 0.0702,-0.0462 0.01623,-0.024 0.0254,-0.055 0.0254,-0.0889 v -0.0134 c 0,-0.0741 -0.02822,-0.13335 -0.08467,-0.17568 -0.05715,-0.0423 -0.135819,-0.0635 -0.238125,-0.0635 -0.09701,0 -0.172861,0.0226 -0.227188,0.0677 -0.05433,0.0441 -0.08749,0.11148 -0.09948,0.20038 h -0.216958 c 0.01058,-0.15417 0.06526,-0.26953 0.16263,-0.34678 0.09631,-0.0769 0.236009,-0.11571 0.416631,-0.11571 0.170392,0 0.300567,0.0374 0.388056,0.11077 0.09066,0.0744 0.134055,0.18203 0.134055,0.32279 v 0.77047 c 0,0.024 0.0078,0.0423 0.02258,0.0572 0.01305,0.0148 0.03351,0.0229 0.05891,0.0229 0.0064,0 0.01588,-0.002 0.03034,-0.003 0.0134,-0.003 0.02822,-0.005 0.04374,-0.008 v 0.17004 c -0.02399,0.008 -0.04621,0.0159 -0.07126,0.0201 -0.02716,0.006 -0.04868,0.009 -0.06562,0.009 -0.0889,0 -0.152752,-0.0254 -0.194027,-0.0744 -0.02611,-0.0321 -0.04551,-0.0773 -0.05574,-0.13687 -0.01693,0.0212 -0.03704,0.0427 -0.06103,0.0624 -0.116769,0.10618 -0.262114,0.15804 -0.4318,0.15804 m 0.48895,-0.59231 v -0.15311 c -0.0441,0.0212 -0.09313,0.036 -0.146403,0.0441 l -0.214841,0.0303 c -0.113948,0.0162 -0.197203,0.0427 -0.25012,0.0797 -0.05186,0.0374 -0.07832,0.0875 -0.07832,0.15169 0,0.0783 0.02152,0.1397 0.06526,0.18062 0.04198,0.0438 0.102306,0.0635 0.182387,0.0635 0.122766,0 0.226836,-0.0332 0.313266,-0.10124 0.05821,-0.0462 0.09842,-0.0991 0.116417,-0.15911 0.0032,-0.0106 0.0064,-0.0289 0.0085,-0.0533 0.0028,-0.0247 0.0039,-0.0529 0.0039,-0.0832 m 0.680156,0.55527 v -1.92687 h 0.118533 0.11818 v 1.92687 h -0.11818 z m 0.876652,-1.40335 v 0.90523 c 0,0.11818 0.02258,0.2032 0.06773,0.2547 0.04657,0.0519 0.119944,0.0769 0.222602,0.0769 0.113595,0 0.204612,-0.0423 0.269523,-0.12982 0.06738,-0.0893 0.09948,-0.20744 0.09948,-0.35737 v -0.74965 h 0.118181 0.118533 v 1.40335 h -0.111831 -0.112889 v -0.21378 c -0.01623,0.0254 -0.03351,0.049 -0.0515,0.0716 -0.1016,0.11959 -0.227542,0.17921 -0.377825,0.17921 -0.159456,0 -0.278695,-0.0385 -0.357364,-0.11818 -0.08008,-0.0794 -0.119239,-0.19932 -0.119239,-0.35877 v -0.96344 h 0.117828 z m 1.86302,1.44039 c -0.197556,0 -0.354895,-0.0628 -0.467431,-0.18873 -0.1143,-0.12489 -0.170039,-0.29881 -0.170039,-0.5207 0,-0.23637 0.05997,-0.42369 0.178859,-0.56339 0.119944,-0.1397 0.282222,-0.20884 0.483658,-0.20884 0.185208,0 0.332317,0.0681 0.445206,0.2039 0.112888,0.13653 0.16898,0.31609 0.16898,0.53799 l -0.0028,0.0836 h -1.024467 c 0.0092,0.14041 0.04127,0.24695 0.0956,0.31997 0.06668,0.0893 0.17145,0.13265 0.315031,0.13265 0.08925,0 0.167569,-0.025 0.235302,-0.0751 0.06773,-0.0508 0.108656,-0.11607 0.123473,-0.19403 h 0.232833 c -0.03492,0.15416 -0.105481,0.27093 -0.210256,0.35207 -0.105127,0.0808 -0.23883,0.12065 -0.40393,0.12065 m 0.391936,-0.84631 v 0 c -0.0064,-0.13018 -0.03845,-0.23107 -0.09596,-0.3041 -0.0635,-0.0797 -0.157339,-0.11959 -0.280105,-0.11959 -0.124884,0 -0.223309,0.0455 -0.297392,0.13794 -0.05821,0.0734 -0.09454,0.16721 -0.106539,0.28575 z m 1.373716,-0.18733 v 0 c -0.0063,-0.0773 -0.0381,-0.13793 -0.09384,-0.18062 -0.05609,-0.0423 -0.13335,-0.0635 -0.227542,-0.0635 -0.09843,0 -0.172508,0.0155 -0.223661,0.0497 -0.05115,0.0335 -0.0762,0.0843 -0.0762,0.15064 0,0.049 0.01799,0.0864 0.05433,0.11148 0.03422,0.0268 0.106186,0.0519 0.212372,0.0772 l 0.244122,0.0568 c 0.135467,0.0332 0.233186,0.0797 0.291394,0.13864 0.05856,0.0565 0.08784,0.13794 0.08784,0.2413 0,0.14006 -0.0508,0.24836 -0.150283,0.3295 -0.1016,0.0825 -0.235656,0.12241 -0.405342,0.12241 -0.197908,0 -0.345722,-0.0385 -0.442736,-0.11642 -0.09701,-0.079 -0.151342,-0.20108 -0.160867,-0.36971 h 0.226484 c 0.01164,0.10125 0.04621,0.17251 0.105833,0.21802 0.05856,0.0437 0.148872,0.0646 0.271286,0.0646 0.104775,0 0.184503,-0.0198 0.239536,-0.0596 0.05574,-0.0399 0.08255,-0.0981 0.08255,-0.17498 0,-0.0494 -0.01834,-0.0868 -0.05433,-0.11183 -0.03528,-0.025 -0.108302,-0.0508 -0.215899,-0.0759 l -0.24377,-0.0568 c -0.132292,-0.0317 -0.225072,-0.0759 -0.280811,-0.133 -0.05574,-0.0561 -0.08537,-0.13406 -0.08537,-0.23671 0,-0.13124 0.04798,-0.23637 0.141111,-0.31362 0.09419,-0.0769 0.221544,-0.11571 0.382411,-0.11571 0.162983,0 0.2921,0.0402 0.389467,0.11959 0.09666,0.0787 0.147108,0.18873 0.154163,0.32843 z"
         style="fill:#ffffff;fill-opacity:1;fill-rule:nonzero;stroke:none;stroke-width:0.35277778"
         id="path8942"
         inkscape:connector-curvature="0" />
      <path
         d="m 25.98005,151.30499 v 0 h 0.111478 0.112536 v 0.19932 l 0.01058,-0.0169 c 0.102659,-0.14888 0.235656,-0.22366 0.40005,-0.22366 0.183445,0 0.328436,0.0624 0.435681,0.18908 0.10795,0.12595 0.161219,0.29775 0.161219,0.51259 0,0.24306 -0.05468,0.43462 -0.162278,0.57256 -0.10795,0.13793 -0.25788,0.20743 -0.449086,0.20743 -0.158044,0 -0.282927,-0.0596 -0.377119,-0.18238 l -0.0085,-0.0102 v 0.70944 H 26.097878 25.98005 Z m 0.607836,1.23684 c 0.124178,0 0.21837,-0.0473 0.280106,-0.13935 0.06491,-0.0928 0.09631,-0.22966 0.09631,-0.40781 0,-0.17533 -0.02928,-0.30551 -0.09172,-0.38911 -0.06138,-0.0847 -0.155222,-0.12736 -0.282928,-0.12736 -0.130528,0 -0.224719,0.0476 -0.284339,0.14323 -0.05997,0.0942 -0.09066,0.24589 -0.09066,0.45297 0,0.14887 0.0321,0.26458 0.09737,0.34572 0.06526,0.0808 0.156633,0.12171 0.275872,0.12171 m 0.976842,0.16651 v -1.40335 h 0.11183 0.112536 v 0.24059 c 0.02011,-0.037 0.04128,-0.0716 0.06421,-0.10265 0.08855,-0.11924 0.199319,-0.17921 0.329142,-0.17921 0.02152,0 0.0441,0.005 0.06667,0.0123 v 0.24024 l -0.04763,-10e-4 c -0.129117,0 -0.227542,0.0384 -0.296686,0.1143 -0.06879,0.0769 -0.104775,0.18556 -0.104775,0.32808 v 0.75071 h -0.11677 z m 1.474964,0.037 c -0.194028,0 -0.352425,-0.0677 -0.471664,-0.20355 -0.119592,-0.13653 -0.179211,-0.31609 -0.179211,-0.53622 0,-0.2219 0.05962,-0.40146 0.179211,-0.53799 0.119239,-0.13582 0.277636,-0.2039 0.471664,-0.2039 0.195086,0 0.35313,0.0681 0.472722,0.2039 0.119239,0.13653 0.179211,0.31609 0.179211,0.53799 0,0.22013 -0.05997,0.39969 -0.179211,0.53622 -0.119592,0.13582 -0.277636,0.20355 -0.472722,0.20355 m 0,-0.20355 c 0.123119,0 0.221544,-0.0473 0.294569,-0.14464 0.07408,-0.0967 0.110772,-0.22684 0.110772,-0.39158 0,-0.1651 -0.03669,-0.29493 -0.110772,-0.39229 -0.07303,-0.0981 -0.17145,-0.1457 -0.294569,-0.1457 -0.124884,0 -0.223309,0.0476 -0.295275,0.1457 -0.07302,0.0974 -0.11042,0.22719 -0.11042,0.39229 0,0.16474 0.0374,0.29492 0.11042,0.39158 0.07197,0.0974 0.170391,0.14464 0.295275,0.14464 m 1.47708,0.1651 c -0.08079,0.0116 -0.137936,0.0173 -0.17533,0.0173 -0.102306,0 -0.175331,-0.0226 -0.217664,-0.0681 -0.04269,-0.0452 -0.0635,-0.12312 -0.0635,-0.23354 v -0.92463 H 29.86625 v -0.19297 h 0.194028 V 150.912 h 0.236008 v 0.39299 h 0.220486 v 0.19297 h -0.220486 v 0.92463 c 0,0.0321 0.01199,0.0557 0.03598,0.0744 0.0254,0.0187 0.05856,0.0279 0.101248,0.0279 h 0.08326 z m 0.844197,0.0385 c -0.198261,0 -0.353483,-0.0628 -0.467783,-0.18873 -0.112889,-0.12489 -0.170392,-0.29881 -0.170392,-0.5207 0,-0.23637 0.05962,-0.42369 0.180623,-0.56339 0.119944,-0.1397 0.280458,-0.20884 0.483658,-0.20884 0.183797,0 0.331258,0.0681 0.443794,0.2039 0.112889,0.13653 0.168628,0.31609 0.168628,0.53799 l -0.0025,0.0836 h -1.023409 c 0.0095,0.14041 0.04128,0.24695 0.09631,0.31997 0.06526,0.0893 0.169686,0.13265 0.313266,0.13265 0.09031,0 0.168981,-0.025 0.236714,-0.0751 0.06597,-0.0508 0.107245,-0.11607 0.121356,-0.19403 h 0.234597 c -0.03598,0.15416 -0.104775,0.27093 -0.209903,0.35207 -0.105128,0.0808 -0.240241,0.12065 -0.404989,0.12065 m 0.392995,-0.84631 v 0 c -0.0064,-0.13018 -0.04022,-0.23107 -0.09772,-0.3041 -0.06315,-0.0797 -0.155575,-0.11959 -0.2794,-0.11959 -0.12453,0 -0.223308,0.0455 -0.298097,0.13794 -0.05821,0.0734 -0.09384,0.16721 -0.105128,0.28575 z m 1.676047,0.30444 v 0 c -0.02364,0.17675 -0.08714,0.3108 -0.186619,0.40394 -0.100895,0.0917 -0.233539,0.13793 -0.401109,0.13793 -0.186266,0 -0.335139,-0.0663 -0.445558,-0.20073 -0.111478,-0.13264 -0.166864,-0.31327 -0.166864,-0.53904 0,-0.22613 0.0568,-0.40711 0.172508,-0.54116 0.1143,-0.13406 0.270228,-0.20073 0.46355,-0.20073 0.168628,0 0.302684,0.0452 0.403578,0.13864 0.09984,0.0914 0.154164,0.21907 0.160514,0.37994 H 33.20388 c -0.0099,-0.0998 -0.0441,-0.17815 -0.10548,-0.23248 -0.05962,-0.0547 -0.138995,-0.0822 -0.240242,-0.0822 -0.119591,0 -0.212725,0.0476 -0.280458,0.14323 -0.06632,0.0956 -0.100542,0.22719 -0.100542,0.39476 0,0.1778 0.0314,0.31185 0.09419,0.40216 0.06244,0.0907 0.15628,0.13406 0.280105,0.13406 0.09102,0 0.168628,-0.0289 0.229306,-0.0871 0.06315,-0.0589 0.102658,-0.14217 0.123119,-0.25118 z m 0.792339,0.50342 c -0.08008,0.0116 -0.137936,0.0173 -0.175331,0.0173 -0.101953,0 -0.174978,-0.0226 -0.217664,-0.0681 -0.04269,-0.0452 -0.06421,-0.12312 -0.06421,-0.23354 v -0.92463 h -0.193675 v -0.19297 H 33.76515 V 150.912 h 0.236714 v 0.39299 h 0.220486 v 0.19297 h -0.220486 v 0.92463 c 0,0.0321 0.01199,0.0557 0.03739,0.0744 0.02364,0.0187 0.05856,0.0279 0.09984,0.0279 h 0.08326 z"
         style="fill:#ffffff;fill-opacity:1;fill-rule:nonzero;stroke:none;stroke-width:0.35277778"
         id="path8946"
         inkscape:connector-curvature="0" />
    </g>
  </g>
</svg>
