<?xml version="1.0" encoding="UTF-8"?>
<svg version="1.1" xmlns="http://www.w3.org/2000/svg" width="183" height="62">
<path d="M0 0 C-2 1 -2 1 -3.76489258 0.51855469 C-4.46767334 0.23915039 -5.1704541 -0.04025391 -5.89453125 -0.328125 C-6.67981201 -0.63226318 -7.46509277 -0.93640137 -8.27416992 -1.24975586 C-9.53064331 -1.74487671 -9.53064331 -1.74487671 -10.8125 -2.25 C-18.50955113 -5.19850541 -25.9029276 -7.38058552 -34 -9 C-34.33 -4.38 -34.66 0.24 -35 5 C-28.73 5 -22.46 5 -16 5 C-16 6.65 -16 8.3 -16 10 C-22.27 10 -28.54 10 -35 10 C-35 14.29 -35 18.58 -35 23 C-28.73 23 -22.46 23 -16 23 C-16 24.98 -16 26.96 -16 29 C-24.25 29 -32.5 29 -41 29 C-41.02292746 23.62478422 -41.04284922 18.24973739 -41.05493164 12.87451172 C-41.05996737 11.04507879 -41.06679627 9.21564991 -41.07543945 7.38623047 C-41.08753824 4.76008102 -41.09323583 2.13398468 -41.09765625 -0.4921875 C-41.10281754 -1.31306854 -41.10797882 -2.13394958 -41.11329651 -2.97970581 C-41.11387171 -8.77225659 -41.11387171 -8.77225659 -40 -11 C-65.36319197 -11.46084816 -87.7278154 -10.05458583 -112 -2 C-112.85158691 -1.71769531 -113.70317383 -1.43539063 -114.58056641 -1.14453125 C-116.72132543 -0.43247711 -118.86113723 0.28227363 -121 1 C-117.69497224 -2.80501914 -113.87684203 -4.84745069 -109.375 -6.9375 C-108.63660889 -7.28304932 -107.89821777 -7.62859863 -107.13745117 -7.98461914 C-73.46411475 -23.1689668 -30.72990929 -21.12681263 0 0 Z " fill="#D02030" transform="translate(139,18)"/>
<path d="M0 0 C8.25 0 16.5 0 25 0 C25 12.54 25 25.08 25 38 C23.02 38 21.04 38 19 38 C19 33.38 19 28.76 19 24 C12.73 24 6.46 24 0 24 C0 16.08 0 8.16 0 0 Z M6 5 C6 9.29 6 13.58 6 18 C10.29 18 14.58 18 19 18 C19 13.71 19 9.42 19 5 C14.71 5 10.42 5 6 5 Z " fill="#19468B" transform="translate(33,23)"/>
<path d="M0 0 C8.25 0 16.5 0 25 0 C25 7.92 25 15.84 25 24 C16.75 24 8.5 24 0 24 C0 19.05 0 14.1 0 9 C4.95 9 9.9 9 15 9 C15 10.98 15 12.96 15 15 C12.03 15 9.06 15 6 15 C6 15.99 6 16.98 6 18 C10.29 18 14.58 18 19 18 C19 13.71 19 9.42 19 5 C12.73 5 6.46 5 0 5 C0 3.35 0 1.7 0 0 Z " fill="#19468B" transform="translate(126,23)"/>
<path d="M0 0 C7.92 0 15.84 0 24 0 C24 1.65 24 3.3 24 5 C18.06 5 12.12 5 6 5 C6 6.32 6 7.64 6 9 C11.94 9 17.88 9 24 9 C24 13.95 24 18.9 24 24 C16.08 24 8.16 24 0 24 C0 22.02 0 20.04 0 18 C6.27 18 12.54 18 19 18 C19 17.01 19 16.02 19 15 C12.73 15 6.46 15 0 15 C0 10.05 0 5.1 0 0 Z " fill="#19458A" transform="translate(154,23)"/>
<path d="M0 0 C7.92 0 15.84 0 24 0 C24 4.95 24 9.9 24 15 C19.05 15 14.1 15 9 15 C9 13.02 9 11.04 9 9 C11.97 9 14.94 9 18 9 C18 7.68 18 6.36 18 5 C13.71 5 9.42 5 5 5 C5 9.29 5 13.58 5 18 C11.27 18 17.54 18 24 18 C24 19.98 24 21.96 24 24 C16.08 24 8.16 24 0 24 C0 16.08 0 8.16 0 0 Z " fill="#19458A" transform="translate(6,23)"/>
<path d="M0 0 C1.65 0 3.3 0 5 0 C5 4.95 5 9.9 5 15 C11.27 15 17.54 15 24 15 C24 16.65 24 18.3 24 20 C17.73 20 11.46 20 5 20 C5 24.29 5 28.58 5 33 C11.27 33 17.54 33 24 33 C24 34.98 24 36.96 24 39 C15.75 39 7.5 39 -1 39 C-1.02290785 33.60647411 -1.04283526 28.21311579 -1.05493164 22.81958008 C-1.05997231 20.98331125 -1.06680477 19.14704646 -1.07543945 17.31079102 C-1.08751672 14.67723599 -1.09323081 12.04373384 -1.09765625 9.41015625 C-1.10281754 8.58411392 -1.10797882 7.75807159 -1.11329651 6.90699768 C-1.11349205 4.93763632 -1.06204152 2.96838386 -1 1 C-0.67 0.67 -0.34 0.34 0 0 Z " fill="#19458A" transform="translate(99,8)"/>
<path d="M0 0 C1.98 0 3.96 0 6 0 C6 5.94 6 11.88 6 18 C10.29 18 14.58 18 19 18 C19 12.06 19 6.12 19 0 C20.98 0 22.96 0 25 0 C25 7.92 25 15.84 25 24 C16.75 24 8.5 24 0 24 C0 16.08 0 8.16 0 0 Z " fill="#19458A" transform="translate(61,23)"/>
<path d="M0 0 C1.08410156 0.00257812 2.16820313 0.00515625 3.28515625 0.0078125 C4.90744141 0.00394531 4.90744141 0.00394531 6.5625 0 C9.34765625 0.1328125 9.34765625 0.1328125 11.34765625 1.1328125 C12.44078125 0.9678125 13.53390625 0.8028125 14.66015625 0.6328125 C18.02711377 0.17627589 20.13195327 0.18701751 23.34765625 1.1328125 C24.34765625 2.1328125 24.34765625 2.1328125 24.34765625 8.1328125 C19.06765625 8.1328125 13.78765625 8.1328125 8.34765625 8.1328125 C8.34765625 6.4828125 8.34765625 4.8328125 8.34765625 3.1328125 C7.68765625 3.1328125 7.02765625 3.1328125 6.34765625 3.1328125 C6.34765625 4.7828125 6.34765625 6.4328125 6.34765625 8.1328125 C3.04765625 8.1328125 -0.25234375 8.1328125 -3.65234375 8.1328125 C-3.69476098 5.79986475 -3.69327312 3.46578683 -3.65234375 1.1328125 C-2.65234375 0.1328125 -2.65234375 0.1328125 0 0 Z M14.34765625 3.1328125 C14.34765625 4.1228125 14.34765625 5.1128125 14.34765625 6.1328125 C15.33765625 6.1328125 16.32765625 6.1328125 17.34765625 6.1328125 C17.34765625 5.1428125 17.34765625 4.1528125 17.34765625 3.1328125 C16.35765625 3.1328125 15.36765625 3.1328125 14.34765625 3.1328125 Z " fill="#D02030" transform="translate(119.65234375,52.8671875)"/>
<path d="M0 0 C2.875 -0.125 2.875 -0.125 6 0 C6.66 0.66 7.32 1.32 8 2 C10.5 2.16666667 10.5 2.16666667 13 2 C13.66 2 14.32 2 15 2 C16.010625 1.979375 17.02125 1.95875 18.0625 1.9375 C21 2 21 2 22 3 C22.04092937 5.33297433 22.04241723 7.66705225 22 10 C21.34 10 20.68 10 20 10 C19.67 8.68 19.34 7.36 19 6 C18.67 7.32 18.34 8.64 18 10 C12.06 10 6.12 10 0 10 C0 6.7 0 3.4 0 0 Z M3 6 C4 8 4 8 4 8 Z " fill="#D02030" transform="translate(148,51)"/>
<path d="M0 0 C1.98 0 3.96 0 6 0 C6 7.92 6 15.84 6 24 C4.02 24 2.04 24 0 24 C0 16.08 0 8.16 0 0 Z " fill="#19468B" transform="translate(89,23)"/>
<path d="M0 0 C4 0 8 0 12 0 C12.845625 -0.020625 13.69125 -0.04125 14.5625 -0.0625 C17 0 17 0 18 1 C18 3.31 18 5.62 18 8 C13.38 8 8.76 8 4 8 C3.67 6.68 3.34 5.36 3 4 C2.67 5.32 2.34 6.64 2 8 C1.34 8 0.68 8 0 8 C0 5.36 0 2.72 0 0 Z " fill="#D02030" transform="translate(69,53)"/>
<path d="M0 0 C1.98 0 3.96 0 6 0 C6 3.63 6 7.26 6 11 C4.02 11 2.04 11 0 11 C0 7.37 0 3.74 0 0 Z " fill="#D02030" transform="translate(88,50)"/>
<path d="M0 0 C0.99 0 1.98 0 3 0 C3.33 0.99 3.66 1.98 4 3 C4.99 3 5.98 3 7 3 C6.814375 3.763125 6.62875 4.52625 6.4375 5.3125 C5.77180827 8.08967375 5.77180827 8.08967375 7 11 C4.69 11 2.38 11 0 11 C0 7.37 0 3.74 0 0 Z " fill="#D12030" transform="translate(171,50)"/>
<path d="M0 0 C1.98 0 3.96 0 6 0 C6 0.66 6 1.32 6 2 C5.01 2.33 4.02 2.66 3 3 C3.99 3.66 4.98 4.32 6 5 C6.1875 7.625 6.1875 7.625 6 10 C3.69 10 1.38 10 -1 10 C-0.67 9.01 -0.34 8.02 0 7 C0.66 7 1.32 7 2 7 C1.01 6.34 0.02 5.68 -1 5 C-0.67 3.35 -0.34 1.7 0 0 Z " fill="#D02030" transform="translate(62,51)"/>
<path d="M0 0 C1.99954746 -0.04254356 4.00041636 -0.04080783 6 0 C7 1 7 1 7.0625 4.5625 C7.041875 5.696875 7.02125 6.83125 7 8 C6.34 8 5.68 8 5 8 C4.67 6.68 4.34 5.36 4 4 C3.67 5.32 3.34 6.64 3 8 C2.01 8 1.02 8 0 8 C0 5.36 0 2.72 0 0 Z " fill="#D02030" transform="translate(108,53)"/>
<path d="M0 0 C1.98 0 3.96 0 6 0 C6 0.66 6 1.32 6 2 C5.01 2 4.02 2 3 2 C3 2.66 3 3.32 3 4 C3.99 4 4.98 4 6 4 C6 4.66 6 5.32 6 6 C5.01 6 4.02 6 3 6 C3 7.32 3 8.64 3 10 C2.01 10 1.02 10 0 10 C0 6.7 0 3.4 0 0 Z " fill="#D12030" transform="translate(98,51)"/>
<path d="M0 0 C0.66 0 1.32 0 2 0 C2 3.63 2 7.26 2 11 C1.34 11 0.68 11 0 11 C0 7.37 0 3.74 0 0 Z " fill="#D12030" transform="translate(105,50)"/>
</svg>
