<?xml version="1.0" encoding="utf-8"?>
<!-- Generator: Adobe Illustrator 15.1.0, SVG Export Plug-In  -->
<!DOCTYPE svg PUBLIC "-//W3C//DTD SVG 1.1//EN" "http://www.w3.org/Graphics/SVG/1.1/DTD/svg11.dtd" [
	<!ENTITY ns_flows "http://ns.adobe.com/Flows/1.0/">
]>
<svg version="1.1"
	 xmlns="http://www.w3.org/2000/svg" xmlns:xlink="http://www.w3.org/1999/xlink" xmlns:a="http://ns.adobe.com/AdobeSVGViewerExtensions/3.0/"
	 x="0px" y="0px" width="141px" height="54px" viewBox="0 0 141 54" enable-background="new 0 0 141 54" xml:space="preserve">
<defs>
</defs>
<rect fill="#FFFFFF" width="141" height="54"/>
<path fill-rule="evenodd" clip-rule="evenodd" fill="#E36F1E" d="M26.523,28.078H13.585v-5.671h12.938V28.078z M26.523,22.407
	v-5.656h13.081V0.021H0.5v28.058h13.086v5.662H0.5v5.664h39.104V22.407H26.523z"/>
<path fill="#E36F1E" d="M45.446,0.021h11.65v3.043h-8v3.801h6.932v2.806h-6.932v6.802h-3.65V0.021z"/>
<path fill="#E36F1E" d="M70.113,16.474h-3.136v-1.654h-0.068c-0.84,1.331-2.272,1.982-3.662,1.982c-3.505,0-4.392-1.969-4.392-4.911
	v-7.33h3.302v6.729c0,1.961,0.576,2.925,2.109,2.925c1.783,0,2.545-0.988,2.545-3.404v-6.25h3.302V16.474z"/>
<path fill="#E36F1E" d="M72.709,0.021h3.288v16.453h-3.288V0.021z"/>
<path fill="#E36F1E" d="M78.69,0.021h3.29v16.453h-3.29V0.021z"/>
<path fill="#E36F1E" d="M87.292,11.317c0.097,2.072,1.113,3.017,2.951,3.017c1.317,0,2.38-0.81,2.6-1.549h2.897
	c-0.931,2.814-2.897,4.016-5.615,4.016c-3.784,0-6.125-2.587-6.125-6.266c0-3.578,2.479-6.291,6.125-6.291
	c4.079,0,6.049,3.405,5.822,7.072H87.292z M92.652,9.238c-0.303-1.658-1.018-2.534-2.622-2.534c-2.086,0-2.692,1.612-2.738,2.534
	H92.652z"/>
<path fill="#E36F1E" d="M97.893,4.561h3.136v2.215h0.05c0.6-1.502,2.221-2.531,3.825-2.531c0.223,0,0.505,0.047,0.712,0.115v3.043
	c-0.297-0.076-0.788-0.122-1.177-0.122c-2.417,0-3.251,1.728-3.251,3.824v5.369h-3.295V4.561z"/>
<path fill="#E36F1E" d="M111.093,4.561h2.41v2.19h-2.41v5.902c0,1.101,0.279,1.379,1.387,1.379c0.355,0,0.686-0.021,1.023-0.091
	v2.556c-0.556,0.093-1.275,0.115-1.924,0.115c-2.014,0-3.78-0.46-3.78-2.833V6.75h-1.998v-2.19h1.998V0.989h3.294V4.561z"/>
<path fill="#E36F1E" d="M120.901,4.245c3.786,0,6.219,2.481,6.219,6.291c0,3.771-2.433,6.266-6.219,6.266
	c-3.758,0-6.193-2.495-6.193-6.266C114.708,6.726,117.144,4.245,120.901,4.245z M120.901,14.334c2.256,0,2.931-1.917,2.931-3.799
	c0-1.914-0.675-3.831-2.931-3.831c-2.228,0-2.896,1.917-2.896,3.831C118.006,12.417,118.674,14.334,120.901,14.334z"/>
<path fill="#E36F1E" d="M129.254,4.561h3.129v1.661h0.068c0.838-1.335,2.272-1.977,3.666-1.977c3.501,0,4.383,1.952,4.383,4.907
	v7.322h-3.289V9.75c0-1.962-0.583-2.93-2.117-2.93c-1.781,0-2.552,0.988-2.552,3.411v6.243h-3.288V4.561z"/>
<path fill="#E36F1E" d="M45.446,22.629h3.65v16.454h-3.65V22.629z"/>
<path fill="#E36F1E" d="M51.945,27.167h3.133v1.66h0.066c0.839-1.333,2.275-1.979,3.667-1.979c3.502,0,4.387,1.957,4.387,4.911
	v7.323h-3.292v-6.73c0-1.956-0.585-2.926-2.113-2.926c-1.786,0-2.55,0.993-2.55,3.411v6.245h-3.297V27.167z"/>
<path fill="#E36F1E" d="M74.26,37.563h-0.041c-0.767,1.286-2.116,1.842-3.643,1.842c-3.625,0-5.381-3.09-5.381-6.386
	c0-3.203,1.782-6.17,5.308-6.17c1.411,0,2.808,0.6,3.554,1.771h0.039v-5.991h3.294v16.454h-3.13V37.563z M71.385,29.314
	c-2.161,0-2.904,1.845-2.904,3.802c0,1.868,0.86,3.818,2.904,3.818c2.179,0,2.834-1.886,2.834-3.845
	C74.219,31.159,73.518,29.314,71.385,29.314z"/>
<path fill="#E36F1E" d="M83.254,25.329h-3.291v-2.7h3.291V25.329z M79.963,27.167h3.291v11.916h-3.291V27.167z"/>
<path fill="#E36F1E" d="M85.714,30.836c0.187-3.068,2.944-3.987,5.642-3.987c2.386,0,5.264,0.529,5.264,3.385v6.198
	c0,1.085,0.115,2.164,0.412,2.651h-3.33c-0.112-0.368-0.212-0.755-0.231-1.152c-1.053,1.082-2.583,1.474-4.042,1.474
	c-2.271,0-4.079-1.127-4.079-3.572c0-2.696,2.04-3.339,4.079-3.617c2.018-0.3,3.898-0.229,3.898-1.571
	c0-1.401-0.977-1.606-2.134-1.606c-1.251,0-2.062,0.508-2.184,1.799H85.714z M93.326,33.254c-0.563,0.48-1.716,0.506-2.738,0.691
	c-1.024,0.208-1.949,0.553-1.949,1.754c0,1.214,0.952,1.517,2.021,1.517c2.572,0,2.666-2.031,2.666-2.744V33.254z"/>
<path fill="#7C6A55" d="M45.446,47.532h3.021c1.205,0,1.947,0.643,1.947,1.649c0,0.758-0.34,1.387-1.112,1.593v0.019
	c0.747,0.145,0.898,0.679,0.959,1.301c0.056,0.618,0.018,1.308,0.382,1.744h-0.958c-0.242-0.26-0.108-0.944-0.235-1.559
	c-0.083-0.621-0.24-1.139-1.061-1.139h-2.09v2.697h-0.854V47.532z M48.08,50.432c0.801,0,1.479-0.202,1.479-1.12
	c0-0.617-0.335-1.078-1.134-1.078h-2.124v2.198H48.08z"/>
<path fill="#7C6A55" d="M53.172,48.445h-0.759v-0.913h0.759V48.445z M52.413,49.269h0.759v4.566h-0.759V49.269z"/>
<path fill="#7C6A55" d="M55.678,52.395c0.027,0.674,0.62,0.884,1.245,0.884c0.478,0,1.126-0.107,1.126-0.682
	c0-0.578-0.754-0.679-1.511-0.843c-0.762-0.169-1.528-0.421-1.528-1.292c0-0.921,0.928-1.299,1.731-1.299
	c1.027,0,1.847,0.316,1.908,1.429h-0.761c-0.059-0.582-0.576-0.769-1.085-0.769c-0.453,0-0.983,0.13-0.983,0.58
	c0,0.539,0.814,0.624,1.517,0.797c0.767,0.168,1.519,0.417,1.519,1.305c0,1.078-1.029,1.438-1.97,1.438
	c-1.041,0-1.932-0.421-1.974-1.548H55.678z"/>
<path fill="#7C6A55" d="M60.58,47.532h0.764v2.404h0.012c0.26-0.548,0.902-0.772,1.463-0.772c1.222,0,1.597,0.689,1.597,1.669v3.002
	h-0.757v-3.096c0-0.552-0.357-0.916-0.943-0.916c-0.923,0-1.371,0.608-1.371,1.432v2.58H60.58V47.532z"/>
<path fill="#7C6A55" d="M67.456,49.269h0.925v0.66h-0.925v2.833c0,0.349,0.1,0.409,0.578,0.409h0.347v0.664h-0.585
	c-0.783,0-1.1-0.159-1.1-1.002v-2.904h-0.796v-0.66h0.796v-1.366h0.76V49.269z"/>
<path fill="#7C6A55" d="M74.223,53.816c-0.13,0.072-0.307,0.126-0.548,0.126c-0.39,0-0.643-0.217-0.643-0.714
	c-0.422,0.492-0.986,0.714-1.631,0.714c-0.845,0-1.539-0.377-1.539-1.284c0-1.033,0.779-1.256,1.574-1.403
	c0.845-0.159,1.56-0.106,1.56-0.67c0-0.656-0.543-0.762-1.031-0.762c-0.649,0-1.125,0.191-1.161,0.863h-0.76
	c0.047-1.127,0.929-1.522,1.964-1.522c0.834,0,1.742,0.182,1.742,1.253v2.345c0,0.352,0,0.517,0.247,0.517
	c0.062,0,0.13-0.009,0.225-0.05V53.816z M72.988,51.472c-0.3,0.215-0.871,0.224-1.387,0.311c-0.501,0.09-0.925,0.266-0.925,0.824
	c0,0.499,0.423,0.672,0.896,0.672c0.995,0,1.416-0.62,1.416-1.035V51.472z"/>
<path fill="#7C6A55" d="M83.098,49.377c-0.1-0.905-0.712-1.294-1.594-1.294c-0.718,0-1.437,0.262-1.437,1.08
	c0,0.773,1.027,0.895,2.056,1.117c1.028,0.232,2.053,0.585,2.053,1.819c0,1.346-1.34,1.88-2.502,1.88
	c-1.444,0-2.654-0.686-2.654-2.222h0.813c0,1.055,0.894,1.521,1.863,1.521c0.768,0,1.626-0.24,1.626-1.151
	c0-0.864-1.03-1.012-2.055-1.23c-1.017-0.224-2.052-0.52-2.052-1.667c0-1.283,1.161-1.851,2.329-1.851
	c1.302,0,2.304,0.609,2.354,1.998H83.098z"/>
<path fill="#7C6A55" d="M90.069,53.816c-0.128,0.072-0.304,0.126-0.543,0.126c-0.396,0-0.646-0.217-0.646-0.714
	c-0.427,0.492-0.986,0.714-1.639,0.714c-0.84,0-1.528-0.377-1.528-1.284c0-1.033,0.778-1.256,1.563-1.403
	c0.849-0.159,1.563-0.106,1.563-0.67c0-0.656-0.543-0.762-1.025-0.762c-0.648,0-1.123,0.191-1.154,0.863h-0.769
	c0.044-1.127,0.937-1.522,1.968-1.522c0.844,0,1.741,0.182,1.741,1.253v2.345c0,0.352,0,0.517,0.237,0.517
	c0.06,0,0.136-0.009,0.231-0.05V53.816z M88.84,51.472c-0.304,0.215-0.872,0.224-1.388,0.311c-0.504,0.09-0.935,0.266-0.935,0.824
	c0,0.499,0.431,0.672,0.894,0.672c1.009,0,1.429-0.62,1.429-1.035V51.472z"/>
<path fill="#7C6A55" d="M91.677,49.269h0.72v0.668h0.021c0.339-0.511,0.864-0.773,1.498-0.773c0.563,0,1.083,0.219,1.275,0.773
	c0.312-0.486,0.858-0.773,1.451-0.773c0.924,0,1.544,0.378,1.544,1.324v3.348h-0.76v-3c0-0.56-0.157-1.012-0.898-1.012
	c-0.738,0-1.211,0.457-1.211,1.169v2.843h-0.762v-3c0-0.592-0.191-1.012-0.873-1.012c-0.906,0-1.239,0.818-1.239,1.169v2.843h-0.766
	V49.269z"/>
<path fill="#7C6A55" d="M100.201,49.269h0.716v0.668h0.019c0.337-0.511,0.854-0.773,1.497-0.773c0.562,0,1.092,0.219,1.28,0.773
	c0.309-0.486,0.859-0.773,1.448-0.773c0.929,0,1.551,0.378,1.551,1.324v3.348h-0.767v-3c0-0.56-0.158-1.012-0.902-1.012
	c-0.737,0-1.209,0.457-1.209,1.169v2.843h-0.765v-3c0-0.592-0.179-1.012-0.867-1.012c-0.902,0-1.24,0.818-1.24,1.169v2.843h-0.761
	V49.269z"/>
<path fill="#7C6A55" d="M112.844,53.816c-0.141,0.072-0.308,0.126-0.547,0.126c-0.395,0-0.651-0.217-0.651-0.714
	c-0.419,0.492-0.988,0.714-1.632,0.714c-0.843,0-1.531-0.377-1.531-1.284c0-1.033,0.784-1.256,1.565-1.403
	c0.841-0.159,1.565-0.106,1.565-0.67c0-0.656-0.548-0.762-1.034-0.762c-0.646,0-1.125,0.191-1.161,0.863h-0.757
	c0.044-1.127,0.928-1.522,1.959-1.522c0.845,0,1.751,0.182,1.751,1.253v2.345c0,0.352,0,0.517,0.236,0.517
	c0.066,0,0.137-0.009,0.236-0.05V53.816z M111.599,51.472c-0.297,0.215-0.864,0.224-1.372,0.311
	c-0.505,0.09-0.939,0.266-0.939,0.824c0,0.499,0.435,0.672,0.903,0.672c0.998,0,1.408-0.62,1.408-1.035V51.472z"/>
<path fill="#7C6A55" d="M118.607,53.816c-0.131,0.072-0.3,0.126-0.551,0.126c-0.392,0-0.638-0.217-0.638-0.714
	c-0.419,0.492-0.988,0.714-1.637,0.714c-0.843,0-1.531-0.377-1.531-1.284c0-1.033,0.776-1.256,1.568-1.403
	c0.84-0.159,1.569-0.106,1.569-0.67c0-0.656-0.561-0.762-1.038-0.762c-0.651,0-1.12,0.191-1.159,0.863h-0.765
	c0.048-1.127,0.938-1.522,1.973-1.522c0.835,0,1.734,0.182,1.734,1.253v2.345c0,0.352,0,0.517,0.245,0.517
	c0.063,0,0.136-0.009,0.229-0.05V53.816z M117.369,51.472c-0.295,0.215-0.868,0.224-1.383,0.311c-0.491,0.09-0.93,0.266-0.93,0.824
	c0,0.499,0.438,0.672,0.898,0.672c1.001,0,1.414-0.62,1.414-1.035V51.472z"/>
<path fill="#7C6A55" d="M120.215,49.269h0.719v0.719h0.018c0.317-0.562,0.843-0.824,1.506-0.824c1.228,0,1.598,0.69,1.598,1.67
	v3.002h-0.758v-3.096c0-0.552-0.36-0.916-0.948-0.916c-0.922,0-1.373,0.608-1.373,1.432v2.58h-0.761V49.269z"/>
<polygon fill="#7C6A55" points="129.663,47.532 130.508,47.532 130.508,50.673 133.76,47.532 134.868,47.532 132.163,50.07 
	134.972,53.835 133.89,53.835 131.584,50.642 130.508,51.625 130.508,53.835 129.663,53.835 "/>
<path fill="#7C6A55" d="M140.5,53.816c-0.128,0.072-0.305,0.126-0.545,0.126c-0.394,0-0.648-0.217-0.648-0.714
	c-0.425,0.492-0.986,0.714-1.629,0.714c-0.845,0-1.532-0.377-1.532-1.284c0-1.033,0.771-1.256,1.561-1.403
	c0.851-0.159,1.562-0.106,1.562-0.67c0-0.656-0.543-0.762-1.031-0.762c-0.642,0-1.116,0.191-1.159,0.863h-0.759
	c0.046-1.127,0.935-1.522,1.958-1.522c0.845,0,1.754,0.182,1.754,1.253v2.345c0,0.352,0,0.517,0.236,0.517
	c0.067,0,0.137-0.009,0.233-0.05V53.816z M139.262,51.472c-0.299,0.215-0.868,0.224-1.385,0.311
	c-0.495,0.09-0.929,0.266-0.929,0.824c0,0.499,0.434,0.672,0.896,0.672c1.006,0,1.417-0.62,1.417-1.035V51.472z"/>
</svg>
