<?xml version="1.0" encoding="UTF-8" standalone="no"?>
<svg
   xmlns:dc="http://purl.org/dc/elements/1.1/"
   xmlns:cc="http://creativecommons.org/ns#"
   xmlns:rdf="http://www.w3.org/1999/02/22-rdf-syntax-ns#"
   xmlns:svg="http://www.w3.org/2000/svg"
   xmlns="http://www.w3.org/2000/svg"
   viewBox="0 0 301.10001 193.71617"
   height="193.71617"
   width="301.10001"
   version="1.1"
   id="svg">
  <metadata
     id="metadata12">
    <rdf:RDF>
      <cc:Work
         rdf:about="">
        <dc:format>image/svg+xml</dc:format>
        <dc:type
           rdf:resource="http://purl.org/dc/dcmitype/StillImage" />
        <dc:title></dc:title>
      </cc:Work>
    </rdf:RDF>
  </metadata>
  <defs
     id="defs10" />
  <g
     transform="translate(-49.403,-103.08383)"
     id="svgg">
    <path
       fill-rule="evenodd"
       fill="#005e9c"
       stroke="none"
       d="m 287.792,158.961 c -8.45,1.934 -13.307,8.207 -13.435,17.354 -0.024,1.697 -0.159,4.165 -0.3,5.485 l -0.257,2.4 -2.787,0.2 c -3.45,0.248 -4.739,1.609 -4.531,4.786 l 0.118,1.814 3.5,0.116 3.5,0.115 v 10.306 10.306 l -2.7,2.014 c -5.147,3.838 -8.754,5.25 -11.484,4.496 -2.753,-0.76 -2.792,-0.965 -3.016,-15.606 -0.19,-12.43 -0.242,-13.146 -1.025,-14.194 -2.742,-3.669 -12.335,-6.029 -14.739,-3.626 l -1.036,1.037 v 15.744 c 0,15.797 0.232,19.197 1.481,21.684 4.302,8.564 19.335,7.341 30.058,-2.446 l 2.814,-2.568 0.124,8.046 0.123,8.047 1.122,0.964 c 1.979,1.701 8.054,1.031 11.519,-1.271 3.62,-2.406 3.559,-2.004 3.559,-23.607 v -18.873 l 4.7,-0.157 c 6.69,-0.223 8.687,-1.673 7.922,-5.753 l -0.258,-1.374 -5.682,-0.006 c -7.186,-0.008 -6.845,0.233 -6.576,-4.652 0.523,-9.474 3.983,-13.193 11.968,-12.863 l 2.926,0.121 0.132,-1.157 c 0.57,-4.989 -9.293,-8.815 -17.74,-6.882 m -42.923,4.809 c -5.437,1.772 -7.99,6.921 -5.56,11.211 4.621,8.159 18.291,5.447 18.291,-3.628 0,-5.588 -6.667,-9.56 -12.731,-7.583 m -49.951,1.51 c -2.648,0.689 -2.518,-0.911 -2.518,31.015 v 28.917 l 1.369,1.494 1.369,1.494 20.431,0.111 20.431,0.11 -0.001,-3.71 c -0.003,-6.988 -0.263,-7.106 -15.599,-7.109 l -11,-0.002 0.118,-22.984 c 0.131,-25.415 0.23,-24.347 -2.439,-26.383 -2.667,-2.034 -9.406,-3.671 -12.161,-2.953 M 323.8,184.03 c -14.208,2.39 -23.615,12.107 -23.591,24.37 0.027,13.638 8.653,20.577 25.591,20.586 11.904,0.006 23.301,-5.187 24.415,-11.124 0.502,-2.679 -0.264,-2.845 -4.115,-0.893 -16.95,8.591 -31.455,2.013 -28.351,-12.857 2.099,-10.052 13.961,-15.01 17.215,-7.196 1.918,4.606 -3.436,9.96 -11.163,11.161 -3.502,0.544 -3.656,0.868 -1.458,3.066 6.285,6.285 22.086,1.876 26.318,-7.343 5.861,-12.768 -6.77,-22.813 -24.861,-19.77"
       id="path0" />
    <path
       fill-rule="evenodd"
       fill="#b11016"
       stroke="none"
       d="m 49.6,166.145 c 0,56.682 0.057,62.319 0.633,62.098 C 50.581,228.109 78.525,228 112.331,228 h 61.466 L 156.403,210.603 139.009,193.206 112.004,193.103 85,193 84.897,165.996 84.794,138.991 67.197,121.397 49.6,103.803 v 62.342"
       id="path1" />
    <path
       fill-rule="evenodd"
       fill="#ed1b24"
       stroke="none"
       d="m 332,103.292 c -10.724,0.999 -14.999,5.545 -16.014,17.026 -1.347,15.25 1.946,23.594 10.351,26.232 4.88,1.531 14.245,1.714 20.788,0.405 L 348.4,146.7 v -4.539 -4.54 l -6.314,0.249 c -11.35,0.447 -12.286,-0.488 -12.286,-12.27 0,-11.802 0.366,-12.2 11.231,-12.2 h 7.369 v -4.7 c 0,-3.855 -0.105,-4.7 -0.584,-4.7 -0.322,0 -2.347,-0.172 -4.5,-0.383 -6.334,-0.619 -7.734,-0.659 -11.316,-0.325 M 67.099,121.3 84.795,139 l 0.103,27 0.102,27 27,0.102 27,0.103 17.302,17.297 17.301,17.298 -61.701,0.202 -61.702,0.202 62.1,0.098 62.1,0.098 V 166 103.6 H 111.902 49.403 l 17.696,17.7 m 174.201,-17.407 -1.7,0.153 v 21.359 21.359 l 1.5,0.299 c 3.304,0.659 20.531,0.383 23.3,-0.374 9.549,-2.61 12.8,-8.029 12.8,-21.336 0,-18.948 -8.353,-23.941 -35.9,-21.46 M 192.4,125.4 v 21.4 h 6.792 6.792 l 0.108,-8.5 0.108,-8.5 h 6.4 6.4 l 0.108,8.509 0.108,8.51 6.892,-0.11 L 233,146.6 233.12,127 c 0.066,-10.78 0.009,-20.369 -0.126,-21.31 l -0.246,-1.709 -6.674,0.109 -6.674,0.11 -0.108,7.9 -0.109,7.9 H 212.592 206 v -8 -8 h -6.8 -6.8 v 21.4 m 90,0 v 21.4 h 6.8 6.8 v -8.592 -8.591 l 8.1,-0.109 8.1,-0.108 v -4.2 -4.2 l -8.1,-0.108 -8.1,-0.109 v -3.583 -3.584 l 8.7,-0.108 8.7,-0.108 0.113,-4.7 0.112,-4.7 H 298.013 282.4 v 21.4 m -21.921,-11.676 c 2.692,1.127 3.323,3.355 3.308,11.676 -0.02,10.827 -1.326,12.799 -8.284,12.518 L 252.6,137.8 252.494,125.804 c -0.058,-6.597 -0.009,-12.249 0.11,-12.558 0.271,-0.708 5.849,-0.369 7.875,0.478 M 138.703,165.9 138.6,192.6 H 112 85.4 L 85.297,165.9 85.194,139.2 H 112 138.806 l -0.103,26.7 M 347.3,255.612 c -0.798,0.321 -0.901,0.647 -0.909,2.875 -0.005,1.382 -0.455,4.763 -0.999,7.513 -1.901,9.61 -1.003,15.318 2.146,13.633 1.128,-0.603 1.339,-1.544 0.6,-2.672 -0.894,-1.364 -0.516,-7.02 0.825,-12.33 0.551,-2.183 1.123,-5.198 1.271,-6.7 l 0.269,-2.731 -1.151,0.025 c -0.634,0.014 -1.557,0.188 -2.052,0.387 m -288.246,0.457 c -7.215,2.017 -6.819,8.733 0.894,15.157 8.476,7.059 5.715,12.884 -4.348,9.174 -4.501,-1.66 -6,-1.297 -6,1.45 0,2.033 10.435,3.018 14.311,1.35 7.113,-3.06 6.512,-8.076 -1.777,-14.853 -4.613,-3.771 -5.676,-6.528 -3.51,-9.103 2.076,-2.466 5.042,-2.15 7.936,0.847 2.127,2.203 2.671,2.232 3.824,0.201 1.78,-3.133 -5.51,-5.85 -11.33,-4.223 m 174.31,0.901 -1.237,0.538 -0.255,4.546 c -0.141,2.5 -0.613,6.945 -1.05,9.877 -0.437,2.932 -0.915,6.667 -1.063,8.3 l -0.269,2.969 1.355,-10e-4 c 1.265,-0.002 1.446,-0.178 2.718,-2.637 1.8,-3.481 1.852,-3.482 5.708,-0.137 5.075,4.405 6.416,5.042 8.029,3.818 1.046,-0.794 0.847,-1.714 -0.471,-2.173 -1.647,-0.574 -5.081,-2.85 -7.368,-4.883 l -1.938,-1.723 1.338,-1.258 c 1.929,-1.812 5.606,-4.206 6.46,-4.206 0.918,0 0.804,-1.916 -0.149,-2.512 -1.35,-0.844 -6.475,3.142 -10.944,8.512 l -1.499,1.8 0.247,-1.4 c 2.005,-11.37 2.844,-19.597 2.024,-19.846 -0.22,-0.066 -0.956,0.121 -1.636,0.416 m -63.809,0.33 c -1.001,0.398 -1.054,0.578 -1.266,4.258 -0.122,2.113 -0.695,6.182 -1.274,9.042 l -1.053,5.2 -1.881,1.715 c -3.56,3.245 -7.937,4.591 -9.46,2.908 -0.847,-0.936 -0.627,-3.253 0.734,-7.737 l 0.875,-2.886 2.866,-0.2 c 3.029,-0.211 3.876,-0.645 3.627,-1.858 -0.155,-0.751 -2.176,-0.897 -4.627,-0.333 -0.89,0.205 -0.899,0.166 -0.642,-2.6 L 157.715,262 h -1.032 c -2.437,0 -3.032,0.58 -3.163,3.082 l -0.12,2.318 -1.8,0.2 c -1.632,0.181 -1.812,0.308 -1.932,1.358 -0.128,1.12 -0.086,1.15 1.293,0.926 1.813,-0.294 1.921,-0.078 1.342,2.685 -0.533,2.538 -1.635,3.689 -6.12,6.39 -6.483,3.906 -9.042,1.706 -6.629,-5.699 1.545,-4.741 1.564,-4.46 -0.305,-4.46 -1.819,0 -2.313,0.488 -3.083,3.048 -1.743,5.791 -6.383,9.636 -9.17,7.598 -1.449,-1.059 -0.505,-5.006 2.098,-8.776 1.217,-1.763 0.917,-2.204 -1.324,-1.942 -2.15,0.251 -3.685,3.299 -4.393,8.728 -0.829,6.349 4.103,7.806 9.894,2.923 2.266,-1.911 2.179,-1.904 2.499,-0.196 0.744,3.962 5.9,3.993 12.583,0.076 l 2.447,-1.434 v 1.543 c 0,4.77 6.449,4.594 13.9,-0.379 l 1.3,-0.868 v 1.824 c 0,1.795 0.026,1.831 1.631,2.263 1.6,0.431 2.769,0.078 2.769,-0.836 0,-1.448 6.231,-9.574 7.34,-9.571 0.307,0.001 0.468,1.095 0.484,3.3 0.053,7.419 5.465,9.815 11.453,5.069 1.74,-1.38 1.923,-1.418 1.923,-0.401 0,4.235 6.048,4.001 11.323,-0.438 1.058,-0.89 1.981,-1.553 2.051,-1.474 0.07,0.078 0.501,0.883 0.957,1.788 1.66,3.293 4.874,3.721 9.617,1.282 3.001,-1.543 3.739,-2.411 2.828,-3.323 -0.548,-0.548 -0.753,-0.506 -1.983,0.401 -4.692,3.462 -7.993,1.597 -7.993,-4.515 0,-7.206 -8.529,-8.445 -14.121,-2.052 -1.033,1.182 -1.879,2.351 -1.879,2.599 0,0.707 -3.168,4.126 -4.426,4.776 -4.382,2.266 -6.959,-0.9 -6.079,-7.468 0.942,-7.027 -2.815,-5.569 -10.964,4.255 -2.532,3.052 -2.552,3.35 0.898,-13.6 1.185,-5.82 0.753,-6.902 -2.274,-5.7 m 111.845,1.082 c -2.092,0.846 -3.017,4.018 -1.268,4.35 2.447,0.464 5.094,-2.059 3.962,-3.778 -0.433,-0.657 -1.779,-0.942 -2.694,-0.572 m 10.353,1.051 c -2.529,1.248 -2.605,4.167 -0.108,4.167 2.478,0 4.378,-2.978 2.666,-4.177 -1.074,-0.753 -1.011,-0.753 -2.558,0.01 M 113.6,262.531 c -3.967,1.33 -7.73,4.593 -10.533,9.136 -0.86,1.393 -1.452,2.083 -1.315,1.533 0.884,-3.557 0.832,-4 -0.468,-4 -2.312,0 -2.484,0.231 -2.484,3.327 v 2.842 l -2.249,2.093 c -5.708,5.312 -8.326,4.641 -8.392,-2.15 -0.041,-4.19 -0.059,-4.268 -1.2,-5.186 -5.727,-4.608 -15.159,1.239 -15.159,9.397 0,5.809 5.656,6.192 11.285,0.765 l 1.685,-1.625 0.79,1.843 c 1.802,4.205 5.653,4.082 11.14,-0.357 l 1.3,-1.052 v 2.385 c 0,2.843 0.073,2.944 1.747,2.43 1.267,-0.389 1.321,-0.499 1.986,-4.014 1.352,-7.154 7.583,-13.861 12.903,-13.889 1.544,-0.009 1.665,-0.097 2.15,-1.566 0.806,-2.444 -0.056,-2.961 -3.186,-1.912 m 142.056,5.911 c -7.324,2.202 -10.106,12.252 -4.083,14.747 3.396,1.407 12.039,-0.478 12.355,-2.695 0.162,-1.137 -0.918,-1.601 -1.843,-0.791 -2.903,2.544 -8,2.466 -9.833,-0.15 -1.058,-1.511 -0.808,-1.791 2.448,-2.738 5.728,-1.667 8.302,-3.978 7.317,-6.572 -0.658,-1.729 -3.72,-2.596 -6.361,-1.801 m 24.073,0.142 c -1.469,0.639 -1.465,0.62 -2.136,9.816 -1.148,15.725 -3.848,20.073 -8.763,14.11 l -1.136,-1.379 -0.647,0.924 c -1.821,2.598 0.149,4.745 4.353,4.745 5.097,0 7.64,-3.257 8.745,-11.2 1.393,-10.013 2.213,-15.051 2.624,-16.126 0.237,-0.619 0.431,-1.204 0.431,-1.3 0,-0.38 -2.273,-0.111 -3.471,0.41 m 45.163,0.699 c -6.932,2.731 -9.886,10.954 -5.016,13.964 3.26,2.015 8.997,0.801 12.633,-2.673 6.94,-6.629 1.398,-14.844 -7.617,-11.291 m -37.117,1.315 c -4.653,11.137 0.597,17.01 9.285,10.384 l 1.282,-0.978 0.935,1.698 c 1.446,2.625 3.091,2.872 6.727,1.006 1.538,-0.789 2.796,-1.406 2.795,-1.371 -10e-4,0.035 -0.526,2.139 -1.167,4.676 -0.642,2.537 -1.294,5.912 -1.451,7.5 l -0.284,2.887 h 1.628 c 2.133,0 2.196,-0.151 2.536,-6 0.37,-6.38 1.592,-10.701 4.062,-14.361 3.255,-4.823 3.435,-5.727 1.285,-6.436 -1.861,-0.614 -1.907,-0.566 -3.567,3.717 -1.947,5.027 -4.084,7.08 -7.366,7.08 -2.779,0 -3.38,-2.409 -1.704,-6.821 1.077,-2.833 1.046,-3.352 -0.236,-3.936 -1.463,-0.667 -1.829,-0.192 -3.098,4.026 -1.377,4.578 -3.867,6.731 -7.783,6.731 -3.081,0 -3.265,-3.291 -0.488,-8.733 0.822,-1.612 0.823,-1.645 0.061,-2.053 -1.605,-0.859 -2.828,-0.51 -3.452,0.984 m -29.453,1.256 c 0.154,1.584 -1.157,2.701 -4.215,3.59 -2.564,0.746 -2.6,0.726 -2.086,-1.134 0.958,-3.469 6.011,-5.44 6.301,-2.456 m 73.084,0.276 c 1.596,2.279 0.091,6.793 -2.837,8.509 -4.433,2.598 -8.822,-0.037 -7.373,-4.428 1.553,-4.704 7.976,-7.271 10.21,-4.081 M 84.048,271.986 c 1.412,1.413 1.234,1.966 -1.85,5.753 -4.111,5.046 -8.662,4.458 -7.053,-0.912 1.515,-5.057 6.161,-7.583 8.903,-4.841 m 120.036,-0.028 c 1.581,1.413 1.351,2.058 -2.048,5.742 -3.931,4.26 -7.236,4.658 -7.236,0.871 0,-5.409 5.915,-9.622 9.284,-6.613 m 138.946,11.209 c -1.651,1.825 0.858,4.449 3.405,3.561 0.641,-0.224 1.165,-0.554 1.165,-0.734 0,-0.181 0.106,-0.605 0.236,-0.943 0.701,-1.828 -3.402,-3.436 -4.806,-1.884"
       id="path3" />
  </g>
</svg>
