
<svg viewBox="98 98 611.3 187.05" xmlns="http://www.w3.org/2000/svg">
<path d="M219.76 132.49V252.25L279.64 282.15V102.51L219.76 132.49Z" fill="#00F200"/>
<path d="M159.88 132.49L100 102.51V282.15L159.88 252.25V132.49Z" fill="#00F200"/>
<path d="M406.419 137.47H365.479V102.51H339.52V197.41H365.479V159.4H406.419V197.41H432.319V102.51H406.419V137.47Z" fill="#004135"/>
<path d="M490.54 100.01C461.98 100.01 442.83 119.72 442.83 149.29C442.83 178.86 461.77 199.59 491.36 199.59C515.01 199.59 531.23 188.75 537.3 168.22H509.29C506.76 175.72 500.83 179.49 491.92 179.49C478.53 179.49 470.49 171.56 469.82 157.77H537.31C537.31 154.45 537.5 153.27 537.5 151.68C537.5 119.74 519.39 100.02 490.55 100.02L490.54 100.01ZM469.66 138.84C471.84 126.03 478.93 119.33 490.4 119.33C501.87 119.33 509.92 127.22 510.29 138.84H469.66Z" fill="#004135"/>
<path d="M581.629 101.22C572.449 103.04 548.89 110.13 548.89 146.06V197.42H575.129V154.92C575.129 139.36 577.29 132.06 583.79 127.34C587.75 124.17 593.49 122.41 600.16 122.41C602.92 122.41 604.11 122.61 607.27 123.19V101.65C607.27 101.65 596.79 98.26 581.62 101.23L581.629 101.22Z" fill="#004135"/>
<path d="M659.18 100C629.76 100 610.83 119.52 610.83 149.87C610.83 180.22 629.76 199.58 659.18 199.58C688.6 199.58 707.3 180.03 707.3 149.87C707.3 119.71 688.34 100 659.18 100ZM659.18 179.84C645.35 179.84 637.29 168.61 637.29 149.87C637.29 131.13 645.19 119.9 659.18 119.9C673.17 119.9 680.89 130.76 680.89 149.69C680.89 168.62 672.98 179.84 659.18 179.84Z" fill="#004135"/>
<path d="M339.52 224.771H376.819V233.21H350.009V249.85H373.37V258.21H350.009V282.151H339.52V224.771Z" fill="#004135"/>
<path d="M399.43 282.16H388.939V224.78H399.43V282.16Z" fill="#004135"/>
<path d="M414.629 224.771H422.579L450.939 263.22V224.771H461.429V282.151H453.559L425.109 243.46V282.151H414.619V224.771H414.629Z" fill="#004135"/>
<path d="M503.629 223.87C512.319 223.87 518.06 226.57 523.39 230.59L519.209 238.46C515.189 235.51 509.869 233.21 503.719 233.21C490.689 233.21 483.06 242.31 483.06 253.46C483.06 264.61 490.679 273.71 503.719 273.71C509.869 273.71 515.199 271.5 519.209 268.46L523.39 276.41C518.06 280.43 512.319 283.05 503.629 283.05C484.199 283.05 472.319 269.44 472.319 253.46C472.319 237.48 484.209 223.87 503.629 223.87Z" fill="#004135"/>
<path d="M559.469 223.87C575.859 223.87 589.469 237.15 589.469 253.46C589.469 269.77 575.859 283.05 559.469 283.05C543.079 283.05 529.469 269.77 529.469 253.46C529.469 237.15 543.079 223.87 559.469 223.87ZM559.469 273.55C570.039 273.55 578.819 265.03 578.819 253.47C578.819 241.91 570.049 233.39 559.469 233.39C548.889 233.39 540.119 241.91 540.119 253.47C540.119 265.03 548.889 273.55 559.469 273.55Z" fill="#004135"/>
<path d="M656.14 224.771H680.239C691.719 224.771 698.189 233.3 698.189 243.21C698.189 253.12 691.629 261.161 680.239 261.161H666.629V282.151H656.14V224.771ZM666.629 233.21V252.88H678.6C684.09 252.88 687.449 248.86 687.449 243.13C687.449 237.4 684.09 233.21 678.6 233.21H666.629Z" fill="#004135"/>
<path d="M645.009 282.16L630.489 260.35C638.189 258.13 642.81 251.38 642.81 243.22C642.81 233.38 636.329 224.78 624.939 224.78H600.18V282.16H610.669V261.09H619.489L632.62 282.16H645H645.009ZM610.68 233.47H623.299C628.629 233.47 632.149 237.57 632.149 243.14C632.149 248.71 628.709 252.73 623.299 252.73H610.68V233.47Z" fill="#004135"/>
</svg>
