<?xml version="1.0" encoding="UTF-8"?>
<svg version="1.1" xmlns="http://www.w3.org/2000/svg" width="200" height="46">
<path d="M0 0 C4.14591767 2.34228026 6.8743242 5.06204734 8.8125 9.4375 C10.45700373 15.79080014 10.20261971 20.67429649 6.8125 26.4375 C2.57586849 31.61560518 -1.98715799 34.03018374 -8.625 34.875 C-14.34542367 34.17249183 -18.53773247 32.13068247 -22.5625 28 C-25.77024066 22.94163973 -27.086596 18.46477319 -26.1875 12.4375 C-24.05521891 6.08676012 -20.78883008 2.38416491 -14.875 -0.8125 C-9.51693145 -2.30777494 -5.05646899 -2.22293826 0 0 Z M-10.1875 1.4375 C-12.1675 5.3975 -14.1475 9.3575 -16.1875 13.4375 C-13.5475 13.4375 -10.9075 13.4375 -8.1875 13.4375 C-8.8475 15.4175 -9.5075 17.3975 -10.1875 19.4375 C-14.1475 19.4375 -18.1075 19.4375 -22.1875 19.4375 C-21.25731326 24.59310334 -21.25731326 24.59310334 -17.875 27.75 C-16.98361328 28.51763672 -16.98361328 28.51763672 -16.07421875 29.30078125 C-13.98357968 30.78153978 -13.98357968 30.78153978 -10.1875 30.4375 C-9.34901196 28.98212432 -8.51686066 27.52309627 -7.6875 26.0625 C-7.2234375 25.25039063 -6.759375 24.43828125 -6.28125 23.6015625 C-5.03714141 21.54413126 -5.03714141 21.54413126 -5.1875 19.4375 C-6.1775 19.4375 -7.1675 19.4375 -8.1875 19.4375 C-7.5275 17.7875 -6.8675 16.1375 -6.1875 14.4375 C-0.2475 13.9425 -0.2475 13.9425 5.8125 13.4375 C4.77334815 8.96914706 3.28890932 6.24787056 -0.390625 3.40625 C-3.56794416 1.69326054 -6.61483502 1.62229302 -10.1875 1.4375 Z M-16.1875 3.4375 C-20.68085977 7.95834209 -22.92422346 10.98722485 -23.1875 17.4375 C-19.96480382 13.63932235 -17.44229622 9.86358146 -15.1875 5.4375 C-15.5175 4.7775 -15.8475 4.1175 -16.1875 3.4375 Z M4.8125 16.4375 C4.4825 17.0975 4.1525 17.7575 3.8125 18.4375 C3.03648438 18.54191406 2.26046875 18.64632813 1.4609375 18.75390625 C-1.36082914 19.2063594 -1.36082914 19.2063594 -3.0234375 21.65234375 C-3.53132813 22.55082031 -4.03921875 23.44929688 -4.5625 24.375 C-5.08585937 25.27089844 -5.60921875 26.16679688 -6.1484375 27.08984375 C-6.49132812 27.86457031 -6.83421875 28.63929687 -7.1875 29.4375 C-6.8575 30.0975 -6.5275 30.7575 -6.1875 31.4375 C-0.57551039 29.12187322 3.02941969 27.11962229 5.8125 21.4375 C6.14959062 18.68491188 6.14959062 18.68491188 5.8125 16.4375 C5.4825 16.4375 5.1525 16.4375 4.8125 16.4375 Z " fill="#26201D" transform="translate(43.1875,6.5625)"/>
<path d="M0 0 C1.60332791 -0.08121924 3.20784026 -0.13929134 4.8125 -0.1875 C6.15248047 -0.23970703 6.15248047 -0.23970703 7.51953125 -0.29296875 C10.41647515 0.04918998 11.22555028 0.75393573 13 3 C13.515625 2.505 14.03125 2.01 14.5625 1.5 C17.82261229 -0.50622295 20.23659039 -0.20907831 24 0 C25.83380676 0 27.66736164 -0.05954863 29.5 -0.125 C33 0 33 0 35 2 C35.125 5.625 35.125 5.625 35 9 C33.68 9.33 32.36 9.66 31 10 C31.99 10.33 32.98 10.66 34 11 C33.67 11.99 33.34 12.98 33 14 C26.9453125 14.1953125 26.9453125 14.1953125 25 14 C24.34 13.34 23.68 12.68 23 12 C22.67 12.66 22.34 13.32 22 14 C18.6875 14.25 18.6875 14.25 15 14 C13.0625 12 13.0625 12 12 10 C11.34 11.32 10.68 12.64 10 14 C8.68 14 7.36 14 6 14 C6.33 10.7 6.66 7.4 7 4 C6.01 4 5.02 4 4 4 C3.34 7.3 2.68 10.6 2 14 C0.68 14 -0.64 14 -2 14 C-1.85795259 12.41632253 -1.71119847 10.83306682 -1.5625 9.25 C-1.48128906 8.36828125 -1.40007812 7.4865625 -1.31640625 6.578125 C-1.03761535 4.30649548 -0.61209423 2.20148177 0 0 Z M29 3 C28.34 3.66 27.68 4.32 27 5 C28.32 5 29.64 5 31 5 C31 4.34 31 3.68 31 3 C30.34 3 29.68 3 29 3 Z M20 3 C19.01 3.66 18.02 4.32 17 5 C16.74969023 7.58380177 16.74969023 7.58380177 17 10 C17.99 10.33 18.98 10.66 20 11 C20.66 10.67 21.32 10.34 22 10 C22.65772428 6.97065509 22.65772428 6.97065509 23 4 C22.01 3.67 21.02 3.34 20 3 Z " fill="#27211E" transform="translate(148,18)"/>
<path d="M0 0 C2.875 0.6875 2.875 0.6875 3.875 1.6875 C3.91563832 3.35367115 3.917721 5.02138095 3.875 6.6875 C4.865 7.0175 5.855 7.3475 6.875 7.6875 C6.35231534 10.45026177 5.76630413 13.0135876 4.875 15.6875 C5.205 16.6775 5.535 17.6675 5.875 18.6875 C-3.125 18.6875 -12.125 18.6875 -21.125 18.6875 C-19.19789294 6.01779613 -19.19789294 6.01779613 -17.125 0.6875 C-15.805 0.6875 -14.485 0.6875 -13.125 0.6875 C-13.64458285 5.06684119 -14.18175742 9.37553391 -15.125 13.6875 C-13.475 14.0175 -11.825 14.3475 -10.125 14.6875 C-10.00125 13.924375 -9.8775 13.16125 -9.75 12.375 C-9.125 9.6875 -9.125 9.6875 -7.125 6.6875 C-6.980625 5.841875 -6.83625 4.99625 -6.6875 4.125 C-5.76205722 0.11474795 -3.88543901 -0.3885439 0 0 Z M-2.125 3.6875 C-1.795 4.6775 -1.465 5.6675 -1.125 6.6875 C-0.795 5.6975 -0.465 4.7075 -0.125 3.6875 C-0.785 3.6875 -1.445 3.6875 -2.125 3.6875 Z M0.875 8.6875 C1.205 9.6775 1.535 10.6675 1.875 11.6875 C2.205 10.6975 2.535 9.7075 2.875 8.6875 C2.215 8.6875 1.555 8.6875 0.875 8.6875 Z M-6.125 11.6875 C-6.125 12.6775 -6.125 13.6675 -6.125 14.6875 C-5.135 15.0175 -4.145 15.3475 -3.125 15.6875 C-3.125 14.3675 -3.125 13.0475 -3.125 11.6875 C-4.115 11.6875 -5.105 11.6875 -6.125 11.6875 Z " fill="#292320" transform="translate(79.125,13.3125)"/>
<path d="M0 0 C1.62490954 -0.02698189 3.24994633 -0.04638757 4.875 -0.0625 C5.77992187 -0.07410156 6.68484375 -0.08570312 7.6171875 -0.09765625 C10 0 10 0 12 1 C12.625 3.5625 12.625 3.5625 13 6 C15.31 5.34 17.62 4.68 20 4 C18.02 4 16.04 4 14 4 C14.33 2.68 14.66 1.36 15 0 C21.0546875 -0.1953125 21.0546875 -0.1953125 23 0 C23.66 0.66 24.32 1.32 25 2 C24.9765625 4.6015625 24.9765625 4.6015625 24.625 7.625 C24.45871094 9.12933594 24.45871094 9.12933594 24.2890625 10.6640625 C24.14597656 11.82035156 24.14597656 11.82035156 24 13 C20.58540381 13.71494895 17.49885384 14.28369085 14 14 C13.34 13.34 12.68 12.68 12 12 C11.67 12.66 11.34 13.32 11 14 C9.35 14 7.7 14 6 14 C6.33 10.7 6.66 7.4 7 4 C3.65094547 7.34905453 3.10529715 9.49378854 2 14 C0.68 14 -0.64 14 -2 14 C-1.03644647 4.58997722 -1.03644647 4.58997722 0 0 Z M17 8 C16.67 8.99 16.34 9.98 16 11 C17.32 10.67 18.64 10.34 20 10 C20 9.34 20 8.68 20 8 C19.01 8 18.02 8 17 8 Z " fill="#27221F" transform="translate(121,18)"/>
<path d="M0 0 C4.14591767 2.34228026 6.8743242 5.06204734 8.8125 9.4375 C10.45700373 15.79080014 10.20261971 20.67429649 6.8125 26.4375 C3.79584659 30.00985272 1.28238491 32.03267903 -3.1875 33.4375 C-2.15331096 30.14689852 -1.28942205 28.52922985 1.3125 26.1875 C4.74134296 22.41577274 4.99406468 19.42251512 5.8125 14.4375 C1.8525 14.4375 -2.1075 14.4375 -6.1875 14.4375 C-6.1875 14.1075 -6.1875 13.7775 -6.1875 13.4375 C-2.2275 13.4375 1.7325 13.4375 5.8125 13.4375 C2.45963716 7.23978384 0.57182621 4.52674628 -6.1875 2.4375 C-7.51026056 2.06441369 -8.83982077 1.70703585 -10.1875 1.4375 C-10.455625 2.13875 -10.72375 2.84 -11 3.5625 C-12.2556449 6.6024824 -13.68985123 9.5102774 -15.1875 12.4375 C-16.1775 11.7775 -17.1675 11.1175 -18.1875 10.4375 C-17.5275 8.4575 -16.8675 6.4775 -16.1875 4.4375 C-16.950625 5.076875 -17.71375 5.71625 -18.5 6.375 C-21.1875 8.4375 -21.1875 8.4375 -24.1875 9.4375 C-22.556936 4.10110874 -19.69627601 1.79359514 -14.875 -0.8125 C-9.51693145 -2.30777494 -5.05646899 -2.22293826 0 0 Z " fill="#2B2622" transform="translate(43.1875,6.5625)"/>
<path d="M0 0 C2 2 2 2 2.125 5.625 C2.08375 6.73875 2.0425 7.8525 2 9 C0.68 9.33 -0.64 9.66 -2 10 C-1.01 10.33 -0.02 10.66 1 11 C0.67 11.99 0.34 12.98 0 14 C-7.26153846 14.49230769 -7.26153846 14.49230769 -11 12 C-11.66 11.34 -12.32 10.68 -13 10 C-12.34 10 -11.68 10 -11 10 C-10.84850702 6.37114676 -10.84850702 6.37114676 -12 3 C-7.91526758 0.02928551 -5.0165166 -0.47325628 0 0 Z M-4 3 C-4.66 3.66 -5.32 4.32 -6 5 C-4.68 5 -3.36 5 -2 5 C-2 4.34 -2 3.68 -2 3 C-2.66 3 -3.32 3 -4 3 Z " fill="#332E2B" transform="translate(181,18)"/>
<path d="M0 0 C3.3 0 6.6 0 10 0 C10 0.99 10 1.98 10 3 C8.02 3.33 6.04 3.66 4 4 C3.67 4.99 3.34 5.98 3 7 C4.98 7 6.96 7 9 7 C8.67 7.99 8.34 8.98 8 10 C6.02 10 4.04 10 2 10 C1.67 12.64 1.34 15.28 1 18 C-0.65 18 -2.3 18 -4 18 C-3.52450066 15.37428665 -3.04477433 12.7494696 -2.5625 10.125 C-2.42779297 9.37863281 -2.29308594 8.63226563 -2.15429688 7.86328125 C-1.11328125 2.2265625 -1.11328125 2.2265625 0 0 Z " fill="#26201D" transform="translate(105,14)"/>
<path d="M0 0 C4.62 0 9.24 0 14 0 C13.67 0.99 13.34 1.98 13 3 C11.68 3.33 10.36 3.66 9 4 C8.01 8.62 7.02 13.24 6 18 C4.35 18 2.7 18 1 18 C1.55145271 12.76119922 2.42922093 8.02649303 4 3 C2.35 3 0.7 3 -1 3 C-0.67 2.01 -0.34 1.02 0 0 Z " fill="#282320" transform="translate(85,14)"/>
<path d="M0 0 C0.66 0.33 1.32 0.66 2 1 C1.71018085 7.39051228 0.7905444 11.77519555 -3 17 C-8.12820513 21 -8.12820513 21 -11 21 C-9.96581096 17.70939852 -9.10192205 16.09172985 -6.5 13.75 C-3.07115704 9.97827274 -2.81843532 6.98501512 -2 2 C-5.96 2 -9.92 2 -14 2 C-14 1.67 -14 1.34 -14 1 C-13.07316406 1.01160156 -12.14632812 1.02320312 -11.19140625 1.03515625 C-9.39509766 1.04869141 -9.39509766 1.04869141 -7.5625 1.0625 C-5.77005859 1.07990234 -5.77005859 1.07990234 -3.94140625 1.09765625 C-1.11126659 1.33901792 -1.11126659 1.33901792 0 0 Z " fill="#352F2C" transform="translate(51,19)"/>
<path d="M0 0 C4.29 0 8.58 0 13 0 C12.34 1.65 11.68 3.3 11 5 C10.05125 4.979375 9.1025 4.95875 8.125 4.9375 C5.09333717 4.77448174 5.09333717 4.77448174 3 6 C0.875 5.5625 0.875 5.5625 -1 5 C-0.67 3.35 -0.34 1.7 0 0 Z " fill="#221D19" transform="translate(36,21)"/>
<path d="M0 0 C1.32 0 2.64 0 4 0 C3.69147815 1.958964 3.3780582 3.91715713 3.0625 5.875 C2.88847656 6.96554688 2.71445313 8.05609375 2.53515625 9.1796875 C2 12 2 12 1 14 C-0.32 14 -1.64 14 -3 14 C-2.48594831 9.03083364 -1.76615118 4.70973649 0 0 Z " fill="#292320" transform="translate(116,18)"/>
<path d="M0 0 C0.99 0 1.98 0 3 0 C2.42655063 2.86724686 2.1385485 3.8614515 0 6 C-0.66 5.67 -1.32 5.34 -2 5 C-1.34 3.35 -0.68 1.7 0 0 Z " fill="#2E2925" transform="translate(35,32)"/>
<path d="M0 0 C1.32 0 2.64 0 4 0 C3.67 1.32 3.34 2.64 3 4 C1.68 4 0.36 4 -1 4 C-0.67 2.68 -0.34 1.36 0 0 Z " fill="#332E2A" transform="translate(117,13)"/>
</svg>
