<?xml version="1.0" encoding="UTF-8" standalone="no"?>
<!-- Created with Inkscape (http://www.inkscape.org/) -->

<svg
   xmlns:dc="http://purl.org/dc/elements/1.1/"
   xmlns:cc="http://creativecommons.org/ns#"
   xmlns:rdf="http://www.w3.org/1999/02/22-rdf-syntax-ns#"
   xmlns:svg="http://www.w3.org/2000/svg"
   xmlns="http://www.w3.org/2000/svg"
   version="1.1"
   width="310.39001"
   height="28.190001"
   id="svg2"
   xml:space="preserve"><metadata
     id="metadata8"><rdf:RDF><cc:Work
         rdf:about=""><dc:format>image/svg+xml</dc:format><dc:type
           rdf:resource="http://purl.org/dc/dcmitype/StillImage" /><dc:title></dc:title></cc:Work></rdf:RDF></metadata><defs
     id="defs6"><clipPath
       id="clipPath16"><path
         d="m 0,0 680.319,0 0,1190.547 L 0,1190.547 0,0 z"
         id="path18" /></clipPath><clipPath
       id="clipPath102"><path
         d="m 0,0 680.319,0 0,1190.547 L 0,1190.547 0,0 z"
         id="path104" /></clipPath><clipPath
       id="clipPath1128"><path
         d="m 0,0 680.319,0 0,1190.547 L 0,1190.547 0,0 z"
         id="path1130" /></clipPath><clipPath
       id="clipPath1146"><path
         d="m 0,0 680.319,0 0,1190.547 L 0,1190.547 0,0 z"
         id="path1148" /></clipPath><clipPath
       id="clipPath1274"><path
         d="m 458.649,963.45 221.472,0 0,226.764 -221.472,0 0,-226.764 z"
         id="path1276" /></clipPath><clipPath
       id="clipPath1286"><path
         d="m 0,963.45 423.707,0 0,226.764 -423.707,0 0,-226.764 z"
         id="path1288" /></clipPath><clipPath
       id="clipPath1298"><path
         d="m 423.029,963.45 35.62,0 0,226.764 -35.62,0 0,-226.764 z"
         id="path1300" /></clipPath><clipPath
       id="clipPath1334"><path
         d="m 594.513,989.469 9.45,0 0,-17.127 30.249,0 0,17.127 10.098,0 -24.903,17.127 -24.894,-17.127 z"
         id="path1336" /></clipPath><clipPath
       id="clipPath1344"><path
         d="m -0.0252075,-0.567017 1.0534975,0 0,1.133988 -1.0534975,0 0,-1.133988 z"
         id="path1346" /></clipPath><linearGradient
       x1="0"
       y1="0"
       x2="1"
       y2="0"
       id="linearGradient1348"
       gradientUnits="userSpaceOnUse"
       gradientTransform="matrix(24.057236,-44.934753,-46.696854,-25.000641,607.34082,-155.99235)"
       spreadMethod="pad"><stop
         id="stop1350"
         style="stop-color:#751c1d;stop-opacity:1"
         offset="0" /><stop
         id="stop1352"
         style="stop-color:#cb3023;stop-opacity:1"
         offset="1" /></linearGradient><clipPath
       id="clipPath1366"><path
         d="m 186.597,989.667 9.45,0 0,-17.127 30.249,0 0,17.127 10.098,0 -24.903,17.118 -24.894,-17.118 z"
         id="path1368" /></clipPath><clipPath
       id="clipPath1376"><path
         d="m -0.0260468,-0.566528 1.0534868,0 0,1.133972 -1.0534868,0 0,-1.133972 z"
         id="path1378" /></clipPath><linearGradient
       x1="0"
       y1="0"
       x2="1"
       y2="0"
       id="linearGradient1380"
       gradientUnits="userSpaceOnUse"
       gradientTransform="matrix(24.057236,-44.934753,-46.696854,-25.000641,199.47021,-155.82445)"
       spreadMethod="pad"><stop
         id="stop1382"
         style="stop-color:#751c1d;stop-opacity:1"
         offset="0" /><stop
         id="stop1384"
         style="stop-color:#cb3023;stop-opacity:1"
         offset="1" /></linearGradient><clipPath
       id="clipPath1478"><path
         d="m 0,0 680.319,0 0,1190.547 L 0,1190.547 0,0 z"
         id="path1480" /></clipPath><clipPath
       id="clipPath1496"><path
         d="m 0,0 680.319,0 0,1190.547 L 0,1190.547 0,0 z"
         id="path1498" /></clipPath></defs><g
     transform="matrix(1.25,0,0,-1.25,0,28.190458)"
     id="g10"><g
       id="g1330"><g
         clip-path="url(#clipPath1334)"
         id="g1332"><g
           id="g1338"><g
             id="g1340"><g
               clip-path="url(#clipPath1344)"
               id="g1342"><path
                 d="m 594.513,989.469 9.45,0 0,-17.127 30.249,0 0,17.127 10.098,0 -24.903,17.127 -24.894,-17.127 z"
                 id="path1354"
                 style="fill:url(#linearGradient1348);stroke:none" /></g></g></g></g></g><g
       id="g1362"><g
         clip-path="url(#clipPath1366)"
         id="g1364"><g
           id="g1370"><g
             id="g1372"><g
               clip-path="url(#clipPath1376)"
               id="g1374"><path
                 d="m 186.597,989.667 9.45,0 0,-17.127 30.249,0 0,17.127 10.098,0 -24.903,17.118 -24.894,-17.118 z"
                 id="path1386"
                 style="fill:url(#linearGradient1380);stroke:none" /></g></g></g></g></g><g
       transform="translate(33.85206,15.569612)"
       id="g1408"><path
         d="m 0,0 c -0.504,0 -0.977,-0.25 -1.252,-0.63 l -1.725,-2.525 10.288,0 c 0.649,-0.038 1.162,-0.58 1.162,-1.239 l 0,-4.823 -7.715,0 0,1.381 0,0.003 c 0,0.274 0.219,0.498 0.494,0.498 l 5.391,0 0,1.782 c 0,0.438 -0.27,0.685 -0.644,0.685 l -7.474,0 c -0.915,0 -1.653,-0.742 -1.653,-1.656 l 0,-4.402 0.018,-0.071 c 0.101,-0.66 0.674,-1.144 1.359,-1.144 l 14.579,0 0,9.517 C 12.828,-1.174 11.654,0 10.207,0 L 0,0"
         id="path1410"
         style="fill:#d31e35;fill-opacity:1;fill-rule:nonzero;stroke:none" /></g><g
       transform="translate(126.85537,15.569612)"
       id="g1412"><path
         d="m 0,0 c -0.504,0 -0.977,-0.25 -1.247,-0.63 l -1.726,-2.525 10.287,0 c 0.649,-0.038 1.161,-0.58 1.161,-1.239 l 0,-4.823 -7.715,0 0,1.381 0,0.003 c 0,0.274 0.22,0.498 0.498,0.498 l 5.388,0 0,1.782 c 0,0.438 -0.273,0.685 -0.642,0.685 l -7.473,0 c -0.918,0 -1.658,-0.742 -1.658,-1.656 l 0,-4.402 0.018,-0.071 c 0.101,-0.66 0.673,-1.144 1.363,-1.144 l 14.576,0 0,9.517 C 12.83,-1.174 11.659,0 10.21,0 L 0,0"
         id="path1414"
         style="fill:#d31e35;fill-opacity:1;fill-rule:nonzero;stroke:none" /></g><g
       transform="translate(104.92775,19.981512)"
       id="g1416"><path
         d="m 0,0 0,-4.415 0,-9.113 -6.402,0 c -0.444,0 -0.754,0.393 -0.754,0.72 l 0,3.998 0,0.004 c 0,0.683 0.554,1.24 1.242,1.24 l 3.24,0 c 0.483,0 0.981,0.275 1.18,0.613 L 0,-4.415 l -8.979,0 c -1.447,0 -2.623,-1.173 -2.623,-2.622 l 0,-0.024 0,-7.324 c 0,-1.395 1.125,-2.171 2.151,-2.171 l 13.898,0 L 4.447,0 0,0"
         id="path1418"
         style="fill:#d31e35;fill-opacity:1;fill-rule:nonzero;stroke:none" /></g><g
       transform="translate(114.10776,15.566112)"
       id="g1420"><path
         d="m 0,0 c -1.104,0 -1.82,-0.853 -1.82,-1.77 l 0,-10.371 4.447,0 0,7.732 c -0.003,0.695 0.49,1.269 1.194,1.269 l 3.292,0 c 0.479,0.031 0.893,0.312 1.145,0.684 L 9.982,0 0,0"
         id="path1422"
         style="fill:#d31e35;fill-opacity:1;fill-rule:nonzero;stroke:none" /></g><g
       transform="translate(67.95755,19.994912)"
       id="g1424"><path
         d="M 0,0 0,-5.991 4.415,-3.06 4.415,0 0,0 M 0.918,-6.747 C 0.364,-7.101 0,-7.697 0,-8.379 l 0,-8.191 4.415,0 0,7.328 0,4.676 c 0,0 -2.046,-1.278 -3.497,-2.181"
         id="path1426"
         style="fill:#d31e35;fill-opacity:1;fill-rule:nonzero;stroke:none" /></g><g
       transform="translate(3.6327604,19.982412)"
       id="g1428"><path
         d="m 0,0 0,-16.554 4.413,0 0,12.691 4.715,0 c 0.451,-0.009 0.807,-0.374 0.807,-0.825 l 0.005,0 -0.005,-11.866 4.416,0 0,11.866 c 0.002,0.455 0.37,0.828 0.828,0.828 l 0.009,-0.003 3.473,0 c 0.669,-0.002 1.213,-0.542 1.215,-1.212 l 0,-11.479 4.411,0 0,13.512 C 24.287,-1.363 22.927,0 21.243,0 L 0,0"
         id="path1430"
         style="fill:#d31e35;fill-opacity:1;fill-rule:nonzero;stroke:none" /></g><g
       transform="translate(75.27906,15.557112)"
       id="g1432"><path
         d="m 0,0 0,-12.132 4.441,0 0,8.994 5.058,0 c 0.685,0 1.243,-0.56 1.243,-1.241 l 0,-7.753 4.434,0 0,9.519 c 0,1.449 -1.176,2.622 -2.625,2.622 L 0,0"
         id="path1434"
         style="fill:#d31e35;fill-opacity:1;fill-rule:nonzero;stroke:none" /></g><g
       transform="translate(49.42206,19.980512)"
       id="g1436"><path
         d="m 0,0 0,-16.553 4.418,0 0,8.988 L 4.418,0 0,0 m 12.957,-4.411 -5.77,0 c -0.515,0 -0.765,-0.263 -1.035,-0.661 l -1.734,-2.493 5.604,0 c 0.656,-0.027 1.188,-0.573 1.188,-1.242 l -0.003,-7.746 4.414,0 0,9.492 0,0.028 c 0,1.448 -1.174,2.622 -2.62,2.622 l -0.044,0"
         id="path1438"
         style="fill:#d31e35;fill-opacity:1;fill-rule:nonzero;stroke:none" /></g><g
       transform="translate(146.56806,19.981512)"
       id="g1440"><path
         d="m 0,0 0,-16.559 3.141,0 0,6.808 7.428,0 0,2.642 -7.428,0 0,4.464 7.826,0 0,2.645 L 0,0 z"
         id="path1442"
         style="fill:#1f1a17;fill-opacity:1;fill-rule:nonzero;stroke:none" /></g><path
       d="m 159.45086,3.4225115 3.141,0 0,16.5590005 -3.141,0 0,-16.5590005 z"
       id="path1444"
       style="fill:#1f1a17;fill-opacity:1;fill-rule:nonzero;stroke:none" /><g
       transform="translate(177.75576,19.981512)"
       id="g1446"><path
         d="m 0,0 0,-9.534 0.026,-2.133 0.035,-1.068 0.037,-1.07 -0.109,0 -0.633,1.362 -0.633,1.346 c -0.498,1.059 -0.939,1.959 -1.318,2.702 L -6.902,0 l -5.325,0 0,-16.559 3.141,0 0,9.5 -0.023,2.17 -0.039,1.08 -0.047,1.092 0.121,0 0.524,-1.191 0.531,-1.186 c 0.504,-1.133 0.871,-1.925 1.107,-2.377 l 4.729,-9.088 5.326,0 L 3.143,0 0,0"
         id="path1448"
         style="fill:#1f1a17;fill-opacity:1;fill-rule:nonzero;stroke:none" /></g><g
       transform="translate(187.83576,19.981512)"
       id="g1450"><path
         d="m 0,0 -5.506,-16.559 3.323,0 1.031,3.178 7.146,0 1.055,-3.178 3.26,0 L 4.721,0 0,0 m 2.401,-2.437 2.863,-8.626 -5.674,0 2.811,8.626 z"
         id="path1452"
         style="fill:#1f1a17;fill-opacity:1;fill-rule:nonzero;stroke:none" /></g><g
       transform="translate(211.80455,19.981512)"
       id="g1454"><path
         d="m 0,0 0,-9.534 0.022,-2.133 0.041,-1.068 0.033,-1.07 -0.109,0 -0.631,1.362 -0.631,1.346 c -0.496,1.059 -0.941,1.959 -1.322,2.702 L -6.902,0 l -5.325,0 0,-16.559 3.141,0 0,9.5 -0.025,2.17 -0.035,1.08 -0.049,1.092 0.121,0 0.524,-1.191 0.533,-1.186 c 0.5,-1.133 0.869,-1.925 1.1,-2.377 l 4.734,-9.088 5.324,0 L 3.141,0 0,0"
         id="path1456"
         style="fill:#1f1a17;fill-opacity:1;fill-rule:nonzero;stroke:none" /></g><g
       transform="translate(218.76786,18.835812)"
       id="g1458"><path
         d="m 0,0 c -1.022,-0.86 -1.53,-2.66 -1.53,-5.394 0,-4.64 0.375,-7.496 1.129,-8.564 0.752,-1.066 2.764,-1.598 6.029,-1.598 2.877,0 4.739,0.338 5.58,1.016 0.84,0.673 1.264,2.161 1.264,4.465 l 0,0.57 -3.153,0 0.019,-0.74 c 0,-1.099 -0.233,-1.811 -0.695,-2.134 -0.466,-0.326 -1.479,-0.485 -3.038,-0.485 -1.926,0 -3.066,0.292 -3.415,0.872 -0.354,0.584 -0.531,2.458 -0.531,5.631 0,2.353 0.199,3.765 0.591,4.243 0.392,0.477 1.564,0.716 3.509,0.716 1.455,0 2.391,-0.152 2.799,-0.455 0.409,-0.301 0.612,-0.995 0.612,-2.081 l 0,-0.424 3.155,0 -0.015,0.374 c 0,2.104 -0.396,3.507 -1.189,4.218 C 10.332,0.938 8.753,1.292 6.393,1.292 3.148,1.292 1.017,0.861 0,0"
         id="path1460"
         style="fill:#1f1a17;fill-opacity:1;fill-rule:nonzero;stroke:none" /></g><g
       transform="translate(232.88436,19.981512)"
       id="g1462"><path
         d="m 0,0 0,-16.559 11.405,0 0,2.646 -8.259,0 0,4.682 7.761,0 0,2.317 -7.761,0 0,4.269 8.188,0 0,2.645 L 0,0 z"
         id="path1464"
         style="fill:#1f1a17;fill-opacity:1;fill-rule:nonzero;stroke:none" /></g></g></svg>