<?xml version="1.0" encoding="UTF-8"?>
<svg version="1.1" xmlns="http://www.w3.org/2000/svg" width="267" height="76">
<path d="M0 0 C88.11 0 176.22 0 267 0 C267 21.45 267 42.9 267 65 C178.89 65 90.78 65 0 65 C0 43.55 0 22.1 0 0 Z " fill="#FED801" transform="translate(0,0)"/>
<path d="M0 0 C1.32 0 2.64 0 4 0 C4 0.99 4 1.98 4 3 C5.32 3 6.64 3 8 3 C8 2.01 8 1.02 8 0 C10.475 0.495 10.475 0.495 13 1 C13 2.65 13 4.3 13 6 C14.98 5.34 16.96 4.68 19 4 C19.66 5.65 20.32 7.3 21 9 C20.34 9 19.68 9 19 9 C19 10.32 19 11.64 19 13 C20.65 13 22.3 13 24 13 C24 14.65 24 16.3 24 18 C22.68 18 21.36 18 20 18 C20 19.32 20 20.64 20 22 C20.99 22 21.98 22 23 22 C22.505 24.475 22.505 24.475 22 27 C20.35 27.33 18.7 27.66 17 28 C93.23 28.33 169.46 28.66 248 29 C248 38.24 248 47.48 248 57 C159.89 57 71.78 57 -19 57 C-19 47.76 -19 38.52 -19 29 C-14.38 29 -9.76 29 -5 29 C-5.33 28.34 -5.66 27.68 -6 27 C-8.52733235 26.34444881 -8.52733235 26.34444881 -11 26 C-11 24.68 -11 23.36 -11 22 C-10.34 21.67 -9.68 21.34 -9 21 C-8.67 20.01 -8.34 19.02 -8 18 C-9.32 18 -10.64 18 -12 18 C-12 16.35 -12 14.7 -12 13 C-11.01 12.67 -10.02 12.34 -9 12 C-8.34 12.33 -7.68 12.66 -7 13 C-7.165 12.401875 -7.33 11.80375 -7.5 11.1875 C-8 9 -8 9 -8 6 C-7.01 6.66 -6.02 7.32 -5 8 C-4.67 7.34 -4.34 6.68 -4 6 C-3.01 5.34 -2.02 4.68 -1 4 C-0.27617533 1.94074861 -0.27617533 1.94074861 0 0 Z " fill="#EC1F26" transform="translate(19,8)"/>
<path d="M0 0 C1.32 0 2.64 0 4 0 C4 0.99 4 1.98 4 3 C5.32 3 6.64 3 8 3 C8 2.01 8 1.02 8 0 C10.475 0.495 10.475 0.495 13 1 C13 2.65 13 4.3 13 6 C14.98 5.34 16.96 4.68 19 4 C19.66 5.65 20.32 7.3 21 9 C20.34 9 19.68 9 19 9 C19 10.32 19 11.64 19 13 C20.65 13 22.3 13 24 13 C24 14.65 24 16.3 24 18 C22.68 18 21.36 18 20 18 C20 19.32 20 20.64 20 22 C20.99 22 21.98 22 23 22 C22.505 24.475 22.505 24.475 22 27 C21.236875 27.103125 20.47375 27.20625 19.6875 27.3125 C16.75657342 28.06227192 15.98482838 28.83473267 14 31 C13.01 31.33 12.02 31.66 11 32 C10.67 34.31 10.34 36.62 10 39 C12.64 39.99 15.28 40.98 18 42 C18 44.31 18 46.62 18 49 C16.68 49 15.36 49 14 49 C14 48.34 14 47.68 14 47 C8.72 47 3.44 47 -2 47 C-2 47.66 -2 48.32 -2 49 C-3.32 49 -4.64 49 -6 49 C-6 46.69 -6 44.38 -6 42 C-3.03 41.01 -0.06 40.02 3 39 C2.67 36.69 2.34 34.38 2 32 C1.01 32 0.02 32 -1 32 C-1 32.66 -1 33.32 -1 34 C-2.32 34 -3.64 34 -5 34 C-5 33.34 -5 32.68 -5 32 C-4.34 31.67 -3.68 31.34 -3 31 C-3.66 30.67 -4.32 30.34 -5 30 C-5.33 29.01 -5.66 28.02 -6 27 C-7.65 26.67 -9.3 26.34 -11 26 C-11 24.68 -11 23.36 -11 22 C-10.34 21.67 -9.68 21.34 -9 21 C-8.67 20.01 -8.34 19.02 -8 18 C-9.32 18 -10.64 18 -12 18 C-12 16.35 -12 14.7 -12 13 C-11.01 12.67 -10.02 12.34 -9 12 C-8.34 12.33 -7.68 12.66 -7 13 C-7.165 12.401875 -7.33 11.80375 -7.5 11.1875 C-8 9 -8 9 -8 6 C-7.01 6.66 -6.02 7.32 -5 8 C-4.67 7.34 -4.34 6.68 -4 6 C-3.01 5.34 -2.02 4.68 -1 4 C-0.27617533 1.94074861 -0.27617533 1.94074861 0 0 Z " fill="#878889" transform="translate(19,8)"/>
<path d="M0 0 C2.0625 -0.061875 4.125 -0.12375 6.25 -0.1875 C7.99023438 -0.23970703 7.99023438 -0.23970703 9.765625 -0.29296875 C13.25013368 0.02265704 14.59638168 0.50303728 17 3 C17.5 5.9375 17.5 5.9375 17 9 C15 11.375 15 11.375 13 13 C14.92576115 15.43929746 16.80090595 17.80090595 19 20 C21.31 13.4 23.62 6.8 26 0 C27.98 0 29.96 0 32 0 C33.17461555 3.10121711 34.33830456 6.20642241 35.5 9.3125 C35.83386719 10.19357422 36.16773438 11.07464844 36.51171875 11.98242188 C36.82753906 12.82998047 37.14335937 13.67753906 37.46875 14.55078125 C37.76201172 15.33106689 38.05527344 16.11135254 38.35742188 16.9152832 C39 19 39 19 39 22 C37.68 22 36.36 22 35 22 C34.34 20.68 33.68 19.36 33 18 C30.36 18 27.72 18 25 18 C24.67 19.32 24.34 20.64 24 22 C20.54797579 22.49119712 17.43228146 22.6936497 14 22 C11.97983342 20.10291079 10.72956299 18.24436262 9.3515625 15.84765625 C7.96443121 13.53790341 7.96443121 13.53790341 4 13 C4 15.97 4 18.94 4 22 C2.68 22 1.36 22 0 22 C0 14.74 0 7.48 0 0 Z " fill="#EE2822" transform="translate(195,10)"/>
<path d="M0 0 C2.95943469 1.82021144 5.4202043 3.8404086 7 7 C7.52274617 12.67983816 7.71435943 17.35705072 4 22 C3.34 21.67 2.68 21.34 2 21 C2 20.01 2 19.02 2 18 C0.68 17.67 -0.64 17.34 -2 17 C-1.34 16.01 -0.68 15.02 0 14 C-0.9075 14.37125 -1.815 14.7425 -2.75 15.125 C-6 16 -6 16 -8.375 15.125 C-8.91125 14.75375 -9.4475 14.3825 -10 14 C-9.34 15.32 -8.68 16.64 -8 18 C-9.98 18.99 -9.98 18.99 -12 20 C-8.7 20.66 -5.4 21.32 -2 22 C-2 22.33 -2 22.66 -2 23 C-5.3727629 23.72039596 -8.54811204 24.23715261 -12 24 C-14.45490862 22.24649384 -15.39109026 20.62788591 -17 18 C-18.32 18.33 -19.64 18.66 -21 19 C-20.68675781 18.43152344 -20.37351562 17.86304687 -20.05078125 17.27734375 C-18.9879899 14.97397067 -18.58083857 13.05652585 -18.1875 10.5625 C-17.07274168 5.22570428 -14.45803393 2.8647154 -10.1875 -0.375 C-6.66566962 -1.38123725 -3.44900888 -1.04595663 0 0 Z " fill="#858587" transform="translate(30,14)"/>
<path d="M0 0 C2.31 0 4.62 0 7 0 C8.13764351 4.26616316 9 7.56486311 9 12 C9.66 12 10.32 12 11 12 C11.144375 10.7625 11.28875 9.525 11.4375 8.25 C11.78688502 5.43495501 12.20379366 2.7298503 13 0 C15.31 0 17.62 0 20 0 C20 7.26 20 14.52 20 22 C18.68 22 17.36 22 16 22 C15.67 18.37 15.34 14.74 15 11 C14.01 14.63 13.02 18.26 12 22 C10.35 21.67 8.7 21.34 7 21 C6.34 17.7 5.68 14.4 5 11 C4.67 14.63 4.34 18.26 4 22 C2.68 22 1.36 22 0 22 C0 14.74 0 7.48 0 0 Z " fill="#ED2623" transform="translate(50,10)"/>
<path d="M0 0 C1.98 0 3.96 0 6 0 C7.61064629 3.65079826 8.44894091 7.0507432 9 11 C9.33 11 9.66 11 10 11 C10.99 7.37 11.98 3.74 13 0 C15.31 0 17.62 0 20 0 C20 7.26 20 14.52 20 22 C18.68 22 17.36 22 16 22 C15.67 17.71 15.34 13.42 15 9 C14.01 13.29 13.02 17.58 12 22 C10.35 22 8.7 22 7 22 C6.34 18.7 5.68 15.4 5 12 C4.67 15.3 4.34 18.6 4 22 C2.68 22 1.36 22 0 22 C0 14.74 0 7.48 0 0 Z " fill="#EE2A22" transform="translate(237,10)"/>
<path d="M0 0 C0.90367811 0.00291284 1.80735622 0.00582568 2.73841852 0.00882679 C4.16690171 0.00754515 4.16690171 0.00754515 5.62424314 0.00623763 C8.84110749 0.00457992 12.05792061 0.01010893 15.27478021 0.01555592 C17.57046502 0.01583775 19.86614991 0.01568013 22.16183466 0.01511341 C28.41571605 0.01482529 34.66957845 0.02072432 40.92345542 0.02768737 C47.45112078 0.03391855 53.97878653 0.03452452 60.50645441 0.03571278 C71.46976049 0.0384725 82.43305951 0.04472807 93.39636225 0.05364186 C104.69063272 0.06281521 115.9849013 0.06989642 127.27917475 0.07414967 C128.32273561 0.07454375 128.32273561 0.07454375 129.38737852 0.0749458 C132.87739648 0.0762508 136.36741445 0.07751452 139.85743243 0.0787577 C168.82915404 0.08913124 197.80086799 0.10702479 226.77258295 0.12908131 C226.77258295 9.36908131 226.77258295 18.60908131 226.77258295 28.12908131 C226.44258295 28.12908131 226.11258295 28.12908131 225.77258295 28.12908131 C225.77258295 19.21908131 225.77258295 10.30908131 225.77258295 1.12908131 C150.53258295 1.12908131 75.29258295 1.12908131 -2.22741705 1.12908131 C-2.22741705 1.78908131 -2.22741705 2.44908131 -2.22741705 3.12908131 C-3.87741705 3.45908131 -5.52741705 3.78908131 -7.22741705 4.12908131 C-7.22741705 -1.24212716 -4.70967017 0.01152523 0 0 Z " fill="#EA2A29" transform="translate(40.227417051792145,36.870918691158295)"/>
<path d="M0 0 C1.8975 -0.061875 3.795 -0.12375 5.75 -0.1875 C7.35101563 -0.23970703 7.35101563 -0.23970703 8.984375 -0.29296875 C12.34503863 0.03352059 13.67828434 0.57854477 16 3 C16.42383837 6.39070692 16.63486492 8.80962827 15 11.875 C11.8045594 13.67243534 8.63526893 13.70202714 5 14 C5 16.64 5 19.28 5 22 C3.35 22 1.7 22 0 22 C0 14.74 0 7.48 0 0 Z " fill="#EE2D21" transform="translate(155,10)"/>
<path d="M0 0 C1.8975 -0.061875 3.795 -0.12375 5.75 -0.1875 C7.35101563 -0.23970703 7.35101563 -0.23970703 8.984375 -0.29296875 C12.34503863 0.03352059 13.67828434 0.57854477 16 3 C16.42383837 6.39070692 16.63486492 8.80962827 15 11.875 C11.8045594 13.67243534 8.63526893 13.70202714 5 14 C5 16.64 5 19.28 5 22 C3.35 22 1.7 22 0 22 C0 14.74 0 7.48 0 0 Z " fill="#EE2A22" transform="translate(136,10)"/>
<path d="M0 0 C5 1 5 1 6.80078125 3.28515625 C7.29964844 4.20167969 7.79851562 5.11820313 8.3125 6.0625 C8.82425781 6.98160156 9.33601563 7.90070312 9.86328125 8.84765625 C10.23839844 9.55792969 10.61351563 10.26820312 11 11 C11.33 7.37 11.66 3.74 12 0 C13.32 0 14.64 0 16 0 C16 7.26 16 14.52 16 22 C11 21 11 21 9.19921875 18.71484375 C8.70035156 17.79832031 8.20148438 16.88179687 7.6875 15.9375 C7.17574219 15.01839844 6.66398437 14.09929688 6.13671875 13.15234375 C5.57404297 12.08693359 5.57404297 12.08693359 5 11 C4.67 14.63 4.34 18.26 4 22 C2.68 22 1.36 22 0 22 C0 14.74 0 7.48 0 0 Z " fill="#ED2623" transform="translate(95,10)"/>
<path d="M0 0 C1.65 0 3.3 0 5 0 C8.14169523 7.2271408 10.92957946 14.39162534 13 22 C11.35 22 9.7 22 8 22 C7.67 20.35 7.34 18.7 7 17 C4.03 17 1.06 17 -2 17 C-2.33 18.65 -2.66 20.3 -3 22 C-4.32 22 -5.64 22 -7 22 C-6.35983027 16.86243532 -4.80299667 12.41209819 -2.9375 7.625 C-2.65583984 6.88894531 -2.37417969 6.15289062 -2.08398438 5.39453125 C-1.39433382 3.5944264 -0.69786068 1.7969379 0 0 Z " fill="#EE2922" transform="translate(121,10)"/>
<path d="M0 0 C1.98 0 3.96 0 6 0 C7.17461555 3.10121711 8.33830456 6.20642241 9.5 9.3125 C9.83386719 10.19357422 10.16773437 11.07464844 10.51171875 11.98242188 C10.82753906 12.82998047 11.14335938 13.67753906 11.46875 14.55078125 C11.90864258 15.72120972 11.90864258 15.72120972 12.35742188 16.9152832 C13 19 13 19 13 22 C11.35 21.67 9.7 21.34 8 21 C7.67 20.01 7.34 19.02 7 18 C4.36 18 1.72 18 -1 18 C-1.33 19.32 -1.66 20.64 -2 22 C-3.65 22 -5.3 22 -7 22 C-5.31777535 15.50971483 -3.45184891 9.24106996 -1 3 C-0.67 2.01 -0.34 1.02 0 0 Z " fill="#EE2822" transform="translate(79,10)"/>
<path d="M0 0 C1.32 0 2.64 0 4 0 C4 0.99 4 1.98 4 3 C5.32 3 6.64 3 8 3 C8 2.01 8 1.02 8 0 C10.475 0.495 10.475 0.495 13 1 C13 2.65 13 4.3 13 6 C14.98 5.34 16.96 4.68 19 4 C19.66 5.65 20.32 7.3 21 9 C20.34 9 19.68 9 19 9 C19 10.32 19 11.64 19 13 C20.65 13 22.3 13 24 13 C24 14.65 24 16.3 24 18 C22.68 18 21.36 18 20 18 C20 19.32 20 20.64 20 22 C20.99 22 21.98 22 23 22 C22.505 24.475 22.505 24.475 22 27 C19.03 27.495 19.03 27.495 16 28 C16.2475 27.071875 16.2475 27.071875 16.5 26.125 C17.40477235 20.47017283 18.19068588 15.1167749 15.3125 10 C11.62029705 6.80674339 8.84835422 5.76175622 4 6.0625 C0.98580574 6.57434431 -0.23565623 7.15881181 -2.875 8.9375 C-5.74676812 13.07622464 -6.35828981 17.06745151 -7 22 C-7.33 20.68 -7.66 19.36 -8 18 C-9.32 18 -10.64 18 -12 18 C-12 16.35 -12 14.7 -12 13 C-11.01 12.67 -10.02 12.34 -9 12 C-8.34 12.33 -7.68 12.66 -7 13 C-7.165 12.401875 -7.33 11.80375 -7.5 11.1875 C-8 9 -8 9 -8 6 C-7.01 6.66 -6.02 7.32 -5 8 C-4.67 7.34 -4.34 6.68 -4 6 C-3.01 5.34 -2.02 4.68 -1 4 C-0.27617533 1.94074861 -0.27617533 1.94074861 0 0 Z " fill="#3C3A30" transform="translate(19,8)"/>
<path d="M0 0 C1.32 0 2.64 0 4 0 C4.33 5.61 4.66 11.22 5 17 C6.98 17.33 8.96 17.66 11 18 C11.495 9.09 11.495 9.09 12 0 C13.32 0 14.64 0 16 0 C16.10806144 2.91765891 16.18732877 5.83131125 16.25 8.75 C16.30027344 9.9875 16.30027344 9.9875 16.3515625 11.25 C16.44974094 17.33706357 16.44974094 17.33706357 14.26953125 20.55078125 C11.73452776 22.16951842 10.41976539 22.51319201 7.4375 22.4375 C6.67308594 22.43621094 5.90867188 22.43492188 5.12109375 22.43359375 C2.45625668 21.88884805 1.6762645 21.11807064 0 19 C-0.34057617 16.9152832 -0.34057617 16.9152832 -0.29296875 14.55078125 C-0.28330078 13.70322266 -0.27363281 12.85566406 -0.26367188 11.98242188 C-0.23853516 11.10134766 -0.21339844 10.22027344 -0.1875 9.3125 C-0.17396484 8.41982422 -0.16042969 7.52714844 -0.14648438 6.60742188 C-0.11114079 4.40433834 -0.06180493 2.20247418 0 0 Z " fill="#ED2722" transform="translate(175,10)"/>
<path d="M0 0 C8 0 8 0 10.5 1.4375 C12.73570183 5.25682396 12.76004105 8.68518361 12 13 C10.5 15.5625 10.5 15.5625 8 17 C5.36 17 2.72 17 0 17 C0 11.39 0 5.78 0 0 Z " fill="#FDEAE8" transform="translate(245,42)"/>
<path d="M0 0 C1.65 0 3.3 0 5 0 C5.66 2.31 6.32 4.62 7 7 C7.66 4.69 8.32 2.38 9 0 C10.65 0 12.3 0 14 0 C14 5.61 14 11.22 14 17 C13.01 17 12.02 17 11 17 C10.67 15.35 10.34 13.7 10 12 C9.67 13.65 9.34 15.3 9 17 C7.68 16.67 6.36 16.34 5 16 C4.67 14.35 4.34 12.7 4 11 C3.67 12.98 3.34 14.96 3 17 C2.01 17 1.02 17 0 17 C0 11.39 0 5.78 0 0 Z " fill="#FDE8E4" transform="translate(186,42)"/>
<path d="M0 0 C0.66 0 1.32 0 2 0 C2 1.98 2 3.96 2 6 C2.66 5.34 3.32 4.68 4 4 C6.1640625 4.2421875 6.1640625 4.2421875 8.625 4.875 C9.44226563 5.07867187 10.25953125 5.28234375 11.1015625 5.4921875 C11.72804688 5.65976562 12.35453125 5.82734375 13 6 C13 8.31 13 10.62 13 13 C11.68 13 10.36 13 9 13 C9 12.34 9 11.68 9 11 C3.72 11 -1.56 11 -7 11 C-7 11.66 -7 12.32 -7 13 C-8.32 13 -9.64 13 -11 13 C-11 10.69 -11 8.38 -11 6 C-7.17679443 4.57741188 -4.08718695 3.75957724 0 4 C0 2.68 0 1.36 0 0 Z " fill="#969697" transform="translate(24,44)"/>
<path d="M0 0 C3.63 0 7.26 0 11 0 C11 0.99 11 1.98 11 3 C8.69 3 6.38 3 4 3 C4 3.99 4 4.98 4 6 C6.31 6 8.62 6 11 6 C11 7.32 11 8.64 11 10 C8.69 10 6.38 10 4 10 C4 11.32 4 12.64 4 14 C6.64 14 9.28 14 12 14 C12 14.99 12 15.98 12 17 C8.04 17 4.08 17 0 17 C0 11.39 0 5.78 0 0 Z " fill="#FBD1CF" transform="translate(141,42)"/>
<path d="M0 0 C4 1 4 1 5.265625 2.84765625 C6.17708333 4.8984375 7.08854167 6.94921875 8 9 C8.33 6.03 8.66 3.06 9 0 C9.99 0 10.98 0 12 0 C12 5.61 12 11.22 12 17 C10.68 17 9.36 17 8 17 C6.68 14.36 5.36 11.72 4 9 C3.67 11.64 3.34 14.28 3 17 C2.01 17 1.02 17 0 17 C0 11.39 0 5.78 0 0 Z " fill="#FCE3E0" transform="translate(73,42)"/>
<path d="M0 0 C1.32 0 2.64 0 4 0 C5.32 2.64 6.64 5.28 8 8 C8.33 5.36 8.66 2.72 9 0 C9.99 0 10.98 0 12 0 C12 5.61 12 11.22 12 17 C8 16 8 16 6.734375 14.15234375 C5.82291667 12.1015625 4.91145833 10.05078125 4 8 C3.67 10.97 3.34 13.94 3 17 C2.01 17 1.02 17 0 17 C0 11.39 0 5.78 0 0 Z " fill="#FCE2DD" transform="translate(107,42)"/>
<path d="M0 0 C1.32 0 2.64 0 4 0 C4.83919398 2.26882087 5.67151724 4.53977027 6.5 6.8125 C6.73847656 7.45509766 6.97695312 8.09769531 7.22265625 8.75976562 C8.27068746 11.64933739 9 13.90076061 9 17 C7.68 17 6.36 17 5 17 C5 15.68 5 14.36 5 13 C3.02 13 1.04 13 -1 13 C-1.33 14.32 -1.66 15.64 -2 17 C-2.99 17 -3.98 17 -5 17 C-3.83348574 11.07136283 -2.24480642 5.61201606 0 0 Z " fill="#FBCECC" transform="translate(94,42)"/>
<path d="M0 0 C3.3 0 6.6 0 10 0 C10 0.99 10 1.98 10 3 C7.69 3 5.38 3 3 3 C3 4.32 3 5.64 3 7 C5.31 7 7.62 7 10 7 C10 7.66 10 8.32 10 9 C7.69 9 5.38 9 3 9 C3 10.65 3 12.3 3 14 C5.64 14 8.28 14 11 14 C11 14.99 11 15.98 11 17 C7.37 17 3.74 17 0 17 C0 11.39 0 5.78 0 0 Z " fill="#FDF0ED" transform="translate(229,42)"/>
<path d="M0 0 C0.99 0.33 1.98 0.66 3 1 C2 4 2 4 0 5.1875 C-2.57834266 7.52412304 -2.79271873 9.5961139 -3.01171875 13 C-2.99364911 16.08388514 -2.96158906 17.52985081 -1 20 C2.29061728 21.03885603 5.58037041 21.57727826 9 22 C9 22.33 9 22.66 9 23 C5.6272371 23.72039596 2.45188796 24.23715261 -1 24 C-3.45490862 22.24649384 -4.39109026 20.62788591 -6 18 C-7.32 18.33 -8.64 18.66 -10 19 C-9.68675781 18.43152344 -9.37351562 17.86304687 -9.05078125 17.27734375 C-7.9879899 14.97397067 -7.58083857 13.05652585 -7.1875 10.5625 C-6.27499157 6.09562406 -4.56886593 3.92830025 -1 1 C-0.67 0.67 -0.34 0.34 0 0 Z " fill="#909192" transform="translate(19,14)"/>
<path d="M0 0 C0.66 0 1.32 0 2 0 C2 0.66 2 1.32 2 2 C2.66 2 3.32 2 4 2 C4.33 1.34 4.66 0.68 5 0 C5.66 0.66 6.32 1.32 7 2 C8.98 1.34 10.96 0.68 13 0 C13 0.66 13 1.32 13 2 C14.65 2 16.3 2 18 2 C18.33 3.65 18.66 5.3 19 7 C12.60459198 9.13180267 5.57396436 7.85218057 -1 7 C-0.67 4.69 -0.34 2.38 0 0 Z " fill="#000000" transform="translate(205,68)"/>
<path d="M0 0 C0.680625 0.165 1.36125 0.33 2.0625 0.5 C6.06236191 1.18082756 10.28416227 1.85791887 14 0 C14.74926071 3.66305234 15.2380014 6.42355152 14 10 C12.68 9.67 11.36 9.34 10 9 C10.66 8.01 11.32 7.02 12 6 C11.0925 6.37125 10.185 6.7425 9.25 7.125 C6 8 6 8 3.625 7.125 C3.08875 6.75375 2.5525 6.3825 2 6 C2.66 7.32 3.32 8.64 4 10 C2.68 10 1.36 10 0 10 C-0.74926071 6.33694766 -1.2380014 3.57644848 0 0 Z " fill="#A2A3A4" transform="translate(18,22)"/>
<path d="M0 0 C0.99 0.66 1.98 1.32 3 2 C3 2.99 3 3.98 3 5 C2.01 5 1.02 5 0 5 C0 4.34 0 3.68 0 3 C-1.65 3 -3.3 3 -5 3 C-5 5.97 -5 8.94 -5 12 C-3.68 12.33 -2.36 12.66 -1 13 C-0.67 12.34 -0.34 11.68 0 11 C0.99 11 1.98 11 3 11 C2.67 12.65 2.34 14.3 2 16 C-4.22580645 17.43672457 -4.22580645 17.43672457 -7.4375 15.625 C-9.72931523 11.77475041 -9.64976701 8.37188917 -9 4 C-7.02160591 -0.5063421 -4.67084001 -0.583855 0 0 Z " fill="#FDEEEC" transform="translate(133,42)"/>
<path d="M0 0 C2.375 0.75 2.375 0.75 4 2 C4.75 4.125 4.75 4.125 5 6 C-5.78947368 8.10526316 -5.78947368 8.10526316 -10 6 C-10 8.97 -10 11.94 -10 15 C-10.99 14.01 -11.98 13.02 -13 12 C-13 7.30067269 -12.92739428 5.09105209 -9.875 1.5 C-6.28501684 -0.37303469 -4.00283472 -0.43667288 0 0 Z " fill="#070707" transform="translate(28,17)"/>
<path d="M0 0 C3.3 0 6.6 0 10 0 C10 0.99 10 1.98 10 3 C7.69 3 5.38 3 3 3 C3 4.32 3 5.64 3 7 C4.98 7 6.96 7 9 7 C9 7.99 9 8.98 9 10 C7.02 10 5.04 10 3 10 C3 12.31 3 14.62 3 17 C2.01 17 1.02 17 0 17 C0 11.39 0 5.78 0 0 Z " fill="#FDEBE7" transform="translate(50,42)"/>
<path d="M0 0 C0.85271484 0.10828125 0.85271484 0.10828125 1.72265625 0.21875 C6.52364968 0.79583101 11.16565627 1.10285838 16 1 C15.67 2.65 15.34 4.3 15 6 C9.96266834 7.5111995 5.11828973 6.64599773 0 6 C0 4.02 0 2.04 0 0 Z " fill="#000000" transform="translate(240,69)"/>
<path d="M0 0 C0.66 0 1.32 0 2 0 C2 0.66 2 1.32 2 2 C2.66 2.33 3.32 2.66 4 3 C4.33 2.34 4.66 1.68 5 1 C5.721875 1.94875 6.44375 2.8975 7.1875 3.875 C9.49809898 6.67412562 11.44811452 7.98517558 15 9 C14.67 10.32 14.34 11.64 14 13 C16.31 13 18.62 13 21 13 C20.979375 13.78375 20.95875 14.5675 20.9375 15.375 C20.81315937 17.98114961 20.81315937 17.98114961 22 20 C20.68 20 19.36 20 18 20 C18 18.02 18 16.04 18 14 C17.34 14 16.68 14 16 14 C15.67 15.32 15.34 16.64 15 18 C13.23537317 14.91190305 13 13.76687864 13 10 C12.01 10 11.02 10 10 10 C10 10.66 10 11.32 10 12 C8.68 12 7.36 12 6 12 C6 11.34 6 10.68 6 10 C6.66 9.67 7.32 9.34 8 9 C7.34 8.67 6.68 8.34 6 8 C5.67 7.01 5.34 6.02 5 5 C3.35 4.67 1.7 4.34 0 4 C0 2.68 0 1.36 0 0 Z " fill="#30241F" transform="translate(8,30)"/>
<path d="M0 0 C3.63 0 7.26 0 11 0 C11 0.99 11 1.98 11 3 C9.68 3 8.36 3 7 3 C7 7.62 7 12.24 7 17 C6.01 17 5.02 17 4 17 C4 12.38 4 7.76 4 3 C2.68 3 1.36 3 0 3 C0 2.01 0 1.02 0 0 Z " fill="#FDF0EE" transform="translate(213,42)"/>
<path d="M0 0 C0.99 0 1.98 0 3 0 C3 4.62 3 9.24 3 14 C5.31 14 7.62 14 10 14 C10 14.99 10 15.98 10 17 C6.7 17 3.4 17 0 17 C0 11.39 0 5.78 0 0 Z " fill="#FCE8E4" transform="translate(163,42)"/>
<path d="M0 0 C0 0.66 0 1.32 0 2 C0.99 2.33 1.98 2.66 3 3 C2.67 4.65 2.34 6.3 2 8 C-1.63 7.67 -5.26 7.34 -9 7 C-9 5.02 -9 3.04 -9 1 C-5.92677456 0.08941469 -3.19902639 -0.08886184 0 0 Z " fill="#000000" transform="translate(235,68)"/>
<path d="M0 0 C0.99 0 1.98 0 3 0 C3 5.61 3 11.22 3 17 C1.68 16.67 0.36 16.34 -1 16 C-4 10.96428571 -4 10.96428571 -4 8 C-3.01 8 -2.02 8 -1 8 C-0.67 5.36 -0.34 2.72 0 0 Z " fill="#FDEEEA" transform="translate(116,42)"/>
<path d="M0 0 C1.32 0 2.64 0 4 0 C4 5.61 4 11.22 4 17 C2.68 17 1.36 17 0 17 C0 11.39 0 5.78 0 0 Z " fill="#F9BBBA" transform="translate(205,42)"/>
<path d="M0 0 C1.65 0 3.3 0 5 0 C5 5.61 5 11.22 5 17 C4.01 17 3.02 17 2 17 C2 14.03 2 11.06 2 8 C1.34 8 0.68 8 0 8 C0 5.36 0 2.72 0 0 Z " fill="#FDEBE7" transform="translate(195,42)"/>
<path d="M0 0 C5 1 5 1 6 2 C6.1875 5.4375 6.1875 5.4375 6 9 C5.34 9.66 4.68 10.32 4 11 C2.68 11 1.36 11 0 11 C0 7.37 0 3.74 0 0 Z " fill="#EE2D32" transform="translate(248,45)"/>
<path d="M0 0 C0.66 0.99 1.32 1.98 2 3 C2.66 2.01 3.32 1.02 4 0 C5.28571429 8.42857143 5.28571429 8.42857143 4 13 C2.68 12.67 1.36 12.34 0 12 C-0.66 8.37 -1.32 4.74 -2 1 C-1.34 0.67 -0.68 0.34 0 0 Z " fill="#FCDDDA" transform="translate(191,46)"/>
<path d="M0 0 C4.455 0.99 4.455 0.99 9 2 C9 4.31 9 6.62 9 9 C7.68 9 6.36 9 5 9 C5 8.34 5 7.68 5 7 C3.35 6.67 1.7 6.34 0 6 C0.66 4.35 1.32 2.7 2 1 C1.34 0.67 0.68 0.34 0 0 Z " fill="#7F7777" transform="translate(28,48)"/>
<path d="M0 0 C0.99 0 1.98 0 3 0 C3 5.61 3 11.22 3 17 C2.01 17 1.02 17 0 17 C0 11.39 0 5.78 0 0 Z " fill="#FDEFEA" transform="translate(178,42)"/>
<path d="M0 0 C0.99 0 1.98 0 3 0 C3 5.61 3 11.22 3 17 C2.01 17 1.02 17 0 17 C0 11.39 0 5.78 0 0 Z " fill="#FDE7E3" transform="translate(65,42)"/>
<path d="M0 0 C2 1.375 2 1.375 4 4 C4.76434473 8.77112028 4.59736822 12.75548288 2.5 17.125 C2.005 17.74375 1.51 18.3625 1 19 C0.34 18.67 -0.32 18.34 -1 18 C-0.84402344 16.95199219 -0.68804687 15.90398438 -0.52734375 14.82421875 C-0.33036458 13.44536454 -0.13377004 12.06645533 0.0625 10.6875 C0.16626953 9.99720703 0.27003906 9.30691406 0.37695312 8.59570312 C0.83808836 5.30415164 1.06594625 3.19783876 0 0 Z " fill="#99999B" transform="translate(33,17)"/>
<path d="M0 0 C0.99 0.33 1.98 0.66 3 1 C2 4 2 4 0.0625 5.1875 C-3.09460439 7.96192507 -3.19933961 10.92997637 -4 15 C-4.66 15 -5.32 15 -6 15 C-6.83445422 12.14894809 -7.36269024 9.95206188 -6.28125 7.11328125 C-4.50893008 3.91102139 -3.06619758 2.04413172 0 0 Z " fill="#858687" transform="translate(19,14)"/>
<path d="M0 0 C2.31 0 4.62 0 7 0 C7.625 1.875 7.625 1.875 8 4 C6 6 6 6 2.875 6.125 C1.451875 6.063125 1.451875 6.063125 0 6 C0 4.02 0 2.04 0 0 Z " fill="#FCC205" transform="translate(159,14)"/>
<path d="M0 0 C2.31 0 4.62 0 7 0 C7.625 1.875 7.625 1.875 8 4 C6 6 6 6 2.875 6.125 C1.451875 6.063125 1.451875 6.063125 0 6 C0 4.02 0 2.04 0 0 Z " fill="#FCC106" transform="translate(140,14)"/>
<path d="M0 0 C2.64 0 5.28 0 8 0 C8.5625 1.9375 8.5625 1.9375 9 4 C8 5 8 5 6.15234375 5.09765625 C4.1015625 5.06510417 2.05078125 5.03255208 0 5 C0 3.35 0 1.7 0 0 Z " fill="#FCC905" transform="translate(199,14)"/>
<path d="M0 0 C1.32 0 2.64 0 4 0 C5.25664978 2.90600261 6 4.79604584 6 8 C5.01 8.33 4.02 8.66 3 9 C2.67 8.01 2.34 7.02 2 6 C1.01 6.33 0.02 6.66 -1 7 C-0.67 4.69 -0.34 2.38 0 0 Z " fill="#FCE6E3" transform="translate(94,42)"/>
<path d="M0 0 C0.33 0.66 0.66 1.32 1 2 C-1 4 -1 4 -4 5 C-4.33 5.99 -4.66 6.98 -5 8 C-7.31 8 -9.62 8 -12 8 C-11.67 6.68 -11.34 5.36 -11 4 C-9.1128125 3.566875 -9.1128125 3.566875 -7.1875 3.125 C-4.1460601 2.42696461 -2.69330122 1.79553415 0 0 Z " fill="#4F4F4F" transform="translate(34,35)"/>
<path d="M0 0 C0.9075 0.185625 1.815 0.37125 2.75 0.5625 C5.68314324 0.95734621 7.2644657 0.94691572 10 0 C8.55900621 4.68322981 8.55900621 4.68322981 6.125 6.0625 C4 6 4 6 1.75 4.1875 C0 2 0 2 0 0 Z " fill="#0D0D0E" transform="translate(20,28)"/>
<path d="M0 0 C1.485 0.99 1.485 0.99 3 2 C3 2.99 3 3.98 3 5 C3.66 5.33 4.32 5.66 5 6 C4.01 6 3.02 6 2 6 C2.66 7.32 3.32 8.64 4 10 C2.68 10 1.36 10 0 10 C-0.74926071 6.33694766 -1.2380014 3.57644848 0 0 Z " fill="#9B9C9D" transform="translate(18,22)"/>
<path d="M0 0 C1.19625 0.185625 2.3925 0.37125 3.625 0.5625 C7.28283707 1.0311197 10.37862166 0.81481013 14 0 C12.5 2.0625 12.5 2.0625 10 4 C6.49035608 4.1387211 3.16357691 3.58178845 0 2 C0 1.34 0 0.68 0 0 Z " fill="#4E4E4F" transform="translate(18,32)"/>
<path d="M0 0 C0.33 0 0.66 0 1 0 C1 1.65 1 3.3 1 5 C1.99 5 2.98 5 4 5 C4.33 6.32 4.66 7.64 5 9 C4.01 9.33 3.02 9.66 2 10 C1.67 9.34 1.34 8.68 1 8 C-0.32 8.33 -1.64 8.66 -3 9 C-2.01 6.03 -1.02 3.06 0 0 Z " fill="#9C9C9A" transform="translate(12,24)"/>
<path d="M0 0 C2.31 0.33 4.62 0.66 7 1 C6.34 2.65 5.68 4.3 5 6 C4.01 5.67 3.02 5.34 2 5 C2 4.34 2 3.68 2 3 C1.34 3 0.68 3 0 3 C0 2.01 0 1.02 0 0 Z " fill="#DEDFE0" transform="translate(21,24)"/>
<path d="M0 0 C0.66 0.33 1.32 0.66 2 1 C1.690625 1.5775 1.38125 2.155 1.0625 2.75 C-0.75006046 6.58836333 -1.11763448 9.76515874 -1 14 C-2.5625 13 -2.5625 13 -4 11 C-4.1652987 7.22174399 -3.78867813 4.00950801 -1.4375 1 C-0.963125 0.67 -0.48875 0.34 0 0 Z " fill="#3A3A3B" transform="translate(19,18)"/>
<path d="M0 0 C5.28 0 10.56 0 16 0 C16.33 1.32 16.66 2.64 17 4 C15.35 3.67 13.7 3.34 12 3 C12 2.34 12 1.68 12 1 C8.04 1 4.08 1 0 1 C0 0.67 0 0.34 0 0 Z " fill="#CE5151" transform="translate(0,37)"/>
<path d="M0 0 C0.66 0 1.32 0 2 0 C4.72580143 4.54300239 3.63313152 8.10952474 2.5078125 12.98828125 C2.25644531 13.98408203 2.25644531 13.98408203 2 15 C1.34 13.68 0.68 12.36 0 11 C0.66 11 1.32 11 2 11 C1.34 7.37 0.68 3.74 0 0 Z " fill="#5D5E5F" transform="translate(31,17)"/>
<path d="M0 0 C0.66 0 1.32 0 2 0 C2.66 2.31 3.32 4.62 4 7 C2.35 7 0.7 7 -1 7 C-0.67 4.69 -0.34 2.38 0 0 Z " fill="#FCBE07" transform="translate(223,16)"/>
<path d="M0 0 C0.66 0 1.32 0 2 0 C2.66 2.31 3.32 4.62 4 7 C2.35 7 0.7 7 -1 7 C-0.67 4.69 -0.34 2.38 0 0 Z " fill="#FCC107" transform="translate(81,16)"/>
<path d="M0 0 C0.99 0 1.98 0 3 0 C2.67 1.65 2.34 3.3 2 5 C-0.31 5.33 -2.62 5.66 -5 6 C-4.360625 5.38125 -3.72125 4.7625 -3.0625 4.125 C-0.96116416 2.17402388 -0.96116416 2.17402388 0 0 Z " fill="#FDE8E5" transform="translate(133,53)"/>
<path d="M0 0 C0.99 0.495 0.99 0.495 2 1 C2 1.99 2 2.98 2 4 C2.33 3.67 2.66 3.34 3 3 C4.99958364 2.95919217 7.00045254 2.95745644 9 3 C6 5 6 5 4 5 C4 5.66 4 6.32 4 7 C2.68 7 1.36 7 0 7 C0 4.69 0 2.38 0 0 Z " fill="#766463" transform="translate(13,50)"/>
<path d="M0 0 C1.65 0 3.3 0 5 0 C5 1.65 5 3.3 5 5 C3.68 5 2.36 5 1 5 C0.67 3.35 0.34 1.7 0 0 Z " fill="#767258" transform="translate(38,21)"/>
<path d="M0 0 C0.99 0.33 1.98 0.66 3 1 C3 1.66 3 2.32 3 3 C-1.62 3 -6.24 3 -11 3 C-11 2.67 -11 2.34 -11 2 C-10.06027344 1.90912109 -10.06027344 1.90912109 -9.1015625 1.81640625 C-7.87566406 1.69072266 -7.87566406 1.69072266 -6.625 1.5625 C-5.81289062 1.48128906 -5.00078125 1.40007813 -4.1640625 1.31640625 C-1.95727195 1.10909886 -1.95727195 1.10909886 0 0 Z " fill="#F5C209" transform="translate(11,34)"/>
<path d="M0 0 C0.99 0.33 1.98 0.66 3 1 C3 2.65 3 4.3 3 6 C1.68 6 0.36 6 -1 6 C-1.042721 4.33388095 -1.04063832 2.66617115 -1 1 C-0.67 0.67 -0.34 0.34 0 0 Z " fill="#8A8460" transform="translate(8,20)"/>
<path d="M0 0 C2.35953094 2.35953094 2.49141413 3.77895617 3 7 C1.35 7 -0.3 7 -2 7 C-1.34 4.69 -0.68 2.38 0 0 Z " fill="#FDCD04" transform="translate(123,16)"/>
<path d="M0 0 C0.99 0.33 1.98 0.66 3 1 C2 4 2 4 0.0625 5.25 C-0.618125 5.4975 -1.29875 5.745 -2 6 C-2.66 5.67 -3.32 5.34 -4 5 C-3 2 -3 2 0 0 Z " fill="#9A9B9C" transform="translate(19,14)"/>
<path d="M0 0 C0.66 0 1.32 0 2 0 C2.66 1.65 3.32 3.3 4 5 C3.34 5 2.68 5 2 5 C1.67 5.99 1.34 6.98 1 8 C-0.42944945 5.64561267 -1.08661261 4.51967567 -0.625 1.75 C-0.41875 1.1725 -0.2125 0.595 0 0 Z " fill="#7C7758" transform="translate(36,12)"/>
<path d="M0 0 C-0.33 0.66 -0.66 1.32 -1 2 C-3.32156597 2.40729228 -5.6568787 2.74438677 -8 3 C-8 2.34 -8 1.68 -8 1 C-4.93251126 -0.86240388 -3.40254489 -1.2151946 0 0 Z " fill="#979899" transform="translate(23,49)"/>
</svg>
