<?xml version="1.0" encoding="UTF-8" standalone="no"?>
<svg
   xmlns:dc="http://purl.org/dc/elements/1.1/"
   xmlns:cc="http://creativecommons.org/ns#"
   xmlns:rdf="http://www.w3.org/1999/02/22-rdf-syntax-ns#"
   xmlns:svg="http://www.w3.org/2000/svg"
   xmlns="http://www.w3.org/2000/svg"
   viewBox="0 0 222.67999 129.37334"
   height="129.37334"
   width="222.67999"
   xml:space="preserve"
   id="svg2"
   version="1.1"><metadata
     id="metadata8"><rdf:RDF><cc:Work
         rdf:about=""><dc:format>image/svg+xml</dc:format><dc:type
           rdf:resource="http://purl.org/dc/dcmitype/StillImage" /></cc:Work></rdf:RDF></metadata><defs
     id="defs6"><clipPath
       id="clipPath24"
       clipPathUnits="userSpaceOnUse"><path
         id="path22"
         d="M 0,97.03 H 167.01 V 0 H 0 Z" /></clipPath></defs><g
     transform="matrix(1.3333333,0,0,-1.3333333,0,129.37333)"
     id="g10"><path
       id="path12"
       style="fill:#ffffff;fill-opacity:1;fill-rule:nonzero;stroke:none"
       d="M 0,0.011 H 167 V 97.01 H 0 Z" /><g
       transform="translate(27.1899,19.7898)"
       id="g14"><path
         id="path16"
         style="fill:#00adee;fill-opacity:1;fill-rule:nonzero;stroke:none"
         d="M 0,0 H 1.34 V -3.55 H 5.31 V 0 H 6.65 V -8.359 H 5.31 V -4.7 H 1.34 V -8.359 H 0 Z" /></g><g
       id="g18"><g
         clip-path="url(#clipPath24)"
         id="g20"><g
           transform="translate(41.2002,15.4196)"
           id="g26"><path
             id="path28"
             style="fill:#00adee;fill-opacity:1;fill-rule:nonzero;stroke:none"
             d="M 0,0 C -0.09,1.051 -0.81,1.721 -1.97,1.721 -3.08,1.721 -3.85,1.141 -4,0 Z m -5.34,-0.68 c 0,2.031 1.36,3.43 3.34,3.43 2.1,0 3.37,-1.55 3.21,-3.76 h -5.25 c 0.05,-1.28 0.84,-2.01 2.12,-2.01 0.92,0 1.52,0.31 1.85,0.951 L 1.12,-2.25 C 0.59,-3.47 -0.45,-4.1 -1.94,-4.1 -4,-4.109 -5.34,-2.75 -5.34,-0.68" /></g><g
           transform="translate(49.6001,14.74)"
           id="g30"><path
             id="path32"
             style="fill:#00adee;fill-opacity:1;fill-rule:nonzero;stroke:none"
             d="m 0,0 c 0,1.44 -0.84,2.33 -2.07,2.33 -1.21,0 -2.04,-0.88 -2.04,-2.33 0,-1.47 0.83,-2.34 2.07,-2.34 C -0.83,-2.35 0,-1.46 0,0 m -5.4,0 c 0,2.28 1.39,3.43 3.03,3.43 1.04,0 1.96,-0.51 2.34,-1.42 V 3.3 h 1.29 v -6.59 h -1.29 v 1.25 C -0.4,-2.93 -1.33,-3.45 -2.36,-3.45 -4,-3.46 -5.4,-2.29 -5.4,0" /></g><path
           id="path34"
           style="fill:#00adee;fill-opacity:1;fill-rule:nonzero;stroke:none"
           d="m 53.34,20.19 h 1.31 v -8.75 h -1.31 z" /><g
           transform="translate(57.4102,14.07)"
           id="g36"><path
             id="path38"
             style="fill:#00adee;fill-opacity:1;fill-rule:nonzero;stroke:none"
             d="m 0,0 v 2.96 h -0.96 v 1 H 0 V 5.17 L 1.3,5.45 V 3.96 h 1.95 v -1 H 1.3 V 0.14 c 0,-1.36 0.36,-1.84 1.36,-1.84 0.13,0 0.28,0.02 0.53,0.06 l 0.17,-1 C 3.11,-2.7 2.74,-2.73 2.46,-2.73 0.78,-2.73 0,-2.021 0,0" /></g><g
           transform="translate(62.6099,20.1902)"
           id="g40"><path
             id="path42"
             style="fill:#00adee;fill-opacity:1;fill-rule:nonzero;stroke:none"
             d="m 0,0 h 1.29 v -3.351 c 0.27,0.771 0.98,1.321 2.16,1.321 1.74,0 2.67,-0.95 2.67,-3.14 V -8.75 H 4.83 v 3.479 c 0,1.481 -0.55,2.121 -1.78,2.121 -1.21,0 -1.76,-0.79 -1.76,-2.27 V -8.75 H 0 Z" /></g><path
           id="path44"
           style="fill:#00adee;fill-opacity:1;fill-rule:nonzero;stroke:none"
           d="m 75.23,19.79 h 1.34 v -8.359 h -1.34 z" /><g
           transform="translate(79.1299,18.0398)"
           id="g46"><path
             id="path48"
             style="fill:#00adee;fill-opacity:1;fill-rule:nonzero;stroke:none"
             d="m 0,0 h 1.29 v -1.2 c 0.3,0.82 1.05,1.32 2.16,1.32 1.82,0 2.67,-1.05 2.67,-3.14 V -6.6 H 4.83 v 3.48 C 4.83,-1.68 4.28,-1 3.05,-1 1.8,-1 1.29,-1.819 1.29,-3.27 V -6.6 H 0 Z" /></g><g
           transform="translate(87.0996,13.03)"
           id="g50"><path
             id="path52"
             style="fill:#00adee;fill-opacity:1;fill-rule:nonzero;stroke:none"
             d="m 0,0 1.181,0.32 c 0.319,-0.6 1,-0.92 1.929,-0.92 1.031,0 1.58,0.32 1.58,0.92 0,1.51 -4.4,0.14 -4.4,2.91 0,1.13 1.2,1.89 2.731,1.89 1.2,0 2.41,-0.6 2.809,-1.51 L 4.681,3.3 C 4.4,3.79 3.761,4.06 3.051,4.06 2.131,4.06 1.57,3.75 1.57,3.21 1.57,1.71 6,3.09 6,0.36 6,-0.91 4.881,-1.71 3.11,-1.71 1.62,-1.71 0.41,-1.04 0,0" /></g><g
           transform="translate(94.9697,14.4499)"
           id="g54"><path
             id="path56"
             style="fill:#00adee;fill-opacity:1;fill-rule:nonzero;stroke:none"
             d="M 0,0 V 3.59 H 1.29 V 0.1 c 0,-1.43 0.521,-2.11 1.771,-2.11 1.25,0 1.759,0.821 1.759,2.281 V 3.6 H 6.11 V -3.01 H 4.82 v 1.2 C 4.53,-2.63 3.771,-3.14 2.67,-3.14 0.851,-3.14 0,-2.08 0,0" /></g><g
           transform="translate(103.5596,18.0398)"
           id="g58"><path
             id="path60"
             style="fill:#00adee;fill-opacity:1;fill-rule:nonzero;stroke:none"
             d="M 0,0 H 1.29 V -1.109 C 1.54,-0.41 2.24,0.24 3.61,0.04 L 3.471,-1.21 C 1.99,-0.93 1.29,-1.729 1.29,-3.35 V -6.62 H 0 Z" /></g><g
           transform="translate(113.5498,14.74)"
           id="g62"><path
             id="path64"
             style="fill:#00adee;fill-opacity:1;fill-rule:nonzero;stroke:none"
             d="m 0,0 c 0,1.44 -0.84,2.33 -2.069,2.33 -1.211,0 -2.04,-0.88 -2.04,-2.33 0,-1.47 0.829,-2.34 2.069,-2.34 C -0.83,-2.35 0,-1.46 0,0 m -5.41,0 c 0,2.28 1.39,3.43 3.03,3.43 1.04,0 1.96,-0.51 2.34,-1.42 V 3.3 h 1.29 v -6.59 h -1.29 v 1.25 C -0.41,-2.93 -1.34,-3.45 -2.37,-3.45 -4.01,-3.46 -5.41,-2.29 -5.41,0" /></g><g
           transform="translate(117.29,18.0398)"
           id="g66"><path
             id="path68"
             style="fill:#00adee;fill-opacity:1;fill-rule:nonzero;stroke:none"
             d="m 0,0 h 1.29 v -1.2 c 0.3,0.82 1.05,1.32 2.16,1.32 1.82,0 2.67,-1.05 2.67,-3.14 V -6.6 H 4.83 v 3.48 C 4.83,-1.68 4.28,-1 3.05,-1 1.8,-1 1.29,-1.819 1.29,-3.27 V -6.6 H 0 Z" /></g><g
           transform="translate(125.2803,14.74)"
           id="g70"><path
             id="path72"
             style="fill:#00adee;fill-opacity:1;fill-rule:nonzero;stroke:none"
             d="m 0,0 c 0,2 1.359,3.43 3.27,3.43 1.66,0 2.66,-0.76 3.07,-2.26 L 5.229,0.95 C 4.91,1.89 4.29,2.34 3.319,2.34 2.12,2.34 1.29,1.39 1.29,0.01 c 0,-1.37 0.83,-2.32 2.029,-2.32 0.901,0 1.591,0.51 1.881,1.37 L 6.31,-1.16 C 5.95,-2.58 4.84,-3.42 3.26,-3.42 1.359,-3.43 0,-2 0,0" /></g><g
           transform="translate(138.5303,15.4196)"
           id="g74"><path
             id="path76"
             style="fill:#00adee;fill-opacity:1;fill-rule:nonzero;stroke:none"
             d="M 0,0 C -0.09,1.051 -0.811,1.721 -1.971,1.721 -3.08,1.721 -3.851,1.141 -4,0 Z m -5.34,-0.68 c 0,2.031 1.36,3.43 3.34,3.43 2.1,0 3.37,-1.55 3.21,-3.76 h -5.25 c 0.05,-1.28 0.84,-2.01 2.12,-2.01 0.92,0 1.52,0.31 1.85,0.951 L 1.12,-2.25 C 0.59,-3.47 -0.45,-4.1 -1.94,-4.1 -4,-4.109 -5.34,-2.75 -5.34,-0.68" /></g><path
           id="path78"
           style="fill:#00adee;fill-opacity:1;fill-rule:nonzero;stroke:none"
           d="M 99.88,85.74 H 156.3 V 29.32 H 99.88 Z" /><g
           transform="translate(152.7197,68.49)"
           id="g80"><path
             id="path82"
             style="fill:#ffffff;fill-opacity:1;fill-rule:nonzero;stroke:none"
             d="M 0,0 C -0.6,0 -1.439,0.03 -1.93,0.2 -2.52,0.4 -3.029,0.8 -3.58,1.22 -3.859,1.43 -4.14,1.65 -4.439,1.85 -4.81,2.1 -5.12,2.21 -5.42,2.21 -5.819,2.21 -6.2,2 -6.68,1.51 -7.319,0.85 -8.33,-0.63 -8.739,-1.24 -8.76,-1.28 -8.8,-1.32 -8.85,-1.32 c -0.1,0 -0.1,0.13 -0.1,0.17 -0.02,1.7 -0.289,11 -0.47,13.77 -0.08,1.23 -0.47,1.99 -1,1.99 -0.43,0 -1.059,-0.57 -1.46,-2.17 C -12.899,8.37 -15.069,-0.7 -16,-5.3 c -0.029,-0.13 -0.17,-0.13 -0.2,0 -0.1,0.47 -0.199,1 -0.289,1.45 -0.281,1.42 -0.511,2.64 -1,3.32 -0.54,0.77 -1.351,0.81 -2.311,0.17 -0.22,-0.15 -0.429,-0.32 -0.649,-0.51 -0.631,-0.54 -1.33,-1.15 -2.511,-1.15 h -11.479 l -0.281,-1.52 h 12.071 c 1.239,0 2.379,0.71 3.069,1.2 0.351,0.25 0.58,0.4 0.78,0.4 0.271,0 0.39,-0.27 0.481,-0.67 0.049,-0.2 0.109,-0.48 0.179,-0.79 0.23,-1.05 0.571,-2.71 1.01,-3.81 0.2,-0.51 0.51,-0.79 0.851,-0.79 0.529,0 1.059,0.62 1.369,1.59 0.41,1.29 2.841,11.87 3.87,16.3 0.051,0.18 0.061,0.29 0.07,0.29 0.01,0.08 0.06,0.13 0.13,0.13 0.05,0 0.111,-0.04 0.12,-0.14 v -0.02 c 0.071,-4.49 0.29,-12.36 0.63,-13.17 0.18,-0.44 0.46,-0.68 0.82,-0.68 0.411,0 0.89,0.32 1.25,0.83 0.17,0.26 0.39,0.59 0.63,0.94 0.58,0.87 1.241,1.85 1.43,2.06 0.3,0.31 0.63,0.31 1.101,-0.02 C -4.79,0.06 -4.71,0 -4.609,-0.07 -4.1,-0.43 -3.25,-0.94 -2.3,-1.2 c 0.63,-0.18 1.441,-0.21 2.01,-0.21 0.37,0 0.761,0.01 0.87,0.02 L 0.851,0.02 C 0.721,0.01 0.351,0 0,0 m -30.6,8.23 c 2.19,-0.12 1.51,-4.69 -0.81,-4.56 -2.39,0.14 -1.61,4.69 0.81,4.56 m -3.44,-8.05 0.67,3.6 c 0.261,-0.52 0.99,-1.17 2.16,-1.17 2.11,0 3.41,1.65 3.54,3.57 0.141,2.05 -1.059,3.23 -2.46,3.23 -1.21,0 -2.03,-0.59 -2.45,-1.2 l 0.02,0.09 c 0.13,0.63 -0.4,0.98 -0.86,0.98 h -0.45 c 0,0 -1.23,-7.03 -1.4,-7.87 -0.2,-1 0.61,-1.23 0.86,-1.23 z m -2.34,9.09 h -0.42 c 0,0 -0.62,-3.58 -0.7,-3.99 -0.149,-0.88 -0.569,-1.48 -1.76,-1.48 -0.679,0 -1.33,0.41 -1.179,1.32 0.059,0.35 0.509,2.96 0.549,3.17 0.12,0.71 -0.48,0.98 -0.969,0.98 h -0.38 C -41.33,8.72 -41.75,6.43 -41.899,5.53 -41.96,5.17 -41.979,4.8 -41.96,4.56 c 0.15,-1.21 1.21,-1.96 2.54,-1.96 2.28,0 3.141,1.2 3.42,2.61 0.08,0.47 0.521,2.83 0.55,3.07 0.08,0.72 -0.5,0.99 -0.93,0.99 m -9.109,-1.23 c -0.2,-0.07 -0.481,-0.09 -0.971,-0.09 h -1.1 l 0.52,2.92 h 1.431 c 1.739,0 1.599,-2.35 0.12,-2.83 m -0.62,-4.17 C -46.29,3.83 -46.59,3.8 -47.21,3.8 h -1.069 l 0.54,3.06 h 1.59 c 2.099,0 1.91,-2.52 0.04,-2.99 m 3.46,5.85 c 0,1.48 -0.951,2.16 -2.621,2.16 h -3.219 L -50.12,2.75 h 2.95 c 0.67,0 1.311,0.02 1.681,0.1 1.649,0.35 2.319,1.55 2.46,2.44 0.179,1.22 -0.591,2.03 -1.46,2.23 0.659,0.13 1.84,0.82 1.84,2.2 m 19.58,-1.37 C -20.7,8.21 -21.47,3.67 -23.89,3.8 c -2.179,0.12 -1.5,4.68 0.821,4.55 M -24.3,2.61 c 1.28,0 1.981,0.57 2.39,1.22 l -0.02,-0.1 c -0.12,-0.61 0.38,-0.98 0.861,-0.98 h 0.409 l 1.15,6.53 h -1.42 l -0.19,-1 c -0.25,0.52 -0.98,1.13 -2.15,1.13 -2.06,0 -3.29,-1.7 -3.49,-3.51 -0.25,-2.08 1.09,-3.29 2.46,-3.29" /></g><g
           transform="translate(38.6602,51.4699)"
           id="g84"><path
             id="path86"
             style="fill:#00adee;fill-opacity:1;fill-rule:nonzero;stroke:none"
             d="M 0,0 C -0.76,0 -1.49,0.15 -2.19,0.42 V -22.15 H 2.19 V 0.42 C 1.5,0.15 0.76,0 0,0 M 23.75,-1.29 17.19,-17.34 9.93,0.42 H 5.12 l 9.85,-22.57 h 4.45 l 9.92,22.57 h -3.05 c -1.11,0 -2.12,-0.67 -2.54,-1.71 m 17.43,-17.58 c -4.22,0 -7.06,3 -7.06,8.01 0,4.97 2.84,7.97 6.98,7.97 4.18,0 7.06,-3.04 7.06,-7.97 0,-4.98 -2.84,-8.01 -6.98,-8.01 M 48.05,0.42 V -4 c -1.3,3.12 -4.46,4.85 -8.01,4.85 -5.6,0 -10.34,-3.94 -10.34,-11.72 0,-7.81 4.77,-11.8 10.38,-11.8 3.51,0 6.71,1.78 7.97,4.81 v -2.06 c 0,-1.21 0.98,-2.2 2.2,-2.2 h 2.22 V 0.42 Z m -64.21,0.39 c -3.79,0 -6.35,-1.7 -7.38,-4.5 v 4.1 h -2.22 c -1.21,0 -2.2,-0.98 -2.2,-2.2 v -20.37 h 4.42 v 11.37 c 0,4.97 1.74,7.77 6,7.77 4.18,0 6.08,-2.33 6.08,-7.26 v -11.88 h 4.42 v 12.24 c 0,7.14 -2.88,10.73 -9.12,10.73" /></g><g
           transform="translate(38.6602,60.4699)"
           id="g88"><path
             id="path90"
             style="fill:#fbae17;fill-opacity:1;fill-rule:nonzero;stroke:none"
             d="M 0,0 C -1.47,0 -2.66,1.18 -2.66,2.64 -2.66,4.1 -1.47,5.28 0,5.28 1.47,5.28 2.66,4.1 2.66,2.64 2.66,1.18 1.47,0 0,0 m 0,8.17 c -3.08,0 -5.58,-2.48 -5.58,-5.53 0,-3.05 2.5,-5.53 5.58,-5.53 3.08,0 5.58,2.48 5.58,5.53 0,3.05 -2.5,5.53 -5.58,5.53" /></g></g></g></g></svg>