<svg xmlns="http://www.w3.org/2000/svg" viewBox="180.0 291.16 440.0 202.87" width="465.7780077916656" height="214.69455046647084">
  <defs>
    <style>
      .cls-1 {
        fill: #1e354a;
      }

      .cls-2 {
        fill: #ef4123;
      }
    </style>
  </defs>
  <path class="cls-2" d="M255.69,489.59c17.65-16.1,42.77-64.06,43.23-100.43-4.08,1.2-12.16,5.55-15.15,19-1.72,7.72-6.56,25.96-24.37,24.39-24.7-2.18-21.12-48.88,17.56-44.65,18.28,2,21.25-11.15,21.25-12.91-4.01,1.84-10.04,1.07-15.71.39-34.86-4.19-51.59,15.77-51.59,38.54,0,13.67,8.89,25.17,18.91,31.55,5.33,3.39,1.5,6.72-2.46,3.86-10.54-7.61-22.85-17.66-22.85-39.08,0-35.77,36.5-51.31,45.07-57.7,12.72-9.48,18.85-17.31,15.75-31.27-5.03,9.27-17.39,17.36-26.62,22.27-24.93,13.25-44.47,32.54-44.47,60.87,0,22.28,9.79,34.53,21.55,44.02,2.67,2.15-.16,5.16-3.58,2.41-18.71-15.08-24.89-31.79-24.89-53.26,0-40.55,51.14-77.22,28.14-106.43.32,29.82-38.24,55.87-38.24,105.2,0,22.15,8.89,44.14,33.69,61.52,14.61,10.24,16.68,21.97,14.54,32.6-.96,5.74,5.99,2.99,10.24-.9M191.15,361.03c2.3-27.2-11.15-35.44-11.15-35.44,0,0,3.17,11.54.86,41.12-1.58,20.17,5.61,35.81,9.79,45.47.59,1.37,2.61.31,2.24-1.12-3.79-14.29-3.64-27.55-1.73-50.03Z"/>
  <path class="cls-1" d="M597.63,409.94c0-12.47-5.79-17.17-18.4-17.17-9.39,0-18.2,3.47-18.2,6.95,0,1.19,1.11,4.31,2.91,6.38,4.43-2.54,8.26-4.32,13.32-4.32,8.03,0,8.16,3.69,8.16,8.25-13.16,0-27.21,2.77-27.21,15.86,0,8.75,5.24,14.1,14.36,14.1,6.36,0,9.88-2.34,13.78-4.89,1.67,5.36,9.21,4.6,13.17,2.84-1.5-2.39-1.9-4.96-1.9-10.69v-17.31ZM585.42,427.49c-2.57,2.44-5.29,3.75-8.63,3.75-7.93,0-8.27-8.8-3.56-11.96,2.95-1.99,8.38-2.59,12.19-2.59v10.8ZM475.01,409.94c0-12.47-5.79-17.17-18.4-17.17-9.39,0-18.2,3.47-18.2,6.95,0,1.19,1.11,4.31,2.91,6.38,4.43-2.54,8.26-4.32,13.32-4.32,8.03,0,8.16,3.69,8.16,8.25-13.16,0-27.21,2.77-27.21,15.86,0,8.75,5.24,14.1,14.37,14.1,6.36,0,9.87-2.34,13.78-4.89,1.67,5.36,9.22,4.6,13.17,2.84-1.5-2.39-1.9-4.96-1.9-10.69v-17.31ZM462.81,427.49c-2.57,2.44-5.29,3.75-8.63,3.75-7.93,0-8.27-8.8-3.56-11.96,2.95-1.99,8.38-2.59,12.19-2.59v10.8ZM347.97,374.97h-16.9v63.91c.69.22,4.13.44,4.94.37,5.23-.14,7.82-2.26,7.82-7.02v-16.18h4.78c14.56,0,25.35-6.45,25.35-21.95s-12.41-19.12-25.99-19.12ZM343.84,406.95v-22.53c8.98-.85,16.98.78,16.98,10.32,0,11.99-8.3,12.2-16.98,12.2ZM394,432.23c0,4.76-2.59,6.87-7.82,7.02-.81.07-4.25-.15-4.94-.37v-38.13c0-4.76,2.59-6.87,7.82-7.02.81-.07,4.26.15,4.94.37v38.13ZM538.36,414.79c0-5.74-.12-7.3-.58-8.56-1.99-5.44-13.46-3.8-13.46,1.78v24.21c0,4.76-2.59,6.87-7.82,7.01-.81.07-4.25-.15-4.94-.37v-24.08c0-5.74-.12-7.3-.57-8.56-1.99-5.44-13.47-3.8-13.47,1.78v24.21c0,4.76-2.59,6.87-7.82,7.01-.81.07-4.25-.15-4.94-.37v-44.78c5.23-.74,11.01-.67,12.1,4.45,5.09-7.22,22.45-8.85,25.77,1.95,3.09-5.87,9.88-8.2,16.35-7.64,10.99.94,12.1,9.93,12.14,20.9v18.47c0,4.76-2.59,6.87-7.82,7.01-.81.07-4.26-.15-4.94-.37v-24.08ZM403.83,438.87c.68.22,4.13.44,4.94.37,5.23-.14,7.82-2.26,7.82-7.01v-22.66c0-4.92,7.38-8.39,13.79-3,1.57-2.62,3.1-6.74,3.1-9.16,0-5.21-11.01-7.5-17.45,1.09-1.18-4.92-7.17-5.24-12.19-4.4v44.78ZM620,375.34c-.59-.2-3.28-.37-4.32-.37-5.63,0-8.44,2.09-8.44,7.03v56.87c.69.22,4.13.44,4.94.37,5.23-.14,7.82-2.26,7.82-7.01v-56.89ZM387.63,374.97c-3.14,0-5.91,2.32-6.34,5.48-.56,4.18,3.21,7.81,7.35,7.13,3.67-.6,6.13-4.39,5.13-7.99-.76-2.74-3.34-4.61-6.14-4.61Z"/>
  <g>
    <path class="cls-1" d="M331.93,492.98c-.5-.5-.72-1.11-.72-1.84v-31.83c0-.78.22-1.39.67-1.89s1.06-.72,1.84-.72h19.14c.61,0,1.11.22,1.5.61.39.39.61.89.61,1.5s-.22,1.11-.61,1.5c-.39.39-.89.61-1.5.61h-16.53v11.41h14.13c.61,0,1.11.22,1.5.61.39.39.61.89.61,1.5s-.22,1.11-.61,1.5c-.39.39-.89.61-1.5.61h-14.13v14.52c0,.72-.28,1.33-.78,1.84-.5.5-1.11.78-1.84.78s-1.34-.28-1.84-.78l.06.06Z"/>
    <path class="cls-1" d="M360.14,460.98c-.61-.61-.89-1.33-.89-2.17s.28-1.56.89-2.17c.61-.61,1.34-.95,2.17-.95s1.56.28,2.17.89c.61.61.89,1.34.89,2.17s-.28,1.56-.89,2.17c-.61.61-1.34.89-2.17.89s-1.56-.28-2.17-.89v.06ZM359.87,491.31v-22.59c0-.67.22-1.22.72-1.73.5-.5,1.06-.72,1.73-.72s1.22.22,1.73.72c.5.5.72,1.06.72,1.73v22.59c0,.67-.22,1.22-.72,1.72-.5.5-1.06.72-1.73.72s-1.22-.22-1.73-.72c-.5-.5-.72-1.06-.72-1.72Z"/>
    <path class="cls-1" d="M373.45,493.09c-.5-.5-.72-1.06-.72-1.72v-22.59c0-.67.22-1.22.72-1.73.5-.5,1.06-.72,1.73-.72.61,0,1.17.22,1.61.67.44.45.72,1,.78,1.61l1.22-.61c2.62-1.28,5.01-1.95,7.18-1.95,1.61,0,3.12.22,4.51.72,1.39.5,2.56,1.17,3.51,2.06.89.84,1.56,1.89,2,3.12s.67,2.73.67,4.51v14.86c0,.67-.22,1.22-.72,1.72-.5.5-1.06.72-1.73.72s-1.22-.22-1.73-.72-.72-1.06-.72-1.72v-14.64c0-1.22-.11-2.17-.33-2.84-.22-.67-.56-1.28-1.06-1.78-.95-.95-2.67-1.45-5.12-1.45h-.06c-1.17,0-2.39.17-3.67.45-1.28.28-2.34.61-3.17,1-.22.11-.33.22-.39.33-.06.11-.06.28-.06.56v18.31c0,.67-.22,1.22-.72,1.72-.5.5-1.06.72-1.73.72s-1.22-.22-1.73-.72l-.28.11Z"/>
    <path class="cls-1" d="M408.62,492.2c-1.84-1.17-3.23-2.84-4.23-4.95-1-2.12-1.5-4.51-1.5-7.23,0-2.89.61-5.4,1.78-7.51,1.17-2.12,2.73-3.73,4.62-4.84,1.89-1.11,3.9-1.67,5.95-1.67,1.22,0,2.39.17,3.51.5,1.11.33,2.34.83,3.62,1.56l1.39.72v-.06c0-.67.22-1.22.72-1.73.5-.5,1.06-.72,1.72-.72s1.22.22,1.73.72c.5.5.72,1.06.72,1.73v22.59c0,.67-.22,1.22-.72,1.72-.5.5-1.06.72-1.73.72s-1.22-.22-1.72-.72c-.5-.5-.72-1.06-.72-1.72v-.17l-1.56.83c-1.39.72-2.62,1.22-3.73,1.56-1.11.33-2.28.5-3.51.5-2.39,0-4.51-.61-6.34-1.78v-.06ZM419.64,488.97c1.39-.33,2.56-.78,3.51-1.33.28-.17.45-.33.5-.5.06-.17.11-.39.11-.67v-13.02c0-.33-.06-.56-.17-.72s-.28-.33-.56-.5c-1.11-.56-2.28-1-3.51-1.34-1.22-.33-2.39-.5-3.51-.5-2.62,0-4.62.78-6.01,2.39-1.39,1.61-2.12,4.01-2.12,7.18,0,6.29,2.62,9.46,7.85,9.46,1.17,0,2.45-.17,3.84-.5l.06.06Z"/>
    <path class="cls-1" d="M437.23,493.09c-.5-.5-.72-1.06-.72-1.72v-22.59c0-.67.22-1.22.72-1.73.5-.5,1.06-.72,1.72-.72.61,0,1.17.22,1.61.67.45.45.72,1,.78,1.61l1.22-.61c2.62-1.28,5.01-1.95,7.18-1.95,1.61,0,3.12.22,4.51.72,1.39.5,2.56,1.17,3.51,2.06.89.84,1.56,1.89,2,3.12.45,1.22.67,2.73.67,4.51v14.86c0,.67-.22,1.22-.72,1.72-.5.5-1.06.72-1.72.72s-1.22-.22-1.73-.72c-.5-.5-.72-1.06-.72-1.72v-14.64c0-1.22-.11-2.17-.33-2.84-.22-.67-.56-1.28-1.06-1.78-.95-.95-2.67-1.45-5.12-1.45h-.06c-1.17,0-2.39.17-3.67.45-1.28.28-2.34.61-3.17,1-.22.11-.33.22-.39.33s-.06.28-.06.56v18.31c0,.67-.22,1.22-.72,1.72-.5.5-1.06.72-1.73.72s-1.22-.22-1.72-.72l-.28.11Z"/>
    <path class="cls-1" d="M470.45,490.58c-1.28-1.28-2.28-2.84-2.95-4.62-.67-1.78-1-3.73-1-5.9s.39-4.17,1.17-6.01c.78-1.84,1.84-3.39,3.23-4.67,1.17-1.06,2.5-1.89,4.06-2.45,1.56-.56,3.12-.83,4.73-.83,2,0,3.9.45,5.68,1.34,1.78.89,3.28,2.12,4.56,3.73.56.72.83,1.39.83,2,0,.56-.22,1.06-.61,1.45-.39.39-.89.61-1.5.61-.39,0-.72-.11-1-.28-.28-.17-.61-.45-1.06-.83l-.95-.89c-1-.95-2-1.67-3-2.12-1-.45-2.06-.67-3.17-.67-.95,0-1.89.17-2.84.5-.95.33-1.73.83-2.34,1.45-.83.84-1.5,1.89-2,3.17s-.72,2.67-.72,4.23.22,2.95.61,4.23c.39,1.28.95,2.34,1.67,3.17,1.5,1.61,3.62,2.39,6.4,2.39,1.89,0,4.17-.67,6.84-2,.83-.39,1.5-.61,2-.61s.95.17,1.34.56.56.83.56,1.39c0,.45-.11.83-.33,1.17-.22.33-.61.72-1.17,1.11-1.17.83-2.56,1.5-4.23,2-1.67.5-3.39.78-5.17.78-3.95,0-7.12-1.22-9.52-3.62l-.11.22Z"/>
    <path class="cls-1" d="M502.9,493.03c-1.61-.61-3-1.5-4.17-2.67-1.28-1.28-2.28-2.84-2.95-4.62-.67-1.78-1-3.73-1-5.79,0-2.73.56-5.18,1.73-7.29,1.17-2.12,2.73-3.78,4.73-4.95,2-1.17,4.23-1.78,6.68-1.78s4.56.56,6.51,1.72c1.95,1.17,3.45,2.73,4.51,4.67,1.06,1.95,1.61,4.12,1.61,6.51,0,.83-.17,1.45-.56,1.84s-.95.56-1.72.56h-18.31c.22,2.5,1.11,4.56,2.67,6.12,1.45,1.45,3.45,2.17,5.95,2.17,1.17,0,2.34-.17,3.45-.5,1.11-.33,2.39-.89,3.78-1.61.39-.22.78-.39,1.11-.5.33-.11.67-.17.95-.17.56,0,1,.17,1.34.5.33.33.5.78.5,1.33,0,.5-.11.95-.39,1.34-.28.39-.78.84-1.5,1.34-1.11.83-2.5,1.5-4.17,2-1.67.5-3.34.78-4.95.78-2.17,0-4.06-.33-5.68-.95l-.11-.06ZM515.64,477.45c-.17-2.17-.95-3.9-2.34-5.18-1.39-1.28-3.17-1.95-5.4-1.95s-4.12.61-5.57,1.89c-1.45,1.28-2.28,3-2.56,5.23h15.86Z"/>
  </g>
</svg>