<?xml version="1.0" encoding="UTF-8"?>
<svg version="1.1" xmlns="http://www.w3.org/2000/svg" width="600" height="600">
<path d="M0 0 C198 0 396 0 600 0 C600 198 600 396 600 600 C402 600 204 600 0 600 C0 402 0 204 0 0 Z " fill="#FEFEFE" transform="translate(0,0)"/>
<path d="M0 0 C0.66 0.99 1.32 1.98 2 3 C2.495 3.391875 2.99 3.78375 3.5 4.1875 C5.90127294 7.08903813 6.22135816 10.3463729 7 14 C14.19736499 14.80242223 14.19736499 14.80242223 20.91015625 12.88671875 C22.41910696 11.39751349 22.41910696 11.39751349 24 9 C24.08636719 9.58265625 24.17273437 10.1653125 24.26171875 10.765625 C25.49992084 17.99036378 27.99881152 24.33323781 31 31 C31.99 31 32.98 31 34 31 C33.89558594 29.28103516 33.89558594 29.28103516 33.7890625 27.52734375 C33.19503275 13.72488779 33.19503275 13.72488779 36.5625 9.6875 C38.26171875 8.2265625 38.26171875 8.2265625 40 7 C40.94875 6.195625 41.8975 5.39125 42.875 4.5625 C48.831214 1.49778139 56.53936711 2.2236714 63 3 C66.93850387 4.48687034 69.67878712 6.53971208 72.484375 9.640625 C74.09333457 11.3427766 74.09333457 11.3427766 77.4375 11.4375 C81 12 81 12 83.4375 13.6875 C85.48573983 16.71889495 85.5241981 18.40549872 85 22 C84.01971384 23.34789347 83.02028865 24.68212715 82 26 C81.66574265 28.62625139 81.66574265 28.62625139 82 31 C82.33 31.33 82.66 31.66 83 32 C83.3125 34.8125 83.3125 34.8125 83 38 C81.68733482 39.35368596 80.35432675 40.68799596 79 42 C78.83313834 44.58093143 78.83313834 44.58093143 79 47 C80.19544434 47.51385254 80.19544434 47.51385254 81.41503906 48.03808594 C84.38535194 49.32022915 87.35179366 50.61084762 90.31591797 51.90722656 C91.59666922 52.46531206 92.87888496 53.02004965 94.16259766 53.57128906 C96.01330959 54.36670754 97.85829351 55.17541146 99.703125 55.984375 C100.81333008 56.46616211 101.92353516 56.94794922 103.06738281 57.44433594 C106.03989452 59.02116283 107.93892265 60.34623103 110 63 C110.39404297 65.12792969 110.39404297 65.12792969 110.2421875 67.421875 C110.16871094 68.71544922 110.16871094 68.71544922 110.09375 70.03515625 C109.98546875 71.37900391 109.98546875 71.37900391 109.875 72.75 C109.80152344 74.02423828 109.80152344 74.02423828 109.7265625 75.32421875 C109.19111611 83.61146862 108.03289584 91.73683326 107 100 C246.92 100 386.84 100 531 100 C531 117.16 531 134.32 531 152 C352.8 152 174.6 152 -9 152 C-9 134.84 -9 117.68 -9 100 C-2.4 100 4.2 100 11 100 C11.144375 98.14375 11.28875 96.2875 11.4375 94.375 C11.68085902 91.24609838 11.9624524 88.20526019 12.52734375 85.1171875 C13.10613876 81.3000105 13.14617389 77.60364791 13.125 73.75 C13.12886719 73.03070313 13.13273437 72.31140625 13.13671875 71.5703125 C13.20134589 67.65685799 13.20134589 67.65685799 12 64 C11.77235355 62.68133822 11.58552849 61.35546623 11.421875 60.02734375 C10.18037113 50.60298746 8.53337765 41.73580677 5.62817383 32.67919922 C4.247426 28.25338564 3.74495603 24.65170967 4.0859375 20.06640625 C3.91288186 15.90520461 2.00809638 10.00809638 -1 7 C-1.125 4 -1.125 4 -1 1 C-0.67 0.67 -0.34 0.34 0 0 Z " fill="#FCC906" transform="translate(39,231)"/>
<path d="M0 0 C0.66 0.99 1.32 1.98 2 3 C2.7425 3.5878125 2.7425 3.5878125 3.5 4.1875 C5.90127294 7.08903813 6.22135816 10.3463729 7 14 C14.19736499 14.80242223 14.19736499 14.80242223 20.91015625 12.88671875 C22.41910696 11.39751349 22.41910696 11.39751349 24 9 C24.08636719 9.58265625 24.17273438 10.1653125 24.26171875 10.765625 C25.49992084 17.99036378 27.99881152 24.33323781 31 31 C31.99 31 32.98 31 34 31 C33.89558594 29.28103516 33.89558594 29.28103516 33.7890625 27.52734375 C33.19503275 13.72488779 33.19503275 13.72488779 36.5625 9.6875 C38.26171875 8.2265625 38.26171875 8.2265625 40 7 C40.94875 6.195625 41.8975 5.39125 42.875 4.5625 C48.831214 1.49778139 56.53936711 2.2236714 63 3 C66.93850387 4.48687034 69.67878712 6.53971208 72.484375 9.640625 C74.09333457 11.3427766 74.09333457 11.3427766 77.4375 11.4375 C81 12 81 12 83.4375 13.6875 C85.48573983 16.71889495 85.5241981 18.40549872 85 22 C84.01971384 23.34789347 83.02028865 24.68212715 82 26 C81.66574265 28.62625139 81.66574265 28.62625139 82 31 C82.33 31.33 82.66 31.66 83 32 C83.3125 34.8125 83.3125 34.8125 83 38 C81.68733482 39.35368596 80.35432675 40.68799596 79 42 C78.83313834 44.58093143 78.83313834 44.58093143 79 47 C80.19544434 47.51385254 80.19544434 47.51385254 81.41503906 48.03808594 C84.38535194 49.32022915 87.35179366 50.61084762 90.31591797 51.90722656 C91.59666922 52.46531206 92.87888496 53.02004965 94.16259766 53.57128906 C96.01330959 54.36670754 97.85829351 55.17541146 99.703125 55.984375 C100.81333008 56.46616211 101.92353516 56.94794922 103.06738281 57.44433594 C106.03432242 59.018207 107.93212978 60.36067504 110 63 C110.40991211 65.0168457 110.40991211 65.0168457 110.27734375 67.17578125 C110.23472412 67.99344971 110.19210449 68.81111816 110.14819336 69.65356445 C110.07866455 70.53101318 110.00913574 71.40846191 109.9375 72.3125 C109.85157593 73.67604614 109.85157593 73.67604614 109.76391602 75.06713867 C109.0132122 85.76535049 107.54826547 96.39226961 106 107 C106.99 106.67 107.98 106.34 109 106 C110.89470816 105.9314505 112.7916834 105.91519628 114.6875 105.9375 C115.68136719 105.94652344 116.67523438 105.95554687 117.69921875 105.96484375 C118.45847656 105.97644531 119.21773438 105.98804688 120 106 C122.29612756 124.82004556 122.29612756 124.82004556 122 134 C117.18391355 135.81078764 112.63675351 136.57764463 107.5625 137.125 C106.83740234 137.21136719 106.11230469 137.29773438 105.36523438 137.38671875 C100.88058949 137.8944144 96.51248258 138.0832342 92 138 C92 139.98 92 141.96 92 144 C84.41593107 143.41465949 77.05423407 142.25043193 69.625 140.625 C68.55894531 140.43550781 67.49289063 140.24601563 66.39453125 140.05078125 C63.23737414 139.33992449 60.783079 138.65951057 58 137 C55.25610523 132.62271597 54 128.15287782 54 123 C52.68 123 51.36 123 50 123 C49.67 125.31 49.34 127.62 49 130 C44.42884403 130.43137823 39.85731492 130.85847507 35.28540039 131.28173828 C33.73255821 131.42609108 32.17982122 131.57158035 30.62719727 131.71826172 C28.38585168 131.92980445 26.14415024 132.13715579 23.90234375 132.34375 C23.21663803 132.40937134 22.53093231 132.47499268 21.82444763 132.54260254 C17.535614 132.93280877 13.30535339 133.05874274 9 133 C9 131.68 9 130.36 9 129 C15.6 127.35 22.2 125.7 29 124 C29 122.35 29 120.7 29 119 C27.89140625 118.73445313 26.7828125 118.46890625 25.640625 118.1953125 C24.17702189 117.83879379 22.71348359 117.48200897 21.25 117.125 C20.15558594 116.86396484 20.15558594 116.86396484 19.0390625 116.59765625 C18.33007812 116.42363281 17.62109375 116.24960937 16.890625 116.0703125 C16.24125977 115.91320801 15.59189453 115.75610352 14.92285156 115.59423828 C12.80912862 114.94101309 10.95103288 114.03624898 9 113 C9.49532301 108.27279108 10.04363316 103.5709859 10.75390625 98.87109375 C14.3786852 81.18786814 14.3786852 81.18786814 12 64 C11.77235355 62.68133822 11.58552849 61.35546623 11.421875 60.02734375 C10.18037113 50.60298746 8.53337765 41.73580677 5.62817383 32.67919922 C4.247426 28.25338564 3.74495603 24.65170967 4.0859375 20.06640625 C3.91288186 15.90520461 2.00809638 10.00809638 -1 7 C-1.125 4 -1.125 4 -1 1 C-0.67 0.67 -0.34 0.34 0 0 Z " fill="#040403" transform="translate(39,231)"/>
<path d="M0 0 C4.62 0 9.24 0 14 0 C17.18752321 8.10541617 20.12209756 16.20490717 22.7890625 24.4921875 C23.9597031 28.02441085 23.9597031 28.02441085 25.48828125 31.453125 C27.3660645 35.85888001 28.78408474 40.34936784 30.19335938 44.921875 C30.74136857 46.63290059 31.36502493 48.3193069 32 50 C32.99 50.495 32.99 50.495 34 51 C35.7509031 45.83483587 37.41829116 40.65713916 39 35.4375 C40.28435612 31.23901767 41.63245824 27.10716149 43.22265625 23.015625 C44.1674309 20.56585757 45.05047445 18.09624628 45.9375 15.625 C47.84218787 10.36688483 49.89721193 5.18187059 52 0 C56.62 0 61.24 0 66 0 C66 21.78 66 43.56 66 66 C62.7 66 59.4 66 56 66 C55.67 50.82 55.34 35.64 55 20 C54.01 23.3 53.02 26.6 52 30 C51.04219768 32.39450581 50.08317523 34.7886428 49.09765625 37.171875 C47.78559529 40.55241641 46.67423892 43.98760405 45.5625 47.4375 C43.48604961 53.84928042 40.95817365 59.94518501 38 66 C34.7 66 31.4 66 28 66 C24.13469146 57.12347287 20.86126041 48.11052733 17.68896484 38.96972656 C16.45105302 35.43057966 15.15526573 31.91276091 13.859375 28.39453125 C12.86083548 25.61223704 11.93478566 22.80435697 11 20 C10.67 35.18 10.34 50.36 10 66 C6.7 66 3.4 66 0 66 C0 44.22 0 22.44 0 0 Z " fill="#0B0B0B" transform="translate(494,256)"/>
<path d="M0 0 C5.61 -0.061875 11.22 -0.12375 17 -0.1875 C18.75441406 -0.21481201 20.50882812 -0.24212402 22.31640625 -0.27026367 C23.73176387 -0.27903851 25.14712915 -0.28668008 26.5625 -0.29296875 C27.27728516 -0.30831665 27.99207031 -0.32366455 28.72851562 -0.33947754 C34.9894235 -0.34267623 40.48013431 0.9324179 45.4375 5 C48.9793798 9.53360615 48.2203975 14.89853671 48.25 20.375 C48.270625 21.32117188 48.29125 22.26734375 48.3125 23.2421875 C48.34183484 28.46378832 48.13283015 31.63276666 45 36 C45.64663567 38.7004039 45.64663567 38.7004039 47 41 C48.27861615 43.55723229 48.11336609 45.36737102 48.09765625 48.2265625 C48.09443359 49.2578125 48.09121094 50.2890625 48.08789062 51.3515625 C48.07532227 52.97191406 48.07532227 52.97191406 48.0625 54.625 C48.05798828 55.71296875 48.05347656 56.8009375 48.04882812 57.921875 C48.0370179 60.61460662 48.01908205 63.30731009 48 66 C44.7 66 41.4 66 38 66 C37.94392578 63.76089844 37.94392578 63.76089844 37.88671875 61.4765625 C37.82107535 59.52601584 37.75462746 57.57549615 37.6875 55.625 C37.65366211 54.14773438 37.65366211 54.14773438 37.61914062 52.640625 C37.58369141 51.69960938 37.54824219 50.75859375 37.51171875 49.7890625 C37.48553467 48.91975098 37.45935059 48.05043945 37.43237305 47.15478516 C37.18654782 44.61399973 37.18654782 44.61399973 34 43 C31.38710506 42.63250611 31.38710506 42.63250611 28.45703125 42.5859375 C27.48999268 42.55032715 26.5229541 42.5147168 25.52661133 42.47802734 C23.68812622 42.42702881 23.68812622 42.42702881 21.8125 42.375 C17.914375 42.25125 14.01625 42.1275 10 42 C10 50.25 10 58.5 10 67 C6.7 67 3.4 67 0 67 C0 44.89 0 22.78 0 0 Z " fill="#0C0C0C" transform="translate(291,256)"/>
<path d="M0 0 C5.61 -0.061875 11.22 -0.12375 17 -0.1875 C18.75441406 -0.21481201 20.50882812 -0.24212402 22.31640625 -0.27026367 C23.73176387 -0.27903851 25.14712915 -0.28668008 26.5625 -0.29296875 C27.27728516 -0.30831665 27.99207031 -0.32366455 28.72851562 -0.33947754 C34.10248377 -0.34222309 38.09085306 0.77653467 43 3 C48.2680219 8.53817687 48.20881415 12.50715963 48.25 19.8125 C48.270625 20.71548828 48.29125 21.61847656 48.3125 22.54882812 C48.34235387 27.62771756 48.11889829 30.78080072 45 35 C45.21384095 37.35225045 45.85491045 38.75102169 47.03857422 40.78222656 C48.20973102 43.48379802 48.22796448 45.48319688 48.1953125 48.421875 C48.18886719 49.44667969 48.18242187 50.47148437 48.17578125 51.52734375 C48.15902344 52.59082031 48.14226562 53.65429688 48.125 54.75 C48.11597656 55.82894531 48.10695313 56.90789062 48.09765625 58.01953125 C48.0741142 60.67978249 48.03824397 63.33991949 48 66 C44.7 66 41.4 66 38 66 C37.94392578 63.76089844 37.94392578 63.76089844 37.88671875 61.4765625 C37.82107535 59.52601584 37.75462746 57.57549615 37.6875 55.625 C37.65366211 54.14773438 37.65366211 54.14773438 37.61914062 52.640625 C37.58369141 51.69960938 37.54824219 50.75859375 37.51171875 49.7890625 C37.48553467 48.91975098 37.45935059 48.05043945 37.43237305 47.15478516 C37.18654782 44.61399973 37.18654782 44.61399973 34 43 C31.38710506 42.63250611 31.38710506 42.63250611 28.45703125 42.5859375 C27.48999268 42.55032715 26.5229541 42.5147168 25.52661133 42.47802734 C23.68812622 42.42702881 23.68812622 42.42702881 21.8125 42.375 C17.914375 42.25125 14.01625 42.1275 10 42 C10 49.92 10 57.84 10 66 C6.7 66 3.4 66 0 66 C0 44.22 0 22.44 0 0 Z " fill="#0B0B0B" transform="translate(366,256)"/>
<path d="M0 0 C4.29 0 8.58 0 13 0 C15.76614593 6.42942028 18.31995707 12.70354419 20.21264648 19.43847656 C20.95326903 21.84796856 21.82693554 24.1141143 22.80078125 26.4375 C25.38591048 32.81442759 27.49260374 39.33565148 29.625 45.875 C30.40603431 48.26915092 31.18977288 50.66242178 31.9765625 53.0546875 C32.31768066 54.10124512 32.65879883 55.14780273 33.01025391 56.22607422 C33.91263314 58.94949675 33.91263314 58.94949675 35.12646484 61.18408203 C36 63 36 63 36 66 C32.7 66 29.4 66 26 66 C25.34956281 64.27255984 24.70485156 62.5429631 24.0625 60.8125 C23.52302734 59.36810547 23.52302734 59.36810547 22.97265625 57.89453125 C22 55 22 55 21 50 C11.76 50.33 2.52 50.66 -7 51 C-8.60360302 55.56127862 -8.60360302 55.56127862 -10.20092773 60.12475586 C-11.88888889 64.88888889 -11.88888889 64.88888889 -13 66 C-14.51928038 66.07179964 -16.04167482 66.08392007 -17.5625 66.0625 C-18.80193359 66.04896484 -18.80193359 66.04896484 -20.06640625 66.03515625 C-21.02353516 66.01775391 -21.02353516 66.01775391 -22 66 C-21.2094255 57.3036805 -17.88598782 49.22431604 -14.78125 41.125 C-13.79264962 38.43600696 -12.89780198 35.72061208 -12 33 C-10.6810306 29.00312303 -9.29015805 25.05698753 -7.78125 21.12890625 C-6.78695329 18.41944772 -5.897348 15.68052968 -5 12.9375 C-3.53947519 8.50536893 -1.93033931 4.24674648 0 0 Z " fill="#090909" transform="translate(447,256)"/>
<path d="M0 0 C1.29357422 -0.02835938 2.58714844 -0.05671875 3.91992188 -0.0859375 C11.46255907 -0.10137001 16.93923913 0.33609164 22.6875 5.5 C26.50300236 9.55397126 25.93943087 13.98992066 25.79296875 19.26953125 C25.75816406 20.00558594 25.72335938 20.74164063 25.6875 21.5 C22.3875 21.5 19.0875 21.5 15.6875 21.5 C15.55729167 19.22135417 15.42708333 16.94270833 15.296875 14.6640625 C14.90957358 12.3692037 14.90957358 12.3692037 12.94067383 11.38354492 C8.95155657 9.81927844 4.85969948 10.17245132 0.625 10.1875 C-0.28572266 10.17138672 -1.19644531 10.15527344 -2.13476562 10.13867188 C-3.44670898 10.13770508 -3.44670898 10.13770508 -4.78515625 10.13671875 C-5.58187744 10.13373779 -6.37859863 10.13075684 -7.19946289 10.12768555 C-9.84621287 10.59403953 -10.72930083 11.35548476 -12.3125 13.5 C-12.6761162 16.70138068 -12.6761162 16.70138068 -12.5 20.1875 C-12.47292969 21.36699219 -12.44585937 22.54648437 -12.41796875 23.76171875 C-12.38316406 24.66535156 -12.34835938 25.56898438 -12.3125 26.5 C-11.66812988 26.54487549 -11.02375977 26.58975098 -10.35986328 26.63598633 C-7.38477743 26.84986224 -4.41127102 27.08108522 -1.4375 27.3125 C-0.42429688 27.38275391 0.58890625 27.45300781 1.6328125 27.52539062 C18.61565353 28.8861952 18.61565353 28.8861952 23.77734375 34.0625 C26.34464044 38.68258402 26.39141732 42.30195815 26.25 47.5 C26.26095703 48.3765625 26.27191406 49.253125 26.28320312 50.15625 C26.22012586 55.74069083 25.44356275 59.10988629 21.6875 63.5 C14.85510547 68.21760575 9.07849431 67.75156441 0.9375 67.8125 C-0.33867187 67.84150391 -1.61484375 67.87050781 -2.9296875 67.90039062 C-14.57874433 67.97942911 -14.57874433 67.97942911 -19.3125 63.5 C-25.13188193 57.36605688 -24.41979632 51.54722412 -24.3125 43.5 C-21.0125 43.5 -17.7125 43.5 -14.3125 43.5 C-14.23902344 44.65628906 -14.23902344 44.65628906 -14.1640625 45.8359375 C-14.08929688 46.83882813 -14.01453125 47.84171875 -13.9375 48.875 C-13.86789063 49.87273437 -13.79828125 50.87046875 -13.7265625 51.8984375 C-13.54886036 54.65508879 -13.54886036 54.65508879 -11.3125 56.5 C-8.70799143 56.79480771 -8.70799143 56.79480771 -5.68359375 56.73046875 C-4.56662109 56.72853516 -3.44964844 56.72660156 -2.29882812 56.72460938 C-1.12771484 56.71236328 0.04339844 56.70011719 1.25 56.6875 C2.42498047 56.68685547 3.59996094 56.68621094 4.81054688 56.68554688 C10.11208427 57.1705984 10.11208427 57.1705984 14.6875 55.5 C14.76063567 52.96950598 14.77997527 50.46695163 14.75 47.9375 C14.74548828 47.22658203 14.74097656 46.51566406 14.73632812 45.78320312 C14.72450864 44.02209987 14.70657263 42.26103964 14.6875 40.5 C12.13913878 39.22581939 10.15406511 39.27566659 7.3046875 39.140625 C6.21929687 39.07617188 5.13390625 39.01171875 4.015625 38.9453125 C1.73774078 38.81647289 -0.54098084 38.70157936 -2.8203125 38.6015625 C-9.74528984 38.16058517 -15.01826015 37.21926843 -20.3125 32.5 C-24.75735579 26.1105198 -24.05558144 17.99686605 -23.3125 10.5 C-22.15053296 6.62677653 -20.37551959 4.28121199 -17.07739258 1.85742188 C-11.76635031 -0.75003023 -5.80758919 -0.01147178 0 0 Z " fill="#0A0A0A" transform="translate(192.3125,255.5)"/>
<path d="M0 0 C2.97 0 5.94 0 9 0 C9.33 8.58 9.66 17.16 10 26 C20.23 26.33 30.46 26.66 41 27 C41 18.09 41 9.18 41 0 C43.97 0 46.94 0 50 0 C50 21.45 50 42.9 50 65 C47.03 65 44.06 65 41 65 C41 55.43 41 45.86 41 36 C30.44 36 19.88 36 9 36 C9 45.57 9 55.14 9 65 C6.03 65 3.06 65 0 65 C0 43.55 0 22.1 0 0 Z " fill="#010101" transform="translate(229,257)"/>
<path d="M0 0 C6.6 0 13.2 0 20 0 C20.33 0.99 20.66 1.98 21 3 C19.329375 3.4021875 19.329375 3.4021875 17.625 3.8125 C13.78159049 4.65809019 13.78159049 4.65809019 12 8 C12.99 7.34 13.98 6.68 15 6 C17.19140625 5.734375 17.19140625 5.734375 19.5625 5.75 C20.74005859 5.74226562 20.74005859 5.74226562 21.94140625 5.734375 C24 6 24 6 26 8 C26.13525391 10.61376953 26.13525391 10.61376953 25.9765625 13.8828125 C25.925 15.04941406 25.8734375 16.21601563 25.8203125 17.41796875 C25.75585938 18.64128906 25.69140625 19.86460937 25.625 21.125 C25.53992188 22.97158203 25.53992188 22.97158203 25.453125 24.85546875 C25.31132317 27.90420806 25.15988027 30.95216388 25 34 C23.56443998 34.48755935 22.12808795 34.97278711 20.69140625 35.45703125 C19.49173218 35.86272339 19.49173218 35.86272339 18.26782227 36.27661133 C8.53336825 39.381702 0.11845248 38.39095954 -9 34 C-10.43509221 31.12981559 -10.11158506 28.66456277 -10.09765625 25.4609375 C-10.09443359 24.15898437 -10.09121094 22.85703125 -10.08789062 21.515625 C-10.07953466 20.13541601 -10.07106971 18.75520768 -10.0625 17.375 C-10.05748501 15.98698074 -10.0529221 14.59895978 -10.04882812 13.2109375 C-10.03700976 9.80724868 -10.02053434 6.40364561 -10 3 C-8.35 2.67 -6.7 2.34 -5 2 C-5.57584432 4.38564077 -6.22227595 6.66682784 -7 9 C-6.4225 8.484375 -5.845 7.96875 -5.25 7.4375 C-3 6 -3 6 -0.875 6.1875 C1 7 1 7 3 9 C3.30599063 11.56916657 3.51087087 14.04758384 3.625 16.625 C3.66367188 17.33140625 3.70234375 18.0378125 3.7421875 18.765625 C3.83647724 20.50998524 3.91932891 22.25495691 4 24 C0.26512223 23.5020163 -1.81237635 23.12508244 -5 21 C-3.87970983 22.48273699 -2.75361382 23.96108886 -1.625 25.4375 C-0.99851562 26.26121094 -0.37203125 27.08492188 0.2734375 27.93359375 C1.83753904 30.08528092 1.83753904 30.08528092 4 31 C7.8996908 31.25432766 10.79261124 31.35208509 14 29 C16.16026765 26.0929357 16.16026765 26.0929357 18 23 C18.66 22.01 19.32 21.02 20 20 C19.34 19.67 18.68 19.34 18 19 C17.690625 19.9590625 17.690625 19.9590625 17.375 20.9375 C16 23 16 23 12.875 23.75 C11.451875 23.87375 11.451875 23.87375 10 24 C10 23.01 10 22.02 10 21 C8.35 20.67 6.7 20.34 5 20 C4.98582031 19.19175781 4.97164062 18.38351562 4.95703125 17.55078125 C4.91384796 10.51070878 4.91384796 10.51070878 1.4375 4.75 C0.633125 4.1725 -0.17125 3.595 -1 3 C-0.67 2.01 -0.34 1.02 0 0 Z " fill="#ECECEC" transform="translate(89,246)"/>
<path d="M0 0 C3.3 0 6.6 0 10 0 C10 21.78 10 43.56 10 66 C6.7 66 3.4 66 0 66 C0 44.22 0 22.44 0 0 Z " fill="#0C0C0C" transform="translate(348,256)"/>
<path d="M0 0 C1.72330907 7.09326321 2.2494783 13.70968976 2 21 C-6.99147995 22.26519458 -15.93865155 23.35878726 -25 24 C-25.33923576 21.64655194 -25.67150534 19.2924516 -26 16.9375 C-26.14308594 15.95233398 -26.14308594 15.95233398 -26.2890625 14.94726562 C-26.88887674 10.59861237 -27.09127093 6.38670929 -27 2 C-17.86970027 0.09572892 -9.28145408 -0.22823248 0 0 Z " fill="#F6F6F6" transform="translate(156,339)"/>
<path d="M0 0 C3.91707941 -0.08085714 7.83249359 -0.14043614 11.75 -0.1875 C12.86117188 -0.21263672 13.97234375 -0.23777344 15.1171875 -0.26367188 C16.18710937 -0.27333984 17.25703125 -0.28300781 18.359375 -0.29296875 C19.34389648 -0.3086792 20.32841797 -0.32438965 21.34277344 -0.34057617 C24.45532436 0.05835883 25.80177592 0.78133921 28 3 C28.41002192 5.65006813 28.56073204 7.79818688 28.5 10.4375 C28.5103125 11.75621094 28.520625 13.07492187 28.53125 14.43359375 C27.91532796 18.56842333 27.23847781 19.48455498 24 22 C21.34277344 22.45410156 21.34277344 22.45410156 18.359375 22.390625 C17.28945313 22.37773437 16.21953125 22.36484375 15.1171875 22.3515625 C14.00601562 22.31804687 12.89484375 22.28453125 11.75 22.25 C10.62335938 22.23195313 9.49671875 22.21390625 8.3359375 22.1953125 C5.55692821 22.14821065 2.77835631 22.07646852 0 22 C0 14.74 0 7.48 0 0 Z " fill="#F8F8F8" transform="translate(301,266)"/>
<path d="M0 0 C3.72960366 -0.08101311 7.45744359 -0.14051069 11.1875 -0.1875 C12.24259766 -0.21263672 13.29769531 -0.23777344 14.38476562 -0.26367188 C15.91713867 -0.27817383 15.91713867 -0.27817383 17.48046875 -0.29296875 C18.41785889 -0.3086792 19.35524902 -0.32438965 20.32104492 -0.34057617 C23.56802938 0.0722137 25.41831031 1.00427459 28 3 C28.49926203 5.72578462 28.65859592 7.72863403 28.5625 10.4375 C28.56443359 12.41556641 28.56443359 12.41556641 28.56640625 14.43359375 C27.91233685 18.55197558 27.23005381 19.4887191 24 22 C21.34277344 22.45410156 21.34277344 22.45410156 18.359375 22.390625 C17.28945313 22.37773437 16.21953125 22.36484375 15.1171875 22.3515625 C14.00601562 22.31804687 12.89484375 22.28453125 11.75 22.25 C10.62335938 22.23195313 9.49671875 22.21390625 8.3359375 22.1953125 C5.55692821 22.14821065 2.77835631 22.07646852 0 22 C0 14.74 0 7.48 0 0 Z " fill="#F8F8F8" transform="translate(376,266)"/>
<path d="M0 0 C0.68578125 -0.020625 1.3715625 -0.04125 2.078125 -0.0625 C7.13193011 -0.10182922 7.13193011 -0.10182922 9.32788086 1.46508789 C11.03715112 3.81714415 10.97049363 5.24785046 10.91796875 8.13671875 C10.90830078 9.07451172 10.89863281 10.01230469 10.88867188 10.97851562 C10.86353516 11.95498047 10.83839844 12.93144531 10.8125 13.9375 C10.79219727 15.41959961 10.79219727 15.41959961 10.77148438 16.93164062 C10.73612203 19.37164231 10.68677033 21.81054719 10.625 24.25 C-2.38453866 25.92422333 -2.38453866 25.92422333 -6.375 25.25 C-9.10883893 23.11627206 -10.13636046 21.67628746 -10.7109375 18.2421875 C-10.85060977 15.33055795 -10.87512213 12.98196682 -9.1953125 10.5234375 C-6.66713941 8.75480139 -4.86788745 8.91863149 -1.8125 9 C-0.35650391 9.02320313 -0.35650391 9.02320313 1.12890625 9.046875 C3.625 9.25 3.625 9.25 5.625 10.25 C5.625 8.27 5.625 6.29 5.625 4.25 C2.325 4.25 -0.975 4.25 -4.375 4.25 C-4.705 4.91 -5.035 5.57 -5.375 6.25 C-6.695 6.25 -8.015 6.25 -9.375 6.25 C-8.16829946 -0.47304584 -6.43945721 0.04787701 0 0 Z " fill="#211A00" transform="translate(469.375,349.75)"/>
<path d="M0 0 C1.22589844 -0.01933594 2.45179688 -0.03867187 3.71484375 -0.05859375 C7.0625 0.4375 7.0625 0.4375 9.50390625 1.90234375 C11.0625 4.4375 11.0625 4.4375 11.0625 13.4375 C5.1225 13.4375 -0.8175 13.4375 -6.9375 13.4375 C-6.2775 15.7475 -5.6175 18.0575 -4.9375 20.4375 C-3.31331255 20.51840971 -1.68798255 20.57664995 -0.0625 20.625 C0.84242188 20.65980469 1.74734375 20.69460938 2.6796875 20.73046875 C3.46601562 20.63378906 4.25234375 20.53710938 5.0625 20.4375 C5.7225 19.4475 6.3825 18.4575 7.0625 17.4375 C8.3825 17.4375 9.7025 17.4375 11.0625 17.4375 C10.70857333 19.91498667 9.997681 21.54356746 8.6875 23.6875 C5.06913555 26.09974297 2.08403846 25.96550257 -2.18359375 26.06640625 C-6.14568708 25.16158777 -7.55808392 23.71079332 -9.9375 20.4375 C-10.58990061 17.53234086 -10.54879384 14.77696317 -10.4375 11.8125 C-10.44007813 11.049375 -10.44265625 10.28625 -10.4453125 9.5 C-10.3932993 6.53524787 -10.28602375 4.07129231 -8.83984375 1.44140625 C-5.8950156 -0.11264064 -3.30439629 0.00346736 0 0 Z " fill="#171200" transform="translate(550.9375,349.5625)"/>
<path d="M0 0 C0.33 0 0.66 0 1 0 C1.33 2.97 1.66 5.94 2 9 C2.66 9 3.32 9 4 9 C4 6.69 4 4.38 4 2 C6.66024486 4.66024486 7.08982158 7.0797115 8.125 10.6875 C8.47820313 11.88761719 8.83140625 13.08773437 9.1953125 14.32421875 C10.00119611 18.00546379 10.14460221 21.2451627 10 25 C9.34 24.67 8.68 24.34 8 24 C7.5875 24.825 7.175 25.65 6.75 26.5 C2.86612202 30.03079816 -0.23611324 29.51847322 -5.3203125 29.46875 C-6.20460938 29.3140625 -7.08890625 29.159375 -8 29 C-10.42479736 25.36280395 -10.38662577 23.14296518 -10.625 18.8125 C-10.69976562 17.54019531 -10.77453125 16.26789063 -10.8515625 14.95703125 C-10.90054688 13.98121094 -10.94953125 13.00539062 -11 12 C-10.34 11.67 -9.68 11.34 -9 11 C-8.67 12.98 -8.34 14.96 -8 17 C-7.01 17.33 -6.02 17.66 -5 18 C-5.33 17.34 -5.66 16.68 -6 16 C-6.039992 14.00039988 -6.04346799 11.99952758 -6 10 C-5.34 9.67 -4.68 9.34 -4 9 C-3.34 11.97 -2.68 14.94 -2 18 C-1.34 18 -0.68 18 0 18 C-0.144375 17.34773438 -0.28875 16.69546875 -0.4375 16.0234375 C-2.45325779 6.5325779 -2.45325779 6.5325779 -2 2 C-1.34 1.34 -0.68 0.68 0 0 Z " fill="#222222" transform="translate(54,217)"/>
<path d="M0 0 C2 1 2 1 2.7109375 2.93359375 C3.03964844 4.17302734 3.03964844 4.17302734 3.375 5.4375 C5.13688844 11.68013011 7.50637197 17.61201447 10.12109375 23.54296875 C11 26 11 26 11 30 C4.07 30 -2.86 30 -10 30 C-8.35802441 23.59629521 -6.52563209 17.53651701 -3.984375 11.4375 C-2.46964784 7.68674702 -1.2283032 3.85240548 0 0 Z " fill="#F1F1F1" transform="translate(453,267)"/>
<path d="M0 0 C1.22589844 -0.01933594 2.45179688 -0.03867187 3.71484375 -0.05859375 C7.0625 0.4375 7.0625 0.4375 9.50390625 2.21484375 C11.0625 4.4375 11.0625 4.4375 11.0625 8.4375 C9.7425 8.4375 8.4225 8.4375 7.0625 8.4375 C6.4025 7.1175 5.7425 5.7975 5.0625 4.4375 C1.7625 4.4375 -1.5375 4.4375 -4.9375 4.4375 C-4.9375 9.7175 -4.9375 14.9975 -4.9375 20.4375 C-1.6375 20.4375 1.6625 20.4375 5.0625 20.4375 C5.7225 18.7875 6.3825 17.1375 7.0625 15.4375 C8.3825 15.4375 9.7025 15.4375 11.0625 15.4375 C10.57251354 21.92982062 10.57251354 21.92982062 8.35546875 24.13671875 C5.60198402 25.69874671 3.77937045 25.90250005 0.625 25.9375 C-0.30183594 25.9684375 -1.22867188 25.999375 -2.18359375 26.03125 C-6.16482516 25.17288521 -7.55705667 23.71646488 -9.9375 20.4375 C-10.58982623 17.53230949 -10.54879465 14.77698476 -10.4375 11.8125 C-10.44007813 11.049375 -10.44265625 10.28625 -10.4453125 9.5 C-10.3932993 6.53524787 -10.28602375 4.07129231 -8.83984375 1.44140625 C-5.8950156 -0.11264064 -3.30439629 0.00346736 0 0 Z " fill="#191300" transform="translate(523.9375,349.5625)"/>
<path d="M0 0 C2.475 0.495 2.475 0.495 5 1 C5.33 0.67 5.66 0.34 6 0 C7.7872057 -0.15135944 9.58161876 -0.22175778 11.375 -0.25 C12.84066406 -0.28867187 12.84066406 -0.28867187 14.3359375 -0.328125 C17 0 17 0 18.64819336 1.21508789 C20.42819346 3.56538241 20.34617577 4.96033249 20.29296875 7.88671875 C20.28330078 8.82451172 20.27363281 9.76230469 20.26367188 10.72851562 C20.23853516 11.70498047 20.21339844 12.68144531 20.1875 13.6875 C20.16719727 15.16959961 20.16719727 15.16959961 20.14648438 16.68164062 C20.11112203 19.12164231 20.06177033 21.56054719 20 24 C19.01 24 18.02 24 17 24 C16.97494385 23.42967041 16.9498877 22.85934082 16.92407227 22.27172852 C16.80843451 19.70173843 16.68556376 17.13214473 16.5625 14.5625 C16.52318359 13.66466797 16.48386719 12.76683594 16.44335938 11.84179688 C16.40146484 10.98779297 16.35957031 10.13378906 16.31640625 9.25390625 C16.27974854 8.46314697 16.24309082 7.6723877 16.20532227 6.85766602 C16.19436743 4.98598559 16.19436743 4.98598559 15 4 C10.98342857 3.77081758 10.98342857 3.77081758 7 4 C4.64641749 6.35358251 4.72128096 6.92968394 4.5859375 10.1328125 C4.54726563 10.93847656 4.50859375 11.74414062 4.46875 12.57421875 C4.4378125 13.41597656 4.406875 14.25773437 4.375 15.125 C4.33632813 15.97449219 4.29765625 16.82398438 4.2578125 17.69921875 C4.16343506 19.79911684 4.08062414 21.89952891 4 24 C2.68 24 1.36 24 0 24 C0 16.08 0 8.16 0 0 Z " fill="#1D1700" transform="translate(487,350)"/>
<path d="M0 0 C6.93 0 13.86 0 21 0 C21 0.99 21 1.98 21 3 C15.06 3 9.12 3 3 3 C3 6.96 3 10.92 3 15 C8.61 15 14.22 15 20 15 C20 15.99 20 16.98 20 18 C14.39 18 8.78 18 3 18 C3 23.28 3 28.56 3 34 C2.01 34 1.02 34 0 34 C0 22.78 0 11.56 0 0 Z " fill="#020100" transform="translate(394,340)"/>
<path d="M0 0 C0.99 0 1.98 0 3 0 C3 0.66 3 1.32 3 2 C3.99 1.34 4.98 0.68 6 0 C8.33984375 -0.3359375 8.33984375 -0.3359375 10.9375 -0.375 C11.79214844 -0.40335937 12.64679688 -0.43171875 13.52734375 -0.4609375 C16 0 16 0 18.30078125 1.3828125 C20.96208732 5.48183564 20.42367215 9.48069567 20.25 14.25 C20.23195313 15.18585938 20.21390625 16.12171875 20.1953125 17.0859375 C20.14825673 19.39167015 20.08253713 21.69530945 20 24 C18.68 24 17.36 24 16 24 C15.97494385 23.42967041 15.9498877 22.85934082 15.92407227 22.27172852 C15.80843451 19.70173843 15.68556376 17.13214473 15.5625 14.5625 C15.52318359 13.66466797 15.48386719 12.76683594 15.44335938 11.84179688 C15.40146484 10.98779297 15.35957031 10.13378906 15.31640625 9.25390625 C15.27974854 8.46314697 15.24309082 7.6723877 15.20532227 6.85766602 C15.19436743 4.98598559 15.19436743 4.98598559 14 4 C9.3763786 3.48530796 9.3763786 3.48530796 5.30541992 5.26489258 C3.75004846 7.33222472 3.58466351 8.44795052 3.48828125 11.01171875 C3.45283203 11.76904297 3.41738281 12.52636719 3.38085938 13.30664062 C3.35830078 14.09232422 3.33574219 14.87800781 3.3125 15.6875 C3.27833984 16.48478516 3.24417969 17.28207031 3.20898438 18.10351562 C3.12661896 20.06851904 3.06162933 22.03423696 3 24 C2.01 24 1.02 24 0 24 C0 16.08 0 8.16 0 0 Z " fill="#191400" transform="translate(433,350)"/>
<path d="M0 0 C4.28489922 1.14263979 7.89400203 2.84665048 11.75 5 C12.11075949 9.44936709 12.11075949 9.44936709 10.5625 11.8125 C8.14780622 13.39454075 6.59702305 13.20831876 3.75 13 C2.43 13 1.11 13 -0.25 13 C-0.37375 12.030625 -0.4975 11.06125 -0.625 10.0625 C-0.934375 8.5465625 -0.934375 8.5465625 -1.25 7 C-1.91 6.67 -2.57 6.34 -3.25 6 C-3.58 7.32 -3.91 8.64 -4.25 10 C-5.24 10 -6.23 10 -7.25 10 C-7.56991247 6.48096286 -7.62169764 4.57984832 -5.6875 1.5625 C-3.25 0 -3.25 0 0 0 Z " fill="#EAEAEA" transform="translate(131.25,323)"/>
<path d="M0 0 C3.84375 0.796875 3.84375 0.796875 5.25 2.625 C6.66266816 7.09844916 6.58805144 10.61807911 4.75 14.9375 C0.82492065 17.88130951 -2.52695243 17.51562883 -7.3203125 17.46875 C-8.20460937 17.3140625 -9.08890625 17.159375 -10 17 C-12 14 -12 14 -11.6875 11.375 C-11 9 -11 9 -10 8 C-7.125 7.625 -7.125 7.625 -4 8 C-2.25 10.4375 -2.25 10.4375 -1 13 C-0.34 13.33 0.32 13.66 1 14 C0.34 13.01 -0.32 12.02 -1 11 C-0.9765625 8.30078125 -0.9765625 8.30078125 -0.625 5.3125 C-0.45871094 3.82169922 -0.45871094 3.82169922 -0.2890625 2.30078125 C-0.19367187 1.54152344 -0.09828125 0.78226563 0 0 Z " fill="#E5E5E5" transform="translate(56,229)"/>
<path d="M0 0 C2.31 0 4.62 0 7 0 C7.33675279 2.89547264 7.66951734 5.79131072 8 8.6875 C8.09539062 9.50412109 8.19078125 10.32074219 8.2890625 11.16210938 C8.73870522 15.12860052 9.13034543 19.00002463 9 23 C7.00045254 23.04254356 4.99958364 23.04080783 3 23 C1.04392603 21.04392603 1.28241231 17.55254146 0.9375 14.875 C0.76089844 13.57304687 0.58429688 12.27109375 0.40234375 10.9296875 C0.02572873 7.25129227 -0.07196124 3.69401035 0 0 Z " fill="#ECECEC" transform="translate(119,341)"/>
<path d="M0 0 C0.68578125 -0.020625 1.3715625 -0.04125 2.078125 -0.0625 C7.13193011 -0.10182922 7.13193011 -0.10182922 9.32788086 1.46508789 C11.03715112 3.81714415 10.97049363 5.24785046 10.91796875 8.13671875 C10.90830078 9.07451172 10.89863281 10.01230469 10.88867188 10.97851562 C10.86353516 11.95498047 10.83839844 12.93144531 10.8125 13.9375 C10.79219727 15.41959961 10.79219727 15.41959961 10.77148438 16.93164062 C10.73612203 19.37164231 10.68677033 21.81054719 10.625 24.25 C8.315 23.92 6.005 23.59 3.625 23.25 C3.955 22.26 4.285 21.27 4.625 20.25 C5.285 20.25 5.945 20.25 6.625 20.25 C6.295 17.61 5.965 14.97 5.625 12.25 C6.285 12.25 6.945 12.25 7.625 12.25 C7.44035634 7.90815798 7.44035634 7.90815798 5.625 4.25 C3.93891034 4.17794489 2.24999341 4.16613932 0.5625 4.1875 C-0.35660156 4.19652344 -1.27570313 4.20554687 -2.22265625 4.21484375 C-2.93292969 4.22644531 -3.64320313 4.23804688 -4.375 4.25 C-4.705 4.91 -5.035 5.57 -5.375 6.25 C-6.695 6.25 -8.015 6.25 -9.375 6.25 C-8.16829946 -0.47304584 -6.43945721 0.04787701 0 0 Z " fill="#161100" transform="translate(469.375,349.75)"/>
<path d="M0 0 C2.29013653 3.4352048 2.17842973 4.985331 2 9 C2.99 8.67 3.98 8.34 5 8 C6.89470816 7.9314505 8.7916834 7.91519628 10.6875 7.9375 C11.68136719 7.94652344 12.67523438 7.95554687 13.69921875 7.96484375 C14.83810547 7.98224609 14.83810547 7.98224609 16 8 C17.32870256 15.80612754 17.32870256 23.19387246 16 31 C15.67 31 15.34 31 15 31 C14.34 24.07 13.68 17.14 13 10 C2.11 10.495 2.11 10.495 -9 11 C-8.67 9.35 -8.34 7.7 -8 6 C-7.21625 6.04125 -6.4325 6.0825 -5.625 6.125 C-2.83883881 6.28728734 -2.83883881 6.28728734 -1 4 C-0.3574765 1.93125966 -0.3574765 1.93125966 0 0 Z " fill="#1C1B16" transform="translate(143,329)"/>
<path d="M0 0 C0.99 0.33 1.98 0.66 3 1 C-3.2293578 11.21100917 -3.2293578 11.21100917 -8 13 C-12.12910567 13.41291057 -13.4913604 13.33909307 -17 11 C-16.67 9.35 -16.34 7.7 -16 6 C-14.77023438 5.85304688 -14.77023438 5.85304688 -13.515625 5.703125 C-12.43796875 5.55359375 -11.3603125 5.4040625 -10.25 5.25 C-9.18265625 5.11078125 -8.1153125 4.9715625 -7.015625 4.828125 C-3.60025402 3.8902252 -2.24492337 2.68083082 0 0 Z " fill="#383838" transform="translate(107,265)"/>
<path d="M0 0 C1.97265625 0.265625 1.97265625 0.265625 4.97265625 2.265625 C5.16015625 5.390625 5.16015625 5.390625 4.97265625 8.265625 C2.61919229 9.44235698 1.09205295 9.43186366 -1.52734375 9.453125 C-2.32140625 9.46730469 -3.11546875 9.48148437 -3.93359375 9.49609375 C-6.02734375 9.265625 -6.02734375 9.265625 -8.02734375 7.265625 C-8.27734375 4.765625 -8.27734375 4.765625 -8.02734375 2.265625 C-5.42029477 -0.34142398 -3.55396134 0.02657167 0 0 Z " fill="#F0BF05" transform="translate(471.02734375,361.734375)"/>
<path d="M0 0 C-0.53115106 4.51478398 -2.36620292 7.34666857 -5 11 C-8.18609925 10.64598897 -9.79066678 10.16972964 -12.3125 8.125 C-14 6 -14 6 -14 3 C-12.4188708 2.49307308 -10.83498617 1.99473557 -9.25 1.5 C-7.92742187 1.08234375 -7.92742187 1.08234375 -6.578125 0.65625 C-4 0 -4 0 0 0 Z " fill="#EDEDED" transform="translate(113,283)"/>
<path d="M0 0 C1.32 0 2.64 0 4 0 C4 7.92 4 15.84 4 24 C2.68 24 1.36 24 0 24 C0 16.08 0 8.16 0 0 Z " fill="#241D00" transform="translate(421,350)"/>
<path d="M0 0 C1.3303125 0.00773437 1.3303125 0.00773437 2.6875 0.015625 C3.574375 0.01046875 4.46125 0.0053125 5.375 0 C7.6875 0.265625 7.6875 0.265625 9.6875 2.265625 C9.6875 3.915625 9.6875 5.565625 9.6875 7.265625 C5.0675 7.265625 0.4475 7.265625 -4.3125 7.265625 C-4.3125 0.49535473 -4.3125 0.49535473 0 0 Z " fill="#DFB204" transform="translate(548.3125,352.734375)"/>
<path d="M0 0 C6.47943884 -0.36676069 6.47943884 -0.36676069 8.7121582 1.20629883 C10.4055913 3.56490603 10.34543669 5.00098205 10.29296875 7.88671875 C10.28330078 8.82451172 10.27363281 9.76230469 10.26367188 10.72851562 C10.23853516 11.70498047 10.21339844 12.68144531 10.1875 13.6875 C10.17396484 14.67556641 10.16042969 15.66363281 10.14648438 16.68164062 C10.11112203 19.12164231 10.06177033 21.56054719 10 24 C9.01 24 8.02 24 7 24 C6.67 17.73 6.34 11.46 6 5 C3.69 4.01 1.38 3.02 -1 2 C-0.67 1.34 -0.34 0.68 0 0 Z " fill="#060500" transform="translate(497,350)"/>
<path d="M0 0 C4.38889325 0.66498383 7.9811485 2.18757677 12 4 C10.92598892 6.91517292 10.22189824 8.77810176 8 11 C6.125 11 6.125 11 4 10 C1.06644827 6.33306034 0 4.76869466 0 0 Z " fill="#EDEDED" transform="translate(81,283)"/>
<path d="M0 0 C0.99 0 1.98 0 3 0 C3 0.99 3 1.98 3 3 C3.66 3 4.32 3 5 3 C4.84152588 3.57524414 4.68305176 4.15048828 4.51977539 4.74316406 C4.02086674 6.90939777 3.80111676 8.89322683 3.68359375 11.109375 C3.64169922 11.86347656 3.59980469 12.61757813 3.55664062 13.39453125 C3.49766602 14.56048828 3.49766602 14.56048828 3.4375 15.75 C3.39431641 16.54277344 3.35113281 17.33554687 3.30664062 18.15234375 C3.20097009 20.10137815 3.10002034 22.05066748 3 24 C2.01 24 1.02 24 0 24 C0 16.08 0 8.16 0 0 Z " fill="#050400" transform="translate(433,350)"/>
<path d="M0 0 C2.51912388 0.33588318 3.67196119 0.57354954 5.25 2.625 C6.29715848 5.94100187 6.37036804 8.54323162 6 12 C4 14.4375 4 14.4375 2 16 C-0.79496066 13.20503934 -0.66104876 10.86404416 -1 7 C-0.67 6.01 -0.34 5.02 0 4 C0 2.68 0 1.36 0 0 Z " fill="#ECECEC" transform="translate(56,229)"/>
<path d="M0 0 C0.33 0 0.66 0 1 0 C1 3.96 1 7.92 1 12 C2.98 12 4.96 12 7 12 C6.67 13.65 6.34 15.3 6 17 C4.72125 17.12375 3.4425 17.2475 2.125 17.375 C-1.34790936 17.69042399 -1.34790936 17.69042399 -4 20 C-5.70884005 18.37660195 -7.37446717 16.70680947 -9 15 C-9 14.34 -9 13.68 -9 13 C-6.03 13.99 -3.06 14.98 0 16 C-0.33 15.01 -0.66 14.02 -1 13 C-1.09357692 11.14772748 -1.12993909 9.2921282 -1.125 7.4375 C-1.12757812 6.46683594 -1.13015625 5.49617188 -1.1328125 4.49609375 C-1 2 -1 2 0 0 Z " fill="#222221" transform="translate(93,254)"/>
<path d="M0 0 C1.953125 0.7109375 1.953125 0.7109375 4 2 C4.609375 4.1640625 4.609375 4.1640625 4.75 6.625 C4.80671875 7.44226563 4.8634375 8.25953125 4.921875 9.1015625 C4.94765625 9.72804688 4.9734375 10.35453125 5 11 C2.0280615 9.87548273 -0.33440687 8.77706209 -3 7 C-3.375 4.5 -3.375 4.5 -3 2 C-2.01 1.34 -1.02 0.68 0 0 Z " fill="#E8B905" transform="translate(114,351)"/>
<path d="M0 0 C0.33 0 0.66 0 1 0 C1 15.84 1 31.68 1 48 C0.67 48 0.34 48 0 48 C-0.33 35.13 -0.66 22.26 -1 9 C-1.99 9.495 -1.99 9.495 -3 10 C-2.01 6.7 -1.02 3.4 0 0 Z " fill="#DADADA" transform="translate(549,274)"/>
<path d="M0 0 C9.06574394 -0.62283737 9.06574394 -0.62283737 12.625 1.75 C14 4 14 4 14 8 C12.68 8 11.36 8 10 8 C9.64808594 7.03320312 9.64808594 7.03320312 9.2890625 6.046875 C8.18838927 3.7922092 8.18838927 3.7922092 5.8359375 3.390625 C4.61777344 3.32101562 4.61777344 3.32101562 3.375 3.25 C2.14910156 3.16492188 2.14910156 3.16492188 0.8984375 3.078125 C0.27195312 3.05234375 -0.35453125 3.0265625 -1 3 C-0.67 2.01 -0.34 1.02 0 0 Z " fill="#171200" transform="translate(521,350)"/>
<path d="M0 0 C2.31 0 4.62 0 7 0 C8.32870256 7.80612754 8.32870256 15.19387246 7 23 C6.67 23 6.34 23 6 23 C5.34 15.74 4.68 8.48 4 1 C2.68 0.67 1.36 0.34 0 0 Z " fill="#2C260D" transform="translate(152,337)"/>
<path d="M0 0 C1.32 0 2.64 0 4 0 C3.51097653 6.47956094 3.51097653 6.47956094 1.3125 8.71875 C-1.57315882 10.31756097 -3.47288952 10.30453966 -6.75 10.1875 C-7.73484375 10.16042969 -8.7196875 10.13335937 -9.734375 10.10546875 C-10.48203125 10.07066406 -11.2296875 10.03585937 -12 10 C-12 9.67 -12 9.34 -12 9 C-8.7 9 -5.4 9 -2 9 C-1.7834375 7.88625 -1.7834375 7.88625 -1.5625 6.75 C-1.09812508 4.47972261 -0.58136431 2.24240521 0 0 Z " fill="#392D00" transform="translate(531,365)"/>
<path d="M0 0 C2.66024486 2.66024486 3.08982158 5.0797115 4.125 8.6875 C4.47820313 9.88761719 4.83140625 11.08773437 5.1953125 12.32421875 C6.00119611 16.00546379 6.14460221 19.2451627 6 23 C3.54537391 20.54537391 3.25734488 18.32512778 2.5078125 15.01171875 C2.03007675 12.87233148 2.03007675 12.87233148 0.875 10.5 C-0.37820274 6.91942075 -0.12822643 3.78267959 0 0 Z " fill="#494948" transform="translate(58,219)"/>
<path d="M0 0 C3.63 0 7.26 0 11 0 C10.34 1.32 9.68 2.64 9 4 C6.69 4 4.38 4 2 4 C1.34 2.68 0.68 1.36 0 0 Z " fill="#EFEFEF" transform="translate(91,272)"/>
<path d="M0 0 C1.2065625 0.0309375 1.2065625 0.0309375 2.4375 0.0625 C2.4375 0.3925 2.4375 0.7225 2.4375 1.0625 C5.4075 1.5575 5.4075 1.5575 8.4375 2.0625 C8.4375 2.3925 8.4375 2.7225 8.4375 3.0625 C5.36132812 3.35546875 5.36132812 3.35546875 2.28515625 3.6484375 C1.67542969 3.78507812 1.06570313 3.92171875 0.4375 4.0625 C0.1075 4.7225 -0.2225 5.3825 -0.5625 6.0625 C-1.8825 6.0625 -3.2025 6.0625 -4.5625 6.0625 C-3.48963568 0.08511307 -3.48963568 0.08511307 0 0 Z " fill="#302600" transform="translate(464.5625,349.9375)"/>
<path d="M0 0 C1.32 0.33 2.64 0.66 4 1 C3.01 1 2.02 1 1 1 C1.33 5.29 1.66 9.58 2 14 C1.67 14 1.34 14 1 14 C0.67 15.65 0.34 17.3 0 19 C-0.33 19 -0.66 19 -1 19 C-1.33 15.04 -1.66 11.08 -2 7 C-1.67 7 -1.34 7 -1 7 C-0.67 4.69 -0.34 2.38 0 0 Z " fill="#4E4E4E" transform="translate(128,340)"/>
<path d="M0 0 C0.33 0 0.66 0 1 0 C1 3.96 1 7.92 1 12 C2.98 12 4.96 12 7 12 C6.34 13.32 5.68 14.64 5 16 C5 15.01 5 14.02 5 13 C3.68 13 2.36 13 1 13 C0.67 13.99 0.34 14.98 0 16 C-1.03354508 12.89936477 -1.13364996 10.68555932 -1.125 7.4375 C-1.12757812 6.46683594 -1.13015625 5.49617188 -1.1328125 4.49609375 C-1 2 -1 2 0 0 Z " fill="#343434" transform="translate(93,254)"/>
<path d="M0 0 C0.33 0 0.66 0 1 0 C1.33 3.3 1.66 6.6 2 10 C1.34 10 0.68 10 0 10 C0 11.65 0 13.3 0 15 C-0.33 15 -0.66 15 -1 15 C-1.22134176 12.87631556 -1.42670007 10.75095976 -1.625 8.625 C-1.74101563 7.44164062 -1.85703125 6.25828125 -1.9765625 5.0390625 C-1.98429687 4.03617188 -1.99203125 3.03328125 -2 2 C-1.34 1.34 -0.68 0.68 0 0 Z " fill="#343434" transform="translate(54,217)"/>
<path d="M0 0 C0.33 0 0.66 0 1 0 C1.33 1.98 1.66 3.96 2 6 C3.32 6 4.64 6 6 6 C6 6.66 6 7.32 6 8 C6.66 8.33 7.32 8.66 8 9 C5.36 9.66 2.72 10.32 0 11 C-0.19406478 9.35492782 -0.38007935 7.70890406 -0.5625 6.0625 C-0.66691406 5.14597656 -0.77132812 4.22945312 -0.87890625 3.28515625 C-0.91886719 2.53105469 -0.95882812 1.77695313 -1 1 C-0.67 0.67 -0.34 0.34 0 0 Z " fill="#303030" transform="translate(44,228)"/>
<path d="M0 0 C1.79275866 3.11910856 2.34290718 5.67682428 2.625 9.25 C2.69976562 10.14203125 2.77453125 11.0340625 2.8515625 11.953125 C2.92503906 12.96632812 2.92503906 12.96632812 3 14 C2.34 14 1.68 14 1 14 C-1.02907167 10.6853333 -1.12742133 8.5684021 -0.625 4.75 C-0.51414063 3.85796875 -0.40328125 2.9659375 -0.2890625 2.046875 C-0.19367187 1.37140625 -0.09828125 0.6959375 0 0 Z " fill="#E4E4E4" transform="translate(51,221)"/>
<path d="M0 0 C0.99 0 1.98 0 3 0 C3.33 3.3 3.66 6.6 4 10 C3.01 9.67 2.02 9.34 1 9 C-0.4783226 6.04335481 -0.06032783 3.25770263 0 0 Z " fill="#E0E0E0" transform="translate(55,217)"/>
<path d="M0 0 C0 0.66 0 1.32 0 2 C-1.62212059 2.52973311 -3.24781584 3.04853107 -4.875 3.5625 C-5.77992187 3.85253906 -6.68484375 4.14257812 -7.6171875 4.44140625 C-10 5 -10 5 -12 4 C-12.33 3.34 -12.66 2.68 -13 2 C-11.39658445 1.66307215 -9.79223445 1.33058907 -8.1875 1 C-7.29417969 0.814375 -6.40085937 0.62875 -5.48046875 0.4375 C-3 0 -3 0 0 0 Z " fill="#343434" transform="translate(112,281)"/>
<path d="M0 0 C4.34464536 0.60825035 8.67551867 1.26167392 13 2 C13 2.33 13 2.66 13 3 C11.58566794 3.2236337 10.16832382 3.42826476 8.75 3.625 C7.96109375 3.74101562 7.1721875 3.85703125 6.359375 3.9765625 C3.67847541 4.00319395 2.27305911 3.36592084 0 2 C0 1.34 0 0.68 0 0 Z " fill="#393939" transform="translate(84,282)"/>
<path d="M0 0 C0.99 0 1.98 0 3 0 C3.33 2.64 3.66 5.28 4 8 C3.01 7.67 2.02 7.34 1 7 C-0.1875 3.9375 -0.1875 3.9375 -1 1 C-0.67 0.67 -0.34 0.34 0 0 Z " fill="#B0B0B0" transform="translate(40,229)"/>
<path d="M0 0 C1.4540625 0.0309375 1.4540625 0.0309375 2.9375 0.0625 C2.9375 1.0525 2.9375 2.0425 2.9375 3.0625 C-0.0325 3.7225 -3.0025 4.3825 -6.0625 5.0625 C-3.56765464 0.07280928 -3.56765464 0.07280928 0 0 Z " fill="#4B4B4B" transform="translate(107.0625,248.9375)"/>
<path d="M0 0 C0.37125 0.45375 0.7425 0.9075 1.125 1.375 C3.54264685 3.47029394 5.95430602 4.12013285 9 5 C9 5.33 9 5.66 9 6 C3.375 6.25 3.375 6.25 0 4 C0 2.68 0 1.36 0 0 Z " fill="#454545" transform="translate(90,272)"/>
<path d="M0 0 C0.33 2.64 0.66 5.28 1 8 C-0.32 7.67 -1.64 7.34 -3 7 C-3 5.02 -3 3.04 -3 1 C-1 0 -1 0 0 0 Z " fill="#E5E5E5" transform="translate(48,227)"/>
<path d="M0 0 C1.32 0 2.64 0 4 0 C4.33 1.32 4.66 2.64 5 4 C2.69 4 0.38 4 -2 4 C-1.34 3.67 -0.68 3.34 0 3 C0 2.01 0 1.02 0 0 Z " fill="#010101" transform="translate(94,267)"/>
</svg>
