<?xml version="1.0" encoding="UTF-8"?>
<svg version="1.1" xmlns="http://www.w3.org/2000/svg" width="286" height="117">
<path d="M0 0 C94.38 0 188.76 0 286 0 C286 34.98 286 69.96 286 106 C191.62 106 97.24 106 0 106 C0 71.02 0 36.04 0 0 Z " fill="#AA0202" transform="translate(0,0)"/>
<path d="M0 0 C3.85544798 1.99657127 5.59805092 3.39707638 8 7 C8.48256365 11.26264558 8.26873267 13.49132744 6.25 17.3125 C3.5705235 20.51298582 1.71791137 21.73463158 -2.40234375 22.37109375 C-9.28888017 22.55148068 -9.28888017 22.55148068 -13.0625 19.625 C-16.13790459 15.45832282 -16.47603715 12.60833351 -16.39453125 7.48828125 C-16 5 -16 5 -13.625 1.875 C-9.4324219 -0.91674039 -4.83017967 -0.86253208 0 0 Z " fill="#FBF5F5" transform="translate(107,48)"/>
<path d="M0 0 C16.20535714 -0.80357143 16.20535714 -0.80357143 20.5 2.5 C22.68547784 4.92004483 23.44014898 6.81528372 23.625 10.0625 C23.01081319 13.93187689 22.47003273 16.00067455 20 19 C16.24466845 21.65082227 12.14816486 21.22524055 7.75 21.125 C5.1925 21.08375 2.635 21.0425 0 21 C0 14.07 0 7.14 0 0 Z " fill="#F8E9E9" transform="translate(109,73)"/>
<path d="M0 0 C8 0 8 0 10.53125 1.96875 C11.1809375 2.8040625 11.830625 3.639375 12.5 4.5 C13.50546875 5.75296875 13.50546875 5.75296875 14.53125 7.03125 C15.25828125 8.00578125 15.25828125 8.00578125 16 9 C16.33 6.03 16.66 3.06 17 0 C19.31 0 21.62 0 24 0 C24 6.93 24 13.86 24 21 C17 21 17 21 14.56640625 19.25 C13.90511719 18.5075 13.24382812 17.765 12.5625 17 C11.88316406 16.2575 11.20382813 15.515 10.50390625 14.75 C10.00761719 14.1725 9.51132813 13.595 9 13 C8.67 15.97 8.34 18.94 8 22 C5.36 22 2.72 22 0 22 C0 14.74 0 7.48 0 0 Z " fill="#F9EDED" transform="translate(82,73)"/>
<path d="M0 0 C1.875 2.125 1.875 2.125 3 5 C2.6875 8.3125 2.6875 8.3125 2 11 C-2.2290066 12.23802525 -6.45714287 13.37231522 -10.74511719 14.39379883 C-21.9169399 17.07519953 -31.60683765 20.45183314 -41.46875 26.51171875 C-44 28 -44 28 -47 29 C-46.67944785 25.90667176 -46.32336035 24.3461614 -44.171875 22.04296875 C-34.5024651 14.6349531 -24.57995659 8.52004506 -13.5 3.5 C-12.35144531 2.9740625 -12.35144531 2.9740625 -11.1796875 2.4375 C-4.05639152 -0.68366149 -4.05639152 -0.68366149 0 0 Z " fill="#F8EAEA" transform="translate(78,28)"/>
<path d="M0 0 C7 0 7 0 9.43359375 1.96875 C10.42552734 3.22171875 10.42552734 3.22171875 11.4375 4.5 C12.45650391 5.75296875 12.45650391 5.75296875 13.49609375 7.03125 C13.99238281 7.6809375 14.48867187 8.330625 15 9 C15.33 6.03 15.66 3.06 16 0 C18.31 0 20.62 0 23 0 C23 6.93 23 13.86 23 21 C16 21 16 21 13.85546875 19.28515625 C13.30503906 18.55167969 12.75460938 17.81820312 12.1875 17.0625 C9.99488299 14.0486635 9.99488299 14.0486635 7 12 C7 15.3 7 18.6 7 22 C4.69 22 2.38 22 0 22 C0 14.74 0 7.48 0 0 Z " fill="#FAF2F2" transform="translate(170,73)"/>
<path d="M0 0 C0.495 1.98 0.495 1.98 1 4 C-9.7636817 14.40597626 -27.39603324 25.84810324 -42.5625 28.4375 C-45 28 -45 28 -47.375 25.75 C-49 23 -49 23 -48.875 20.8125 C-48 19 -48 19 -46 17 C-44.21484375 16.54296875 -44.21484375 16.54296875 -41.9375 16.1875 C-26.97369083 13.36698345 -12.73750374 8.49166916 0 0 Z " fill="#FAF0F0" transform="translate(61,46)"/>
<path d="M0 0 C2.31 0 4.62 0 7 0 C7 2.64 7 5.28 7 8 C9.97 8 12.94 8 16 8 C16 5.36 16 2.72 16 0 C18.31 0 20.62 0 23 0 C23 7.26 23 14.52 23 22 C20.69 22 18.38 22 16 22 C16 19.36 16 16.72 16 14 C13.03 14 10.06 14 7 14 C7 16.64 7 19.28 7 22 C4.69 22 2.38 22 0 22 C0 14.74 0 7.48 0 0 Z " fill="#FBF5F5" transform="translate(170,48)"/>
<path d="M0 0 C2.64 0 5.28 0 8 0 C8.33 4.95 8.66 9.9 9 15 C10.65 15.33 12.3 15.66 14 16 C15.99616554 14.00383446 15.40983427 10.18298037 15.5625 7.4375 C15.60568359 6.72658203 15.64886719 6.01566406 15.69335938 5.28320312 C15.79971777 3.52238088 15.90038846 1.7612168 16 0 C18.64 0 21.28 0 24 0 C24.10883596 2.37625177 24.18766696 4.74743976 24.25 7.125 C24.30027344 8.12273438 24.30027344 8.12273438 24.3515625 9.140625 C24.45198524 14.26218475 23.28686443 17.11014965 20 21 C16.83800849 22.05399717 14.38539814 22.23445913 11.0625 22.3125 C10.02222656 22.34988281 8.98195313 22.38726562 7.91015625 22.42578125 C4.29820938 21.89732191 3.20961743 20.84533102 1 18 C-0.2062252 14.38132441 -0.10816918 11.07493749 -0.0625 7.3125 C-0.05798828 6.61060547 -0.05347656 5.90871094 -0.04882812 5.18554688 C-0.03706927 3.45699462 -0.01913454 1.72848635 0 0 Z " fill="#F8ECEC" transform="translate(117,48)"/>
<path d="M0 0 C1.8975 -0.061875 3.795 -0.12375 5.75 -0.1875 C7.35101563 -0.23970703 7.35101563 -0.23970703 8.984375 -0.29296875 C12.32860393 0.03192396 13.66540011 0.62050396 16 3 C16.25 5.6875 16.25 5.6875 16 8 C15.34 8 14.68 8 14 8 C14.495 8.53625 14.99 9.0725 15.5 9.625 C17.45562482 12.72140596 17.60024477 14.39853135 17 18 C15.25 20.375 15.25 20.375 12 22 C7.936582 22.32760977 4.08995439 22.17977822 0 22 C0 14.74 0 7.48 0 0 Z " fill="#F4DEDE" transform="translate(204,73)"/>
<path d="M0 0 C3.3 0 6.6 0 10 0 C11.17261226 3.10203804 12.33828932 6.20638167 13.5 9.3125 C13.83386719 10.19357422 14.16773438 11.07464844 14.51171875 11.98242188 C14.82753906 12.82998047 15.14335937 13.67753906 15.46875 14.55078125 C15.90864258 15.72120972 15.90864258 15.72120972 16.35742188 16.9152832 C17 19 17 19 17 22 C15.02 22 13.04 22 11 22 C10.67 20.68 10.34 19.36 10 18 C8.35333797 18.1135629 6.70763918 18.24117381 5.0625 18.375 C3.68771484 18.47941406 3.68771484 18.47941406 2.28515625 18.5859375 C1.53105469 18.72257812 0.77695313 18.85921875 0 19 C-0.33 19.66 -0.66 20.32 -1 21 C-2.98 21 -4.96 21 -7 21 C-6.31876833 17.18650724 -5.29267528 13.60945717 -4.0625 9.9375 C-3.72347656 8.91527344 -3.38445312 7.89304687 -3.03515625 6.83984375 C-2 4 -2 4 0 0 Z " fill="#F8EBEB" transform="translate(151,73)"/>
<path d="M0 0 C10 0 20 0 30 0 C30 1.98 30 3.96 30 6 C30.33 4.02 30.66 2.04 31 0 C32.79093191 -0.08086147 34.58289628 -0.13912702 36.375 -0.1875 C37.87160156 -0.23970703 37.87160156 -0.23970703 39.3984375 -0.29296875 C40.25695312 -0.19628906 41.11546875 -0.09960938 42 0 C42.66 0.99 43.32 1.98 44 3 C44.33 2.01 44.66 1.02 45 0 C49.62 0 54.24 0 59 0 C58.01 0.33 57.02 0.66 56 1 C56 1.66 56 2.32 56 3 C56.99 3.33 57.98 3.66 59 4 C58.01 4 57.02 4 56 4 C56 4.99 56 5.98 56 7 C56.99 7.33 57.98 7.66 59 8 C57.35 8 55.7 8 54 8 C53.505 5.03 53.505 5.03 53 2 C52.01 2 51.02 2 50 2 C50 3.32 50 4.64 50 6 C50.99 6 51.98 6 53 6 C53 6.66 53 7.32 53 8 C51.54257537 8.08096803 50.08387193 8.13917774 48.625 8.1875 C47.81289062 8.22230469 47.00078125 8.25710937 46.1640625 8.29296875 C45.44992188 8.19628906 44.73578125 8.09960938 44 8 C43.34 7.01 42.68 6.02 42 5 C41.67 5.99 41.34 6.98 41 8 C33.33333333 8 25.66666667 8 18 8 C17.67 7.01 17.34 6.02 17 5 C16.01 5 15.02 5 14 5 C14 5.99 14 6.98 14 8 C9.33333333 8 4.66666667 8 0 8 C0 5.36 0 2.72 0 0 Z M2 1 C2 2.98 2 4.96 2 7 C3.32 7 4.64 7 6 7 C7.01111093 3.95086772 7.01111093 3.95086772 6 1 C4.68 1 3.36 1 2 1 Z M11 1 C10.3185177 2.89179203 10.3185177 2.89179203 10 5 C10.66 5.66 11.32 6.32 12 7 C12 5.02 12 3.04 12 1 C11.67 1 11.34 1 11 1 Z M14 1 C14.33 1.99 14.66 2.98 15 4 C15 3.01 15 2.02 15 1 C14.67 1 14.34 1 14 1 Z M20 1 C20 2.98 20 4.96 20 7 C21.32 7 22.64 7 24 7 C24 5.02 24 3.04 24 1 C22.68 1 21.36 1 20 1 Z M26 1 C26.33 1.99 26.66 2.98 27 4 C27 3.01 27 2.02 27 1 C26.67 1 26.34 1 26 1 Z M35 1 C35 1.66 35 2.32 35 3 C36.32 3 37.64 3 39 3 C39 2.34 39 1.68 39 1 C37.68 1 36.36 1 35 1 Z M35 4 C35 4.99 35 5.98 35 7 C36.32 7 37.64 7 39 7 C39 6.01 39 5.02 39 4 C37.68 4 36.36 4 35 4 Z " fill="#AA0000" transform="translate(69,109)"/>
<path d="M0 0 C0.66 0 1.32 0 2 0 C1.67680293 3.06772298 1.31796462 4.65294058 -0.79296875 6.95703125 C-10.35455744 14.36609264 -22.68985583 23.34486326 -34.8125 25.5 C-37.79369155 24.81858479 -39.06253868 23.29625045 -41 21 C-40.505 19.515 -40.505 19.515 -40 18 C-38.0234375 17.04296875 -38.0234375 17.04296875 -35.375 16.1875 C-16.44986073 10.40606559 -16.44986073 10.40606559 0 0 Z " fill="#F8EBEB" transform="translate(60,58)"/>
<path d="M0 0 C0.33 0 0.66 0 1 0 C1.89896631 13.77493 1.96152315 27.22802993 1 41 C-1.65619631 39.67190184 -1.69534417 38.58474385 -2.65625 35.81640625 C-2.95660156 34.97142578 -3.25695312 34.12644531 -3.56640625 33.25585938 C-3.87449219 32.36705078 -4.18257812 31.47824219 -4.5 30.5625 C-5.10942472 28.81199762 -5.72378943 27.06320503 -6.34375 25.31640625 C-6.61380859 24.53724854 -6.88386719 23.75809082 -7.16210938 22.95532227 C-7.93497269 20.81740555 -7.93497269 20.81740555 -10 19 C-9.98251781 16.08047432 -9.86055367 13.27702115 -9.625 10.375 C-9.56828125 9.57320312 -9.5115625 8.77140625 -9.453125 7.9453125 C-9.31152018 5.96284502 -9.15697741 3.98130949 -9 2 C-6.94921875 1.77213542 -4.8984375 1.54427083 -2.84765625 1.31640625 C-0.98859771 1.18113386 -0.98859771 1.18113386 0 0 Z " fill="#AB0303" transform="translate(168,52)"/>
<path d="M0 0 C1.875 1.3125 1.875 1.3125 3 3 C2.8371582 4.99853516 2.8371582 4.99853516 2 7 C0.14916992 8.00146484 0.14916992 8.00146484 -2.26953125 8.7109375 C-3.15302246 8.98309082 -4.03651367 9.25524414 -4.94677734 9.53564453 C-6.36531006 9.95112549 -6.36531006 9.95112549 -7.8125 10.375 C-18.99269701 13.8705782 -28.53009767 18.00050697 -38 25 C-38.66 25 -39.32 25 -40 25 C-38.86546067 18.78704654 -34.12283438 15.47121401 -29.13671875 12.015625 C-25.80672014 9.9176039 -22.43485374 7.9196138 -19 6 C-18.38012207 5.65308105 -17.76024414 5.30616211 -17.12158203 4.94873047 C-15.25885052 3.92228829 -13.38394715 2.92438904 -11.5 1.9375 C-10.3759375 1.34839844 -9.251875 0.75929688 -8.09375 0.15234375 C-4.75509443 -1.09122114 -3.32143397 -1.15017855 0 0 Z " fill="#FAF0F0" transform="translate(71,20)"/>
<path d="M0 0 C2.28125 1.0234375 2.28125 1.0234375 4 2 C4 3.65 4 5.3 4 7 C-0.455 6.01 -0.455 6.01 -5 5 C-3.80088421 8.59734737 -3.17816321 8.62681067 0.0625 10.25 C2.2421875 11.5390625 2.2421875 11.5390625 4 13 C4.67333406 16.55030687 4.9154298 18.62527151 2.87109375 21.6953125 C0.07079125 23.64792426 -2.25864944 23.32464192 -5.625 23.25 C-7.37683594 23.22679687 -7.37683594 23.22679687 -9.1640625 23.203125 C-12 23 -12 23 -13 22 C-13.04080783 20.00041636 -13.04254356 17.99954746 -13 16 C-8.05 16.99 -8.05 16.99 -3 18 C-3 17.01 -3 16.02 -3 15 C-4.0828125 14.9071875 -4.0828125 14.9071875 -5.1875 14.8125 C-8.95971495 13.72274901 -10.5742702 12.04948889 -13 9 C-13.7209359 5.71573647 -13.33066713 4.53194277 -11.5625 1.6875 C-7.8481979 -0.75850382 -4.33608493 -0.6565199 0 0 Z " fill="#FAF1F1" transform="translate(84,47)"/>
<path d="M0 0 C7.92 0 15.84 0 24 0 C24 1.98 24 3.96 24 6 C21.36 6 18.72 6 16 6 C16 11.28 16 16.56 16 22 C13.36 22 10.72 22 8 22 C8 16.72 8 11.44 8 6 C5.36 6 2.72 6 0 6 C0 4.02 0 2.04 0 0 Z " fill="#F8EBEB" transform="translate(143,48)"/>
<path d="M0 0 C0.33 0 0.66 0 1 0 C1 1.98 1 3.96 1 6 C1.66 6 2.32 6 3 6 C3.14695312 7.01320313 3.14695312 7.01320313 3.296875 8.046875 C3.94106465 11.88979948 4.51945873 15.17907533 6.5 18.5625 C10.4215057 20.81736578 14.54301992 20.82988626 19 21 C18.67 21.99 18.34 22.98 18 24 C15.69 24 13.38 24 11 24 C11 27.3 11 30.6 11 34 C4.25 28.375 4.25 28.375 2 25 C0.03638136 24.42251197 0.03638136 24.42251197 -2.125 24.3125 C-3.40375 24.209375 -4.6825 24.10625 -6 24 C-6 23.67 -6 23.34 -6 23 C-7.98 22.67 -9.96 22.34 -12 22 C-12 21.67 -12 21.34 -12 21 C-11.37351562 20.95101562 -10.74703125 20.90203125 -10.1015625 20.8515625 C-9.28429687 20.77679688 -8.46703125 20.70203125 -7.625 20.625 C-6.40683594 20.52058594 -6.40683594 20.52058594 -5.1640625 20.4140625 C-2.79665809 20.17107412 -2.79665809 20.17107412 -1 18 C-0.1655408 14.6288837 -0.1655408 14.6288837 -1 11 C-2.98110822 9.37791358 -4.95569838 8.27184316 -7.25 7.140625 C-7.8275 6.76421875 -8.405 6.3878125 -9 6 C-9 5.01 -9 4.02 -9 3 C-2.25 3.875 -2.25 3.875 0 5 C0 3.35 0 1.7 0 0 Z " fill="#B21A1A" transform="translate(88,49)"/>
<path d="M0 0 C0.33 0 0.66 0 1 0 C1 7.26 1 14.52 1 22 C3.31 22 5.62 22 8 22 C8 19.36 8 16.72 8 14 C10.97 14 13.94 14 17 14 C17 16.64 17 19.28 17 22 C19.31 22 21.62 22 24 22 C24 14.74 24 7.48 24 0 C24.33 0 24.66 0 25 0 C25.0289337 3.79165074 25.04677601 7.58327327 25.0625 11.375 C25.07087891 12.45523438 25.07925781 13.53546875 25.08789062 14.6484375 C25.09272461 16.1953125 25.09272461 16.1953125 25.09765625 17.7734375 C25.10551147 19.20308838 25.10551147 19.20308838 25.11352539 20.66162109 C25 23 25 23 24 25 C21.69 25 19.38 25 17 25 C17 28.3 17 31.6 17 35 C14.23763375 32.92822531 12.11190387 31.16039555 10.125 28.3125 C7.28824848 25.22544687 5.06649522 25.38363162 1 25 C-0.27861615 22.44276771 -0.11336609 20.63262898 -0.09765625 17.7734375 C-0.09443359 16.7421875 -0.09121094 15.7109375 -0.08789062 14.6484375 C-0.07951172 13.56820312 -0.07113281 12.48796875 -0.0625 11.375 C-0.05798828 10.28703125 -0.05347656 9.1990625 -0.04882812 8.078125 C-0.03701776 5.38536211 -0.02054778 2.69270812 0 0 Z " fill="#B82B2B" transform="translate(169,48)"/>
<path d="M0 0 C0.66 0 1.32 0 2 0 C2 1.32 2 2.64 2 4 C0.13605677 5.79377843 -1.60813745 7.24611222 -3.6875 8.75 C-4.26822266 9.18030518 -4.84894531 9.61061035 -5.44726562 10.05395508 C-21.97968538 22.12626966 -21.97968538 22.12626966 -26.6875 21.83203125 C-29 21 -29 21 -32 19 C-31.67 17.35 -31.34 15.7 -31 14 C-26.545 13.505 -26.545 13.505 -22 13 C-22 12.34 -22 11.68 -22 11 C-20.948125 10.649375 -19.89625 10.29875 -18.8125 9.9375 C-12.93790842 7.75037688 -4.47574565 4.47574565 0 0 Z " fill="#F7E7E7" transform="translate(61,69)"/>
<path d="M0 0 C0.69416016 -0.020625 1.38832031 -0.04125 2.10351562 -0.0625 C4.12109375 -0.078125 4.12109375 -0.078125 7.5625 0.25 C8.2225 1.24 8.8825 2.23 9.5625 3.25 C9.8925 2.26 10.2225 1.27 10.5625 0.25 C15.1825 0.25 19.8025 0.25 24.5625 0.25 C24.5625 1.9 24.5625 3.55 24.5625 5.25 C25.2225 3.6 25.8825 1.95 26.5625 0.25 C27.5525 0.25 28.5425 0.25 29.5625 0.25 C30.81914978 3.15600261 31.5625 5.04604584 31.5625 8.25 C30.9025 8.25 30.2425 8.25 29.5625 8.25 C29.5625 7.59 29.5625 6.93 29.5625 6.25 C28.5725 6.25 27.5825 6.25 26.5625 6.25 C26.5625 6.91 26.5625 7.57 26.5625 8.25 C25.758125 8.064375 24.95375 7.87875 24.125 7.6875 C22.8565625 7.4709375 22.8565625 7.4709375 21.5625 7.25 C21.2325 7.58 20.9025 7.91 20.5625 8.25 C18.75437276 8.40091913 16.93919383 8.47169008 15.125 8.5 C14.13628906 8.52578125 13.14757812 8.5515625 12.12890625 8.578125 C11.28199219 8.46984375 10.43507812 8.3615625 9.5625 8.25 C8.9025 7.26 8.2425 6.27 7.5625 5.25 C7.2325 6.24 6.9025 7.23 6.5625 8.25 C4.27108714 8.30384521 1.97931812 8.34272087 -0.3125 8.375 C-2.22675781 8.40980469 -2.22675781 8.40980469 -4.1796875 8.4453125 C-7.4375 8.25 -7.4375 8.25 -9.4375 6.25 C-8.60604519 -0.56792946 -6.20842499 0.04586094 0 0 Z M-5.4375 1.25 C-6.0975 2.57 -6.7575 3.89 -7.4375 5.25 C-5.4575 6.24 -5.4575 6.24 -3.4375 7.25 C-3.4375 6.59 -3.4375 5.93 -3.4375 5.25 C-2.7775 4.92 -2.1175 4.59 -1.4375 4.25 C-1.4375 3.59 -1.4375 2.93 -1.4375 2.25 C-2.7575 1.92 -4.0775 1.59 -5.4375 1.25 Z M0.5625 1.25 C0.5625 1.91 0.5625 2.57 0.5625 3.25 C1.8825 3.25 3.2025 3.25 4.5625 3.25 C4.5625 2.59 4.5625 1.93 4.5625 1.25 C3.2425 1.25 1.9225 1.25 0.5625 1.25 Z M14.5625 1.25 C14.5625 3.23 14.5625 5.21 14.5625 7.25 C15.8825 7.25 17.2025 7.25 18.5625 7.25 C18.5625 5.27 18.5625 3.29 18.5625 1.25 C17.2425 1.25 15.9225 1.25 14.5625 1.25 Z M20.5625 1.25 C20.8925 2.24 21.2225 3.23 21.5625 4.25 C21.5625 3.26 21.5625 2.27 21.5625 1.25 C21.2325 1.25 20.9025 1.25 20.5625 1.25 Z M27.5625 3.25 C28.5625 5.25 28.5625 5.25 28.5625 5.25 Z M0.5625 4.25 C0.5625 5.24 0.5625 6.23 0.5625 7.25 C1.8825 7.25 3.2025 7.25 4.5625 7.25 C4.5625 6.26 4.5625 5.27 4.5625 4.25 C3.2425 4.25 1.9225 4.25 0.5625 4.25 Z " fill="#AA0000" transform="translate(168.4375,108.75)"/>
<path d="M0 0 C1.8125 1.4375 1.8125 1.4375 3 3 C3 3.66 3 4.32 3 5 C2.16597656 5.31453125 1.33195312 5.6290625 0.47265625 5.953125 C-9.18549518 9.62609897 -18.18521304 13.2970674 -26.93359375 18.828125 C-29 20 -29 20 -31 20 C-30.11721479 14.21711718 -25.44409516 11.33307137 -21 8 C-5.84756869 -1.71148352 -5.84756869 -1.71148352 0 0 Z " fill="#F8EAEA" transform="translate(62,13)"/>
<path d="M0 0 C1.65 0 3.3 0 5 0 C5 3.96 5 7.92 5 12 C5.66 12 6.32 12 7 12 C7.309375 11.360625 7.61875 10.72125 7.9375 10.0625 C9 8 9 8 10 7 C11.66617115 6.95936168 13.33388095 6.957279 15 7 C14.2265625 8.0828125 14.2265625 8.0828125 13.4375 9.1875 C11.76669358 11.8562818 11.76669358 11.8562818 12.1875 14.5625 C12.94985707 16.8495712 13.83028886 18.89451994 15 21 C12.75 21.3125 12.75 21.3125 10 21 C7.6875 18.5 7.6875 18.5 6 16 C5.67 17.65 5.34 19.3 5 21 C3.35 21 1.7 21 0 21 C0 14.07 0 7.14 0 0 Z " fill="#F0D4D4" transform="translate(258,73)"/>
<path d="M0 0 C2.64 0 5.28 0 8 0 C8 7.26 8 14.52 8 22 C5.36 22 2.72 22 0 22 C0 14.74 0 7.48 0 0 Z " fill="#F3DBDB" transform="translate(134,73)"/>
<path d="M0 0 C2.64 0 5.28 0 8 0 C8.02887814 3.47914941 8.04675687 6.95826831 8.0625 10.4375 C8.07087891 11.43072266 8.07925781 12.42394531 8.08789062 13.44726562 C8.09111328 14.39150391 8.09433594 15.33574219 8.09765625 16.30859375 C8.10289307 17.18314209 8.10812988 18.05769043 8.11352539 18.95874023 C8 21 8 21 7 22 C4.69 22 2.38 22 0 22 C0 14.74 0 7.48 0 0 Z " fill="#F3DCDC" transform="translate(71,73)"/>
<path d="M0 0 C0.495 2.475 0.495 2.475 1 5 C0.34 4.34 -0.32 3.68 -1 3 C-1.680625 3.43570313 -2.36125 3.87140625 -3.0625 4.3203125 C-9.06254786 8.00651212 -14.9862789 11.00469277 -21.5625 13.5 C-22.25279297 13.76699707 -22.94308594 14.03399414 -23.65429688 14.30908203 C-28.6221356 16.1259548 -28.6221356 16.1259548 -32 15 C-28.29025876 10.93627582 -24.62879811 8.37911277 -19.75 5.875 C-19.0890332 5.53025635 -18.42806641 5.1855127 -17.74707031 4.83032227 C-5.0290986 -1.6763662 -5.0290986 -1.6763662 0 0 Z " fill="#B11616" transform="translate(62,44)"/>
<path d="M0 0 C2 2 2 2 2.1953125 4.3828125 C2.17210937 5.28773437 2.14890625 6.19265625 2.125 7.125 C2.10695312 8.03507812 2.08890625 8.94515625 2.0703125 9.8828125 C2.04710937 10.58148438 2.02390625 11.28015625 2 12 C2.66 12 3.32 12 4 12 C4 12.99 4 13.98 4 15 C1.85423363 15.02685938 -0.29162645 15.04633088 -2.4375 15.0625 C-3.63246094 15.07410156 -4.82742187 15.08570312 -6.05859375 15.09765625 C-9 15 -9 15 -10 14 C-10.04063832 12.33382885 -10.042721 10.66611905 -10 9 C-4.25 6 -4.25 6 -2 6 C-2 5.34 -2 4.68 -2 4 C-4.64 4.33 -7.28 4.66 -10 5 C-9.625 3.0625 -9.625 3.0625 -9 1 C-5.98675805 -0.50662097 -3.31713623 -0.17770373 0 0 Z " fill="#FBF5F5" transform="translate(234,79)"/>
<path d="M0 0 C1.32 0 2.64 0 4 0 C5.02480469 -0.05220703 5.02480469 -0.05220703 6.0703125 -0.10546875 C8.04561402 -0.1843306 10.02543505 -0.09554347 12 0 C12.66 0.99 13.32 1.98 14 3 C14.33 2.01 14.66 1.02 15 0 C17.97 0 20.94 0 24 0 C24 0.66 24 1.32 24 2 C22.35 2 20.7 2 19 2 C19 3.32 19 4.64 19 6 C19.66 5.67 20.32 5.34 21 5 C22.32860925 4.64830932 23.66158328 4.31229724 25 4 C25 5.32 25 6.64 25 8 C23.20906809 8.08086147 21.41710372 8.13912702 19.625 8.1875 C18.12839844 8.23970703 18.12839844 8.23970703 16.6015625 8.29296875 C15.74304688 8.19628906 14.88453125 8.09960938 14 8 C13.34 7.01 12.68 6.02 12 5 C11.67 5.99 11.34 6.98 11 8 C7.33333333 8 3.66666667 8 0 8 C0 5.36 0 2.72 0 0 Z M6 1 C5.34 2.32 4.68 3.64 4 5 C5.485 5.99 5.485 5.99 7 7 C7 5.02 7 3.04 7 1 C6.67 1 6.34 1 6 1 Z " fill="#AA0000" transform="translate(249,109)"/>
<path d="M0 0 C9.1796875 -0.1953125 9.1796875 -0.1953125 12 0 C14 2 14 2 14.1953125 4.8203125 C14.16050781 6.45613281 14.16050781 6.45613281 14.125 8.125 C14.10695312 9.22070312 14.08890625 10.31640625 14.0703125 11.4453125 C14.04710937 12.28835937 14.02390625 13.13140625 14 14 C12.35 14 10.7 14 9 14 C9 10.37 9 6.74 9 3 C7.68 3.33 6.36 3.66 5 4 C4.67 7.3 4.34 10.6 4 14 C2.68 14 1.36 14 0 14 C0 9.38 0 4.76 0 0 Z " fill="#F3DCDC" transform="translate(241,80)"/>
<path d="M0 0 C1.9375 0.375 1.9375 0.375 4 1 C4.33 1.66 4.66 2.32 5 3 C5.33 2.01 5.66 1.02 6 0 C12.66666667 0 19.33333333 0 26 0 C25.01 0.495 25.01 0.495 24 1 C24 3.31 24 5.62 24 8 C23.34 8 22.68 8 22 8 C22 5.69 22 3.38 22 1 C21.01 1 20.02 1 19 1 C19.33 3.31 19.66 5.62 20 8 C18.68 8 17.36 8 16 8 C14.65035156 8.05220703 14.65035156 8.05220703 13.2734375 8.10546875 C11.83871094 8.14607422 11.83871094 8.14607422 10.375 8.1875 C9.41335937 8.22230469 8.45171875 8.25710937 7.4609375 8.29296875 C6.24277344 8.14794922 6.24277344 8.14794922 5 8 C4.34 7.01 3.68 6.02 3 5 C2.67 5.99 2.34 6.98 2 8 C1.34 8 0.68 8 0 8 C0 5.36 0 2.72 0 0 Z M10 1 C10 2.98 10 4.96 10 7 C11.32 7 12.64 7 14 7 C14.33 5.35 14.66 3.7 15 2 C13.35 1.67 11.7 1.34 10 1 Z " fill="#AA0000" transform="translate(131,109)"/>
<path d="M0 0 C1.98 0 3.96 0 6 0 C6.33 1.32 6.66 2.64 7 4 C7.66 2.68 8.32 1.36 9 0 C9.99 0 10.98 0 12 0 C12.33 0.99 12.66 1.98 13 3 C13.33 2.01 13.66 1.02 14 0 C14.99 0 15.98 0 17 0 C17.33 0.66 17.66 1.32 18 2 C18.33 1.34 18.66 0.68 19 0 C19.66 0 20.32 0 21 0 C21 2.64 21 5.28 21 8 C19.68 7.34 18.36 6.68 17 6 C16.67 6.66 16.34 7.32 16 8 C14.68 8 13.36 8 12 8 C12 7.34 12 6.68 12 6 C11.01 6 10.02 6 9 6 C9 6.66 9 7.32 9 8 C6.03 8 3.06 8 0 8 C0 5.36 0 2.72 0 0 Z M3 1 C4 3 4 3 4 3 Z M10 3 C11 5 11 5 11 5 Z M3 4 C3.33 4.99 3.66 5.98 4 7 C4 6.01 4 5.02 4 4 C3.67 4 3.34 4 3 4 Z " fill="#AA0000" transform="translate(227,109)"/>
<path d="M0 0 C7 0 14 0 21 0 C21.33 0.66 21.66 1.32 22 2 C22.33 1.34 22.66 0.68 23 0 C23.66 0 24.32 0 25 0 C25 2.64 25 5.28 25 8 C23.68 7.34 22.36 6.68 21 6 C20.67 6.66 20.34 7.32 20 8 C15.66666667 8 11.33333333 8 7 8 C7 5.69 7 3.38 7 1 C6.34 1 5.68 1 5 1 C5 3.31 5 5.62 5 8 C4.34 8 3.68 8 3 8 C3 5.69 3 3.38 3 1 C2.01 0.67 1.02 0.34 0 0 Z M13 1 C12.34 2.32 11.68 3.64 11 5 C12.485 5.99 12.485 5.99 14 7 C14.66 5.68 15.32 4.36 16 3 C15.01 2.34 14.02 1.68 13 1 Z " fill="#AA0000" transform="translate(199,109)"/>
<path d="M0 0 C0.33 1.32 0.66 2.64 1 4 C-10.90083587 14.75303951 -10.90083587 14.75303951 -16.1875 15.375 C-19 15 -19 15 -22 13 C-22 12.34 -22 11.68 -22 11 C-21.33355469 10.70867187 -20.66710938 10.41734375 -19.98046875 10.1171875 C-13.12411319 7.06778741 -6.53811903 3.68006313 0 0 Z " fill="#F6E6E6" transform="translate(61,80)"/>
<path d="M0 0 C0.99 0.66 1.98 1.32 3 2 C3 2.66 3 3.32 3 4 C1.74896484 4.43699219 1.74896484 4.43699219 0.47265625 4.8828125 C-6.03528435 7.25340255 -11.70510035 9.74754145 -17.29296875 13.86328125 C-19 15 -19 15 -21 15 C-21 13.68 -21 12.36 -21 11 C-18.69921875 8.7109375 -18.69921875 8.7109375 -15.6875 6.375 C-14.70136719 5.59898438 -13.71523438 4.82296875 -12.69921875 4.0234375 C-8.05594318 0.54266073 -5.85201627 -0.41800116 0 0 Z " fill="#FAF0F0" transform="translate(52,8)"/>
<path d="M0 0 C2.5 0.25 2.5 0.25 4.5 2.25 C4.75 5.25 4.75 5.25 4.5 8.25 C2.5 10.25 2.5 10.25 0 10.5625 C-1.2375 10.4078125 -1.2375 10.4078125 -2.5 10.25 C-4.64915785 7.02626323 -4.88286803 5.98296326 -4.5 2.25 C-2.5 0.25 -2.5 0.25 0 0 Z " fill="#B42020" transform="translate(102.5,53.75)"/>
<path d="M0 0 C-0.7734375 1.0828125 -0.7734375 1.0828125 -1.5625 2.1875 C-3.23330642 4.8562818 -3.23330642 4.8562818 -2.8125 7.5625 C-2.05014293 9.8495712 -1.16971114 11.89451994 0 14 C-2.25 14.3125 -2.25 14.3125 -5 14 C-7.375 11.875 -7.375 11.875 -9 9 C-8.93510666 5.75533303 -8.5508354 3.8262531 -6.75 1.125 C-4.41786614 -0.37422891 -2.71628175 -0.22023906 0 0 Z " fill="#F5E3E3" transform="translate(273,80)"/>
<path d="M0 0 C0.33 0 0.66 0 1 0 C1 1.98 1 3.96 1 6 C1.66 6 2.32 6 3 6 C3.36923077 12.4 3.36923077 12.4 1.5 15.4375 C1.005 15.953125 0.51 16.46875 0 17 C-0.185625 15.9275 -0.37125 14.855 -0.5625 13.75 C-1.23076135 11.30960856 -1.6966266 10.2431191 -3.69140625 8.64453125 C-5.41659751 7.67912119 -7.20599015 6.83056012 -9 6 C-9 5.01 -9 4.02 -9 3 C-2.25 3.875 -2.25 3.875 0 5 C0 3.35 0 1.7 0 0 Z " fill="#BB3333" transform="translate(88,49)"/>
<path d="M0 0 C1.04005702 3.38018531 1.08004482 6.4780279 1 10 C-1.73247348 11.36623674 -3.98198902 11.128426 -7 11 C-8 10 -8 10 -8.0625 7.4375 C-8.041875 6.633125 -8.02125 5.82875 -8 5 C-2.25 2 -2.25 2 0 2 C0 1.34 0 0.68 0 0 Z " fill="#E8BABA" transform="translate(232,83)"/>
<path d="M0 0 C0.66 0.33 1.32 0.66 2 1 C1.67 1.33 1.34 1.66 1 2 C1.66 2.66 2.32 3.32 3 4 C-16.84154176 11.9245182 -16.84154176 11.9245182 -23 10 C-23 9.67 -23 9.34 -23 9 C-22.42894531 8.85304688 -21.85789062 8.70609375 -21.26953125 8.5546875 C-14.7032947 6.7382723 -8.7892837 4.13148485 -2.6875 1.109375 C-1.800625 0.74328125 -0.91375 0.3771875 0 0 Z " fill="#B41F1F" transform="translate(39,65)"/>
<path d="M0 0 C1.99954746 -0.04254356 4.00041636 -0.04080783 6 0 C7 1 7 1 7.1875 4.4375 C7 8 7 8 5 10 C3.35 10 1.7 10 0 10 C0 6.7 0 3.4 0 0 Z " fill="#AE0C0C" transform="translate(117,79)"/>
<path d="M0 0 C6 1 6 1 9 3 C7.68 3.33 6.36 3.66 5 4 C4.67 7.3 4.34 10.6 4 14 C2.68 14 1.36 14 0 14 C0 9.38 0 4.76 0 0 Z " fill="#F6E6E6" transform="translate(241,80)"/>
<path d="M0 0 C0.33 0.99 0.66 1.98 1 3 C-0.45449401 4.0055761 -1.91372443 5.00430435 -3.375 6 C-4.59316406 6.8353125 -4.59316406 6.8353125 -5.8359375 7.6875 C-8 9 -8 9 -10 9 C-10.1875 5.625 -10.1875 5.625 -10 2 C-6.3558226 -0.4294516 -4.28758728 -0.16179575 0 0 Z " fill="#F4E0E0" transform="translate(41,5)"/>
<path d="M0 0 C0.125 3.375 0.125 3.375 0 7 C-2 9 -2 9 -3.9453125 9.1953125 C-5.96354167 9.13020833 -7.98177083 9.06510417 -10 9 C-10.33 8.01 -10.66 7.02 -11 6 C-9.35577799 4.99735282 -7.70957779 3.99794896 -6.0625 3 C-5.14597656 2.443125 -4.22945312 1.88625 -3.28515625 1.3125 C-1 0 -1 0 0 0 Z " fill="#F7E8E8" transform="translate(62,89)"/>
<path d="M0 0 C0 0.66 0 1.32 0 2 C-4.95 3.98 -9.9 5.96 -15 8 C-15 7.34 -15 6.68 -15 6 C-16.98 6.33 -18.96 6.66 -21 7 C-17.49415743 4.66277162 -13.92449951 3.58766828 -9.9375 2.375 C-9.20466797 2.14554688 -8.47183594 1.91609375 -7.71679688 1.6796875 C-2.27280971 0 -2.27280971 0 0 0 Z " fill="#B92F2F" transform="translate(73,27)"/>
<path d="M0 0 C0.66 0.33 1.32 0.66 2 1 C0.1875 3.5 0.1875 3.5 -2 6 C-2.99 6 -3.98 6 -5 6 C-5 6.66 -5 7.32 -5 8 C-8.375 8.625 -8.375 8.625 -12 9 C-12.66 8.34 -13.32 7.68 -14 7 C-11.71296692 5.80274117 -9.42115138 4.61702982 -7.125 3.4375 C-6.14853516 2.92413086 -6.14853516 2.92413086 -5.15234375 2.40039062 C-3.46470143 1.53917109 -1.73420407 0.76313297 0 0 Z " fill="#B41F1F" transform="translate(44,74)"/>
<path d="M0 0 C-4.23513217 3.96189783 -8.547001 5.43181728 -14 7 C-13.5 4.6875 -13.5 4.6875 -12 2 C-7.93687097 -0.37165021 -4.55146487 -1.48994141 0 0 Z " fill="#B21919" transform="translate(64,20)"/>
<path d="M0 0 C0.66 0.33 1.32 0.66 2 1 C0.7954483 3.97122753 -0.24053164 5.65527677 -3.203125 7 C-5.45586752 7.73674598 -7.70515269 8.40824692 -10 9 C-10 8.01 -10 7.02 -10 6 C-7.8828125 4.359375 -7.8828125 4.359375 -5.125 2.75 C-3.76761719 1.93789062 -3.76761719 1.93789062 -2.3828125 1.109375 C-1.20332031 0.56023437 -1.20332031 0.56023437 0 0 Z " fill="#BB3333" transform="translate(50,82)"/>
<path d="M0 0 C2.31 0 4.62 0 7 0 C6.67 1.65 6.34 3.3 6 5 C4.02 5 2.04 5 0 5 C0 3.35 0 1.7 0 0 Z " fill="#B52121" transform="translate(209,86)"/>
<path d="M0 0 C-7.71428571 6 -7.71428571 6 -11 6 C-11 5.34 -11 4.68 -11 4 C-11.66 3.67 -12.32 3.34 -13 3 C-11.40084119 2.30093058 -9.79544955 1.61610532 -8.1875 0.9375 C-7.29417969 0.55464844 -6.40085937 0.17179688 -5.48046875 -0.22265625 C-3 -1 -3 -1 0 0 Z " fill="#B93030" transform="translate(55,13)"/>
<path d="M0 0 C0.66 0.33 1.32 0.66 2 1 C0.35 2.65 -1.3 4.3 -3 6 C-2.67 6.66 -2.34 7.32 -2 8 C-5.75 11 -5.75 11 -8 11 C-8 7 -8 7 -6.25 5.078125 C-5.5075 4.47484375 -4.765 3.8715625 -4 3.25 C-3.2575 2.63640625 -2.515 2.0228125 -1.75 1.390625 C-1.1725 0.93171875 -0.595 0.4728125 0 0 Z " fill="#EECDCD" transform="translate(39,12)"/>
<path d="M0 0 C0.66 0.33 1.32 0.66 2 1 C1.59007812 1.47050781 1.18015625 1.94101562 0.7578125 2.42578125 C-0.05042969 3.35970703 -0.05042969 3.35970703 -0.875 4.3125 C-1.40867187 4.92738281 -1.94234375 5.54226562 -2.4921875 6.17578125 C-4.1640447 8.13498212 -4.1640447 8.13498212 -6 11 C-6.66 11 -7.32 11 -8 11 C-7.91433603 8.087425 -7.42089045 6.43201976 -5.375 4.33203125 C-3.61608625 2.83908228 -1.83686981 1.39563738 0 0 Z " fill="#EFD1D1" transform="translate(39,46)"/>
<path d="M0 0 C0.66 0.33 1.32 0.66 2 1 C1.875 2.875 1.875 2.875 1 5 C-2.0625 6.25 -2.0625 6.25 -5 7 C-5.66 6.34 -6.32 5.68 -7 5 C-4.69 3.35 -2.38 1.7 0 0 Z " fill="#B72727" transform="translate(56,88)"/>
<path d="M0 0 C0.33 0 0.66 0 1 0 C1.33 5.61 1.66 11.22 2 17 C0.35 17.33 -1.3 17.66 -3 18 C-2.68289062 17.31550781 -2.36578125 16.63101563 -2.0390625 15.92578125 C-0.85883043 12.60249621 -0.58802755 9.70245465 -0.375 6.1875 C-0.30023438 5.02605469 -0.22546875 3.86460938 -0.1484375 2.66796875 C-0.09945312 1.78753906 -0.05046875 0.90710937 0 0 Z " fill="#B52323" transform="translate(116,48)"/>
<path d="M0 0 C0.66 0.33 1.32 0.66 2 1 C0.02 2.98 -1.96 4.96 -4 7 C-3.67 7.66 -3.34 8.32 -3 9 C-4.65 9.66 -6.3 10.32 -8 11 C-7.43040847 7.37386801 -6.07625466 5.74482259 -3.4375 3.25 C-2.79683594 2.63640625 -2.15617187 2.0228125 -1.49609375 1.390625 C-1.00238281 0.93171875 -0.50867187 0.4728125 0 0 Z " fill="#EFD0D0" transform="translate(39,34)"/>
<path d="M0 0 C0.33 0.99 0.66 1.98 1 3 C1.66 2.67 2.32 2.34 3 2 C4.99960012 1.960008 7.00047242 1.95653201 9 2 C9 2.66 9 3.32 9 4 C6.69 4.66 4.38 5.32 2 6 C2 5.34 2 4.68 2 4 C1.34 4 0.68 4 0 4 C0 2.68 0 1.36 0 0 Z " fill="#B11717" transform="translate(223,81)"/>
<path d="M0 0 C0 0.33 0 0.66 0 1 C-1.65 1.33 -3.3 1.66 -5 2 C-4.34 2.66 -3.68 3.32 -3 4 C-5.31 4.33 -7.62 4.66 -10 5 C-9.625 3.0625 -9.625 3.0625 -9 1 C-6.04335481 -0.4783226 -3.25770263 -0.06032783 0 0 Z " fill="#E0A2A2" transform="translate(234,79)"/>
<path d="M0 0 C1.98 0 3.96 0 6 0 C6 1.32 6 2.64 6 4 C4.02 4 2.04 4 0 4 C0 2.68 0 1.36 0 0 Z " fill="#B11515" transform="translate(209,77)"/>
<path d="M0 0 C0.33 0.66 0.66 1.32 1 2 C-7.42857143 4.42857143 -7.42857143 4.42857143 -12 3 C-12 2.67 -12 2.34 -12 2 C-10.37787941 1.47026689 -8.75218416 0.95146893 -7.125 0.4375 C-6.22007813 0.14746094 -5.31515625 -0.14257812 -4.3828125 -0.44140625 C-2 -1 -2 -1 0 0 Z " fill="#BD3B3B" transform="translate(28,72)"/>
<path d="M0 0 C0.33 0 0.66 0 1 0 C2.10228696 4.40914783 2.07654536 8.48382401 2 13 C1.34 11.68 0.68 10.36 0 9 C-0.99 9 -1.98 9 -3 9 C-2.34 8.01 -1.68 7.02 -1 6 C-0.60986284 4.0103005 -0.26797351 2.00980131 0 0 Z " fill="#B62626" transform="translate(132,81)"/>
<path d="M0 0 C0.66 0 1.32 0 2 0 C2.33 1.98 2.66 3.96 3 6 C1.35 6 -0.3 6 -2 6 C-1.49396008 3.83125748 -1.00016187 2.00032373 0 0 Z " fill="#BE3E3E" transform="translate(155,80)"/>
<path d="M0 0 C0 0.66 0 1.32 0 2 C2.97 2.495 2.97 2.495 6 3 C6 3.33 6 3.66 6 4 C3.36 4 0.72 4 -2 4 C-2 3.34 -2 2.68 -2 2 C-4.97 2 -7.94 2 -11 2 C-11 1.67 -11 1.34 -11 1 C-9.54182203 0.83197949 -8.0834516 0.66562857 -6.625 0.5 C-5.81289062 0.4071875 -5.00078125 0.314375 -4.1640625 0.21875 C-2 0 -2 0 0 0 Z " fill="#C04343" transform="translate(136,69)"/>
<path d="M0 0 C-1.65 1.32 -3.3 2.64 -5 4 C-5.66 3.67 -6.32 3.34 -7 3 C-7 2.01 -7 1.02 -7 0 C-3.86650268 -1.04449911 -3.01031744 -0.93423645 0 0 Z " fill="#BE3E3E" transform="translate(64,20)"/>
<path d="M0 0 C0 0.66 0 1.32 0 2 C0.99 2.33 1.98 2.66 3 3 C-0.375 3.625 -0.375 3.625 -4 4 C-4.66 3.34 -5.32 2.68 -6 2 C-2.25 0 -2.25 0 0 0 Z " fill="#C34B4B" transform="translate(36,79)"/>
<path d="M0 0 C0.66 0.33 1.32 0.66 2 1 C1.0479279 2.00596297 0.08812654 3.00461563 -0.875 4 C-1.40867187 4.556875 -1.94234375 5.11375 -2.4921875 5.6875 C-4 7 -4 7 -6 7 C-4.60667426 3.63279613 -3.0210714 2.0140476 0 0 Z " fill="#ECC8C8" transform="translate(97,48)"/>
</svg>
