<?xml version="1.0" encoding="UTF-8"?><svg id="Layer_1" xmlns="http://www.w3.org/2000/svg" viewBox="0 0 512 512"><defs><style>.cls-1{fill:#d7db29;}.cls-2{fill:#1968b3;}</style></defs><polygon class="cls-2" points="28.5 215.15 28.5 228.6 41.95 228.6 41.95 261.58 59.86 261.58 59.86 228.6 73.26 228.6 73.26 215.15 28.5 215.15"/><polygon class="cls-2" points="104.57 215.15 122.59 261.58 104.18 261.58 94.97 234.4 85.81 261.58 67.29 261.58 85.42 215.15 104.57 215.15"/><polygon class="cls-2" points="118.13 215.15 118.13 228.6 131.52 228.6 131.52 261.58 149.49 261.58 149.49 228.6 162.88 228.6 162.88 215.15 118.13 215.15"/><polygon class="cls-2" points="194.25 215.15 212.27 261.58 193.8 261.58 184.59 234.4 175.39 261.58 156.97 261.58 175.05 215.15 194.25 215.15"/><path class="cls-2" d="M271.54,260.24c-1.95,1-6.42,2.06-12.17,2.06-14.84,0-23.83-9.26-23.83-23.5,0-15.35,10.72-24.67,25-24.67,5.64,0,9.54,1.17,11.27,2.06l-1.79,6.81c-2.23-1-5.36-1.79-9.21-1.79-9.49,0-16.35,5.97-16.35,17.13,0,10.27,5.97,16.69,16.24,16.69,3.4,0,7.03-.73,9.26-1.67l1.34,6.7.17.17h.06Z"/><path class="cls-2" d="M301.73,214.93h-10.88l-14.9,46.71h8.76l4.02-13.23h14.84l4.19,13.23h9.1l-15.24-46.71h.11ZM295.99,241.94h-5.97l3.68-11.55c.78-2.79,1.51-6.08,2.23-8.76h.17c.73,2.79,1.45,5.97,2.34,8.76l3.68,11.55h-6.14Z"/><path class="cls-2" d="M350.12,218.44c-2.57-2.12-6.25-3.4-11.16-3.74h-2.57c-5.64,0-9.93.33-13.06,1v46.1h8.48v-17.69c1.17.28,2.57.33,4.19.33,1,0,2.06,0,3.01-.17,4.74-.45,8.82-2.06,11.72-4.91,2.57-2.51,3.91-6.08,3.91-10.55s-1.79-8.04-4.58-10.38h.06ZM338.96,237.36c-.89.17-1.95.28-3.01.28-1.79,0-3.01-.11-4.19-.45v-15.63c.89-.28,2.57-.45,4.91-.45.78,0,1.62,0,2.34.17,4.58.61,7.26,3.29,7.26,7.76s-2.68,7.42-7.26,8.32h-.06Z"/><rect class="cls-2" x="362.12" y="214.93" width="8.48" height="46.71"/><polygon class="cls-2" points="389.35 222.07 376.07 222.07 376.07 214.93 411.23 214.93 411.23 222.07 397.84 222.07 397.84 261.58 389.35 261.58 389.35 222.07"/><path class="cls-2" d="M434.05,214.93h-10.88l-14.9,46.71h8.76l4.02-13.23h14.84l4.19,13.23h9.1l-15.24-46.71h.11ZM428.47,241.94h-5.97l3.57-11.55c.78-2.79,1.51-6.08,2.23-8.76h.17v.17c.73,2.68,1.45,5.8,2.34,8.59l3.68,11.55h-6.03Z"/><polygon class="cls-2" points="455.76 214.93 464.3 214.93 464.3 254.44 483.44 254.44 483.44 261.58 455.76 261.58 455.76 214.93"/><rect class="cls-1" x="28.5" y="282.4" width="455" height="15.46"/></svg>