<?xml version="1.0" encoding="UTF-8"?>
<svg version="1.1" xmlns="http://www.w3.org/2000/svg" width="500" height="300">
<path d="M0 0 C165 0 330 0 500 0 C500 99 500 198 500 300 C335 300 170 300 0 300 C0 201 0 102 0 0 Z " fill="#FEFEFE" transform="translate(0,0)"/>
<path d="M0 0 C6.51033938 -0.0765439 13.02056118 -0.12880571 19.53125 -0.16479492 C21.74255714 -0.17981037 23.95383485 -0.20022891 26.16503906 -0.22631836 C29.35749609 -0.26302154 32.54955675 -0.2797993 35.7421875 -0.29296875 C36.71864227 -0.30845261 37.69509705 -0.32393646 38.70114136 -0.33988953 C49.13886767 -0.34240502 58.76278643 2.40471007 67 9 C71.69706007 14.26140185 74.25475391 19.16165594 76 26 C76.41958984 24.62328125 76.41958984 24.62328125 76.84765625 23.21875 C79.82220928 14.11336581 83.10114311 6.82498568 91.4375 1.5 C97.67862544 -1.32897932 105.3174532 -0.29195593 112 0 C111.0234375 1.62760417 110.046875 3.25520833 109.0703125 4.8828125 C106.48920421 9.98850845 105.7461695 14.50076461 105.71289062 20.1953125 C105.70605759 20.88880798 105.69922455 21.58230347 105.69218445 22.29681396 C105.67866308 23.79287513 105.66956719 25.28898162 105.66447449 26.78509521 C105.65613917 29.15653306 105.63559284 31.52759428 105.61193848 33.89892578 C105.56386591 38.93256088 105.53082828 43.96623359 105.5 49 C105.46425937 54.83587545 105.42227136 60.67156487 105.36405945 66.50726318 C105.34407542 68.83706178 105.33568955 71.16671585 105.32775879 73.49658203 C105.31477989 74.93262246 105.30125863 76.36865813 105.28710938 77.8046875 C105.27981812 79.05233887 105.27252686 80.29999023 105.26501465 81.58544922 C104.9976229 85.03062747 104.23744299 87.78649361 103 91 C101.88625 90.835 100.7725 90.67 99.625 90.5 C94.68545148 89.94853525 89.77672821 89.88707107 84.8125 89.875 C84.0405127 89.87048828 83.26852539 89.86597656 82.47314453 89.86132812 C78.2048294 89.87236449 74.20362394 90.15525261 70 91 C70.18175781 90.44054687 70.36351562 89.88109375 70.55078125 89.3046875 C74.31741861 77.29008011 76.44629734 65.56332232 77 53 C66.74931625 56.18008011 57.25473646 59.45384025 48 65 C46.67306726 65.6793171 45.34180068 66.35054396 44 67 C43.6596875 65.99582031 43.319375 64.99164063 42.96875 63.95703125 C39.35558898 53.64095594 35.01942295 44.45193242 28.26171875 35.765625 C27 34 27 34 27 32 C17.14966551 41.30309369 10.32974731 54.6591312 8 68 C7.67 68 7.34 68 7 68 C6.99635437 67.33316193 6.99270874 66.66632385 6.98895264 65.97927856 C6.94695629 59.00276552 6.87749096 52.02689988 6.79248047 45.05078125 C6.7643546 42.45156345 6.74309864 39.85226145 6.72900391 37.25292969 C6.70745903 33.50412143 6.66074623 29.75631666 6.609375 26.0078125 C6.60814636 24.85636749 6.60691772 23.70492249 6.60565186 22.51858521 C6.45209207 13.94927447 4.78004451 7.17006677 0 0 Z " fill="#20987A" transform="translate(194,33)"/>
<path d="M0 0 C0.66 0 1.32 0 2 0 C3.51923428 2.05400475 4.89725051 4.08924553 6.25 6.25 C6.64968994 6.88317139 7.04937988 7.51634277 7.46118164 8.16870117 C12.79183957 16.73739896 17.32636441 24.95818645 19 35 C19.65484375 34.55269531 20.3096875 34.10539062 20.984375 33.64453125 C30.73127864 27.18789593 40.38358183 22.72190269 52 21 C52.49191253 29.37617717 51.86973595 36.94753261 50.125 45.125 C49.95129883 45.94202393 49.77759766 46.75904785 49.59863281 47.60083008 C48.75053289 51.36437148 47.82760178 54.57910436 46 58 C46.64453125 57.83886719 47.2890625 57.67773438 47.953125 57.51171875 C51.90583064 56.84786691 55.74862867 56.80919513 59.75 56.8125 C60.54970215 56.81185547 61.3494043 56.81121094 62.17333984 56.81054688 C67.7098808 56.86017161 72.66724697 57.41992503 78 59 C75.11046906 69.72168061 68.90664317 80.28426695 59.14160156 86.10839844 C45.64158571 93.4980818 33.02094708 96.30958011 17.625 93.3515625 C3.70555202 88.61733164 -6.96505087 79.72691841 -13.4375 66.6875 C-19.1823656 54.8396438 -20.10441911 41.65743699 -16.3125 28.875 C-15.58843209 26.898898 -14.8205565 24.9380249 -14 23 C-13.4740625 21.73542969 -13.4740625 21.73542969 -12.9375 20.4453125 C-10.55692273 15.2708633 -7.50556213 10.57506511 -4.3125 5.875 C-3.91973877 5.29363281 -3.52697754 4.71226563 -3.12231445 4.11328125 C-2.13560321 2.70278337 -1.07352785 1.34560072 0 0 Z " fill="#FAB62F" transform="translate(219,65)"/>
<path d="M0 0 C0.66 0 1.32 0 2 0 C3.51923529 2.05400611 4.89717533 4.08929289 6.25 6.25 C6.65041504 6.88389648 7.05083008 7.51779297 7.46337891 8.17089844 C12.96793291 17.01442518 17.44273592 25.86067223 20 36 C19.23816406 36.58394531 19.23816406 36.58394531 18.4609375 37.1796875 C9.58878064 44.39039176 5.37497205 53.24227658 2 64 C1.773125 64.69996094 1.54625 65.39992188 1.3125 66.12109375 C-0.21939019 71.40824252 -0.20188376 76.52670703 0 82 C-8.74978993 78.07307903 -13.33521739 69.16143581 -16.671875 60.55859375 C-20.67272342 48.45788443 -18.88365994 34.53443368 -14 23 C-13.4740625 21.73542969 -13.4740625 21.73542969 -12.9375 20.4453125 C-10.55692273 15.2708633 -7.50556213 10.57506511 -4.3125 5.875 C-3.91973877 5.29363281 -3.52697754 4.71226563 -3.12231445 4.11328125 C-2.13560321 2.70278337 -1.07352785 1.34560072 0 0 Z " fill="#F08E28" transform="translate(219,65)"/>
<path d="M0 0 C-2.88953094 10.72168061 -9.09335683 21.28426695 -18.85839844 27.10839844 C-32.27187384 34.450711 -45.40849432 37.69855159 -60.69140625 34.140625 C-63.21700685 33.21244156 -65.6070412 32.2260221 -68 31 C-68.66 30.67 -69.32 30.34 -70 30 C-68.35625102 20.96952723 -58.9974084 13.22422317 -52 8 C-35.99736802 -1.57930174 -18.21788178 -5.3978909 0 0 Z " fill="#FCCA34" transform="translate(297,124)"/>
<path d="M0 0 C3.38115651 -0.29036649 6.62919149 -0.44908891 10 0 C12.625 2.5 12.625 2.5 14 5 C14.928125 4.360625 15.85625 3.72125 16.8125 3.0625 C21.87839318 -0.21543088 26.11585939 -0.57332652 32 0 C35.63644512 1.4141731 38.55683037 2.91389099 41 6 C42.14294314 9.42882941 42.20964472 12.24082838 42.31640625 15.85546875 C42.33718735 16.51710526 42.35796844 17.17874176 42.37937927 17.86042786 C42.44464727 19.96934852 42.50365344 22.07839135 42.5625 24.1875 C42.60570689 25.61915315 42.64932188 27.05079404 42.69335938 28.48242188 C42.80030506 31.98815154 42.90163641 35.49401786 43 39 C43.99 39.495 43.99 39.495 45 40 C45 40.66 45 41.32 45 42 C43.39667209 42.08121924 41.79215974 42.13929134 40.1875 42.1875 C38.84751953 42.23970703 38.84751953 42.23970703 37.48046875 42.29296875 C35 42 35 42 33.37475586 40.88989258 C31.35769829 38.11702051 31.58055122 35.86957046 31.5234375 32.46875 C31.4925 31.18355469 31.4615625 29.89835937 31.4296875 28.57421875 C31.41070277 27.21615619 31.39248188 25.85808274 31.375 24.5 C31.32687367 21.84355319 31.269551 19.18750714 31.2109375 16.53125 C31.19337402 15.35111328 31.17581055 14.17097656 31.15771484 12.95507812 C31.12787905 9.94160661 31.12787905 9.94160661 30 7 C26.83350487 5.41675243 23.42541806 5.35625764 20 6 C16.78366827 7.50649733 16.78366827 7.50649733 14 10 C13.17527143 13.27236871 13.17527143 13.27236871 13.4140625 16.953125 C13.42255219 17.61334656 13.43104187 18.27356812 13.43978882 18.95379639 C13.4732715 21.05422053 13.54851479 23.15074547 13.625 25.25 C13.65510744 26.6770277 13.68248192 28.10411586 13.70703125 29.53125 C13.77303782 33.02209173 13.87651174 36.5106651 14 40 C14.99 40.33 15.98 40.66 17 41 C17 41.33 17 41.66 17 42 C11.39 42 5.78 42 0 42 C0 41.34 0 40.68 0 40 C0.99 39.505 0.99 39.505 2 39 C2 27.12 2 15.24 2 3 C1.34 2.67 0.68 2.34 0 2 C0 1.34 0 0.68 0 0 Z " fill="#F1912D" transform="translate(339,180)"/>
<path d="M0 0 C1.60332791 -0.08121924 3.20784026 -0.13929134 4.8125 -0.1875 C6.15248047 -0.23970703 6.15248047 -0.23970703 7.51953125 -0.29296875 C10 0 10 0 11.62744141 1.11230469 C13.63937259 3.87933633 13.40251208 6.10298508 13.44140625 9.49609375 C13.46783203 10.77677734 13.49425781 12.05746094 13.52148438 13.37695312 C13.53637241 14.73045592 13.55003181 16.08397275 13.5625 17.4375 C13.59390911 20.08252743 13.63954711 22.72627736 13.69140625 25.37109375 C13.70373291 26.54599365 13.71605957 27.72089355 13.72875977 28.93139648 C13.98718625 31.85503511 14.47393403 33.5325371 16 36 C17.37313591 36.10985087 18.74894513 36.18641991 20.125 36.25 C20.89070313 36.29640625 21.65640625 36.3428125 22.4453125 36.390625 C26.14291047 35.82524305 28.13894567 34.38324078 31 32 C31.82395384 28.82591435 31.82395384 28.82591435 31.5859375 25.265625 C31.56660156 23.97011719 31.54726562 22.67460937 31.52734375 21.33984375 C31.477215 19.97653835 31.42642536 18.61325711 31.375 17.25 C31.34489131 15.87115135 31.31751703 14.4922401 31.29296875 13.11328125 C31.22221326 9.74060269 31.12351802 6.37109173 31 3 C30.34 2.67 29.68 2.34 29 2 C29 1.34 29 0.68 29 0 C34.28 0 39.56 0 45 0 C45 0.66 45 1.32 45 2 C44.34 2.33 43.68 2.66 43 3 C43 14.88 43 26.76 43 39 C43.99 39.495 43.99 39.495 45 40 C45 40.66 45 41.32 45 42 C43.39667209 42.08121924 41.79215974 42.13929134 40.1875 42.1875 C38.84751953 42.23970703 38.84751953 42.23970703 37.48046875 42.29296875 C35 42 35 42 33.17578125 40.61328125 C32 39 32 39 32 37 C31.10861328 37.54140625 31.10861328 37.54140625 30.19921875 38.09375 C23.82352582 41.66334479 18.31353313 43.43515171 11 42 C7.61906632 40.3466492 5.57539774 38.14867546 3.87353516 34.7512207 C2.83171643 31.46998671 2.67689184 28.60907469 2.5859375 25.16796875 C2.54726562 23.87568359 2.50859375 22.58339844 2.46875 21.25195312 C2.43729986 19.89714005 2.40605239 18.54232225 2.375 17.1875 C2.3367825 15.81312728 2.2977286 14.43877756 2.2578125 13.06445312 C2.16364596 9.70977011 2.078018 6.35509107 2 3 C1.34 2.67 0.68 2.34 0 2 C0 1.34 0 0.68 0 0 Z " fill="#F1902B" transform="translate(116,180)"/>
<path d="M0 0 C1.98 0 3.96 0 6 0 C7.35640319 3.14487336 8.7096932 6.2910781 10.0625 9.4375 C10.47008545 10.38294678 10.8776709 11.32839355 11.29760742 12.30249023 C13.25595067 16.86175212 15.1879878 21.42566315 17.015625 26.0390625 C17.32105225 26.80549072 17.62647949 27.57191895 17.94116211 28.36157227 C18.50805897 29.79350705 19.06663173 31.22877483 19.61547852 32.66772461 C21.29699516 36.90076227 22.62403826 38.62403826 26 42 C22.04 42 18.08 42 14 42 C9.125 32.375 9.125 32.375 8 29 C3.05 29 -1.9 29 -7 29 C-8.32 32.63 -9.64 36.26 -11 40 C-10.01 40.33 -9.02 40.66 -8 41 C-8 41.33 -8 41.66 -8 42 C-11.3 42 -14.6 42 -18 42 C-18 40 -18 40 -16.60061646 38.59510803 C-16.07241302 38.06872238 -15.54420959 37.54233673 -15 37 C-13.80389796 34.38341341 -12.71541221 31.79969276 -11.6796875 29.12109375 C-11.37555939 28.35322037 -11.07143127 27.58534698 -10.75808716 26.79420471 C-9.78970249 24.34479502 -8.83211278 21.89133335 -7.875 19.4375 C-6.90837527 16.98108231 -5.93960392 14.52551996 -4.9704895 12.07008362 C-4.36864615 10.5428126 -3.76871353 9.014787 -3.17086792 7.48594666 C-1.10486657 2.20973313 -1.10486657 2.20973313 0 0 Z " fill="#F18D26" transform="translate(310,180)"/>
<path d="M0 0 C7.92 0 15.84 0 24 0 C24 0.66 24 1.32 24 2 C22.02 2.33 20.04 2.66 18 3 C17.9906543 4.10923828 17.98130859 5.21847656 17.97167969 6.36132812 C17.93157898 10.50658206 17.86576602 14.6511094 17.79248047 18.79589844 C17.76438666 20.5842144 17.74311486 22.37265186 17.72900391 24.16113281 C17.70741249 26.74346602 17.66068291 29.32435619 17.609375 31.90625 C17.60753204 33.09112 17.60753204 33.09112 17.60565186 34.29992676 C17.46089548 39.88051408 16.23145648 44.37910988 13 49 C8.26579918 53.07572306 4.09654899 53.427828 -2 53 C-1.01 52.34 -0.02 51.68 1 51 C3.73833809 48.93196722 5.72017329 47.3555731 6.43521118 43.89169312 C6.57879543 41.28212641 6.56198247 38.71797212 6.48828125 36.10546875 C6.48120651 35.15811356 6.47413177 34.21075836 6.46684265 33.23469543 C6.43892334 30.21814979 6.37618915 27.2034816 6.3125 24.1875 C6.28741396 22.13869874 6.26460133 20.0898683 6.24414062 18.04101562 C6.18910459 13.02662379 6.10284856 8.01362986 6 3 C3.03 2.505 3.03 2.505 0 2 C0 1.34 0 0.68 0 0 Z " fill="#F1912E" transform="translate(201,180)"/>
<path d="M0 0 C7.92 0 15.84 0 24 0 C24 0.66 24 1.32 24 2 C22.02 2.66 20.04 3.32 18 4 C17.98541748 5.11971191 17.97083496 6.23942383 17.95581055 7.39306641 C17.89765114 11.56428274 17.82041977 15.73496919 17.73754883 19.90576172 C17.70438227 21.70775729 17.67632475 23.50985467 17.65356445 25.31201172 C17.61986568 27.90896823 17.56754351 30.50499866 17.51171875 33.1015625 C17.50213387 34.30191635 17.50213387 34.30191635 17.49235535 35.52651978 C17.36560139 40.39540637 16.65507131 43.76896648 14 48 C9.06520105 52.56468903 5.62401551 53.12498142 -1 53 C-0.01 52.34 0.98 51.68 2 51 C4.32852144 49.55990626 4.32852144 49.55990626 6 47 C6.56136917 43.65972461 6.46468628 40.36294207 6.390625 36.984375 C6.38496521 36.01340881 6.37930542 35.04244263 6.37347412 34.04205322 C6.35110311 30.94419831 6.30090473 27.84750467 6.25 24.75 C6.22993597 22.64845422 6.21168503 20.54689028 6.1953125 18.4453125 C6.1512358 13.2964283 6.08220258 8.14841097 6 3 C3.03 2.505 3.03 2.505 0 2 C0 1.34 0 0.68 0 0 Z " fill="#F1922F" transform="translate(170,180)"/>
<path d="M0 0 C1.91385236 -0.1624969 3.83168095 -0.27862512 5.75 -0.375 C6.81734375 -0.44460937 7.8846875 -0.51421875 8.984375 -0.5859375 C12 0 12 0 14.125 2.40625 C16.56179054 6.70176033 18.39276779 11.3075845 20.25 15.875 C20.61351562 16.75414062 20.97703125 17.63328125 21.3515625 18.5390625 C22.24016099 20.69040621 23.12278624 22.84399501 24 25 C24.79211929 23.10435574 25.58367576 21.20847629 26.375 19.3125 C26.81585938 18.25675781 27.25671875 17.20101562 27.7109375 16.11328125 C28.13632812 15.08589844 28.56171875 14.05851563 29 13 C29.38027344 12.09894531 29.76054687 11.19789063 30.15234375 10.26953125 C31.55740415 6.50759535 31.25509024 3.76527071 30 0 C33.63 0 37.26 0 41 0 C41 0.66 41 1.32 41 2 C40.39478516 2.57790283 39.78957031 3.15580566 39.16601562 3.7512207 C36.65303486 6.36022271 35.66724139 8.617967 34.34375 11.98046875 C33.87839844 13.14513672 33.41304688 14.30980469 32.93359375 15.50976562 C32.46050781 16.72341797 31.98742187 17.93707031 31.5 19.1875 C30.55335507 21.57732706 29.60546277 23.96666044 28.65625 26.35546875 C28.20765625 27.48903809 27.7590625 28.62260742 27.296875 29.79052734 C25.63226212 33.91006819 23.8413943 37.95674979 22 42 C21.34 42 20.68 42 20 42 C19.5560791 40.92516357 19.1121582 39.85032715 18.65478516 38.74291992 C17.00682869 34.75524254 15.35464201 30.7693295 13.70117188 26.78393555 C12.98614859 25.05882833 12.27227322 23.33324487 11.55957031 21.60717773 C10.53491854 19.12617898 9.50615009 16.64692255 8.4765625 14.16796875 C8.15877838 13.39599655 7.84099426 12.62402435 7.51358032 11.82865906 C6.19925037 8.67367186 4.90175245 5.85262867 3 3 C2.01 2.67 1.02 2.34 0 2 C0 1.34 0 0.68 0 0 Z " fill="#F18F2A" transform="translate(254,180)"/>
<path d="M0 0 C1.77007714 -0.08114106 3.54122098 -0.13925505 5.3125 -0.1875 C6.29863281 -0.22230469 7.28476563 -0.25710937 8.30078125 -0.29296875 C11 0 11 0 12.64111328 1.0144043 C14.76825185 4.1225642 14.44085352 7.42311958 14.44140625 11.0625 C14.45461411 11.85019775 14.46782196 12.63789551 14.48143005 13.44946289 C14.52233406 15.96634457 14.54399869 18.48286105 14.5625 21 C14.58628634 23.51702753 14.61440694 26.03371093 14.65428162 28.55053711 C14.67863457 30.11633318 14.69349648 31.68231174 14.69789124 33.24829102 C14.75206568 37.02866598 14.8512534 38.7768801 17 42 C11.39 42 5.78 42 0 42 C0.99 40.35 1.98 38.7 3 37 C3.28626863 34.37082972 3.42153848 31.98715764 3.3984375 29.36328125 C3.40130768 28.64262985 3.40417786 27.92197845 3.40713501 27.17948914 C3.40916816 25.66416635 3.40369083 24.14881687 3.39111328 22.63354492 C3.37497669 20.30914238 3.39102175 17.98645989 3.41015625 15.66210938 C3.40817506 14.18749616 3.40433397 12.71288401 3.3984375 11.23828125 C3.40451019 10.54245438 3.41058289 9.8466275 3.4168396 9.12971497 C3.41983248 6.9667056 3.41983248 6.9667056 3 4 C2.01 3.34 1.02 2.68 0 2 C0 1.34 0 0.68 0 0 Z " fill="#F1902C" transform="translate(233,180)"/>
<path d="M0 0 C0.66 0 1.32 0 2 0 C2.83986084 1.93467942 3.67168027 3.87285129 4.5 5.8125 C4.9640625 6.89144531 5.428125 7.97039062 5.90625 9.08203125 C7 12 7 12 7 15 C1.06 15.495 1.06 15.495 -5 16 C1.93 16.495 1.93 16.495 9 17 C9 17.33 9 17.66 9 18 C4.05 18.33 -0.9 18.66 -6 19 C-7.32 22.63 -8.64 26.26 -10 30 C-9.01 30.33 -8.02 30.66 -7 31 C-7 31.33 -7 31.66 -7 32 C-10.3 32 -13.6 32 -17 32 C-17 31.34 -17 30.68 -17 30 C-16.31393677 29.32650513 -16.31393677 29.32650513 -15.61401367 28.6394043 C-13.76772704 26.76407307 -13.09795224 25.22285408 -12.17578125 22.76953125 C-11.86962891 21.96708984 -11.56347656 21.16464844 -11.24804688 20.33789062 C-10.93931641 19.50451172 -10.63058594 18.67113281 -10.3125 17.8125 C-9.99216797 16.96751953 -9.67183594 16.12253906 -9.34179688 15.25195312 C-8.55393312 13.17058172 -7.77365745 11.08668461 -7 9 C-6.01 9.66 -5.02 10.32 -4 11 C-2.68 7.37 -1.36 3.74 0 0 Z " fill="#F18E29" transform="translate(309,190)"/>
<path d="M0 0 C0.33 0 0.66 0 1 0 C2.10190125 4.50563891 2.21801233 8.96907895 2.31640625 13.58203125 C2.33718735 14.39621017 2.35796844 15.2103891 2.37937927 16.04924011 C2.44449463 18.63691179 2.50358208 21.22468053 2.5625 23.8125 C2.60572142 25.57227545 2.64933685 27.33204128 2.69335938 29.09179688 C2.8001368 33.39443309 2.90151018 37.69716643 3 42 C3.66 41.34 4.32 40.68 5 40 C4.31092878 43.65943647 3.43178734 47.22441959 2.4375 50.8125 C2.16808594 51.78832031 1.89867187 52.76414063 1.62109375 53.76953125 C1.31365234 54.87361328 1.31365234 54.87361328 1 56 C0.67 56 0.34 56 0 56 C0 37.52 0 19.04 0 0 Z " fill="#179576" transform="translate(201,45)"/>
<path d="M0 0 C0.66 0 1.32 0 2 0 C2.83764268 1.95649397 3.66999059 3.91525556 4.5 5.875 C4.9640625 6.96554688 5.428125 8.05609375 5.90625 9.1796875 C7 12 7 12 7 14 C3.37 14 -0.26 14 -4 14 C-3.36843005 8.94744036 -1.86540627 4.70406799 0 0 Z " fill="#FCF7EF" transform="translate(309,190)"/>
<path d="M0 0 C0.66 0 1.32 0 2 0 C2 0.66 2 1.32 2 2 C5.01031744 2.93423645 5.86650268 3.04449911 9 2 C9.66 2.33 10.32 2.66 11 3 C11 4.32 11 5.64 11 7 C10.01 7.33 9.02 7.66 8 8 C8.66 8.66 9.32 9.32 10 10 C9.2575 9.814375 8.515 9.62875 7.75 9.4375 C5.02608603 9.00415005 3.59229496 9.2593443 1 10 C0 9 0 9 -0.09765625 6.93359375 C-0.08605469 6.10988281 -0.07445312 5.28617187 -0.0625 4.4375 C-0.05347656 3.61121094 -0.04445313 2.78492188 -0.03515625 1.93359375 C-0.02355469 1.29550781 -0.01195312 0.65742188 0 0 Z " fill="#C4C4C4" transform="translate(262,257)"/>
<path d="M0 0 C1.98 0 3.96 0 6 0 C8.08207071 4.40909091 8.08207071 4.40909091 7.6875 7.25 C7 9 7 9 6 10 C4.00041636 10.04080783 1.99954746 10.04254356 0 10 C0 6.7 0 3.4 0 0 Z " fill="#249676" transform="translate(340,238)"/>
<path d="M0 0 C1.67542976 0.28604898 3.34385343 0.61781233 5 1 C6.10844919 4.32534757 5.84454356 6.62182575 5 10 C3.33388095 10.042721 1.66617115 10.04063832 0 10 C-1 9 -1 9 -1.1328125 7.1875 C-1.13023437 6.465625 -1.12765625 5.74375 -1.125 5 C-1.12757813 4.278125 -1.13015625 3.55625 -1.1328125 2.8125 C-1 1 -1 1 0 0 Z " fill="#AEAEAE" transform="translate(241,257)"/>
<path d="M0 0 C1.65 0 3.3 0 5 0 C6.85776765 3.13498292 7.20140476 5.37471432 7 9 C4.69 9.33 2.38 9.66 0 10 C0 6.7 0 3.4 0 0 Z " fill="#A4A4A4" transform="translate(195,257)"/>
<path d="M0 0 C0 0.99 0 1.98 0 3 C-1.93139648 4.13525391 -1.93139648 4.13525391 -4.43359375 5.3515625 C-7.58551736 7.34907787 -8.79651837 8.28941792 -9.83642578 11.92089844 C-10.11004899 15.43248147 -10.1445188 18.85391403 -10.0625 22.375 C-10.06958984 23.58800781 -10.07667969 24.80101562 -10.08398438 26.05078125 C-10.09573814 29.03623683 -10.06645804 32.01542988 -10 35 C-10.33 35 -10.66 35 -11 35 C-11.11651725 30.62522526 -11.18736 26.25085173 -11.25 21.875 C-11.28351563 20.6375 -11.31703125 19.4 -11.3515625 18.125 C-11.47492816 6.65199366 -11.47492816 6.65199366 -7 2 C-4 0 -4 0 0 0 Z " fill="#F18312" transform="translate(361,182)"/>
<path d="M0 0 C0.99 0 1.98 0 3 0 C6 6.625 6 6.625 6 10 C5.34 10 4.68 10 4 10 C4 9.34 4 8.68 4 8 C2.35 8 0.7 8 -1 8 C-1 8.66 -1 9.32 -1 10 C-1.99 10 -2.98 10 -4 10 C-3.52449439 8.51965236 -3.04448784 7.04074979 -2.5625 5.5625 C-2.29566406 4.73878906 -2.02882812 3.91507813 -1.75390625 3.06640625 C-1 1 -1 1 0 0 Z " fill="#5FB29C" transform="translate(225,238)"/>
<path d="M0 0 C0.99 0 1.98 0 3 0 C3 2.64 3 5.28 3 8 C3.99 8 4.98 8 6 8 C6 5.36 6 2.72 6 0 C6.99 0 7.98 0 9 0 C9.36174071 6.39075249 9.36174071 6.39075249 7.8125 9 C6 10 6 10 3.375 9.75 C1 9 1 9 0 8 C-0.14115161 5.32941149 -0.04247107 2.67567762 0 0 Z " fill="#45A287" transform="translate(120,238)"/>
<path d="M0 0 C0.99 0.33 1.98 0.66 3 1 C3.94921875 3.06640625 3.94921875 3.06640625 4.6875 5.5625 C5.06455078 6.80193359 5.06455078 6.80193359 5.44921875 8.06640625 C5.63097656 8.70449219 5.81273437 9.34257812 6 10 C4.906875 9.814375 3.81375 9.62875 2.6875 9.4375 C-0.93624133 8.7421932 -0.93624133 8.7421932 -4 10 C-3.52449439 8.51965236 -3.04448784 7.04074979 -2.5625 5.5625 C-2.29566406 4.73878906 -2.02882813 3.91507813 -1.75390625 3.06640625 C-1 1 -1 1 0 0 Z " fill="#3A9D82" transform="translate(354,238)"/>
<path d="M0 0 C0.99 0.33 1.98 0.66 3 1 C3.94921875 3.06640625 3.94921875 3.06640625 4.6875 5.5625 C5.06455078 6.80193359 5.06455078 6.80193359 5.44921875 8.06640625 C5.63097656 8.70449219 5.81273437 9.34257812 6 10 C4.906875 9.814375 3.81375 9.62875 2.6875 9.4375 C-0.93624133 8.7421932 -0.93624133 8.7421932 -4 10 C-3.52449439 8.51965236 -3.04448784 7.04074979 -2.5625 5.5625 C-2.29566406 4.73878906 -2.02882813 3.91507813 -1.75390625 3.06640625 C-1 1 -1 1 0 0 Z " fill="#399D81" transform="translate(291,238)"/>
<path d="M0 0 C0.66 0 1.32 0 2 0 C2 3.3 2 6.6 2 10 C-0.375 10.625 -0.375 10.625 -3 11 C-3.66 10.34 -4.32 9.68 -5 9 C-4.625 6.375 -4.625 6.375 -4 4 C-2.68 3.67 -1.36 3.34 0 3 C0 2.01 0 1.02 0 0 Z " fill="#B1B1B1" transform="translate(223,256)"/>
<path d="M0 0 C1.60332791 -0.08121924 3.20784026 -0.13929134 4.8125 -0.1875 C6.15248047 -0.23970703 6.15248047 -0.23970703 7.51953125 -0.29296875 C10 0 10 0 11.63671875 1.13085938 C13.60979044 3.83605938 13.3397225 5.87970237 13.29296875 9.19921875 C13.28330078 10.40771484 13.27363281 11.61621094 13.26367188 12.86132812 C13.23853516 14.12396484 13.21339844 15.38660156 13.1875 16.6875 C13.17396484 17.96173828 13.16042969 19.23597656 13.14648438 20.54882812 C13.11108199 23.69964057 13.0616979 26.84961045 13 30 C12.67 30 12.34 30 12 30 C11.97494385 29.25314941 11.9498877 28.50629883 11.92407227 27.73681641 C11.80831787 24.36602733 11.68549872 20.99553217 11.5625 17.625 C11.52318359 16.449375 11.48386719 15.27375 11.44335938 14.0625 C11.38051758 12.38027344 11.38051758 12.38027344 11.31640625 10.6640625 C11.27974854 9.62717285 11.24309082 8.5902832 11.20532227 7.52197266 C11.15835777 5.00574834 11.15835777 5.00574834 10 3 C6.97065509 2.34227572 6.97065509 2.34227572 4 2 C3.67 2.66 3.34 3.32 3 4 C2.01 3.34 1.02 2.68 0 2 C0 1.34 0 0.68 0 0 Z " fill="#F19A3F" transform="translate(116,180)"/>
<path d="M0 0 C0.99 0 1.98 0 3 0 C3.33 1.65 3.66 3.3 4 5 C4.66 5 5.32 5 6 5 C6.1546875 4.0409375 6.1546875 4.0409375 6.3125 3.0625 C6.539375 2.381875 6.76625 1.70125 7 1 C7.99 0.67 8.98 0.34 10 0 C10 2.97 10 5.94 10 9 C9.34 9 8.68 9 8 9 C7.67 8.01 7.34 7.02 7 6 C6.67 6.66 6.34 7.32 6 8 C5.01 7.67 4.02 7.34 3 7 C3 6.01 3 5.02 3 4 C2.34 4 1.68 4 1 4 C1 5.65 1 7.3 1 9 C0.67 9 0.34 9 0 9 C0 6.03 0 3.06 0 0 Z " fill="#198E6D" transform="translate(208,238)"/>
<path d="M0 0 C0.99 0.33 1.98 0.66 3 1 C3.94921875 3.06640625 3.94921875 3.06640625 4.6875 5.5625 C5.06455078 6.80193359 5.06455078 6.80193359 5.44921875 8.06640625 C5.63097656 8.70449219 5.81273437 9.34257812 6 10 C-1.75 9.125 -1.75 9.125 -4 8 C-2.68 5.36 -1.36 2.72 0 0 Z " fill="#42A287" transform="translate(170,238)"/>
<path d="M0 0 C1.5 1.375 1.5 1.375 3 3 C3 3.66 3 4.32 3 5 C6.63 5 10.26 5 14 5 C14 5.33 14 5.66 14 6 C8.06 6.495 8.06 6.495 2 7 C8.93 7.495 8.93 7.495 16 8 C16 8.33 16 8.66 16 9 C13.37549914 9.22119939 10.75129514 9.42746669 8.125 9.625 C7.37863281 9.68945312 6.63226563 9.75390625 5.86328125 9.8203125 C3.9129953 9.96087365 1.95530533 9.98759849 0 10 C-0.66 9.34 -1.32 8.68 -2 8 C-1.63723355 5.17042171 -0.90305236 2.70915709 0 0 Z " fill="#F19635" transform="translate(302,199)"/>
<path d="M0 0 C4 2 4 2 5 3 C5.33 2.01 5.66 1.02 6 0 C6.66 0 7.32 0 8 0 C8 3.3 8 6.6 8 10 C6.35 8.35 4.7 6.7 3 5 C2.67 6.32 2.34 7.64 2 9 C1.34 9 0.68 9 0 9 C0 6.03 0 3.06 0 0 Z " fill="#1F9372" transform="translate(363,238)"/>
<path d="M0 0 C4 2 4 2 5 3 C5.33 2.01 5.66 1.02 6 0 C6.66 0 7.32 0 8 0 C8 3.3 8 6.6 8 10 C6.35 8.35 4.7 6.7 3 5 C2.67 6.32 2.34 7.64 2 9 C1.34 9 0.68 9 0 9 C0 6.03 0 3.06 0 0 Z " fill="#259373" transform="translate(300,238)"/>
<path d="M0 0 C4 2 4 2 5 4 C5.33 2.68 5.66 1.36 6 0 C6.66 0 7.32 0 8 0 C8 3.3 8 6.6 8 10 C7.34 10 6.68 10 6 10 C4.375 7.5 4.375 7.5 3 5 C2.67 6.32 2.34 7.64 2 9 C1.34 9 0.68 9 0 9 C0 6.03 0 3.06 0 0 Z " fill="#1D9272" transform="translate(179,238)"/>
<path d="M0 0 C4 2 4 2 5 4 C5.33 2.68 5.66 1.36 6 0 C6.66 0 7.32 0 8 0 C8 2.97 8 5.94 8 9 C5 8 5 8 3 5 C2.67 6.32 2.34 7.64 2 9 C1.34 9 0.68 9 0 9 C0 6.03 0 3.06 0 0 Z " fill="#168F6D" transform="translate(276,238)"/>
<path d="M0 0 C0.66 0 1.32 0 2 0 C2 0.99 2 1.98 2 3 C3.32 2.01 4.64 1.02 6 0 C6.66 0.33 7.32 0.66 8 1 C7.34 1.66 6.68 2.32 6 3 C6.35355436 5.26274788 6.97544426 6.95088852 8 9 C7.01 9 6.02 9 5 9 C4.67 8.34 4.34 7.68 4 7 C3.67 7.99 3.34 8.98 3 10 C2.01 10 1.02 10 0 10 C0 6.7 0 3.4 0 0 Z " fill="#2D9878" transform="translate(375,238)"/>
<path d="M0 0 C0.99 0 1.98 0 3 0 C3.33 1.98 3.66 3.96 4 6 C4.66 6 5.32 6 6 6 C6.33 4.02 6.66 2.04 7 0 C7.99 0 8.98 0 10 0 C8.94124926 3.40312738 7.99097846 6.01353231 6 9 C4.68 8.67 3.36 8.34 2 8 C1.34 5.36 0.68 2.72 0 0 Z " fill="#359D80" transform="translate(155,238)"/>
<path d="M0 0 C2.31 0 4.62 0 7 0 C7 0.66 7 1.32 7 2 C5.35 2 3.7 2 2 2 C2 2.66 2 3.32 2 4 C3.32 4 4.64 4 6 4 C6 4.66 6 5.32 6 6 C5.01 6 4.02 6 3 6 C3 7.32 3 8.64 3 10 C2.01 10 1.02 10 0 10 C0 6.7 0 3.4 0 0 Z " fill="#3AA084" transform="translate(260,238)"/>
<path d="M0 0 C5.28 0 10.56 0 16 0 C14.35 2.64 12.7 5.28 11 8 C10.67 7.34 10.34 6.68 10 6 C10.66 4.68 11.32 3.36 12 2 C8.04 2 4.08 2 0 2 C0 1.34 0 0.68 0 0 Z " fill="#2E9D80" transform="translate(290,33)"/>
<path d="M0 0 C0.94875 0.04125 1.8975 0.0825 2.875 0.125 C2.875 0.785 2.875 1.445 2.875 2.125 C1.225 2.455 -0.425 2.785 -2.125 3.125 C-2.125 4.445 -2.125 5.765 -2.125 7.125 C-0.475 7.455 1.175 7.785 2.875 8.125 C2.545 8.785 2.215 9.445 1.875 10.125 C-0.5 10.25 -0.5 10.25 -3.125 10.125 C-5.125 8.125 -5.125 8.125 -5.375 5.125 C-5.02345647 0.90647769 -4.22997422 0.16919897 0 0 Z " fill="#289678" transform="translate(317.125,237.875)"/>
<path d="M0 0 C1.65 0.33 3.3 0.66 5 1 C5 3.31 5 5.62 5 8 C3.35 8 1.7 8 0 8 C0 5.33333333 0 2.66666667 0 0 Z " fill="#A6A6A6" transform="translate(230,259)"/>
<path d="M0 0 C2.31 0 4.62 0 7 0 C7 0.66 7 1.32 7 2 C5.35 2 3.7 2 2 2 C2 2.66 2 3.32 2 4 C3.32 4.33 4.64 4.66 6 5 C4.68 5 3.36 5 2 5 C2 5.99 2 6.98 2 8 C3.65 8 5.3 8 7 8 C7 8.33 7 8.66 7 9 C4.69 9 2.38 9 0 9 C0 6.03 0 3.06 0 0 Z " fill="#178F6E" transform="translate(323,238)"/>
<path d="M0 0 C1.65 0 3.3 0 5 0 C5 0.66 5 1.32 5 2 C3.68 2 2.36 2 1 2 C1 2.66 1 3.32 1 4 C2.32 4.33 3.64 4.66 5 5 C5 6.32 5 7.64 5 9 C3.02 9 1.04 9 -1 9 C0.32 8.67 1.64 8.34 3 8 C3 7.34 3 6.68 3 6 C1.68 5.67 0.36 5.34 -1 5 C-0.67 3.35 -0.34 1.7 0 0 Z " fill="#1E8F6E" transform="translate(199,238)"/>
<path d="M0 0 C1.32 0.66 2.64 1.32 4 2 C4 2.99 4 3.98 4 5 C2.68 5 1.36 5 0 5 C0 5.66 0 6.32 0 7 C0.99 7.33 1.98 7.66 3 8 C1.35 7.67 -0.3 7.34 -2 7 C-2.125 4.625 -2.125 4.625 -2 2 C-1.34 1.34 -0.68 0.68 0 0 Z " fill="#9E9E9E" transform="translate(301,259)"/>
<path d="M0 0 C2.125 0.375 2.125 0.375 4 1 C4 2.32 4 3.64 4 5 C3.01 5.33 2.02 5.66 1 6 C1.66 6.66 2.32 7.32 3 8 C1.68 7.67 0.36 7.34 -1 7 C-1.625 4.625 -1.625 4.625 -2 2 C-1.34 1.34 -0.68 0.68 0 0 Z " fill="#9E9E9E" transform="translate(269,259)"/>
<path d="M0 0 C0.05384521 2.29141286 0.09272087 4.58318188 0.125 6.875 C0.14820313 8.15117188 0.17140625 9.42734375 0.1953125 10.7421875 C0 14 0 14 -2 16 C-2 11.38 -2 6.76 -2 2 C-2.66 1.67 -3.32 1.34 -4 1 C-2 0 -2 0 0 0 Z " fill="#DEB533" transform="translate(271,86)"/>
<path d="M0 0 C0.66 0 1.32 0 2 0 C2 2.64 2 5.28 2 8 C3.65 8 5.3 8 7 8 C7 8.66 7 9.32 7 10 C4.69 10 2.38 10 0 10 C0 6.7 0 3.4 0 0 Z " fill="#30997C" transform="translate(234,238)"/>
<path d="M0 0 C0.66 0 1.32 0 2 0 C2 0.66 2 1.32 2 2 C2.66 2 3.32 2 4 2 C4 2.66 4 3.32 4 4 C3.34 4 2.68 4 2 4 C2 5.32 2 6.64 2 8 C2.99 8 3.98 8 5 8 C5 8.66 5 9.32 5 10 C3.35 9.67 1.7 9.34 0 9 C0 6.03 0 3.06 0 0 Z " fill="#A5A5A5" transform="translate(256,257)"/>
<path d="M0 0 C2.475 0.495 2.475 0.495 5 1 C5.33 2.65 5.66 4.3 6 6 C3.50907189 7.24546405 2.58919267 6.7767578 0 6 C0 4.02 0 2.04 0 0 Z " fill="#83C4B4" transform="translate(342,240)"/>
<path d="M0 0 C0.66 0 1.32 0 2 0 C2 2.64 2 5.28 2 8 C3.32 8 4.64 8 6 8 C6 8.66 6 9.32 6 10 C4.02 10 2.04 10 0 10 C0 6.7 0 3.4 0 0 Z " fill="#A0A0A0" transform="translate(283,257)"/>
<path d="M0 0 C0.66 0 1.32 0 2 0 C2.02689216 1.47906892 2.04634621 2.95827483 2.0625 4.4375 C2.07410156 5.26121094 2.08570313 6.08492187 2.09765625 6.93359375 C2 9 2 9 1 10 C-0.66617115 10.04063832 -2.33388095 10.042721 -4 10 C-4 9.34 -4 8.68 -4 8 C-2.68 8 -1.36 8 0 8 C0 5.36 0 2.72 0 0 Z " fill="#259677" transform="translate(135,238)"/>
<path d="M0 0 C0.66 0.33 1.32 0.66 2 1 C0.63016497 4.16115776 0.0109362 4.9927092 -3 7 C-3.99 6.67 -4.98 6.34 -6 6 C-5 3 -5 3 -2.5625 1.25 C-1.716875 0.8375 -0.87125 0.425 0 0 Z " fill="#F1881D" transform="translate(146,213)"/>
<path d="M0 0 C1.65 0.33 3.3 0.66 5 1 C5 1.99 5 2.98 5 4 C2.69 4.33 0.38 4.66 -2 5 C-1.34 3.35 -0.68 1.7 0 0 Z " fill="#BBBBBB" transform="translate(197,262)"/>
<path d="M0 0 C0.66 0 1.32 0 2 0 C2 2.97 2 5.94 2 9 C1.34 9 0.68 9 0 9 C-2 6 -2 6 -1.6875 3.375 C-1 1 -1 1 0 0 Z " fill="#2A9677" transform="translate(216,238)"/>
<path d="M0 0 C0 0.99 0 1.98 0 3 C-1.98 3.99 -3.96 4.98 -6 6 C-6.66 5.01 -7.32 4.02 -8 3 C-4.93882432 0.37613513 -4.26826873 0 0 0 Z " fill="#F18A22" transform="translate(361,182)"/>
<path d="M0 0 C0.33 0.66 0.66 1.32 1 2 C6.61 2.33 12.22 2.66 18 3 C18 3.33 18 3.66 18 4 C15.37549914 4.22119939 12.75129514 4.42746669 10.125 4.625 C9.37863281 4.68945312 8.63226563 4.75390625 7.86328125 4.8203125 C5.9129953 4.96087365 3.95530533 4.98759849 2 5 C1.34 4.34 0.68 3.68 0 3 C0 2.01 0 1.02 0 0 Z " fill="#F3A14F" transform="translate(300,204)"/>
<path d="M0 0 C1.32 0 2.64 0 4 0 C3.625 2.9375 3.625 2.9375 3 6 C2.01 6.495 2.01 6.495 1 7 C0.67 4.69 0.34 2.38 0 0 Z " fill="#F1891E" transform="translate(287,182)"/>
<path d="M0 0 C0.66 0 1.32 0 2 0 C2 0.99 2 1.98 2 3 C2.99 3.33 3.98 3.66 5 4 C3.68 4 2.36 4 1 4 C1 4.99 1 5.98 1 7 C0.01 7 -0.98 7 -2 7 C-1.34 4.69 -0.68 2.38 0 0 Z " fill="#31997C" transform="translate(223,241)"/>
<path d="M0 0 C0.99 0.33 1.98 0.66 3 1 C3.33 1.99 3.66 2.98 4 4 C3.67 4.66 3.34 5.32 3 6 C2.01 6 1.02 6 0 6 C-0.38218767 4.34385343 -0.71395102 2.67542976 -1 1 C-0.67 0.67 -0.34 0.34 0 0 Z " fill="#5BB098" transform="translate(354,238)"/>
<path d="M0 0 C0.99 0.33 1.98 0.66 3 1 C3.33 1.99 3.66 2.98 4 4 C3.67 4.66 3.34 5.32 3 6 C2.01 6 1.02 6 0 6 C-0.38218767 4.34385343 -0.71395102 2.67542976 -1 1 C-0.67 0.67 -0.34 0.34 0 0 Z " fill="#5BB099" transform="translate(291,238)"/>
<path d="M0 0 C0.99 0 1.98 0 3 0 C1.94124926 3.40312738 0.99097846 6.01353231 -1 9 C-1.66 8.67 -2.32 8.34 -3 8 C-2.01 5.36 -1.02 2.72 0 0 Z " fill="#2A9575" transform="translate(162,238)"/>
<path d="M0 0 C0.99 0.495 0.99 0.495 2 1 C3.09658936 4.28976808 2.79953138 5.71303767 2 9 C1.34 9 0.68 9 0 9 C0 6.03 0 3.06 0 0 Z " fill="#169272" transform="translate(300,238)"/>
<path d="M0 0 C0.66 0 1.32 0 2 0 C2.33 1.98 2.66 3.96 3 6 C2.34 6 1.68 6 1 6 C1 5.34 1 4.68 1 4 C-0.65 4 -2.3 4 -4 4 C-2.68 3.67 -1.36 3.34 0 3 C0 2.01 0 1.02 0 0 Z " fill="#4CA78D" transform="translate(228,242)"/>
</svg>
